<svg width="16" height="17" viewBox="0 0 16 17" fill="none" xmlns="http://www.w3.org/2000/svg">
<path d="M8 15.0967C4.13401 15.0967 1 11.9627 1 8.09668C1 4.23069 4.13401 1.09668 8 1.09668C11.866 1.09668 15 4.23069 15 8.09668C15 11.9627 11.866 15.0967 8 15.0967ZM8 16.0967C12.4183 16.0967 16 12.515 16 8.09668C16 3.6784 12.4183 0.0966797 8 0.0966797C3.58172 0.0966797 0 3.6784 0 8.09668C0 12.515 3.58172 16.0967 8 16.0967Z" fill="#087990"/>
<path d="M5.25511 5.88283C5.24752 6.01905 5.3599 6.12939 5.49634 6.12939H6.32082C6.45889 6.12939 6.56868 6.01681 6.58723 5.87999C6.67618 5.22386 7.1265 4.74561 7.92922 4.74561C8.61477 4.74561 9.24318 5.08838 9.24318 5.91357C9.24318 6.54834 8.86867 6.84033 8.27834 7.28467C7.60549 7.77344 7.07229 8.34473 7.11037 9.27148L7.11334 9.48829C7.11521 9.62501 7.22658 9.73486 7.36332 9.73486H8.17434C8.31241 9.73486 8.42434 9.62293 8.42434 9.48486V9.37939C8.42434 8.66211 8.69729 8.45264 9.43361 7.89404C10.043 7.43066 10.6778 6.9165 10.6778 5.8374C10.6778 4.32666 9.40188 3.59668 8.00539 3.59668C6.73831 3.59668 5.34964 4.18729 5.25511 5.88283ZM6.81203 11.6455C6.81203 12.1787 7.23732 12.5723 7.82131 12.5723C8.43068 12.5723 8.84963 12.1787 8.84963 11.6455C8.84963 11.0933 8.43068 10.7061 7.82131 10.7061C7.23732 10.7061 6.81203 11.0933 6.81203 11.6455Z" fill="#087990"/>
</svg>
