<svg width="430" height="100" viewBox="0 0 430 100" fill="none" xmlns="http://www.w3.org/2000/svg">
<g clip-path="url(#clip0_1494_14429)">
<rect width="430" height="100" fill="white"/>
<path d="M459 42.3365L391.734 34.0908L459 115.479V42.3365Z" fill="#0598C8"/>
<path d="M391.733 34.0908L357.455 74.5531L442.38 94.6633L391.733 34.0908Z" fill="#1AB6E6"/>
<path d="M345.588 69.8752L311.893 115.479L399.003 105.367L345.588 69.8752Z" fill="#CBE32D"/>
<path d="M318.565 106.34L369.254 86.2302L399.003 106.34H318.565Z" fill="#ADD500"/>
<path d="M345.588 69.8752L279.509 84.6083L311.893 115.479L345.588 69.8752Z" fill="#6FD3E2"/>
<path d="M441.716 14.8716L402.161 35.6305L441.716 41.4689V14.8716Z" fill="#0068A5"/>
<path d="M441.716 14.8716L402.161 35.6305L441.716 41.4689V14.8716Z" fill="black" fill-opacity="0.2"/>
<path d="M279.675 84.6084L313.745 113.195H226.825L279.675 84.6084Z" fill="#44B5DC"/>
<path d="M345.655 70.0122L441.716 94.0147V106.34H399.336L345.655 70.0122Z" fill="#2598E2"/>
<path d="M207.245 107.049L133.478 81.75L129.433 107.049H207.245Z" fill="#ADD500"/>
<path d="M127.1 71.4907L76.1238 48.6614L59.2142 90.3649L152.125 105L127.1 71.4907Z" fill="#27AAE1"/>
<path d="M59.2142 90.3647L14.5243 105H152.125L59.2142 90.3647Z" fill="#0068A5"/>
<path d="M76.124 48.6614L14.5244 69.6388L59.2144 90.3649L76.124 48.6614Z" fill="#1AB6E6"/>
<path d="M14.5244 69.6388L-0.527688 28.0664L-36.9999 37.9815L14.5244 69.6388Z" fill="#0598C8"/>
<path d="M14.5244 69.6392L-36.9999 105V37.9819L14.5244 69.6392Z" fill="#0069A5"/>
<path d="M14.5244 69.6387V105H-36.9999L14.5244 69.6387Z" fill="#2598E2"/>
<path d="M14.5244 69.6387L59.2144 90.3648L14.5244 105V69.6387Z" fill="#2598E2"/>
<path d="M33.1336 97.8335L127.1 71.491L152.125 105L33.1336 97.8335Z" fill="#CCEC00"/>
<path d="M80.1602 105L59.2142 90.3647L14.5242 105H80.1602Z" fill="#ADD500"/>
<path d="M55.5054 56.0907L-0.488901 28.1162L14.4224 69.7396L55.5054 56.0907Z" fill="#0598C8"/>
</g>
<defs>
<clipPath id="clip0_1494_14429">
<rect width="430" height="100" fill="white"/>
</clipPath>
</defs>
</svg>
