<svg width="195" height="140" viewBox="0 0 195 140" fill="none" xmlns="http://www.w3.org/2000/svg">
<g clip-path="url(#clip0_1517_13340)">
<path fill-rule="evenodd" clip-rule="evenodd" d="M89.2865 32.1204C89.2865 31.2298 89.4704 30.4098 89.8346 29.657C90.2023 28.9042 90.695 28.2751 91.3194 27.7732C91.9438 27.2713 92.6723 26.879 93.5084 26.6033C94.3444 26.3241 95.2291 26.1863 96.1623 26.1863C97.7268 26.1863 98.9826 26.5963 99.9297 27.4198C100.877 28.2397 101.349 29.3778 101.349 30.8304C101.349 31.8765 101.022 32.7566 100.37 33.4741C99.7181 34.1915 98.9653 34.5485 98.1119 34.5485C97.1579 34.5485 96.6202 34.1314 96.4918 33.2973C96.027 34.1314 95.3782 34.5485 94.5526 34.5485C93.8865 34.5485 93.3349 34.2728 92.8978 33.725C92.4607 33.1736 92.2977 32.4774 92.4087 31.6291C92.5197 30.7809 92.884 30.0882 93.5015 29.551C94.1224 29.0137 94.8371 28.7451 95.6488 28.7451C96.4606 28.7451 97.092 28.9749 97.536 29.4308C97.9835 29.8902 98.157 30.5194 98.0564 31.3181L97.8968 32.5587C97.8552 32.8768 97.9662 33.0358 98.2264 33.0358C98.5178 33.0358 98.8231 32.8308 99.1353 32.4208C99.4475 32.0108 99.6036 31.4772 99.6036 30.8162C99.6036 29.8266 99.274 29.0314 98.6149 28.4341C97.9558 27.8368 97.0677 27.5399 95.9576 27.5399C95.0175 27.5399 94.171 27.7449 93.4147 28.1514C92.6585 28.5578 92.0722 29.1127 91.6524 29.8125C91.2327 30.5123 91.0245 31.2828 91.0245 32.1239C91.0245 33.2443 91.3749 34.142 92.0791 34.8171C92.7834 35.4922 93.8033 35.8314 95.1423 35.8314L94.8128 37.1851C93.1337 37.1851 91.7947 36.7186 90.7921 35.789C89.7895 34.856 89.2865 33.6366 89.2865 32.1204ZM96.1761 30.5971C95.9715 30.3568 95.7182 30.2366 95.4129 30.2366C95.1076 30.2366 94.8197 30.3603 94.5526 30.6042C94.2855 30.8481 94.1259 31.1944 94.0669 31.6433C94.0114 32.0921 94.0808 32.435 94.282 32.6753C94.4832 32.9156 94.7365 33.0358 95.0452 33.0358C95.354 33.0358 95.6419 32.9121 95.909 32.6682C96.1761 32.4244 96.3357 32.078 96.3877 31.6291C96.4467 31.1803 96.3773 30.8374 96.1727 30.5971H96.1761Z" fill="#00A9D7"/>
<g filter="url(#filter0_d_1517_13340)">
<path fill-rule="evenodd" clip-rule="evenodd" d="M51.5378 102.348C61.7923 100.334 72.0535 98.3155 82.3079 96.3011C92.5624 94.2867 102.824 92.2684 113.085 90.254C113.87 90.0997 114.744 90.4045 115.004 90.9255C117.204 95.3441 119.415 99.7665 121.615 104.185C123.816 108.604 126.016 113.026 128.216 117.441C128.477 117.962 127.853 118.556 126.845 118.753C113.681 121.327 100.517 123.893 87.3598 126.467C74.2024 129.041 61.0383 131.615 47.8844 134.185C46.8767 134.382 46.1056 134.069 46.181 133.479C46.8116 128.52 47.4388 123.553 48.0729 118.595C48.7035 113.636 49.3341 108.673 49.9716 103.707C50.047 103.116 50.7496 102.51 51.5413 102.352L51.5378 102.348Z" fill="#44B5DC"/>
<path d="M127.934 115.381L45.8507 131.511L46.1937 133.723L128.277 117.593L127.934 115.381Z" fill="#44B5DC" stroke="#44B5DC" stroke-width="0.22" stroke-miterlimit="22.93"/>
<path fill-rule="evenodd" clip-rule="evenodd" d="M51.2157 100.256C61.4701 98.242 71.7246 96.2237 81.9824 94.2093C92.2368 92.1949 102.502 90.1767 112.763 88.1584C113.548 88.004 114.422 88.305 114.679 88.826C116.876 93.233 119.079 97.6438 121.276 102.047C123.476 106.454 125.69 110.857 127.887 115.26C128.148 115.781 127.524 116.372 126.516 116.568C113.352 119.154 100.188 121.739 87.0342 124.329C73.8803 126.914 60.7161 129.504 47.5588 132.089C46.5512 132.286 45.7903 131.97 45.8657 131.379C46.4964 126.42 47.1236 121.454 47.7576 116.495C48.3882 111.532 49.0188 106.57 49.6563 101.607C49.7317 101.017 50.424 100.411 51.2192 100.256H51.2157Z" fill="#F1F7F6"/>
<path fill-rule="evenodd" clip-rule="evenodd" d="M109.579 92.9358C110.264 92.8008 110.95 92.6657 111.646 92.5306C111.875 92.4843 112.122 92.5731 112.194 92.7197C112.355 93.0439 112.502 93.3719 112.653 93.7038C112.722 93.8543 112.574 94.0164 112.341 94.0627C111.639 94.2016 110.946 94.3367 110.244 94.4756C110.004 94.5219 109.767 94.4331 109.702 94.2826C109.562 93.9508 109.418 93.6227 109.267 93.2947C109.198 93.1442 109.339 92.9821 109.579 92.9358Z" fill="#44B5DC"/>
<path fill-rule="evenodd" clip-rule="evenodd" d="M110.497 94.8076C111.125 94.6841 111.762 94.5606 112.4 94.4332C112.698 94.3754 112.999 94.4795 113.082 94.6648C113.284 95.1124 113.496 95.5523 113.698 96C113.781 96.1814 113.613 96.382 113.315 96.4399C112.663 96.5673 112.016 96.6946 111.371 96.822C111.073 96.8798 110.758 96.7795 110.679 96.5943C110.491 96.1466 110.295 95.699 110.103 95.2513C110.024 95.0661 110.196 94.8693 110.494 94.8114L110.497 94.8076Z" fill="#44B5DC"/>
<path fill-rule="evenodd" clip-rule="evenodd" d="M111.519 97.1653C112.163 97.0379 112.807 96.9106 113.462 96.7832C113.76 96.7253 114.075 96.8257 114.161 97.0109C114.367 97.4547 114.569 97.9023 114.768 98.3461C114.853 98.5313 114.675 98.732 114.377 98.7899C113.709 98.9211 113.047 99.0523 112.393 99.1797C112.088 99.2414 111.765 99.1411 111.683 98.952C111.495 98.5082 111.313 98.0567 111.118 97.609C111.035 97.4238 111.21 97.2231 111.515 97.1653H111.519Z" fill="#44B5DC"/>
<path fill-rule="evenodd" clip-rule="evenodd" d="M112.54 99.5308C113.201 99.3996 113.863 99.2722 114.531 99.141C114.836 99.0793 115.148 99.1873 115.23 99.3687C115.433 99.8163 115.645 100.256 115.847 100.704C115.93 100.885 115.744 101.09 115.433 101.152C114.754 101.287 114.086 101.418 113.407 101.549C113.102 101.611 112.787 101.503 112.708 101.321C112.516 100.87 112.317 100.43 112.125 99.9784C112.046 99.797 112.235 99.5925 112.54 99.5308Z" fill="#44B5DC"/>
<path fill-rule="evenodd" clip-rule="evenodd" d="M113.565 101.893C114.233 101.761 114.912 101.626 115.59 101.495C115.906 101.433 116.228 101.53 116.313 101.715C116.519 102.159 116.721 102.607 116.92 103.05C117.006 103.236 116.817 103.436 116.505 103.498C115.81 103.633 115.124 103.768 114.439 103.903C114.117 103.965 113.794 103.865 113.716 103.679C113.527 103.236 113.339 102.788 113.143 102.34C113.061 102.155 113.253 101.954 113.568 101.893H113.565Z" fill="#44B5DC"/>
<path fill-rule="evenodd" clip-rule="evenodd" d="M114.576 104.254C115.272 104.119 115.957 103.984 116.649 103.845C116.971 103.783 117.301 103.884 117.383 104.065C117.585 104.513 117.797 104.953 118 105.4C118.082 105.586 117.89 105.786 117.568 105.848C116.858 105.987 116.156 106.126 115.453 106.265C115.131 106.326 114.809 106.226 114.73 106.045C114.538 105.593 114.346 105.149 114.154 104.702C114.075 104.517 114.264 104.316 114.579 104.254H114.576Z" fill="#44B5DC"/>
<path fill-rule="evenodd" clip-rule="evenodd" d="M105.932 93.6536C106.618 93.5185 107.303 93.3835 107.999 93.2484C108.232 93.2021 108.472 93.2908 108.54 93.4413C108.684 93.7694 108.818 94.1012 108.959 94.4331C109.024 94.5875 108.88 94.7457 108.64 94.7959C107.944 94.9309 107.241 95.0698 106.549 95.2049C106.309 95.2512 106.069 95.1663 106.008 95.012C105.874 94.6801 105.747 94.3482 105.614 94.0163C105.552 93.8658 105.692 93.7038 105.932 93.6536Z" fill="#44B5DC"/>
<path fill-rule="evenodd" clip-rule="evenodd" d="M103.393 96.2045C105.144 95.8611 106.895 95.5176 108.657 95.1703C108.972 95.1086 109.294 95.2205 109.377 95.4173C109.562 95.8534 109.74 96.2856 109.918 96.7178C110 96.9146 109.812 97.1268 109.497 97.1886C107.704 97.5398 105.918 97.8909 104.133 98.2421C103.818 98.3038 103.492 98.1958 103.42 97.9913C103.266 97.5552 103.115 97.1153 102.954 96.6753C102.882 96.4747 103.084 96.2624 103.393 96.2007V96.2045Z" fill="#44B5DC"/>
<path fill-rule="evenodd" clip-rule="evenodd" d="M106.727 98.107C107.694 97.9179 108.66 97.7288 109.627 97.5359C109.949 97.4741 110.292 97.5822 110.371 97.7829C110.542 98.2189 110.727 98.6473 110.912 99.0795C110.998 99.2763 110.799 99.4924 110.467 99.558C109.476 99.7548 108.492 99.9478 107.509 100.141C107.187 100.202 106.864 100.087 106.789 99.8899C106.621 99.4538 106.443 99.0216 106.289 98.5855C106.217 98.3849 106.402 98.1726 106.724 98.107H106.727Z" fill="#44B5DC"/>
<path fill-rule="evenodd" clip-rule="evenodd" d="M104.692 101.071C106.666 100.681 108.643 100.295 110.617 99.9053C110.939 99.8436 111.279 99.9516 111.361 100.148C111.546 100.584 111.728 101.017 111.913 101.445C111.999 101.642 111.783 101.858 111.45 101.924C109.442 102.317 107.427 102.715 105.418 103.108C105.089 103.174 104.76 103.062 104.692 102.861C104.537 102.425 104.387 101.985 104.232 101.545C104.16 101.345 104.363 101.132 104.695 101.067L104.692 101.071Z" fill="#44B5DC"/>
<path fill-rule="evenodd" clip-rule="evenodd" d="M109.596 102.672C110.275 102.537 110.95 102.406 111.639 102.271C111.954 102.209 112.266 102.309 112.345 102.494C112.533 102.942 112.728 103.39 112.91 103.837C112.989 104.027 112.794 104.227 112.478 104.289C111.783 104.424 111.09 104.563 110.405 104.698C110.089 104.76 109.771 104.659 109.695 104.47C109.524 104.023 109.356 103.567 109.178 103.12C109.102 102.931 109.288 102.734 109.593 102.672H109.596Z" fill="#44B5DC"/>
<path fill-rule="evenodd" clip-rule="evenodd" d="M110.535 105.049C111.221 104.914 111.923 104.775 112.619 104.64C112.934 104.579 113.263 104.679 113.342 104.86C113.531 105.308 113.722 105.756 113.908 106.207C113.983 106.392 113.781 106.597 113.459 106.659C112.749 106.798 112.036 106.936 111.344 107.075C111.022 107.137 110.7 107.041 110.628 106.852C110.456 106.4 110.275 105.949 110.103 105.497C110.031 105.312 110.223 105.111 110.535 105.049Z" fill="#44B5DC"/>
<path fill-rule="evenodd" clip-rule="evenodd" d="M102.57 94.3134C103.166 94.1977 103.759 94.078 104.356 93.9623C104.589 93.9159 104.825 94.0047 104.887 94.1552C105.024 94.4871 105.144 94.819 105.271 95.1547C105.329 95.3091 105.185 95.4711 104.945 95.5174C104.342 95.6371 103.739 95.7528 103.136 95.8725C102.896 95.9188 102.656 95.8339 102.604 95.6795C102.488 95.3438 102.371 95.0081 102.244 94.6762C102.186 94.5218 102.34 94.3597 102.57 94.3134Z" fill="#44B5DC"/>
<path fill-rule="evenodd" clip-rule="evenodd" d="M99.1496 94.985C99.746 94.8693 100.339 94.7496 100.935 94.6339C101.168 94.5876 101.405 94.6763 101.46 94.8307C101.58 95.1625 101.7 95.4983 101.813 95.834C101.864 95.9884 101.717 96.1505 101.477 96.1968C100.874 96.3164 100.27 96.4322 99.6671 96.5518C99.4272 96.5981 99.1942 96.5093 99.1428 96.355C99.0331 96.0192 98.9303 95.6797 98.8172 95.3439C98.7623 95.1896 98.9131 95.0275 99.153 94.9812L99.1496 94.985Z" fill="#44B5DC"/>
<path fill-rule="evenodd" clip-rule="evenodd" d="M95.7292 95.6564C96.3255 95.5406 96.9184 95.421 97.5148 95.3053C97.7478 95.2589 97.9775 95.3477 98.0323 95.5021C98.1488 95.8378 98.2448 96.1774 98.351 96.5131C98.399 96.6675 98.2379 96.8334 98.0083 96.8797C97.4051 96.9994 96.8019 97.1151 96.1987 97.2348C95.9588 97.2811 95.7292 97.1923 95.6812 97.0379C95.5818 96.6984 95.4927 96.3588 95.3865 96.023C95.3385 95.8687 95.4893 95.7027 95.7292 95.6564Z" fill="#44B5DC"/>
<path fill-rule="evenodd" clip-rule="evenodd" d="M92.3053 96.3319C92.9017 96.2161 93.4946 96.0965 94.091 95.9807C94.3309 95.9344 94.5434 96.027 94.5913 96.1814C94.6907 96.521 94.7901 96.8567 94.8861 97.1963C94.9306 97.3507 94.773 97.5166 94.5331 97.5629C93.9299 97.6825 93.3267 97.7983 92.7235 97.9179C92.4904 97.9642 92.2574 97.8755 92.2162 97.7173C92.1271 97.3777 92.0449 97.0342 91.9558 96.6946C91.9146 96.5364 92.0757 96.3705 92.3088 96.328L92.3053 96.3319Z" fill="#44B5DC"/>
<path fill-rule="evenodd" clip-rule="evenodd" d="M88.8849 97.0033C89.4812 96.8876 90.0742 96.7679 90.6705 96.6522C90.9001 96.6058 91.1298 96.6946 91.1709 96.8528C91.26 97.1924 91.3491 97.532 91.4314 97.8755C91.4691 98.0337 91.3011 98.1996 91.0646 98.2459C90.4614 98.3656 89.8582 98.4813 89.255 98.601C89.0151 98.6473 88.7889 98.5585 88.7547 98.4003C88.6827 98.0568 88.6107 97.7134 88.5285 97.3699C88.4908 97.2117 88.6553 97.0458 88.8883 96.9995L88.8849 97.0033Z" fill="#44B5DC"/>
<path fill-rule="evenodd" clip-rule="evenodd" d="M85.4645 97.6747C86.0608 97.5589 86.6537 97.4393 87.2501 97.3235C87.4797 97.2772 87.7025 97.3698 87.7402 97.5241C87.8224 97.8637 87.8876 98.2111 87.9595 98.5545C87.9904 98.7127 87.8293 98.8787 87.5928 98.925C86.9896 99.0446 86.3864 99.1604 85.7832 99.28C85.5433 99.3263 85.3274 99.2376 85.3 99.0755C85.2417 98.7282 85.1663 98.3847 85.0978 98.0413C85.0635 97.883 85.2348 97.7171 85.4645 97.6708V97.6747Z" fill="#44B5DC"/>
<path fill-rule="evenodd" clip-rule="evenodd" d="M82.0509 98.3463C82.6473 98.2305 83.2402 98.1109 83.8365 97.9951C84.0696 97.9488 84.2821 98.0414 84.3095 98.1996C84.3746 98.5431 84.4295 98.8904 84.4946 99.2377C84.5254 99.3959 84.3575 99.5619 84.1279 99.6082C83.5247 99.7278 82.9215 99.8436 82.3114 99.967C82.0783 100.013 81.8624 99.9207 81.8384 99.7625C81.7836 99.4152 81.7288 99.0679 81.6671 98.7206C81.6396 98.5624 81.811 98.3926 82.0509 98.3463Z" fill="#44B5DC"/>
<path fill-rule="evenodd" clip-rule="evenodd" d="M78.6237 99.0216C79.22 98.9058 79.8129 98.7862 80.4093 98.6704C80.6492 98.6241 80.8583 98.7167 80.8822 98.8749C80.9371 99.2222 80.9885 99.5695 81.0433 99.9169C81.0673 100.075 80.8891 100.245 80.6492 100.291C80.046 100.411 79.4428 100.527 78.8396 100.646C78.6065 100.693 78.394 100.6 78.3735 100.438C78.3323 100.087 78.2844 99.7393 78.2364 99.392C78.2158 99.2299 78.3906 99.064 78.6202 99.0177L78.6237 99.0216Z" fill="#44B5DC"/>
<path fill-rule="evenodd" clip-rule="evenodd" d="M75.1998 99.6929C75.7962 99.5772 76.3891 99.4575 76.9855 99.3418C77.2254 99.2954 77.431 99.3881 77.4516 99.5501C77.4995 99.8974 77.5372 100.249 77.5784 100.6C77.5989 100.762 77.4173 100.932 77.1774 100.978C76.5742 101.098 75.971 101.213 75.3678 101.333C75.1279 101.379 74.9257 101.287 74.9085 101.125C74.8777 100.773 74.8434 100.422 74.8057 100.071C74.7886 99.909 74.9668 99.7392 75.1998 99.6968V99.6929Z" fill="#44B5DC"/>
<path fill-rule="evenodd" clip-rule="evenodd" d="M71.7896 100.364C72.386 100.249 72.9789 100.129 73.5752 100.013C73.8083 99.967 74.0105 100.063 74.0242 100.226C74.055 100.577 74.0927 100.928 74.1202 101.279C74.1304 101.441 73.9591 101.611 73.7192 101.657C73.116 101.777 72.5128 101.893 71.9096 102.012C71.6696 102.059 71.4606 101.966 71.4503 101.804C71.4297 101.449 71.4057 101.098 71.3783 100.743C71.368 100.581 71.5566 100.411 71.7862 100.364H71.7896Z" fill="#44B5DC"/>
<path fill-rule="evenodd" clip-rule="evenodd" d="M68.3658 101.036C68.9622 100.92 69.5551 100.8 70.1514 100.685C70.3845 100.638 70.5798 100.735 70.5936 100.897C70.6175 101.248 70.6347 101.603 70.6552 101.958C70.6655 102.12 70.477 102.29 70.244 102.336C69.6408 102.456 69.0376 102.572 68.4344 102.691C68.1945 102.738 67.9888 102.645 67.9854 102.479C67.9785 102.124 67.9614 101.769 67.9477 101.414C67.9408 101.252 68.1259 101.082 68.3658 101.032V101.036Z" fill="#44B5DC"/>
<path fill-rule="evenodd" clip-rule="evenodd" d="M64.9454 101.707C65.5417 101.592 66.1346 101.472 66.731 101.356C66.964 101.31 67.1594 101.406 67.1628 101.568C67.1765 101.923 67.1834 102.278 67.1937 102.637C67.1971 102.799 67.0086 102.973 66.7687 103.019C66.1655 103.139 65.5623 103.255 64.9591 103.374C64.726 103.421 64.5272 103.324 64.5272 103.162C64.5272 102.803 64.5272 102.448 64.5238 102.089C64.5238 101.923 64.7089 101.754 64.9488 101.707H64.9454Z" fill="#44B5DC"/>
<path fill-rule="evenodd" clip-rule="evenodd" d="M61.5181 102.383C62.1145 102.267 62.7074 102.147 63.3037 102.032C63.5505 101.981 63.739 102.082 63.7356 102.244C63.7356 102.603 63.7356 102.958 63.7321 103.317C63.7321 103.483 63.5471 103.652 63.2969 103.702C62.6937 103.822 62.0905 103.938 61.4873 104.058C61.2474 104.104 61.0657 104.007 61.0691 103.841C61.076 103.483 61.0828 103.124 61.0897 102.765C61.0931 102.599 61.2851 102.429 61.5147 102.383H61.5181Z" fill="#44B5DC"/>
<path fill-rule="evenodd" clip-rule="evenodd" d="M58.1046 103.05C58.7009 102.934 59.2938 102.815 59.8902 102.699C60.1198 102.653 60.3117 102.749 60.3083 102.915C60.3014 103.274 60.2843 103.637 60.2706 103.996C60.2637 104.162 60.0752 104.331 59.8353 104.382C59.2321 104.501 58.6289 104.617 58.0257 104.737C57.7858 104.783 57.6008 104.69 57.6076 104.521C57.6282 104.162 57.6419 103.799 57.6624 103.436C57.6727 103.27 57.8749 103.097 58.1046 103.05Z" fill="#44B5DC"/>
<path fill-rule="evenodd" clip-rule="evenodd" d="M54.2626 103.807C54.948 103.672 55.6438 103.537 56.3292 103.401C56.5623 103.355 56.7405 103.452 56.7302 103.621C56.7062 103.984 56.6925 104.347 56.6685 104.706C56.6583 104.876 56.456 105.045 56.2161 105.092C55.5204 105.227 54.8178 105.366 54.1255 105.501C53.8856 105.547 53.7039 105.451 53.7176 105.281C53.7485 104.918 53.7759 104.555 53.8136 104.189C53.8307 104.019 54.033 103.845 54.266 103.803L54.2626 103.807Z" fill="#44B5DC"/>
<path fill-rule="evenodd" clip-rule="evenodd" d="M99.6397 96.9414C100.26 96.818 100.88 96.6983 101.508 96.5748C101.795 96.517 102.087 96.6211 102.148 96.8064C102.306 97.2656 102.464 97.7248 102.625 98.1802C102.69 98.3654 102.505 98.5622 102.217 98.6201C101.573 98.7475 100.935 98.8709 100.308 98.9944C100.02 99.0523 99.7288 98.9481 99.6671 98.7629C99.5163 98.3037 99.3758 97.8406 99.2318 97.3814C99.1736 97.1961 99.3518 96.9993 99.6397 96.9414Z" fill="#44B5DC"/>
<path fill-rule="evenodd" clip-rule="evenodd" d="M95.8629 97.6824C96.4832 97.5589 97.1035 97.4393 97.7307 97.3158C98.0186 97.2579 98.3065 97.3621 98.3614 97.5512C98.5053 98.0143 98.639 98.4773 98.7898 98.9366C98.8515 99.1218 98.6527 99.3225 98.3648 99.3765C97.7273 99.5 97.0933 99.6273 96.4558 99.7508C96.1679 99.8087 95.8834 99.7006 95.832 99.5154C95.6984 99.0523 95.5716 98.5893 95.4379 98.1262C95.3865 97.9409 95.575 97.7403 95.8629 97.6862V97.6824Z" fill="#44B5DC"/>
<path fill-rule="evenodd" clip-rule="evenodd" d="M92.0861 98.4233C92.7064 98.2998 93.3267 98.1802 93.9539 98.0567C94.2418 97.9988 94.5194 98.1068 94.5708 98.2921C94.6976 98.759 94.8245 99.2221 94.9581 99.6852C95.013 99.8704 94.8142 100.071 94.516 100.129C93.8785 100.252 93.2445 100.38 92.6139 100.503C92.3157 100.561 92.0449 100.453 91.997 100.268C91.8839 99.8009 91.7673 99.3379 91.6508 98.8671C91.6062 98.6818 91.7947 98.4812 92.0861 98.4233Z" fill="#44B5DC"/>
<path fill-rule="evenodd" clip-rule="evenodd" d="M88.3091 99.1681C88.9295 99.0446 89.5498 98.9249 90.177 98.8014C90.4649 98.7436 90.7288 98.8555 90.7768 99.0407C90.8933 99.5076 90.9996 99.9784 91.1127 100.442C91.1572 100.627 90.9584 100.827 90.6705 100.885C90.0262 101.013 89.3887 101.136 88.7615 101.26C88.4737 101.318 88.1926 101.209 88.1549 101.02C88.059 100.55 87.963 100.079 87.8602 99.608C87.819 99.4189 88.0213 99.2182 88.3091 99.1603V99.1681Z" fill="#44B5DC"/>
<path fill-rule="evenodd" clip-rule="evenodd" d="M84.5322 99.909C85.1526 99.7855 85.7729 99.6659 86.4001 99.5424C86.688 99.4845 86.9519 99.5964 86.9896 99.7855C87.0856 100.256 87.1781 100.727 87.2775 101.198C87.3152 101.387 87.1096 101.588 86.8182 101.646C86.1808 101.769 85.5467 101.896 84.9092 102.02C84.6213 102.078 84.354 101.966 84.3197 101.777C84.2341 101.306 84.145 100.835 84.0661 100.357C84.0353 100.168 84.2443 99.963 84.5322 99.909Z" fill="#44B5DC"/>
<path fill-rule="evenodd" clip-rule="evenodd" d="M80.7555 100.65C81.3758 100.526 81.9961 100.407 82.6233 100.283C82.9112 100.225 83.1648 100.337 83.1991 100.526C83.2779 101.001 83.3602 101.476 83.4459 101.947C83.4801 102.136 83.2676 102.34 82.9695 102.398C82.332 102.522 81.698 102.649 81.0673 102.772C80.7692 102.83 80.5155 102.718 80.4847 102.529C80.4127 102.055 80.3476 101.58 80.2791 101.101C80.2516 100.912 80.4573 100.708 80.7555 100.65Z" fill="#44B5DC"/>
<path fill-rule="evenodd" clip-rule="evenodd" d="M76.9717 101.395C77.5921 101.271 78.2193 101.148 78.8396 101.028C79.1275 100.97 79.388 101.082 79.4154 101.271C79.4839 101.75 79.5353 102.228 79.6039 102.703C79.6313 102.892 79.4085 103.101 79.1206 103.155C78.4832 103.278 77.8388 103.405 77.2116 103.529C76.9237 103.587 76.6667 103.475 76.6461 103.282C76.5913 102.803 76.5467 102.325 76.4919 101.842C76.4679 101.65 76.6873 101.445 76.9752 101.391L76.9717 101.395Z" fill="#44B5DC"/>
<path fill-rule="evenodd" clip-rule="evenodd" d="M73.1948 102.136C73.8152 102.012 74.4424 101.889 75.0627 101.769C75.3506 101.711 75.6111 101.823 75.6282 102.016C75.6728 102.499 75.7173 102.977 75.7653 103.459C75.7859 103.652 75.5562 103.857 75.2649 103.915C74.6274 104.038 73.9934 104.166 73.3628 104.289C73.0646 104.347 72.8213 104.235 72.8041 104.042C72.7596 103.564 72.7322 103.077 72.6979 102.595C72.6842 102.402 72.9001 102.198 73.188 102.14L73.1948 102.136Z" fill="#44B5DC"/>
<path fill-rule="evenodd" clip-rule="evenodd" d="M69.418 102.881C70.0384 102.757 70.6655 102.634 71.2859 102.514C71.5738 102.456 71.824 102.572 71.8343 102.765C71.8685 103.251 71.8994 103.733 71.9302 104.216C71.9439 104.409 71.7109 104.617 71.423 104.675C70.7787 104.802 70.1412 104.926 69.514 105.049C69.2261 105.107 68.9828 104.991 68.9725 104.799C68.9451 104.316 68.9382 103.83 68.9176 103.34C68.9108 103.147 69.1267 102.942 69.418 102.884V102.881Z" fill="#44B5DC"/>
<path fill-rule="evenodd" clip-rule="evenodd" d="M65.6445 103.622C66.2648 103.498 66.892 103.375 67.5124 103.255C67.8003 103.197 68.0368 103.313 68.047 103.51C68.0676 104 68.0813 104.482 68.095 104.968C68.1019 105.165 67.8688 105.37 67.5775 105.428C66.94 105.551 66.306 105.678 65.6685 105.802C65.3806 105.86 65.1373 105.744 65.1338 105.547C65.1236 105.061 65.1338 104.571 65.127 104.081C65.1236 103.888 65.3532 103.679 65.6445 103.622Z" fill="#44B5DC"/>
<path fill-rule="evenodd" clip-rule="evenodd" d="M61.8677 104.362C62.488 104.239 63.1152 104.115 63.7355 103.996C64.0234 103.938 64.2599 104.054 64.2599 104.25C64.2599 104.74 64.2565 105.231 64.2599 105.721C64.2599 105.917 64.0234 106.126 63.7253 106.184C63.0878 106.307 62.4537 106.435 61.8231 106.558C61.5249 106.616 61.2953 106.5 61.2987 106.303C61.309 105.813 61.3262 105.319 61.333 104.829C61.333 104.632 61.5764 104.424 61.8642 104.366L61.8677 104.362Z" fill="#44B5DC"/>
<path fill-rule="evenodd" clip-rule="evenodd" d="M58.0908 105.107C58.7111 104.984 59.3383 104.86 59.9587 104.74C60.2466 104.683 60.4728 104.802 60.4659 104.999C60.4522 105.493 60.4385 105.987 60.4213 106.477C60.4145 106.674 60.1712 106.886 59.8798 106.94C59.2355 107.067 58.598 107.191 57.9708 107.314C57.6727 107.372 57.4533 107.257 57.4636 107.056C57.491 106.562 57.5219 106.068 57.5493 105.57C57.5596 105.373 57.8029 105.161 58.0908 105.107Z" fill="#44B5DC"/>
<path fill-rule="evenodd" clip-rule="evenodd" d="M54.1803 105.875C54.8178 105.752 55.4518 105.624 56.0893 105.501C56.3772 105.443 56.6034 105.562 56.5897 105.767C56.5588 106.257 56.5349 106.751 56.504 107.241C56.4903 107.446 56.2298 107.658 55.9316 107.72C55.277 107.847 54.6327 107.974 53.9884 108.102C53.6902 108.16 53.4709 108.04 53.488 107.835C53.5326 107.341 53.5703 106.847 53.6148 106.354C53.6319 106.149 53.889 105.937 54.1803 105.879V105.875Z" fill="#44B5DC"/>
<path fill-rule="evenodd" clip-rule="evenodd" d="M54.0055 108.468C55.3456 108.206 56.6754 107.944 58.012 107.681C58.3342 107.619 58.5878 107.743 58.5741 107.963C58.5432 108.438 58.533 108.908 58.5124 109.379C58.5021 109.599 58.2177 109.831 57.8921 109.892C56.528 110.159 55.1742 110.425 53.8102 110.695C53.488 110.757 53.2344 110.633 53.255 110.413C53.2995 109.939 53.3338 109.464 53.3818 108.986C53.4023 108.766 53.6868 108.534 53.9987 108.472L54.0055 108.468Z" fill="#44B5DC"/>
<path fill-rule="evenodd" clip-rule="evenodd" d="M53.7794 111.077C55.4005 110.761 57.0181 110.44 58.6461 110.12C58.9751 110.054 59.2424 110.178 59.2322 110.394C59.2116 110.869 59.191 111.343 59.1705 111.814C59.1602 112.03 58.8826 112.258 58.5501 112.323C56.8879 112.651 55.2462 112.972 53.5909 113.296C53.2618 113.361 53.0014 113.238 53.0185 113.018C53.0631 112.543 53.0973 112.065 53.1453 111.586C53.1659 111.366 53.4503 111.139 53.7725 111.073L53.7794 111.077Z" fill="#44B5DC"/>
<path fill-rule="evenodd" clip-rule="evenodd" d="M53.56 113.686C55.9316 113.219 58.3102 112.752 60.6921 112.285C61.0211 112.219 61.2953 112.339 61.2885 112.555C61.2748 113.026 61.2679 113.497 61.2611 113.963C61.2576 114.18 60.9732 114.411 60.6407 114.477C58.2108 114.955 55.7911 115.43 53.3783 115.905C53.039 115.97 52.7717 115.847 52.7922 115.627C52.8368 115.152 52.8848 114.677 52.9293 114.195C52.9499 113.979 53.2344 113.747 53.5634 113.682L53.56 113.686Z" fill="#44B5DC"/>
<path fill-rule="evenodd" clip-rule="evenodd" d="M53.344 116.287C54.3517 116.09 55.3593 115.889 56.3669 115.692C56.7062 115.627 56.9735 115.75 56.9632 115.966C56.9393 116.441 56.9016 116.916 56.8776 117.387C56.8673 117.603 56.5794 117.834 56.2332 117.904C55.2085 118.104 54.1837 118.305 53.159 118.509C52.8128 118.579 52.5421 118.455 52.5626 118.239C52.6072 117.765 52.6483 117.29 52.6894 116.812C52.71 116.595 53.0013 116.356 53.3406 116.291L53.344 116.287Z" fill="#44B5DC"/>
<path fill-rule="evenodd" clip-rule="evenodd" d="M59.6503 107.361C60.3289 107.23 61.0143 107.095 61.6929 106.96C62.0082 106.898 62.2619 107.021 62.255 107.234C62.2413 107.708 62.2379 108.183 62.2276 108.654C62.2242 108.866 61.9637 109.09 61.6415 109.155C60.9458 109.29 60.2535 109.429 59.5577 109.564C59.2424 109.626 58.9854 109.503 58.9957 109.29C59.0162 108.816 59.0368 108.341 59.0642 107.863C59.0745 107.65 59.3384 107.423 59.6503 107.361Z" fill="#44B5DC"/>
<path fill-rule="evenodd" clip-rule="evenodd" d="M63.5745 106.589C64.2599 106.454 64.9385 106.323 65.624 106.188C65.9393 106.126 66.1998 106.25 66.2032 106.462C66.2032 106.933 66.2135 107.407 66.2272 107.874C66.234 108.083 65.9701 108.31 65.6583 108.372C64.9557 108.511 64.2599 108.646 63.5676 108.781C63.2454 108.843 62.9884 108.719 62.9884 108.507C62.9884 108.036 62.9987 107.562 63.0055 107.087C63.009 106.875 63.2626 106.651 63.5745 106.589Z" fill="#44B5DC"/>
<path fill-rule="evenodd" clip-rule="evenodd" d="M67.509 105.817C68.1944 105.682 68.873 105.551 69.5654 105.412C69.8807 105.35 70.1343 105.474 70.1446 105.686C70.1651 106.153 70.1926 106.624 70.2165 107.087C70.2268 107.295 69.9766 107.519 69.6647 107.581C68.9622 107.72 68.2698 107.855 67.5741 107.99C67.2519 108.051 66.9846 107.932 66.9778 107.72C66.9641 107.253 66.9641 106.782 66.9538 106.307C66.9503 106.095 67.2005 105.871 67.5056 105.813L67.509 105.817Z" fill="#44B5DC"/>
<path fill-rule="evenodd" clip-rule="evenodd" d="M71.4503 105.042C72.1289 104.91 72.8144 104.775 73.493 104.64C73.8083 104.579 74.0825 104.698 74.0962 104.907C74.127 105.373 74.1681 105.837 74.2093 106.3C74.2298 106.508 73.9796 106.732 73.6643 106.794C72.9686 106.929 72.2763 107.068 71.5805 107.203C71.2584 107.264 70.9911 107.145 70.9774 106.936C70.9465 106.473 70.9157 106.006 70.8951 105.536C70.8848 105.327 71.1247 105.103 71.4469 105.042H71.4503Z" fill="#44B5DC"/>
<path fill-rule="evenodd" clip-rule="evenodd" d="M75.3746 104.27C76.0601 104.135 76.7387 104.003 77.4241 103.868C77.7395 103.807 78.0239 103.926 78.0445 104.131C78.0925 104.594 78.1542 105.057 78.209 105.516C78.233 105.725 77.9931 105.944 77.6709 106.006C76.9683 106.145 76.2726 106.28 75.5803 106.419C75.265 106.481 74.9873 106.361 74.9702 106.153C74.9291 105.69 74.8777 105.227 74.84 104.764C74.8228 104.555 75.0627 104.335 75.3781 104.274L75.3746 104.27Z" fill="#44B5DC"/>
<path fill-rule="evenodd" clip-rule="evenodd" d="M79.316 103.494C79.9946 103.359 80.6697 103.228 81.3586 103.093C81.6739 103.031 81.9584 103.151 81.9858 103.355C82.0509 103.814 82.1229 104.274 82.1983 104.729C82.2326 104.933 81.9927 105.153 81.6705 105.219C80.9748 105.354 80.2824 105.493 79.5867 105.628C79.2714 105.69 78.9835 105.57 78.9595 105.366C78.9013 104.906 78.843 104.447 78.7882 103.984C78.7642 103.776 79.0041 103.556 79.316 103.494Z" fill="#44B5DC"/>
<path fill-rule="evenodd" clip-rule="evenodd" d="M83.2401 102.722C83.9187 102.587 84.6042 102.456 85.2896 102.321C85.605 102.259 85.8963 102.375 85.934 102.58C86.0162 103.035 86.1019 103.494 86.1876 103.946C86.2287 104.15 85.9991 104.37 85.6769 104.432C84.9812 104.567 84.2889 104.706 83.5931 104.841C83.271 104.903 82.9831 104.787 82.9488 104.582C82.8734 104.127 82.798 103.668 82.726 103.209C82.6952 103.004 82.9248 102.784 83.2367 102.722H83.2401Z" fill="#44B5DC"/>
<path fill-rule="evenodd" clip-rule="evenodd" d="M87.1747 101.95C87.8602 101.815 88.5388 101.684 89.2242 101.549C89.5395 101.487 89.8343 101.603 89.8788 101.808C89.9782 102.259 90.0776 102.714 90.1838 103.162C90.2318 103.363 90.0091 103.583 89.6869 103.645C88.9912 103.78 88.2988 103.919 87.6031 104.054C87.2809 104.115 86.9931 104 86.9485 103.795C86.856 103.344 86.7669 102.888 86.6777 102.433C86.6366 102.228 86.8594 102.012 87.1747 101.95Z" fill="#44B5DC"/>
<path fill-rule="evenodd" clip-rule="evenodd" d="M91.1092 101.179C91.7878 101.048 92.4733 100.912 93.1587 100.777C93.474 100.716 93.7688 100.831 93.8202 101.032C93.9298 101.484 94.0669 101.927 94.1835 102.375C94.2349 102.576 94.0087 102.796 93.6968 102.857C92.9942 102.996 92.3019 103.131 91.6062 103.266C91.284 103.328 90.9927 103.212 90.9447 103.012C90.8384 102.564 90.7322 102.109 90.6328 101.657C90.5883 101.453 90.7973 101.24 91.1126 101.179H91.1092Z" fill="#44B5DC"/>
<path fill-rule="evenodd" clip-rule="evenodd" d="M95.0403 100.403C95.7189 100.268 96.4044 100.137 97.0898 100.002C97.4051 99.94 97.7102 100.056 97.7684 100.253C97.8952 100.7 98.0323 101.148 98.1728 101.588C98.2345 101.788 98.0152 102.005 97.7033 102.066C97.0007 102.205 96.3084 102.34 95.6127 102.475C95.2974 102.537 94.9889 102.425 94.9341 102.225C94.8107 101.781 94.6839 101.329 94.5708 100.882C94.5228 100.681 94.7284 100.465 95.0403 100.403Z" fill="#44B5DC"/>
<path fill-rule="evenodd" clip-rule="evenodd" d="M98.9749 99.6311C99.6603 99.4961 100.339 99.3649 101.024 99.2298C101.34 99.168 101.648 99.2838 101.71 99.4806C101.85 99.9283 102.011 100.368 102.162 100.808C102.231 101.005 102.022 101.221 101.7 101.287C101.004 101.422 100.311 101.561 99.6158 101.696C99.3004 101.757 98.992 101.642 98.9303 101.445C98.7898 101.001 98.6458 100.557 98.519 100.11C98.4608 99.909 98.6595 99.6967 98.9749 99.635V99.6311Z" fill="#44B5DC"/>
<path fill-rule="evenodd" clip-rule="evenodd" d="M102.909 98.8595C103.588 98.7283 104.273 98.5932 104.959 98.4582C105.274 98.3964 105.593 98.5083 105.661 98.7051C105.819 99.1489 105.987 99.5889 106.155 100.025C106.23 100.222 106.032 100.434 105.709 100.5C105.007 100.639 104.314 100.774 103.619 100.909C103.303 100.97 102.988 100.858 102.916 100.662C102.762 100.222 102.608 99.7779 102.464 99.3342C102.399 99.1335 102.597 98.9212 102.909 98.8595Z" fill="#44B5DC"/>
<path fill-rule="evenodd" clip-rule="evenodd" d="M60.6613 109.726C61.3571 109.591 62.0494 109.452 62.752 109.317C63.0741 109.256 63.338 109.371 63.338 109.584C63.338 110.058 63.3312 110.529 63.3277 111.004C63.3277 111.216 63.0536 111.44 62.7314 111.505C62.0117 111.648 61.3022 111.787 60.5928 111.926C60.2706 111.988 60.0067 111.868 60.0136 111.656C60.0273 111.177 60.0444 110.703 60.065 110.228C60.0752 110.016 60.3391 109.792 60.6613 109.73V109.726Z" fill="#44B5DC"/>
<path fill-rule="evenodd" clip-rule="evenodd" d="M64.6781 108.935C65.3807 108.796 66.073 108.661 66.7687 108.526C67.0909 108.465 67.3582 108.58 67.3651 108.793C67.3719 109.263 67.3925 109.734 67.4062 110.205C67.4131 110.413 67.1492 110.637 66.8201 110.703C66.1107 110.842 65.4081 110.981 64.6952 111.12C64.3662 111.185 64.0989 111.066 64.0989 110.853C64.0989 110.379 64.0989 109.908 64.0989 109.433C64.0989 109.221 64.3628 108.997 64.6781 108.935Z" fill="#44B5DC"/>
<path fill-rule="evenodd" clip-rule="evenodd" d="M68.6948 108.148C69.3906 108.013 70.0897 107.874 70.7923 107.735C71.1076 107.673 71.3852 107.789 71.3955 107.997C71.4195 108.464 71.4606 108.931 71.4846 109.398C71.4949 109.607 71.2379 109.831 70.9157 109.892C70.196 110.035 69.4865 110.174 68.7771 110.313C68.4549 110.375 68.1807 110.259 68.1739 110.05C68.1602 109.58 68.1327 109.113 68.1259 108.642C68.1225 108.43 68.3727 108.21 68.6948 108.148Z" fill="#44B5DC"/>
<path fill-rule="evenodd" clip-rule="evenodd" d="M72.7184 107.357C73.4141 107.222 74.1065 107.083 74.809 106.948C75.1312 106.886 75.402 107.002 75.4191 107.21C75.4602 107.673 75.5082 108.14 75.5493 108.603C75.5699 108.812 75.3266 109.032 74.9941 109.094C74.2847 109.233 73.5718 109.371 72.8692 109.51C72.5402 109.576 72.2626 109.456 72.2489 109.248C72.218 108.781 72.1769 108.314 72.1495 107.847C72.1392 107.639 72.3894 107.419 72.7115 107.353L72.7184 107.357Z" fill="#44B5DC"/>
<path fill-rule="evenodd" clip-rule="evenodd" d="M76.7353 106.566C77.431 106.431 78.1233 106.292 78.8259 106.157C79.1481 106.095 79.4394 106.207 79.4634 106.415C79.5182 106.878 79.5765 107.338 79.6347 107.801C79.6621 108.005 79.4188 108.225 79.0898 108.291C78.3803 108.43 77.6675 108.569 76.958 108.711C76.6359 108.773 76.3617 108.657 76.3377 108.449C76.2897 107.986 76.2417 107.523 76.1972 107.056C76.1766 106.848 76.4131 106.631 76.7353 106.566Z" fill="#44B5DC"/>
<path fill-rule="evenodd" clip-rule="evenodd" d="M80.752 105.778C81.4477 105.643 82.1469 105.505 82.8495 105.366C83.1716 105.304 83.4629 105.416 83.4938 105.62C83.5658 106.08 83.6377 106.539 83.7166 106.994C83.7508 107.199 83.5109 107.419 83.1888 107.48C82.469 107.623 81.7596 107.762 81.057 107.901C80.728 107.967 80.4401 107.851 80.4127 107.646C80.3544 107.187 80.2824 106.724 80.2242 106.265C80.1967 106.06 80.4401 105.84 80.752 105.778Z" fill="#44B5DC"/>
<path fill-rule="evenodd" clip-rule="evenodd" d="M84.7756 104.988C85.4714 104.852 86.1637 104.714 86.8663 104.578C87.1816 104.517 87.4798 104.629 87.5175 104.833C87.6066 105.289 87.6991 105.744 87.7882 106.199C87.8294 106.404 87.5963 106.62 87.2673 106.685C86.5578 106.824 85.8552 106.963 85.1424 107.102C84.8202 107.164 84.5152 107.056 84.4809 106.848C84.4055 106.388 84.3267 105.933 84.2513 105.474C84.217 105.269 84.4501 105.053 84.7722 104.988H84.7756Z" fill="#44B5DC"/>
<path fill-rule="evenodd" clip-rule="evenodd" d="M88.7924 104.197C89.4881 104.061 90.1805 103.923 90.8831 103.787C91.2052 103.726 91.5034 103.838 91.5514 104.038C91.6576 104.49 91.7673 104.941 91.8735 105.393C91.9215 105.593 91.6919 105.81 91.3697 105.875C90.65 106.018 89.9405 106.157 89.2311 106.296C88.9089 106.358 88.6039 106.25 88.5628 106.045C88.4702 105.59 88.3777 105.134 88.2817 104.683C88.2406 104.478 88.4702 104.262 88.7958 104.2L88.7924 104.197Z" fill="#44B5DC"/>
<path fill-rule="evenodd" clip-rule="evenodd" d="M92.8092 103.409C93.5118 103.27 94.2041 103.135 94.8999 103C95.222 102.939 95.5339 103.047 95.5853 103.247C95.7018 103.699 95.8252 104.146 95.9486 104.594C96.0034 104.795 95.7738 105.011 95.4516 105.073C94.7422 105.211 94.0396 105.35 93.3267 105.489C92.9977 105.555 92.6893 105.443 92.6413 105.242C92.5316 104.791 92.4185 104.339 92.3123 103.888C92.2643 103.687 92.4939 103.471 92.8092 103.409Z" fill="#44B5DC"/>
<path fill-rule="evenodd" clip-rule="evenodd" d="M96.8225 102.618C97.5182 102.483 98.2208 102.344 98.92 102.205C99.2353 102.143 99.554 102.251 99.6123 102.452C99.746 102.9 99.8831 103.343 100.024 103.791C100.085 103.992 99.8659 104.204 99.5369 104.27C98.8275 104.409 98.1146 104.547 97.4051 104.69C97.083 104.752 96.7745 104.644 96.7197 104.443C96.5963 103.996 96.4729 103.544 96.3495 103.097C96.2947 102.896 96.5003 102.684 96.8225 102.622V102.618Z" fill="#44B5DC"/>
<path fill-rule="evenodd" clip-rule="evenodd" d="M100.85 101.827C101.545 101.692 102.238 101.553 102.94 101.418C103.262 101.356 103.574 101.464 103.643 101.661C103.794 102.105 103.951 102.545 104.106 102.989C104.174 103.185 103.965 103.398 103.643 103.463C102.923 103.606 102.214 103.745 101.511 103.884C101.182 103.95 100.863 103.841 100.802 103.641C100.661 103.197 100.521 102.749 100.38 102.306C100.318 102.105 100.527 101.893 100.853 101.831L100.85 101.827Z" fill="#44B5DC"/>
<path fill-rule="evenodd" clip-rule="evenodd" d="M62.7348 111.88C63.4442 111.741 64.1571 111.602 64.8734 111.459C65.2024 111.394 65.4732 111.513 65.4766 111.722C65.4834 112.192 65.4903 112.667 65.4903 113.134C65.4903 113.346 65.2161 113.574 64.8871 113.64C64.1605 113.782 63.4339 113.925 62.7142 114.068C62.3749 114.133 62.1076 114.014 62.111 113.802C62.111 113.331 62.1281 112.856 62.1384 112.381C62.1418 112.169 62.4126 111.945 62.7348 111.884V111.88Z" fill="#44B5DC"/>
<path fill-rule="evenodd" clip-rule="evenodd" d="M66.8406 111.073C67.5501 110.934 68.2629 110.795 68.9724 110.653C69.3014 110.587 69.5756 110.707 69.5824 110.915C69.603 111.382 69.6201 111.853 69.6476 112.32C69.6578 112.528 69.3905 112.756 69.0615 112.821C68.3349 112.964 67.6152 113.107 66.8886 113.25C66.5596 113.315 66.282 113.196 66.2785 112.983C66.2717 112.516 66.2648 112.046 66.2546 111.571C66.2511 111.363 66.5116 111.139 66.8406 111.073Z" fill="#44B5DC"/>
<path fill-rule="evenodd" clip-rule="evenodd" d="M70.9397 110.271C71.6492 110.132 72.362 109.993 73.0784 109.85C73.4005 109.788 73.6884 109.9 73.7055 110.108C73.7432 110.575 73.7707 111.042 73.8118 111.502C73.8324 111.71 73.5719 111.934 73.2429 111.999C72.506 112.142 71.7897 112.285 71.0597 112.428C70.7307 112.493 70.4496 112.374 70.4393 112.165C70.4154 111.698 70.3914 111.231 70.3674 110.765C70.3571 110.556 70.6073 110.336 70.9363 110.271H70.9397Z" fill="#44B5DC"/>
<path fill-rule="evenodd" clip-rule="evenodd" d="M75.0456 109.46C75.755 109.321 76.4679 109.182 77.1842 109.04C77.5064 108.978 77.7874 109.094 77.8114 109.298C77.8662 109.761 77.9142 110.224 77.9656 110.683C77.9896 110.892 77.7428 111.112 77.4138 111.177C76.6872 111.32 75.9607 111.463 75.2409 111.606C74.9016 111.671 74.624 111.552 74.6035 111.343C74.5623 110.88 74.5178 110.417 74.4801 109.95C74.4629 109.742 74.7131 109.522 75.0422 109.456L75.0456 109.46Z" fill="#44B5DC"/>
<path fill-rule="evenodd" clip-rule="evenodd" d="M79.1549 108.654C79.8643 108.515 80.5772 108.376 81.2866 108.233C81.6088 108.171 81.9104 108.283 81.9378 108.488C82.0029 108.947 82.0715 109.406 82.1435 109.862C82.1743 110.066 81.9207 110.29 81.5882 110.355C80.8617 110.498 80.1419 110.641 79.4153 110.784C79.0863 110.849 78.7984 110.73 78.771 110.525C78.7128 110.066 78.6613 109.603 78.6065 109.14C78.5825 108.931 78.8224 108.715 79.1514 108.65L79.1549 108.654Z" fill="#44B5DC"/>
<path fill-rule="evenodd" clip-rule="evenodd" d="M83.2539 107.851C83.9634 107.712 84.6762 107.573 85.396 107.43C85.7181 107.369 86.0197 107.48 86.0574 107.685C86.1397 108.14 86.2254 108.6 86.3111 109.051C86.3522 109.256 86.1054 109.476 85.773 109.541C85.0361 109.684 84.3198 109.827 83.5898 109.97C83.2608 110.035 82.9592 109.919 82.9283 109.715C82.8564 109.259 82.7878 108.8 82.7158 108.341C82.685 108.136 82.9215 107.917 83.2539 107.851Z" fill="#44B5DC"/>
<path fill-rule="evenodd" clip-rule="evenodd" d="M87.3598 107.04C88.0693 106.902 88.7822 106.763 89.4916 106.62C89.8138 106.558 90.1256 106.666 90.1702 106.871C90.2696 107.322 90.3621 107.778 90.4649 108.229C90.5129 108.43 90.2764 108.654 89.9371 108.719C89.2174 108.862 88.4908 109.005 87.7711 109.144C87.4421 109.209 87.1336 109.093 87.0925 108.893C87.0034 108.441 86.9211 107.982 86.8389 107.527C86.8012 107.322 87.0308 107.106 87.3598 107.04Z" fill="#44B5DC"/>
<path fill-rule="evenodd" clip-rule="evenodd" d="M91.4588 106.238C92.1682 106.099 92.8811 105.96 93.5974 105.817C93.9196 105.755 94.2349 105.863 94.2829 106.064C94.3925 106.516 94.5056 106.967 94.629 107.411C94.6839 107.612 94.4474 107.832 94.1184 107.897C93.3918 108.04 92.6652 108.183 91.9455 108.325C91.6062 108.391 91.2977 108.279 91.2497 108.075C91.1435 107.627 91.0509 107.172 90.9447 106.72C90.8967 106.519 91.1263 106.303 91.4588 106.238Z" fill="#44B5DC"/>
<path fill-rule="evenodd" clip-rule="evenodd" d="M95.5647 105.427C96.2741 105.289 96.987 105.15 97.7033 105.007C98.0255 104.945 98.3408 105.053 98.3956 105.254C98.5224 105.701 98.6492 106.149 98.7829 106.593C98.8446 106.794 98.6253 107.01 98.2962 107.075C97.5594 107.218 96.8431 107.361 96.1131 107.504C95.784 107.569 95.4653 107.457 95.4105 107.257C95.2871 106.813 95.1808 106.357 95.0643 105.91C95.0129 105.709 95.2288 105.493 95.5613 105.431L95.5647 105.427Z" fill="#44B5DC"/>
<path fill-rule="evenodd" clip-rule="evenodd" d="M99.6637 104.625C100.373 104.486 101.086 104.347 101.802 104.204C102.125 104.142 102.457 104.247 102.522 104.447C102.666 104.891 102.807 105.335 102.957 105.779C103.026 105.976 102.8 106.195 102.471 106.261C101.744 106.404 101.018 106.547 100.298 106.689C99.9585 106.755 99.6466 106.643 99.5883 106.442C99.4547 105.999 99.3141 105.555 99.1839 105.107C99.1256 104.907 99.3313 104.694 99.6637 104.629V104.625Z" fill="#44B5DC"/>
<path fill-rule="evenodd" clip-rule="evenodd" d="M103.78 103.814C105.069 103.56 106.35 103.309 107.639 103.054C107.978 102.989 108.314 103.097 108.393 103.293C108.561 103.729 108.719 104.166 108.887 104.602C108.962 104.802 108.756 105.018 108.417 105.088C107.104 105.346 105.799 105.601 104.482 105.86C104.143 105.925 103.804 105.817 103.739 105.613C103.595 105.173 103.454 104.733 103.303 104.293C103.235 104.092 103.451 103.876 103.783 103.81L103.78 103.814Z" fill="#44B5DC"/>
<path fill-rule="evenodd" clip-rule="evenodd" d="M58.4506 115.283C59.1704 115.14 59.897 114.998 60.6338 114.855C60.9628 114.789 61.2405 114.909 61.237 115.117C61.2267 115.592 61.213 116.067 61.2028 116.541C61.1993 116.754 60.9149 116.981 60.5756 117.047C59.8318 117.193 59.095 117.336 58.3513 117.483C58.012 117.549 57.7549 117.429 57.7652 117.217C57.7858 116.738 57.8063 116.263 57.8337 115.785C57.844 115.573 58.1148 115.349 58.4541 115.279L58.4506 115.283Z" fill="#44B5DC"/>
<path fill-rule="evenodd" clip-rule="evenodd" d="M62.6388 114.461C63.3654 114.319 64.0852 114.176 64.822 114.033C65.151 113.968 65.4252 114.087 65.4252 114.296C65.4252 114.766 65.4389 115.237 65.4389 115.712C65.4389 115.92 65.175 116.148 64.8357 116.213C64.092 116.36 63.3551 116.503 62.6114 116.65C62.2721 116.715 61.9979 116.599 62.0014 116.387C62.0117 115.912 62.0185 115.438 62.0288 114.963C62.0322 114.755 62.303 114.527 62.6388 114.461Z" fill="#44B5DC"/>
<path fill-rule="evenodd" clip-rule="evenodd" d="M66.8304 113.636C67.557 113.493 68.2836 113.35 69.0033 113.207C69.3426 113.142 69.6236 113.261 69.6305 113.466C69.6511 113.933 69.675 114.404 69.6956 114.87C69.7059 115.079 69.4317 115.307 69.0924 115.372C68.3555 115.515 67.6118 115.662 66.8784 115.808C66.5391 115.874 66.2615 115.758 66.258 115.546C66.2512 115.075 66.2341 114.604 66.2272 114.133C66.2238 113.925 66.5014 113.697 66.8304 113.632V113.636Z" fill="#44B5DC"/>
<path fill-rule="evenodd" clip-rule="evenodd" d="M71.0116 112.817C71.7382 112.675 72.4648 112.532 73.1948 112.389C73.5341 112.323 73.822 112.439 73.8391 112.644C73.8768 113.111 73.9077 113.574 73.9454 114.041C73.9625 114.249 73.6986 114.473 73.3593 114.538C72.6156 114.685 71.8719 114.832 71.135 114.975C70.7957 115.04 70.5113 114.924 70.4976 114.716C70.4736 114.249 70.4427 113.782 70.4256 113.311C70.4153 113.103 70.6826 112.879 71.0116 112.813V112.817Z" fill="#44B5DC"/>
<path fill-rule="evenodd" clip-rule="evenodd" d="M75.1997 111.992C75.9263 111.849 76.6529 111.706 77.3829 111.563C77.7119 111.498 78.0135 111.613 78.0341 111.818C78.0821 112.281 78.1369 112.744 78.1883 113.207C78.2123 113.416 77.9484 113.636 77.6091 113.705C76.8723 113.848 76.1285 113.994 75.3951 114.141C75.0558 114.207 74.7611 114.095 74.7439 113.886C74.7028 113.423 74.6651 112.956 74.6308 112.489C74.6137 112.285 74.8707 112.061 75.1997 111.996V111.992Z" fill="#44B5DC"/>
<path fill-rule="evenodd" clip-rule="evenodd" d="M79.3913 111.17C80.111 111.027 80.8376 110.884 81.5745 110.741C81.9035 110.676 82.2051 110.791 82.236 110.996C82.3079 111.455 82.3765 111.914 82.4416 112.374C82.4724 112.578 82.2188 112.802 81.8795 112.868C81.1358 113.014 80.3921 113.161 79.6552 113.304C79.3159 113.369 79.0177 113.257 78.9938 113.049C78.9389 112.586 78.8841 112.123 78.8292 111.664C78.8053 111.459 79.052 111.235 79.3913 111.17Z" fill="#44B5DC"/>
<path fill-rule="evenodd" clip-rule="evenodd" d="M83.5795 110.344C84.2992 110.201 85.0258 110.058 85.7627 109.915C86.0917 109.85 86.3967 109.966 86.431 110.166C86.5133 110.622 86.6024 111.077 86.6846 111.536C86.7223 111.741 86.479 111.961 86.1397 112.026C85.396 112.173 84.6522 112.32 83.9154 112.462C83.5761 112.528 83.2676 112.42 83.2368 112.211C83.1717 111.752 83.1031 111.293 83.0311 110.834C83.0003 110.633 83.2368 110.409 83.5761 110.344H83.5795Z" fill="#44B5DC"/>
<path fill-rule="evenodd" clip-rule="evenodd" d="M87.7711 109.522C88.4977 109.379 89.2174 109.236 89.944 109.093C90.2833 109.028 90.5951 109.14 90.6363 109.34C90.7357 109.792 90.8316 110.247 90.931 110.703C90.9756 110.907 90.7322 111.123 90.3929 111.193C89.6492 111.339 88.9124 111.482 88.1789 111.629C87.8396 111.694 87.5312 111.586 87.4935 111.382C87.4044 110.927 87.3187 110.471 87.2296 110.016C87.1919 109.815 87.4352 109.591 87.7676 109.526L87.7711 109.522Z" fill="#44B5DC"/>
<path fill-rule="evenodd" clip-rule="evenodd" d="M91.9524 108.7C92.6789 108.557 93.4055 108.414 94.1355 108.272C94.4748 108.206 94.7936 108.314 94.845 108.515C94.9615 108.962 95.0643 109.418 95.1809 109.869C95.2323 110.07 94.9992 110.286 94.6599 110.355C93.9093 110.502 93.1725 110.649 92.4356 110.792C92.0963 110.857 91.7776 110.749 91.733 110.548C91.6336 110.097 91.5342 109.642 91.428 109.19C91.38 108.989 91.6199 108.769 91.9489 108.704L91.9524 108.7Z" fill="#44B5DC"/>
<path fill-rule="evenodd" clip-rule="evenodd" d="M96.1405 107.878C96.8671 107.735 97.5937 107.592 98.3237 107.449C98.6527 107.384 98.9783 107.496 99.0331 107.693C99.1634 108.14 99.3004 108.584 99.4272 109.036C99.4855 109.236 99.2525 109.452 98.9132 109.518C98.1694 109.665 97.4326 109.807 96.6991 109.954C96.3598 110.02 96.0411 109.912 95.9897 109.711C95.8732 109.259 95.7532 108.812 95.6367 108.36C95.5853 108.16 95.8115 107.943 96.1405 107.878Z" fill="#44B5DC"/>
<path fill-rule="evenodd" clip-rule="evenodd" d="M100.339 107.052C101.651 106.794 102.957 106.539 104.28 106.276C104.62 106.211 104.962 106.319 105.034 106.52C105.188 106.96 105.336 107.399 105.487 107.836C105.555 108.036 105.322 108.256 104.976 108.326C103.636 108.588 102.306 108.85 100.976 109.113C100.63 109.182 100.294 109.074 100.233 108.87C100.099 108.43 99.979 107.986 99.8384 107.542C99.7733 107.342 100.003 107.118 100.342 107.052H100.339Z" fill="#44B5DC"/>
<path fill-rule="evenodd" clip-rule="evenodd" d="M106.505 105.84C107.19 105.705 107.886 105.57 108.578 105.431C108.9 105.37 109.222 105.47 109.294 105.655C109.466 106.107 109.637 106.558 109.812 107.01C109.884 107.199 109.678 107.399 109.353 107.465C108.643 107.604 107.941 107.743 107.238 107.882C106.923 107.944 106.594 107.847 106.532 107.658C106.378 107.203 106.21 106.751 106.049 106.296C105.984 106.11 106.193 105.902 106.508 105.84H106.505Z" fill="#44B5DC"/>
<path fill-rule="evenodd" clip-rule="evenodd" d="M74.0791 116.237C77.8149 115.503 81.5643 114.766 85.3103 114.029C89.0461 113.296 92.7955 112.559 96.5415 111.822C96.8808 111.756 97.2064 111.864 97.2612 112.065C97.8199 114.16 98.3751 116.26 98.9338 118.355C98.9886 118.556 98.735 118.776 98.3717 118.849C94.4132 119.629 90.4547 120.404 86.5064 121.18C82.5548 121.956 78.5997 122.735 74.6481 123.511C74.2848 123.584 73.9695 123.472 73.9557 123.264C73.7981 121.087 73.6404 118.915 73.4896 116.738C73.4759 116.53 73.7467 116.306 74.086 116.24L74.0791 116.237Z" fill="#44B5DC"/>
<path fill-rule="evenodd" clip-rule="evenodd" d="M74.1579 124.101C78.0993 123.325 82.051 122.55 85.9992 121.774C86.0746 121.759 86.1466 121.778 86.15 121.82C86.2185 122.268 86.2871 122.712 86.3659 123.152C86.3728 123.194 86.3214 123.241 86.246 123.256C82.2463 124.043 78.2535 124.827 74.2642 125.61C74.1888 125.625 74.1134 125.602 74.11 125.56C74.0791 125.108 74.0586 124.657 74.0277 124.201C74.0277 124.159 74.0825 124.113 74.1579 124.097V124.101Z" fill="#44B5DC"/>
<path fill-rule="evenodd" clip-rule="evenodd" d="M87.1815 121.539C91.1229 120.763 95.0746 119.988 99.0228 119.212C99.0982 119.196 99.1633 119.22 99.1736 119.258C99.297 119.694 99.3998 120.134 99.5198 120.566C99.5335 120.613 99.4821 120.655 99.4067 120.671C95.407 121.458 91.4142 122.241 87.4249 123.025C87.3495 123.04 87.2707 123.025 87.2638 122.974C87.1884 122.531 87.1336 122.087 87.0479 121.643C87.041 121.601 87.1027 121.554 87.1781 121.539H87.1815Z" fill="#44B5DC"/>
<path fill-rule="evenodd" clip-rule="evenodd" d="M113.28 87.2362L51.202 99.4383C50.568 99.5618 49.9579 99.0795 49.8448 98.3655L43.9019 60.0263C43.7922 59.3124 44.2206 58.6255 44.8547 58.4981L106.933 46.2998C107.567 46.1763 108.177 46.6587 108.29 47.3726L114.233 85.708C114.343 86.4219 113.914 87.1088 113.28 87.2362Z" fill="#51A1B7"/>
<path fill-rule="evenodd" clip-rule="evenodd" d="M113.28 88.2357L51.202 100.438C50.568 100.561 49.9579 100.079 49.8448 99.365L43.9019 61.0258C43.7922 60.3119 44.2206 59.625 44.8547 59.4976L106.933 47.2993C107.567 47.1758 108.177 47.6582 108.29 48.3721L114.233 86.7075C114.343 87.4214 113.914 88.1083 113.28 88.2357Z" fill="#44B5DC"/>
<path d="M105.971 50.2848L46.9543 61.8823L52.158 95.4538L111.175 83.8562L105.971 50.2848Z" fill="#F1F7F6"/>
<g clip-path="url(#clip1_1517_13340)">
<path d="M86.5359 56.2782L66.597 60.0498L67.1306 63.3633L87.0695 59.5917L86.5359 56.2782Z" fill="#818EA1"/>
<path d="M98.7894 59.0956L55.947 67.1995L56.8125 72.5743L99.6549 64.4704L98.7894 59.0956Z" fill="#FCE14A"/>
<path d="M101.701 77.1764L58.859 85.2803L59.5001 89.2613L102.342 81.1574L101.701 77.1764Z" fill="#FCE14A"/>
<path d="M67.0093 78.174L57.9908 79.8799L58.2142 81.2668L67.2326 79.5609L67.0093 78.174Z" fill="#818EA1"/>
<path d="M64.0828 81.1838L58.3737 82.2637L58.597 83.6506L64.3061 82.5707L64.0828 81.1838Z" fill="#818EA1"/>
<path d="M78.2815 76.0385L69.2631 77.7444L69.4864 79.1313L78.5048 77.4254L78.2815 76.0385Z" fill="#818EA1"/>
<path d="M75.3556 79.0514L69.6465 80.1313L69.8698 81.5183L75.579 80.4384L75.3556 79.0514Z" fill="#818EA1"/>
<path d="M89.5543 73.9098L80.5359 75.6157L80.7592 77.0027L89.7777 75.2968L89.5543 73.9098Z" fill="#818EA1"/>
<path d="M86.6316 76.9223L80.9225 78.0022L81.1458 79.3891L86.855 78.3092L86.6316 76.9223Z" fill="#818EA1"/>
<path d="M100.827 71.7743L91.8081 73.4802L92.0314 74.8672L101.05 73.1613L100.827 71.7743Z" fill="#818EA1"/>
<path d="M97.9038 74.7868L92.1947 75.8667L92.418 77.2536L98.1272 76.1737L97.9038 74.7868Z" fill="#818EA1"/>
<path fill-rule="evenodd" clip-rule="evenodd" d="M58.9919 73.7748L64.1589 72.7988C65.2182 72.5987 66.2354 73.3746 66.42 74.5227C66.6047 75.6708 65.8888 76.7732 64.8295 76.9734L59.6625 77.9494C58.6032 78.1496 57.586 77.3736 57.4013 76.2255C57.2167 75.0774 57.9326 73.975 58.9919 73.7713V73.7748Z" fill="#9FC500"/>
<path fill-rule="evenodd" clip-rule="evenodd" d="M70.2652 71.6403L75.4322 70.6643C76.4915 70.4641 77.5087 71.2401 77.6934 72.3882C77.878 73.5363 77.1621 74.6387 76.1028 74.8388L70.9358 75.8149C69.8765 76.015 68.8593 75.2391 68.6747 74.091C68.49 72.9429 69.2059 71.8405 70.2652 71.6368V71.6403Z" fill="#ED725F"/>
<path fill-rule="evenodd" clip-rule="evenodd" d="M81.5387 69.509L86.7056 68.5329C87.765 68.3328 88.7821 69.1087 88.9668 70.2568C89.1514 71.4049 88.4355 72.5074 87.3762 72.7075L82.2092 73.6836C81.1499 73.8837 80.1327 73.1078 79.9481 71.9597C79.7634 70.8116 80.4794 69.7091 81.5387 69.509Z" fill="#FCE14A"/>
<path fill-rule="evenodd" clip-rule="evenodd" d="M92.812 67.3745L97.979 66.3984C99.0383 66.1983 100.055 66.9742 100.24 68.1223C100.425 69.2704 99.7088 70.3729 98.6495 70.573L93.4826 71.549C92.4233 71.7492 91.4061 70.9732 91.2214 69.8251C91.0368 68.677 91.7527 67.5746 92.812 67.3745Z" fill="#00A8F0"/>
</g>
</g>
<path d="M12.724 77.974L19.6578 84.3218L21.8789 77.1243L12.724 77.974Z" fill="#FFD700"/>
<path d="M12.4154 92.7637L21.7254 94.7972L19.5516 87.442L12.4154 92.7637Z" fill="#FFD700"/>
<path d="M21.4251 66.4003L23.9695 74.852L30.2187 70.3998L21.4251 66.4003Z" fill="#FFD700"/>
<path fill-rule="evenodd" clip-rule="evenodd" d="M23.5766 21.6665C30.3184 18.3732 38.6187 20.8506 42.1124 27.2057C45.6062 33.5608 42.9779 41.385 36.2361 44.6783C29.4942 47.9716 21.1939 45.4941 17.7002 39.139C14.2065 32.7839 16.8347 24.9597 23.5766 21.6665Z" fill="#44B5DC"/>
<path fill-rule="evenodd" clip-rule="evenodd" d="M43.733 20.4405C44.0219 20.2338 44.4266 20.2864 44.6459 20.5587C44.8651 20.831 44.8093 21.2125 44.5204 21.4192L42.157 23.1261C41.8681 23.3327 41.4634 23.2801 41.2441 23.0078C41.0249 22.7356 41.0807 22.354 41.3696 22.1473L43.733 20.4405ZM48.1873 32.1753C48.5455 32.1929 48.8252 32.4747 48.8065 32.8123C48.7877 33.15 48.4888 33.4137 48.1306 33.396L45.1564 33.2662C44.7982 33.2485 44.5184 32.9668 44.5372 32.6291C44.5559 32.2915 44.8549 32.0278 45.2131 32.0455L48.1873 32.1753ZM19.2981 16.2582C19.1346 15.956 19.2593 15.5831 19.5799 15.429C19.9005 15.2749 20.2961 15.3924 20.4596 15.6946L21.8272 18.1856C21.9907 18.4878 21.866 18.8607 21.5454 19.0149C21.2249 19.169 20.8292 19.0514 20.6657 18.7492L19.2981 16.2582ZM32.3305 14.1628C32.4097 13.8346 32.7571 13.6217 33.1136 13.6955C33.4617 13.7702 33.6876 14.0977 33.6093 14.4337L32.9552 17.1727C32.8759 17.5008 32.5285 17.7137 32.1721 17.6399C31.824 17.5652 31.5981 17.2377 31.6764 16.9017L32.3221 14.1637L32.3305 14.1628ZM10.6268 25.6473C10.2972 25.5147 10.1355 25.1564 10.2761 24.8457C10.4168 24.535 10.7969 24.3825 11.1265 24.5151L13.876 25.5959C14.2056 25.7285 14.3674 26.0868 14.2267 26.3975C14.0861 26.7082 13.706 26.8607 13.3763 26.7281L10.6268 25.6473ZM10.387 38.1073C10.043 38.208 9.67422 38.0316 9.56742 37.7074C9.46062 37.3832 9.64772 37.0356 9.99167 36.9349L12.8325 36.096C13.1765 35.9953 13.5453 36.1717 13.6521 36.4959C13.7589 36.8201 13.5718 37.1678 13.2278 37.2684L10.387 38.1073ZM18.6969 47.784C18.5022 48.0685 18.0969 48.1518 17.795 47.9683C17.4932 47.7848 17.4049 47.4026 17.5996 47.1181L19.2062 44.7569C19.4009 44.4724 19.8063 44.3891 20.1081 44.5726C20.4099 44.7562 20.4982 45.1383 20.3035 45.4228L18.6979 47.7919L18.6969 47.784Z" fill="#F2CE14"/>
<path fill-rule="evenodd" clip-rule="evenodd" d="M37.7758 50.1485C37.9271 50.42 37.8144 50.7517 37.5264 50.8944C37.2383 51.037 36.8865 50.9308 36.7351 50.6593L30.8218 39.9035L24.2023 36.671C23.9145 36.5339 23.8068 36.2018 23.9522 35.9306C23.9939 35.8542 24.0616 35.783 24.1322 35.7355C24.5325 35.469 24.8257 35.158 25.0334 34.8402C24.7698 34.6925 24.5201 34.5194 24.301 34.3191C23.9887 34.0487 23.7303 33.7327 23.5305 33.4105C23.3214 33.0812 23.1792 32.7448 23.0891 32.4187C22.8826 31.6177 23.067 30.8948 23.7397 30.5672C24.3084 30.2907 24.9087 30.4184 25.424 30.8268C25.7055 31.0524 25.9639 31.3685 26.1703 31.746C26.3665 32.1086 26.5024 32.5336 26.5648 32.9824C26.6104 33.3611 26.6159 33.7601 26.5369 34.1601C26.9649 34.1943 27.4307 34.1206 27.9269 33.8758C28.3673 33.6609 28.6737 33.3884 28.8916 33.0855C28.5758 32.9274 28.2805 32.7272 28.0242 32.4989C27.7119 32.2286 27.4535 31.9126 27.2537 31.5903C27.0445 31.261 26.9024 30.9246 26.8123 30.5986C26.6058 29.7975 26.7902 29.0746 27.4629 28.747C28.1356 28.4195 28.8637 28.6933 29.4465 29.3103C29.6796 29.5571 29.8869 29.8706 30.056 30.2201C30.2159 30.5626 30.3387 30.9491 30.4028 31.3418C30.4511 31.6722 30.4584 32.0151 30.4136 32.3475C30.7959 32.3546 31.2096 32.2705 31.6501 32.0556C32.1462 31.8108 32.4813 31.4953 32.6945 31.1529C32.3006 30.9792 31.9512 30.7528 31.6576 30.4965C31.3071 30.1903 31.0189 29.8375 30.8143 29.4758C30.6004 29.1071 30.4777 28.7207 30.4443 28.3726C30.3852 27.7396 30.6258 27.2025 31.1944 26.926C31.8671 26.5984 32.6036 26.8713 33.178 27.4892C33.4112 27.736 33.6184 28.0495 33.7876 28.399C33.9475 28.7416 34.0702 29.128 34.1344 29.5207C34.1685 29.8047 34.1859 30.0906 34.1615 30.3809C34.5634 30.4098 34.9893 30.3563 35.4625 30.2019C35.7636 30.0978 36.0961 30.2541 36.2065 30.538C36.243 30.63 36.2451 30.7177 36.2388 30.8062L35.2261 37.7549L41.1394 48.5106C41.2907 48.7821 41.178 49.1138 40.89 49.2565C40.6019 49.3991 40.2501 49.2929 40.0987 49.0213L34.0995 38.115C34.0453 38.0169 34.0237 37.9073 34.0429 37.7854L34.9603 31.4542C34.5762 31.5033 34.2125 31.5102 33.8682 31.467C33.5682 32.0744 33.0411 32.6262 32.2086 33.0348C31.4402 33.4125 30.7232 33.5131 30.07 33.439C29.7625 33.9833 29.2548 34.4851 28.4854 34.8549C27.6529 35.2635 26.8671 35.3555 26.1654 35.2307C26.0052 35.5195 25.7928 35.7979 25.5199 36.0668L31.509 38.991C31.6254 39.0425 31.7288 39.1274 31.7933 39.2404L37.7925 50.1467L37.7758 50.1485ZM25.4206 33.7599C25.4452 33.5415 25.4363 33.3267 25.4117 33.1216C25.3728 32.7981 25.2679 32.4897 25.1278 32.2409C24.997 31.9992 24.8374 31.8005 24.6771 31.6657C24.5271 31.5459 24.3856 31.4971 24.2806 31.5403C24.1523 31.6019 24.1483 31.8501 24.2271 32.1533C24.2872 32.3707 24.3835 32.6081 24.5394 32.8472C24.687 33.0871 24.8838 33.3138 25.1112 33.5133C25.2063 33.599 25.3181 33.683 25.429 33.759L25.4206 33.7599ZM29.264 32.0228C29.2766 31.8457 29.2641 31.6712 29.2432 31.4976C29.2081 31.2057 29.1154 30.9279 28.992 30.6774C28.877 30.426 28.7323 30.2097 28.5682 30.0434C28.3444 29.8036 28.1329 29.6664 28.0047 29.728C27.8765 29.7897 27.8724 30.0378 27.9512 30.3411C28.0113 30.5584 28.1076 30.7958 28.2635 31.0349C28.4111 31.2749 28.6079 31.5016 28.8353 31.701C28.9686 31.8226 29.1168 31.9267 29.2807 32.021L29.264 32.0228ZM32.9878 30.0667C32.9893 29.9387 32.9825 29.8116 32.959 29.6862C32.9239 29.3943 32.8311 29.1165 32.7078 28.866C32.5928 28.6146 32.4481 28.3983 32.284 28.232C32.0602 27.9922 31.8487 27.855 31.7204 27.9166C31.6248 27.9668 31.5823 28.1072 31.6041 28.2887C31.6288 28.4938 31.7 28.7339 31.8382 28.9669C31.9783 29.2156 32.1873 29.473 32.4427 29.6934C32.604 29.836 32.7884 29.9602 32.9878 30.0667Z" fill="white"/>
<path fill-rule="evenodd" clip-rule="evenodd" d="M40.0431 41.923L42.7113 46.7687C43.156 47.5764 42.8597 48.5671 42.0512 48.9651L36.5984 51.6335C35.79 52.0316 34.7649 51.6855 34.3202 50.8779L31.652 46.0321L40.044 41.9309L40.0431 41.923Z" fill="#303843"/>
<rect x="125.053" y="19.542" width="57.9498" height="32.0743" rx="4" fill="#106297"/>
<path d="M174.944 24.704C175.662 24.704 176.244 24.1404 176.244 23.4451C176.244 22.7499 175.662 22.1863 174.944 22.1863C174.226 22.1863 173.644 22.7499 173.644 23.4451C173.644 24.1404 174.226 24.704 174.944 24.704Z" fill="#43B6DD"/>
<path d="M178.585 24.704C179.303 24.704 179.886 24.1404 179.886 23.4451C179.886 22.7499 179.303 22.1863 178.585 22.1863C177.867 22.1863 177.285 22.7499 177.285 23.4451C177.285 24.1404 177.867 24.704 178.585 24.704Z" fill="#0D395C"/>
<path d="M171.303 24.704C172.021 24.704 172.604 24.1404 172.604 23.4451C172.604 22.7499 172.021 22.1863 171.303 22.1863C170.585 22.1863 170.003 22.7499 170.003 23.4451C170.003 24.1404 170.585 24.704 171.303 24.704Z" fill="#ED725F"/>
<path d="M110.516 43.0642L155.026 43.0642C156.619 43.0642 157.91 41.8412 157.91 40.3326L157.91 11.524C157.91 10.0154 156.619 8.79236 155.026 8.79236L110.516 8.79236C108.923 8.79236 107.632 10.0154 107.632 11.524L107.632 40.3326C107.632 41.8412 108.923 43.0642 110.516 43.0642Z" fill="#0F5A8B" fill-opacity="0.2"/>
<path d="M114.042 40.2717L158.551 40.2717C160.144 40.2717 161.436 39.0487 161.436 37.5401L161.436 8.73152C161.436 7.22287 160.144 5.99987 158.551 5.99987L114.042 5.99988C112.449 5.99988 111.157 7.22288 111.157 8.73152L111.157 37.5401C111.157 39.0487 112.449 40.2717 114.042 40.2717Z" fill="white"/>
<path d="M111.157 12.5881L111.157 8.73737C111.157 7.22714 112.447 6.00572 114.042 6.00572L158.558 6.00572C160.152 6.00572 161.442 7.22714 161.442 8.73736L161.442 12.5881L111.164 12.5881L111.157 12.5881Z" fill="#44B5DC"/>
<path d="M134.714 35.7142C128.927 34.4126 125.382 28.9269 126.745 23.4915C128.108 18.0561 133.879 14.6658 139.666 15.9673C145.452 17.2688 148.997 22.7546 147.634 28.19C146.271 33.6254 140.5 37.0157 134.714 35.7142Z" fill="#F9F9F9" stroke="#44B5DC" stroke-width="0.8"/>
<path d="M139.524 26.8546C140.047 26.1428 140.356 25.2641 140.356 24.3132C140.356 21.9399 138.432 20.0159 136.059 20.0159C133.686 20.0159 131.763 21.9399 131.763 24.3132C131.763 26.6866 133.686 28.6106 136.059 28.6106C137.01 28.6106 137.889 28.3016 138.601 27.7786L138.6 27.779C138.62 27.8055 138.641 27.8308 138.665 27.8547L141.21 30.4004C141.468 30.6586 141.887 30.6586 142.145 30.4004C142.403 30.1422 142.403 29.7236 142.145 29.4654L139.6 26.9197C139.576 26.8958 139.551 26.8741 139.524 26.8546ZM139.695 24.3132C139.695 26.3215 138.067 27.9495 136.059 27.9495C134.051 27.9495 132.424 26.3215 132.424 24.3132C132.424 22.305 134.051 20.677 136.059 20.677C138.067 20.677 139.695 22.305 139.695 24.3132Z" fill="#44B5DC"/>
<g clip-path="url(#clip2_1517_13340)">
<g filter="url(#filter1_d_1517_13340)">
<path fill-rule="evenodd" clip-rule="evenodd" d="M169.171 72.9102L176.914 85.3266L171.708 85.6446C171.738 86.3554 171.705 87.0841 171.618 87.8396C171.219 91.3409 169.577 95.3497 166.793 98.5552C164.233 101.501 160.723 103.781 156.323 104.381C155.959 106.811 155.007 109.083 153.584 111.042C151.494 113.93 148.377 116.13 144.649 117.159C143.796 117.397 142.9 117.569 141.968 117.675L141.593 113.757C142.33 113.665 143.054 113.535 143.752 113.337C146.673 112.529 149.086 110.829 150.698 108.615C151.592 107.377 152.235 105.978 152.57 104.487C152.231 104.459 151.89 104.421 151.55 104.383C147.438 103.84 145.321 101.961 144.52 99.8172C143.705 97.6247 144.298 95.2362 145.605 93.5836C146.945 91.8868 149.044 90.9002 151.16 91.5616C153.134 92.1907 155.035 94.2374 156.058 98.5373C156.209 99.1524 156.313 99.7734 156.38 100.399C159.596 99.8162 162.193 98.0831 164.103 95.8722C166.33 93.2998 167.651 90.1261 167.963 87.3803C168.019 86.8601 168.048 86.3533 168.035 85.882L162.754 86.1993L169.171 72.9102ZM152.734 100.542C152.687 100.196 152.622 99.8519 152.537 99.4902C151.892 96.7935 151.007 95.6059 150.166 95.3386C149.557 95.153 148.896 95.5173 148.427 96.1092C147.926 96.7454 147.672 97.6021 147.947 98.3326C148.3 99.2647 149.494 100.122 152.025 100.46C152.271 100.489 152.517 100.519 152.752 100.54L152.734 100.542Z" fill="#6FD3E2"/>
</g>
</g>
</g>
<defs>
<filter id="filter0_d_1517_13340" x="39.8848" y="46.2805" width="92.517" height="95.9634" filterUnits="userSpaceOnUse" color-interpolation-filters="sRGB">
<feFlood flood-opacity="0" result="BackgroundImageFix"/>
<feColorMatrix in="SourceAlpha" type="matrix" values="0 0 0 0 0 0 0 0 0 0 0 0 0 0 0 0 0 0 127 0" result="hardAlpha"/>
<feOffset dy="4"/>
<feGaussianBlur stdDeviation="2"/>
<feComposite in2="hardAlpha" operator="out"/>
<feColorMatrix type="matrix" values="0 0 0 0 0 0 0 0 0 0 0 0 0 0 0 0 0 0 0.05 0"/>
<feBlend mode="normal" in2="BackgroundImageFix" result="effect1_dropShadow_1517_13340"/>
<feBlend mode="normal" in="SourceGraphic" in2="effect1_dropShadow_1517_13340" result="shape"/>
</filter>
<filter id="filter1_d_1517_13340" x="137.593" y="72.9102" width="43.3217" height="52.7651" filterUnits="userSpaceOnUse" color-interpolation-filters="sRGB">
<feFlood flood-opacity="0" result="BackgroundImageFix"/>
<feColorMatrix in="SourceAlpha" type="matrix" values="0 0 0 0 0 0 0 0 0 0 0 0 0 0 0 0 0 0 127 0" result="hardAlpha"/>
<feOffset dy="4"/>
<feGaussianBlur stdDeviation="2"/>
<feComposite in2="hardAlpha" operator="out"/>
<feColorMatrix type="matrix" values="0 0 0 0 0 0 0 0 0 0 0 0 0 0 0 0 0 0 0.05 0"/>
<feBlend mode="normal" in2="BackgroundImageFix" result="effect1_dropShadow_1517_13340"/>
<feBlend mode="normal" in="SourceGraphic" in2="effect1_dropShadow_1517_13340" result="shape"/>
</filter>
<clipPath id="clip0_1517_13340">
<rect width="195" height="140" fill="white"/>
</clipPath>
<clipPath id="clip1_1517_13340">
<rect width="46.3926" height="32.9858" fill="white" transform="translate(55.9468 56.2761)"/>
</clipPath>
<clipPath id="clip2_1517_13340">
<rect width="45.7792" height="49.3391" fill="white" transform="matrix(0.992243 -0.124316 0.106647 0.994297 131.072 71.2153)"/>
</clipPath>
</defs>
</svg>
