<svg width="260" height="141" viewBox="0 0 260 141" fill="none" xmlns="http://www.w3.org/2000/svg">
<g filter="url(#filter0_d_1412_15720)">
<ellipse cx="160.417" cy="40.6339" rx="1.41667" ry="1.45719" fill="#F5D1D1" fill-opacity="0.6" shape-rendering="crispEdges"/>
</g>
<g opacity="0.5">
<path d="M195.205 23.3245H89.2704C87.2951 23.3245 85.6938 24.9977 85.6938 27.0616V118.308C85.6938 120.372 87.2951 122.045 89.2704 122.045H195.205C197.18 122.045 198.781 120.372 198.781 118.308V27.0616C198.781 24.9977 197.18 23.3245 195.205 23.3245Z" fill="#848585"/>
</g>
<mask id="mask0_1412_15720" style="mask-type:luminance" maskUnits="userSpaceOnUse" x="80" y="19" width="116" height="100">
<path d="M191.942 19.2146H83.6843C81.6657 19.2146 80.0293 20.8947 80.0293 22.9672V114.589C80.0293 116.662 81.6657 118.342 83.6843 118.342H191.942C193.961 118.342 195.597 116.662 195.597 114.589V22.9672C195.597 20.8947 193.961 19.2146 191.942 19.2146Z" fill="white"/>
</mask>
<g mask="url(#mask0_1412_15720)">
<path d="M191.942 19.2146H83.6843C81.6657 19.2146 80.0293 20.8947 80.0293 22.9672V114.589C80.0293 116.662 81.6657 118.342 83.6843 118.342H191.942C193.961 118.342 195.597 116.662 195.597 114.589V22.9672C195.597 20.8947 193.961 19.2146 191.942 19.2146Z" fill="#0068A5"/>
<g opacity="0.27">
<path d="M221.129 21.2159V20.8733L36.0414 20.8733V21.2159L221.129 21.2159Z" fill="white"/>
<path d="M221.129 28.9659V28.6233L36.0414 28.6233V28.9659L221.129 28.9659Z" fill="white"/>
<path d="M221.129 36.7159V36.3733L36.0414 36.3733V36.7159L221.129 36.7159Z" fill="white"/>
<path d="M221.129 44.4601V44.1174L36.0414 44.1174V44.4601L221.129 44.4601Z" fill="white"/>
<path d="M221.129 52.2101V51.8674L36.0414 51.8674V52.2101L221.129 52.2101Z" fill="white"/>
<path d="M221.129 59.9547V59.6121L36.0415 59.6121V59.9547L221.129 59.9547Z" fill="white"/>
<path d="M221.129 67.7044V67.3618L36.0415 67.3618V67.7044L221.129 67.7044Z" fill="white"/>
<path d="M221.124 75.4544V75.1118L36.0366 75.1118V75.4544L221.124 75.4544Z" fill="white"/>
<path d="M221.129 83.1986V82.856L36.0414 82.856V83.1986L221.129 83.1986Z" fill="white"/>
<path d="M221.129 90.9486V90.606L36.0414 90.606V90.9486L221.129 90.9486Z" fill="white"/>
<path d="M221.129 98.6927V98.3501L36.0414 98.3501V98.6927L221.129 98.6927Z" fill="white"/>
<path d="M221.129 106.443V106.1L36.0414 106.1V106.443L221.129 106.443Z" fill="white"/>
<path d="M221.124 114.192V113.85L36.0365 113.85V114.192L221.124 114.192Z" fill="white"/>
<path d="M192.562 189.662H192.896L192.896 -0.364014H192.562L192.562 189.662Z" fill="white"/>
<path d="M185.019 189.662H185.353L185.353 -0.364014H185.019L185.019 189.662Z" fill="white"/>
<path d="M177.47 189.662H177.804L177.804 -0.364014H177.47L177.47 189.662Z" fill="white"/>
<path d="M169.927 189.662H170.261L170.261 -0.364014H169.927L169.927 189.662Z" fill="white"/>
<path d="M162.373 189.662H162.707L162.707 -0.364014H162.373L162.373 189.662Z" fill="white"/>
<path d="M154.83 189.662H155.164L155.164 -0.364014H154.83L154.83 189.662Z" fill="white"/>
<path d="M147.287 189.662H147.621L147.621 -0.364014H147.287L147.287 189.662Z" fill="white"/>
<path d="M139.739 189.662H140.072L140.072 -0.364014H139.739L139.739 189.662Z" fill="white"/>
<path d="M132.196 189.662H132.529L132.529 -0.364014H132.196L132.196 189.662Z" fill="white"/>
<path d="M124.642 189.662H124.976L124.976 -0.364014H124.642L124.642 189.662Z" fill="white"/>
<path d="M117.099 189.662H117.433L117.433 -0.364014H117.099L117.099 189.662Z" fill="white"/>
<path d="M109.555 189.662H109.889L109.889 -0.364014H109.555L109.555 189.662Z" fill="white"/>
<path d="M102.007 189.662H102.341L102.341 -0.364014H102.007L102.007 189.662Z" fill="white"/>
<path d="M94.4593 189.662H94.793L94.793 -0.364014H94.4593L94.4593 189.662Z" fill="white"/>
<path d="M86.9104 189.662H87.2441L87.2441 -0.364014H86.9104L86.9104 189.662Z" fill="white"/>
</g>
<path d="M195.597 24.6099H80.0293V32.289H195.597V24.6099Z" fill="white"/>
<path d="M192.546 19.231H83.0805C81.3953 19.231 80.0293 20.6335 80.0293 22.3635V29.1508C80.0293 30.8808 81.3953 32.2833 83.0805 32.2833H192.546C194.231 32.2833 195.597 30.8808 195.597 29.1508V22.3635C195.597 20.6335 194.231 19.231 192.546 19.231Z" fill="white"/>
</g>
<path d="M125.807 107.987L170.886 105.937L171.082 94.7877L184.478 87.3533C184.478 87.3533 190.713 102.782 186.364 114.97C186.364 114.97 182.624 120.109 161.69 119.451C141.338 118.81 115.986 118.619 115.986 118.619L125.807 107.981V107.987Z" fill="#FFF8E9" stroke="#0D395C" stroke-miterlimit="10"/>
<path d="M109.487 83.6009L113.687 109.662C113.687 109.662 142.737 107.199 152.441 106.867C157.066 106.709 170.886 105.937 170.886 105.937V97.8335C170.886 97.8335 176.766 97.3277 178.689 96.8926C181.485 96.2617 189.58 93.2325 189.58 93.2325L175.526 62.951L169.011 59.2093C169.011 59.2093 161.372 56.3867 158.718 55.9081C154.973 55.2337 143.531 56.3486 143.531 56.3486L135.729 58.0835C135.729 58.0835 125.33 61.0203 123.614 61.9775C116.712 65.8279 109.481 83.6009 109.481 83.6009" fill="#F2CE14"/>
<path d="M160.09 56.3486C160.09 56.3486 172.157 63.0815 174.504 68.5852C176.85 74.089 183.435 95.4296 183.435 95.4296L189.579 93.2325C189.579 93.2325 179.642 64.9904 174.832 62.282C166.346 57.5016 160.085 56.3486 160.085 56.3486H160.09Z" fill="#F4E9A4"/>
<path d="M153.707 49.0285L158.808 38.7878C158.808 38.7878 160.774 39.4622 163.39 35.8728C166.007 32.2888 162.67 28.9278 162.67 28.9278C162.67 28.9278 159.433 26.2467 155.943 17.73C152.452 9.21331 148.113 12.1229 148.113 12.1229C148.113 12.1229 148.002 10.7578 143.637 8.96858C140.215 7.56545 129.123 9.62664 125.902 17.7463C123.503 23.7939 128.678 33.0067 128.678 33.0067L142.122 28.9333L153.268 46.7933" fill="#0D395C"/>
<path d="M142.127 55.1956V56.8543C142.127 56.8543 140.835 59.1331 141.502 62.3363C142.318 66.2412 144.755 68.2371 150.91 67.7803C152.642 67.6497 156.165 65.4363 157.208 63.7884C160 59.3832 156.684 55.1956 156.684 55.1956L152.637 43.927C155.847 42.5728 159.031 37.7163 155.974 35.4267C152.918 33.1371 151.191 36.5905 151.191 36.5905L151.175 38.9998" fill="#FFF8E9"/>
<path d="M142.127 55.1956V56.8543C142.127 56.8543 140.835 59.1331 141.502 62.3363C142.318 66.2412 144.755 68.2371 150.91 67.7803C152.642 67.6497 156.165 65.4363 157.208 63.7884C160 59.3832 156.684 55.1956 156.684 55.1956L152.637 43.927C155.847 42.5728 159.031 37.7163 155.974 35.4267C152.918 33.1371 151.191 36.5905 151.191 36.5905L151.175 38.9998" stroke="#0D395C" stroke-width="0.7" stroke-miterlimit="10"/>
<path opacity="0.22" d="M148.558 50.437C148.558 50.437 148.299 56.7837 141.333 59.9544V57.6213L142.006 53.7327L148.558 50.4424V50.437Z" fill="#D38888"/>
<path d="M127.598 31.8428C127.624 26.6762 129.95 24.6096 129.95 24.6096L149.665 29.8469L152.288 40.577L151.165 46.6246L150.407 46.9183C149.745 48.4465 148.532 51.2528 147.202 52.2154C145.052 53.7708 141.534 56.4737 137.418 56.4574C130.654 56.4357 128.466 48.8653 128.032 45.4227C127.804 43.6443 127.163 39.1957 127.937 35.4213C128.35 33.4091 127.656 32.7347 127.598 31.8374" fill="#FFF8E9"/>
<path d="M150.921 44.3187C150.921 44.3187 154.852 43.3343 156.16 41.4472C157.469 39.5654 158.316 36.8843 156.478 35.4268" stroke="#0D395C" stroke-miterlimit="10" stroke-linecap="round"/>
<path d="M86.1797 58.0782C88.7276 51.9762 84.8342 48.4901 84.6541 46.4072C84.3998 43.5302 84.9083 42.486 84.9083 42.486C84.9083 42.486 87.5145 39.348 83.8913 39.348C80.268 39.348 80.0721 47.4514 80.0721 47.4514L80.3263 47.7124L68.3601 33.3331C68.3601 33.3331 66.8345 32.811 66.3207 34.5676C65.8121 36.3297 74.1604 47.7016 74.1604 47.7016C70.6537 50.1543 66.3207 53.635 66.3207 55.8158C66.3207 59.4759 75.4847 63.6581 75.4847 63.6581L82.318 84.047H101.457L86.6392 58.8918L86.1797 58.0782Z" fill="#FFF8E9" stroke="#0D395C" stroke-width="0.8" stroke-miterlimit="10"/>
<path d="M70.6484 43.0026C70.6484 43.0026 77.6883 47.9299 78.2869 49.8007C78.9225 51.7857 77.2698 52.4166 75.739 51.8945C74.2134 51.3724 68.858 47.1793 68.858 47.1793C68.858 47.1793 67.4118 45.2161 68.1799 43.9434C68.948 42.6708 70.6431 43.0026 70.6431 43.0026H70.6484Z" fill="#FFF8E9" stroke="#0D395C" stroke-width="0.8" stroke-miterlimit="10"/>
<path d="M68.1002 46.6626C68.1002 46.6626 76.2472 52.4165 75.7387 54.5049C74.9494 57.7516 72.1154 55.114 70.6481 53.9828C69.4139 53.031 67.8088 51.6986 66.7282 50.7958C65.7482 49.9746 65.4675 48.5008 66.1773 47.4294C66.5481 46.8638 67.1467 46.4722 68.1002 46.668V46.6626Z" fill="#FFF8E9" stroke="#0D395C" stroke-width="0.8" stroke-miterlimit="10"/>
<path d="M66.0978 50.7798C66.0978 50.7798 73.1747 55.7777 72.7351 57.5942C72.0464 60.4168 69.186 58.2631 67.9094 57.2788C66.8394 56.4521 65.7799 55.62 64.9059 54.3692C64.2649 53.4501 63.8094 52.3787 64.4239 51.4433C64.747 50.9484 65.2661 50.6112 66.0978 50.7798Z" fill="#FFF8E9" stroke="#0D395C" stroke-width="0.8" stroke-miterlimit="10"/>
<path d="M132.122 44.7866L138.775 46.1408C138.775 46.1408 139.135 52.5419 136.079 51.9165C133.414 51.3726 132.694 48.8981 132.286 46.0538C132.228 45.635 132.175 45.2108 132.122 44.7866Z" fill="#FF4E63"/>
<path d="M133.494 39.9734C133.494 39.9734 131.926 41.8442 133.276 42.1488C134.161 42.35 134.421 42.1488 134.421 42.1488" stroke="#0D395C" stroke-miterlimit="10"/>
<path d="M135.326 36.7211L133.482 36.5688V37.4281L135.453 37.6674L135.326 36.7211Z" fill="#0D395C"/>
<path d="M153.352 38.5648C153.352 38.5648 154.147 38.7388 153.749 39.3262C153.352 39.9135 152.293 40.5825 152.293 40.5825C152.293 40.5825 152.044 42.1488 152.918 42.1488C154.3 42.1488 156.451 38.543 155.858 37.3139C154.946 35.4268 153.426 36.6233 153.426 36.6233C153.426 36.6233 152.955 37.8034 153.352 38.5648Z" fill="#F8E4CD"/>
<path d="M143.638 10.453C143.638 10.453 152.468 9.66439 157.834 11.557C163.205 13.4441 157.834 15.179 157.834 15.179C157.834 15.179 163.836 15.9567 164.387 18.4747C164.943 20.9928 159.365 21.6345 159.365 21.6345C159.365 21.6345 172.565 26.8935 165.96 28.8623C159.354 30.831 160.615 30.7222 160.615 30.7222" fill="#0D395C"/>
<path d="M138.547 47.446L132.286 46.0592L132.122 44.7866L138.775 46.1408L138.547 47.446Z" fill="#CFE4F1"/>
<path d="M132.122 44.7866L138.775 46.1408C138.775 46.1408 139.135 52.5419 136.079 51.9165C133.414 51.3726 132.694 48.8981 132.286 46.0538C132.228 45.635 132.175 45.2108 132.122 44.7866Z" stroke="#001780" stroke-width="0.5" stroke-miterlimit="10"/>
<path d="M151.546 36.4873L143.749 37.7599L143.638 37.1345L151.854 35.7966L151.546 36.4873Z" fill="#0D395C"/>
<path d="M148.315 50.627C148.315 50.627 143.733 57.1641 136.036 56.2667C128.339 55.3639 127.624 42.3496 127.624 42.3496" stroke="#0D395C" stroke-width="0.8" stroke-miterlimit="10"/>
<path d="M128.207 101.635C128.207 101.635 131.719 107.541 130.453 103.93C124.822 87.9137 126.289 76.2046 126.289 76.2046L121.05 83.8239L128.207 101.635Z" fill="url(#paint0_linear_1412_15720)"/>
<path d="M139.601 44.1664C137.196 44.1664 135.236 41.2514 135.236 37.6675C135.236 34.0835 137.196 31.1685 139.601 31.1685C142.006 31.1685 143.966 34.0835 143.966 37.6675C143.966 41.2514 142.006 44.1664 139.601 44.1664ZM139.601 31.6199C137.435 31.6199 135.671 34.3337 135.671 37.6675C135.671 41.0012 137.435 43.7151 139.601 43.7151C141.768 43.7151 143.532 41.0012 143.532 37.6675C143.532 34.3337 141.768 31.6199 139.601 31.6199Z" fill="#0D395C"/>
<path d="M207.641 0.249023C207.943 0.281654 208.245 0.308847 208.552 0.346916C210.814 0.618841 212.88 1.43461 214.765 2.72898C215.613 3.31089 216.392 3.98527 217.112 4.73034C217.319 4.94244 217.319 5.12191 217.112 5.35033C216.831 5.66032 216.551 5.97032 216.27 6.28031C216.063 6.50329 215.899 6.49785 215.671 6.29663C215.173 5.84523 214.691 5.36664 214.151 4.95876C211.91 3.26739 209.389 2.4353 206.608 2.52775C203.594 2.63108 200.982 3.78404 198.752 5.86155C198.593 6.00839 198.445 6.1661 198.286 6.31838C198.095 6.50329 197.92 6.50329 197.74 6.3075C197.454 5.99751 197.168 5.68208 196.882 5.36664C196.66 5.11103 196.665 4.94788 196.898 4.70859C198.503 3.04985 200.362 1.80443 202.513 1.0376C203.694 0.613402 204.907 0.357793 206.158 0.281654C206.221 0.281654 206.279 0.259901 206.343 0.254462C206.772 0.254462 207.201 0.254462 207.635 0.254462L207.641 0.249023Z" fill="#F2CE14"/>
<path d="M206.725 16.6732C206.471 16.5754 206.2 16.5155 205.973 16.3796C205.093 15.8629 204.733 14.7698 205.099 13.818C205.469 12.85 206.465 12.3116 207.451 12.54C208.43 12.7684 209.087 13.6821 209.029 14.7208C208.971 15.6563 208.282 16.4557 207.376 16.6352C207.339 16.6406 207.302 16.6569 207.265 16.6732H206.72H206.725Z" fill="#F2CE14"/>
<path d="M206.952 4.33887C209.945 4.39869 212.424 5.55709 214.506 7.66179C214.686 7.8467 214.692 8.01529 214.517 8.21107C214.22 8.54826 213.918 8.88001 213.616 9.20632C213.415 9.41842 213.261 9.41298 213.049 9.20632C211.778 7.93371 210.279 7.09075 208.52 6.76444C206.476 6.38374 204.548 6.74268 202.747 7.79775C202.084 8.18388 201.486 8.66247 200.946 9.21176C200.739 9.41842 200.575 9.41842 200.379 9.21176C200.077 8.88545 199.78 8.55914 199.489 8.23283C199.298 8.02073 199.309 7.86301 199.505 7.66179C201.285 5.84533 203.403 4.73044 205.909 4.42588C206.274 4.38238 206.64 4.37694 206.958 4.35518L206.952 4.33887Z" fill="#F2CE14"/>
<path d="M212.042 10.8217C211.989 10.9251 211.958 11.0229 211.894 11.0936C211.576 11.4526 211.248 11.8115 210.925 12.165C210.782 12.3227 210.644 12.2956 210.448 12.1487C210.072 11.855 209.701 11.5342 209.288 11.3058C207.444 10.2996 205.22 10.5987 203.662 12.0291C203.286 12.3717 203.249 12.3717 202.899 11.991C202.645 11.7136 202.391 11.4308 202.137 11.148C201.914 10.8979 201.919 10.7565 202.153 10.528C203.307 9.40228 204.658 8.6844 206.247 8.49405C207.858 8.29827 209.335 8.70071 210.686 9.6035C211.105 9.8863 211.481 10.2398 211.867 10.5661C211.942 10.6259 211.979 10.7293 212.042 10.8217Z" fill="#F2CE14"/>
<path d="M122.502 82.1162L121.05 83.8239L135.453 119.674L137.445 119.451L122.502 82.1162Z" fill="#2682DD"/>
<path d="M122.502 82.2468H77.6192L76.1201 83.601L121.035 83.824L122.502 82.2468Z" fill="#53A6EA"/>
<path opacity="0.3" d="M167.771 77.0583C167.771 77.0583 166.468 93.2487 161.282 98.8939C154.767 105.991 133.848 108.009 133.848 108.009C133.848 108.009 151.488 106.742 157.203 106.557C160.636 106.443 170.88 105.937 170.88 105.937V97.8334C169.705 97.8334 169.058 92.9279 168.608 89.0067C168.142 84.9387 169.869 78.0318 167.771 77.0583Z" fill="#ED725F"/>
<path d="M109.487 82.116C109.487 82.116 118.487 64.218 123.62 61.9719C128.753 59.7312 134.95 58.3118 134.95 58.3118" stroke="#001780" stroke-width="0.5" stroke-miterlimit="10" stroke-linecap="round"/>
<path d="M149.411 26.3008L131.311 14.1675C131.311 14.1675 123.016 23.1791 131.311 27.2851C131.803 27.5299 132.275 27.7474 132.725 27.9486C133.853 28.4435 134.86 28.8133 135.755 29.0744C135.67 29.0853 135.686 29.0907 135.877 29.107H135.888C136.777 29.3626 137.556 29.5149 138.229 29.591L143.113 30.5972C143.817 30.6679 144.331 29.9174 144.024 29.2593L143.515 28.1716C144.119 28.5686 144.977 28.9982 146.212 29.417C150.216 30.7766 150.407 32.8922 150.407 32.8922C150.407 32.8922 150.826 34.6053 149.665 39.4619C148.929 42.5292 153.373 33.2022 153.373 33.2022L149.406 26.3008H149.411ZM142.128 27.2471V26.5781C142.128 26.5781 142.149 26.8337 142.445 27.2253L142.133 27.2471H142.128Z" fill="#0D395C"/>
<path d="M159.312 13.2104C159.672 12.1771 153.718 10.7576 149.533 11.1438C148.336 11.2525 148.108 11.6659 148.108 11.6659C148.108 11.6659 159.111 13.7814 159.312 13.2104Z" fill="#2682DD"/>
<path d="M129.743 41.9689C127.555 41.9689 125.775 39.2497 125.775 35.905C125.775 32.5603 127.555 29.8411 129.743 29.8411C131.931 29.8411 133.711 32.5603 133.711 35.905C133.711 39.2497 131.931 41.9689 129.743 41.9689ZM129.743 30.2544C127.778 30.2544 126.173 32.7887 126.173 35.8995C126.173 39.0104 127.772 41.5447 129.743 41.5447C131.713 41.5447 133.313 39.0104 133.313 35.8995C133.313 32.7887 131.713 30.2544 129.743 30.2544Z" fill="#0D395C"/>
<path d="M163.226 18.2197C163.502 17.1864 158.973 15.7669 155.789 16.153C154.878 16.2618 154.703 16.6751 154.703 16.6751C154.703 16.6751 163.073 18.7907 163.226 18.2197Z" fill="#2682DD"/>
<path d="M165.393 25.9912C165.864 25.2298 161.335 22.9891 157.913 22.5268C156.933 22.3963 156.679 22.6846 156.679 22.6846C156.679 22.6846 165.133 26.4099 165.393 25.9912Z" fill="#2682DD"/>
<path d="M126.343 18.6764C126.343 18.6764 126.364 16.4031 128.827 14.9293C130.787 13.7546 128.917 15.8484 128.726 16.0442C128.218 16.5663 127.344 17.8769 127.159 18.5187C126.629 20.346 126.348 18.6764 126.348 18.6764H126.343Z" fill="#2682DD"/>
<path d="M139.505 39.5003C140.354 39.5003 141.042 38.7284 141.042 37.7762C141.042 36.8241 140.354 36.0522 139.505 36.0522C138.657 36.0522 137.969 36.8241 137.969 37.7762C137.969 38.7284 138.657 39.5003 139.505 39.5003Z" fill="#0D395C"/>
<path d="M140.194 37.7708C140.337 37.7708 140.454 37.6515 140.454 37.5043C140.454 37.3571 140.337 37.2378 140.194 37.2378C140.051 37.2378 139.935 37.3571 139.935 37.5043C139.935 37.6515 140.051 37.7708 140.194 37.7708Z" fill="white"/>
<path opacity="0.22" d="M186.475 94.6521L181.395 96.3C184.849 108.014 178.392 114.057 173.306 116.091C169.392 117.657 158.845 117.923 158.845 117.923L160.085 119.647C160.085 119.647 164.879 119.305 169.906 119.457C177.507 119.68 181.973 120.072 185.866 115.259C186.761 114.149 187.18 112.452 187.344 111.283C187.619 109.303 187.662 107.617 187.656 106.274C187.646 103.131 186.47 94.6575 186.47 94.6575L186.475 94.6521Z" fill="#D38888"/>
<path d="M169.286 114.97H133.493V119.452H169.286V114.97Z" fill="#2682DD"/>
<path d="M76.1201 83.6011L121.05 83.8241L135.453 119.675L90.9521 118.739L76.1201 83.6011Z" fill="#F1F7F6"/>
<path d="M108.364 103.93L102.67 103.484L100.636 98.894L106.33 99.3454L108.364 103.93Z" fill="#2682DD"/>
<path opacity="0.22" d="M64.4447 52.7102C64.4447 52.7102 69.7684 57.4689 72.5017 57.3329C72.5017 57.3329 72.4858 58.8775 70.9073 58.6762C69.7631 58.5294 64.3441 54.9128 64.4447 52.7102Z" fill="#D38888"/>
<path opacity="0.22" d="M66.0664 49.0774C66.0664 49.0774 73.4718 55.7015 75.5165 54.1352C75.5165 54.1352 75.5324 55.9734 73.9539 55.7722C72.8097 55.6253 66.0664 51.0733 66.0664 49.0774Z" fill="#D38888"/>
<path d="M130.119 37.9719C130.968 37.9719 131.655 37.2001 131.655 36.2479C131.655 35.2958 130.968 34.5239 130.119 34.5239C129.271 34.5239 128.583 35.2958 128.583 36.2479C128.583 37.2001 129.271 37.9719 130.119 37.9719Z" fill="#0D395C"/>
<path d="M130.808 36.2478C130.951 36.2478 131.067 36.1285 131.067 35.9813C131.067 35.8342 130.951 35.7148 130.808 35.7148C130.665 35.7148 130.548 35.8342 130.548 35.9813C130.548 36.1285 130.665 36.2478 130.808 36.2478Z" fill="white"/>
<path d="M138.173 35.0469C138.173 35.0469 138.661 33.6769 140.001 34.0179C141.22 34.3296 141.154 35.141 141.154 35.141C141.154 35.141 139.966 34.6294 138.919 34.9117C138.657 34.9823 138.106 35.4056 138.173 35.0469Z" fill="#0D395C"/>
<path d="M131.92 33.6321C131.92 33.6321 131.565 32.4846 130.024 32.4574C128.62 32.4302 128.583 33.0665 128.583 33.0665C128.583 33.0665 129.976 32.9305 131.104 33.3711C131.39 33.4798 131.941 33.9203 131.92 33.6321Z" fill="#0D395C"/>
<path d="M126.178 35.1711L128.059 34.5239" stroke="#001780" stroke-width="0.25" stroke-miterlimit="10"/>
<path d="M126.178 35.1711L128.149 34.7034" stroke="#0D395C" stroke-miterlimit="10"/>
<path d="M182.11 27.7693C183.325 27.7693 184.309 26.7588 184.309 25.5123C184.309 24.2659 183.325 23.2554 182.11 23.2554C180.896 23.2554 179.912 24.2659 179.912 25.5123C179.912 26.7588 180.896 27.7693 182.11 27.7693Z" fill="#43B6DD"/>
<path d="M188.271 27.7693C189.485 27.7693 190.469 26.7588 190.469 25.5123C190.469 24.2659 189.485 23.2554 188.271 23.2554C187.056 23.2554 186.072 24.2659 186.072 25.5123C186.072 26.7588 187.056 27.7693 188.271 27.7693Z" fill="#0D395C"/>
<path d="M175.59 27.7693C176.804 27.7693 177.788 26.7588 177.788 25.5123C177.788 24.2659 176.804 23.2554 175.59 23.2554C174.376 23.2554 173.392 24.2659 173.392 25.5123C173.392 26.7588 174.376 27.7693 175.59 27.7693Z" fill="#ED725F"/>
<path opacity="0.2" d="M259.121 38.8813H230.32C229.835 38.8813 229.441 39.2855 229.441 39.7841V79.893C229.441 80.3916 229.835 80.7958 230.32 80.7958H259.121C259.606 80.7958 260 80.3916 260 79.893V39.7841C260 39.2855 259.606 38.8813 259.121 38.8813Z" fill="#0D395C"/>
<path d="M255.853 34.5959H227.052C226.567 34.5959 226.173 35.0001 226.173 35.4987V75.6076C226.173 76.1062 226.567 76.5104 227.052 76.5104H255.853C256.338 76.5104 256.732 76.1062 256.732 75.6076V35.4987C256.732 35.0001 256.338 34.5959 255.853 34.5959Z" fill="#0D395C"/>
<path d="M251.419 39.1533H231.486V41.9215H251.419V39.1533Z" fill="#43B6DD"/>
<path d="M245.629 72.0615H237.281C236.449 72.0615 235.777 71.3708 235.777 70.517C235.777 69.6631 236.449 68.9724 237.281 68.9724H245.629C246.461 68.9724 247.134 69.6631 247.134 70.517C247.134 71.3708 246.461 72.0615 245.629 72.0615Z" fill="#FFCC4D"/>
<path d="M242.054 45.9407H233.817C233.53 45.9407 233.298 46.1793 233.298 46.4736V46.7129C233.298 47.0073 233.53 47.2459 233.817 47.2459H242.054C242.341 47.2459 242.573 47.0073 242.573 46.7129V46.4736C242.573 46.1793 242.341 45.9407 242.054 45.9407Z" fill="#43B6DD"/>
<path d="M252.542 49.1548H233.817C233.53 49.1548 233.298 49.3934 233.298 49.6878V49.9271C233.298 50.2214 233.53 50.46 233.817 50.46H252.542C252.829 50.46 253.062 50.2214 253.062 49.9271V49.6878C253.062 49.3934 252.829 49.1548 252.542 49.1548Z" fill="#43B6DD"/>
<path d="M252.542 52.3689H233.817C233.53 52.3689 233.298 52.6075 233.298 52.9019V53.1412C233.298 53.4355 233.53 53.6741 233.817 53.6741H252.542C252.829 53.6741 253.062 53.4355 253.062 53.1412V52.9019C253.062 52.6075 252.829 52.3689 252.542 52.3689Z" fill="#43B6DD"/>
<path d="M230.077 46.5933C230.077 46.9522 229.791 47.2459 229.441 47.2459C229.092 47.2459 228.806 46.9522 228.806 46.5933C228.806 46.2344 229.092 45.9407 229.441 45.9407C229.791 45.9407 230.077 46.2344 230.077 46.5933Z" fill="#43B6DD"/>
<path d="M242.054 56.6218H233.817C233.53 56.6218 233.298 56.8604 233.298 57.1548V57.3941C233.298 57.6884 233.53 57.9271 233.817 57.9271H242.054C242.341 57.9271 242.573 57.6884 242.573 57.3941V57.1548C242.573 56.8604 242.341 56.6218 242.054 56.6218Z" fill="#43B6DD"/>
<path d="M252.542 59.8359H233.817C233.53 59.8359 233.298 60.0746 233.298 60.3689V60.6082C233.298 60.9026 233.53 61.1412 233.817 61.1412H252.542C252.829 61.1412 253.062 60.9026 253.062 60.6082V60.3689C253.062 60.0746 252.829 59.8359 252.542 59.8359Z" fill="#43B6DD"/>
<path d="M252.542 63.0498H233.817C233.53 63.0498 233.298 63.2884 233.298 63.5828V63.8221C233.298 64.1164 233.53 64.355 233.817 64.355H252.542C252.829 64.355 253.062 64.1164 253.062 63.8221V63.5828C253.062 63.2884 252.829 63.0498 252.542 63.0498Z" fill="#43B6DD"/>
<path d="M230.077 57.2744C230.077 57.6334 229.791 57.9271 229.441 57.9271C229.092 57.9271 228.806 57.6334 228.806 57.2744C228.806 56.9155 229.092 56.6218 229.441 56.6218C229.791 56.6218 230.077 56.9155 230.077 57.2744Z" fill="#43B6DD"/>
<circle cx="49.0001" cy="13.0001" r="10.7872" fill="#44B5DC"/>
<circle cx="49" cy="13" r="12.5" stroke="#44B5DC" stroke-opacity="0.6"/>
<path d="M49.2763 7.28369L44.4819 9.08156V12.7312C44.4819 15.7577 46.5255 18.5803 49.2763 19.2695C52.027 18.5803 54.0706 15.7577 54.0706 12.7312V9.08156L49.2763 7.28369ZM48.641 15.3981L46.5195 13.2766L47.3645 12.4316L48.635 13.7021L51.176 11.1611L52.021 12.0061L48.641 15.3981Z" fill="white"/>
<path d="M43.389 94.0866H8.04041C6.77796 94.0866 5.70295 93.1571 5.48243 91.8818L1.03905 65.7986C0.763407 64.1662 1.98175 62.6699 3.59703 62.6699H38.5652C39.8112 62.6699 40.8807 63.5824 41.1122 64.8407L45.9415 90.9183C46.2447 92.562 45.0208 94.0866 43.3945 94.0866H43.389Z" fill="#91E5FF" stroke="white" stroke-miterlimit="10"/>
<path d="M46.345 91.7878H10.4073C9.12377 91.7878 8.03084 90.8583 7.80665 89.583L3.28921 63.4997C3.00898 61.8674 4.24763 60.3711 5.88982 60.3711H41.4408C42.7075 60.3711 43.7948 61.2836 44.0302 62.5419L48.94 88.6195C49.2483 90.2632 48.004 91.7878 46.3506 91.7878H46.345Z" fill="white" stroke="#91E5FF" stroke-miterlimit="10"/>
<path d="M4.74902 66.501L42.9887 66.501" stroke="#91E5FF" stroke-miterlimit="10"/>
<path d="M37.3649 64.9687C37.9861 64.9687 38.4896 64.4541 38.4896 63.8193C38.4896 63.1845 37.9861 62.6699 37.3649 62.6699C36.7438 62.6699 36.2402 63.1845 36.2402 63.8193C36.2402 64.4541 36.7438 64.9687 37.3649 64.9687Z" fill="white" stroke="#91E5FF" stroke-miterlimit="10"/>
<path d="M41.4889 62.6699L39.9893 64.9687" stroke="#91E5FF" stroke-miterlimit="10"/>
<path d="M41.4891 64.9687L39.2397 62.6699" stroke="#91E5FF" stroke-miterlimit="10"/>
<rect x="12.2471" y="71.0989" width="23.9935" height="3.06504" rx="1.53252" fill="#ED725F"/>
<rect x="12.2471" y="76.4626" width="13.4963" height="3.06504" rx="1.53252" fill="#44B5DC"/>
<rect x="12.2471" y="81.8264" width="8.99756" height="3.06504" rx="1.53252" fill="#F2CE14"/>
<defs>
<filter id="filter0_d_1412_15720" x="155" y="35.1768" width="10.8335" height="10.9143" filterUnits="userSpaceOnUse" color-interpolation-filters="sRGB">
<feFlood flood-opacity="0" result="BackgroundImageFix"/>
<feColorMatrix in="SourceAlpha" type="matrix" values="0 0 0 0 0 0 0 0 0 0 0 0 0 0 0 0 0 0 127 0" result="hardAlpha"/>
<feOffset/>
<feGaussianBlur stdDeviation="2"/>
<feComposite in2="hardAlpha" operator="out"/>
<feColorMatrix type="matrix" values="0 0 0 0 1 0 0 0 0 0.716667 0 0 0 0 0.716667 0 0 0 1 0"/>
<feBlend mode="normal" in2="BackgroundImageFix" result="effect1_dropShadow_1412_15720"/>
<feBlend mode="normal" in="SourceGraphic" in2="effect1_dropShadow_1412_15720" result="shape"/>
</filter>
<linearGradient id="paint0_linear_1412_15720" x1="50.111" y1="90.6547" x2="50.2911" y2="90.6547" gradientUnits="userSpaceOnUse">
<stop offset="0.08" stop-color="#FFFBD2"/>
<stop offset="0.26" stop-color="#FFFACE"/>
<stop offset="0.43" stop-color="#FFF7C2"/>
<stop offset="0.61" stop-color="#FFF2AE"/>
<stop offset="0.78" stop-color="#FFEB92"/>
<stop offset="0.96" stop-color="#FFE36E"/>
<stop offset="1" stop-color="#FFE164"/>
</linearGradient>
</defs>
</svg>
