<svg width="195" height="140" viewBox="0 0 195 140" fill="none" xmlns="http://www.w3.org/2000/svg">
<g clip-path="url(#clip0_1823_17916)">
<path d="M180.554 75.4266C180.554 90.6085 168.239 102.925 153.039 102.925C137.839 102.925 125.523 90.6173 125.523 75.4266C125.523 60.236 137.839 47.9287 153.039 47.9287C168.239 47.9287 180.554 60.236 180.554 75.4266Z" fill="#DDF6FF" stroke="white" stroke-width="0.4" stroke-miterlimit="10"/>
<path d="M167.958 75.4266C167.958 90.6348 161.281 102.968 153.039 102.968C144.805 102.968 138.12 90.6348 138.12 75.4266C138.12 60.2184 144.797 47.8848 153.039 47.8848C161.273 47.8848 167.958 60.2184 167.958 75.4266Z" fill="#D0F1FD" stroke="white" stroke-width="0.8" stroke-miterlimit="10"/>
<path d="M153.039 47.9375V102.977" stroke="white" stroke-width="0.8" stroke-linecap="round" stroke-linejoin="round"/>
<path d="M125.506 75.4521H180.581" stroke="white" stroke-width="0.4" stroke-linecap="round" stroke-linejoin="round"/>
<path d="M153.039 47.9375C144.999 47.9375 137.364 51.4714 132.139 57.5811C137.346 60.9041 144.982 62.8205 153.039 62.8381C161.097 62.8381 168.75 60.9216 173.984 57.6075C168.759 51.4714 161.106 47.9287 153.039 47.9287V47.9375ZM153.039 88.0239C144.99 88.0415 137.346 89.9667 132.139 93.2809C137.364 99.3906 144.999 102.916 153.039 102.925C161.106 102.925 168.759 99.3818 173.984 93.2457C168.75 89.9316 161.097 88.0239 153.039 88.0152V88.0239Z" stroke="white" stroke-width="0.6" stroke-linecap="round" stroke-linejoin="round"/>
<path d="M170.735 92.1841L170.027 92.9541L176.191 98.6188L176.899 97.8488L170.735 92.1841Z" fill="#8BB0CC"/>
<path d="M175.568 96.2316C175.235 95.926 174.717 95.9477 174.412 96.28C174.106 96.6124 174.128 97.1296 174.46 97.4352L178.863 101.481C179.196 101.787 179.713 101.765 180.019 101.433C180.325 101.101 180.303 100.583 179.971 100.278L175.568 96.2316Z" fill="#D1D1D1"/>
<path d="M174.636 96.0039L174.17 96.5138C173.994 96.7072 174.002 97.0061 174.196 97.1819L179.113 101.7C179.307 101.876 179.606 101.867 179.782 101.674" stroke="#556884" stroke-miterlimit="10" stroke-linecap="round"/>
<path d="M172.014 84.5668C174.864 87.1865 175.049 91.6171 172.428 94.4566C169.806 97.3048 165.373 97.4894 162.532 94.8697C159.682 92.25 159.497 87.8194 162.118 84.98C164.74 82.1317 169.173 81.9471 172.014 84.5668Z" fill="#D1D1D1"/>
<path d="M167.273 95.1605C170.28 95.1605 172.718 92.7242 172.718 89.7189C172.718 86.7136 170.28 84.2773 167.273 84.2773C164.266 84.2773 161.828 86.7136 161.828 89.7189C161.828 92.7242 164.266 95.1605 167.273 95.1605Z" fill="#44B5DC" fill-opacity="0.2" stroke="white" stroke-miterlimit="10"/>
<path d="M171.284 93.4009C169.252 95.6162 165.804 95.7569 163.587 93.7262C161.37 91.6955 161.23 88.2495 163.262 86.0342" stroke="#556884" stroke-miterlimit="10" stroke-linecap="round"/>
<path d="M81.6527 34.8875C81.6527 34.8875 89.31 34.672 87.6298 26.9082L91.1983 32.0197C91.1983 32.0197 86.4255 38.7434 81.6453 34.8875H81.6527Z" fill="#0D395C"/>
<g opacity="0.2">
<path d="M66.0072 41.9648C54.9388 41.9648 45.9529 50.9286 45.9529 62.0063C45.9529 73.084 54.9224 82.0478 66.0072 82.0478C77.092 82.0478 86.0614 73.084 86.0614 62.0063C86.0614 50.9286 77.092 41.9648 66.0072 41.9648ZM66.0072 73.1004C59.8745 73.1004 54.8896 68.1351 54.8896 61.9899C54.8896 55.8448 59.8745 50.8794 66.0072 50.8794C72.1399 50.8794 77.1247 55.8611 77.1247 61.9899C77.1247 68.1187 72.1399 73.1004 66.0072 73.1004Z" fill="#6EDFF6"/>
<path d="M66.1217 35H65.8758C63.5574 35 61.678 36.8745 61.678 39.1869C61.678 41.4993 63.5574 43.3738 65.8758 43.3738H66.1217C68.4401 43.3738 70.3195 41.4993 70.3195 39.1869C70.3195 36.8745 68.4401 35 66.1217 35Z" fill="#6EDFF6"/>
<path d="M46.9867 42.8207L46.8128 42.9945C45.1734 44.6328 45.1708 47.2864 46.807 48.9215C48.4431 50.5566 51.0984 50.554 52.7377 48.9157L52.9117 48.7419C54.551 47.1036 54.5536 44.45 52.9175 42.8149C51.2813 41.1799 48.626 41.1824 46.9867 42.8207Z" fill="#6EDFF6"/>
<path d="M39 61.8589V62.1047C39 64.4216 40.8757 66.2998 43.1896 66.2998C45.5034 66.2998 47.3792 64.4216 47.3792 62.1047V61.8589C47.3792 59.542 45.5034 57.6638 43.1896 57.6638C40.8757 57.6638 39 59.542 39 61.8589Z" fill="#6EDFF6"/>
<path d="M46.8187 80.9868L46.9927 81.1606C48.632 82.7989 51.2873 82.8015 52.9234 81.1664C54.5596 79.5313 54.557 76.8777 52.9176 75.2394L52.7437 75.0656C51.1044 73.4273 48.4491 73.4247 46.8129 75.0598C45.1768 76.6949 45.1794 79.3485 46.8187 80.9868Z" fill="#6EDFF6"/>
<path d="M65.8756 88.9951H66.1215C68.4399 88.9951 70.3193 87.1206 70.3193 84.8082C70.3193 82.4958 68.4399 80.6213 66.1215 80.6213H65.8756C63.5572 80.6213 61.6778 82.4958 61.6778 84.8082C61.6778 87.1206 63.5572 88.9951 65.8756 88.9951Z" fill="#6EDFF6"/>
<path d="M85.0079 81.1578L85.1819 80.984C86.8212 79.3457 86.8238 76.6921 85.1877 75.057C83.5515 73.4219 80.8962 73.4245 79.2569 75.0628L79.083 75.2366C77.4436 76.8749 77.441 79.5285 79.0772 81.1636C80.7133 82.7987 83.3686 82.7961 85.0079 81.1578Z" fill="#6EDFF6"/>
<path d="M92.9973 62.1226V61.8767C92.9973 59.5599 91.1216 57.6816 88.8077 57.6816C86.4939 57.6816 84.6181 59.5599 84.6181 61.8767V62.1226C84.6181 64.4394 86.4939 66.3177 88.8077 66.3177C91.1216 66.3177 92.9973 64.4394 92.9973 62.1226Z" fill="#6EDFF6"/>
<path d="M85.181 42.9918L85.0071 42.818C83.3678 41.1797 80.7125 41.1771 79.0763 42.8122C77.4402 44.4472 77.4428 47.1008 79.0821 48.7391L79.2561 48.9129C80.8954 50.5512 83.5507 50.5538 85.1868 48.9187C86.823 47.2837 86.8204 44.6301 85.181 42.9918Z" fill="#6EDFF6"/>
</g>
<path d="M32.4055 18.4505C28.7972 18.4885 25.8049 19.5176 25.8049 19.5176C25.8049 19.5176 26.4127 23.0772 22.2092 24.3214C22.416 37.9908 28.0333 42.1873 33.1356 42.1873C38.238 42.1873 43.8553 37.9908 44.0621 24.3214C39.8544 23.0772 40.4663 19.5176 40.4663 19.5176C40.4663 19.5176 37.0605 18.3451 33.1356 18.4547C32.8909 18.4463 32.6461 18.4463 32.4055 18.4463V18.4505Z" fill="#44B5DC"/>
<path d="M33.0894 19.8498C32.8657 19.8413 32.642 19.8413 32.4226 19.8455C29.9115 19.8708 28.1558 20.3264 27.2653 20.5836C27.2316 20.9716 27.164 21.4103 26.991 21.8995C26.5732 23.072 25.5434 24.3879 23.7329 25.223C23.9481 31.3301 25.3155 35.2694 27.0501 37.5807C28.8775 40.0142 31.013 40.7987 33.14 40.7987C35.267 40.7987 37.4025 40.0184 39.2299 37.5807C40.9603 35.2694 42.3276 31.3344 42.5471 25.223C40.7366 24.3879 39.7068 23.072 39.289 21.8995C39.1118 21.4018 39.0442 20.959 39.0105 20.5668C37.8203 20.2547 35.63 19.7823 33.1864 19.854H33.0978L33.0894 19.8498Z" fill="#C2F2FF" stroke="white" stroke-linecap="round" stroke-linejoin="round"/>
<path d="M31.7324 23.1025C30.6868 23.1025 29.8277 23.961 29.8277 25.006V27.4735C29.543 27.552 29.2632 27.6354 28.9785 27.7335V34.4102C31.6538 34.9351 34.339 35.357 37.1125 34.4102V27.7335C36.8278 27.6452 36.548 27.5667 36.2633 27.4981V25.006C36.2633 23.961 35.4042 23.1025 34.3586 23.1025H31.7275H31.7324ZM31.7324 23.9561H34.3635C34.9526 23.9561 35.414 24.4173 35.414 25.006V27.3067C33.8137 26.9977 32.238 26.9732 30.6868 27.2724V25.006C30.6868 24.4173 31.1482 23.9561 31.7373 23.9561H31.7324ZM33.048 29.2396C33.5143 29.2396 33.8972 29.6173 33.8972 30.0883C33.8972 30.417 33.7107 30.7113 33.4112 30.8536V32.0849H32.6847V30.8536C32.3902 30.7113 32.1987 30.417 32.1987 30.0883C32.1987 29.6222 32.5767 29.2396 33.048 29.2396Z" fill="#44B5DC"/>
<path d="M119.798 30.3477C122.363 30.9718 126.177 26.0312 123.389 24.3447C125.359 20.9345 121.478 15.3773 117.687 17.3684C117.531 16.6626 117.412 15.9494 117.144 15.2807C116.638 14.0102 115.367 12.5986 114.096 12.0637C112.386 11.3431 105.123 8.92104 99.8965 13.2599C98.0231 14.3743 95.5698 18.1856 95.5698 18.1856C95.5698 18.1856 92.7819 25.0579 94.4546 29.1441C94.4546 29.1441 96.8039 32.2125 97.6811 33.5424C101.933 39.9392 110.758 37.2943 116.059 33.6613C116.557 33.3195 117.248 32.8738 117.627 32.4057C118.088 31.8411 118.988 29.85 119.783 30.3477H119.798Z" fill="#0D395C"/>
<path d="M101.234 47.0501C98.0303 45.9803 94.5287 42.7039 94.38 42.5627L94.2537 42.4439L94.3726 42.3101C94.3726 42.3101 96.5285 39.7989 97.8741 36.8717C97.9708 36.2476 97.9708 35.8316 97.9634 35.1481C97.9634 34.5017 97.9559 33.625 98.0451 32.0797C97.324 31.1287 96.5583 29.5388 97.8741 26.6933C98.848 24.8434 99.9409 24.5685 100.506 24.5685C101.026 24.5685 101.517 24.7988 101.889 25.2148C102.364 25.7498 102.58 26.5224 102.476 27.3397C102.193 28.8999 101.524 30.304 101.361 30.6384C101.658 31.4408 102.127 32.2803 102.372 32.2803C102.416 32.2803 102.483 32.2134 102.535 32.102C102.729 31.7305 102.848 30.4081 102.944 29.2491C103.1 27.466 103.212 26.359 103.502 26.0618C103.74 25.8241 103.955 25.7126 104.178 25.7126C104.468 25.7126 104.706 25.8909 105.011 26.1138C105.271 26.307 105.591 26.5447 106.03 26.723C106.193 26.7899 106.364 26.827 106.535 26.827C108.505 26.827 110.237 22.4808 110.252 22.4362L110.349 22.1836L110.55 22.3693C110.602 22.4139 115.791 27.1762 120.846 28.6621L121.032 28.7141L120.972 28.8924C120.943 28.9816 117.976 38.0382 113.612 42.7485C111.68 44.5538 109.62 45.5048 107.65 45.5048C106.907 45.5048 106.201 45.3636 105.539 45.0962C105.145 44.9327 104.825 44.7693 104.543 44.6281C104.119 44.4127 103.814 44.2566 103.561 44.2566C103.063 44.2566 102.573 44.8882 101.457 46.9684L101.383 47.1096L101.234 47.0576V47.0501Z" fill="#FFF8E9"/>
<path d="M110.423 22.4952C110.423 22.4952 115.635 27.317 120.794 28.8326C120.794 28.8326 117.858 37.8817 113.479 42.6217C111.524 44.4494 109.479 45.3112 107.65 45.3112C106.929 45.3112 106.245 45.1775 105.613 44.9175C104.602 44.5014 104.052 44.0631 103.561 44.0631C102.959 44.0631 102.454 44.7169 101.294 46.8788C98.0899 45.809 94.5066 42.4286 94.5066 42.4286C94.5066 42.4286 96.6625 39.9397 98.0304 36.9456C98.2609 35.6009 98.0304 35.2665 98.2237 32.0198C97.5992 31.21 96.6774 29.6944 98.0304 26.7672C98.7887 25.3184 99.7031 24.7464 100.491 24.7464C101.599 24.7464 102.454 25.8756 102.275 27.3021C101.956 29.0332 101.138 30.6157 101.138 30.6157C101.138 30.6157 101.8 32.4507 102.357 32.4507C102.476 32.4507 102.588 32.369 102.684 32.1759C103.13 31.3215 103.123 26.6854 103.621 26.1802C103.829 25.9648 104 25.8831 104.164 25.8831C104.61 25.8831 105.011 26.4997 105.94 26.8786C106.134 26.9603 106.327 26.9901 106.513 26.9901C108.632 26.9901 110.401 22.4878 110.401 22.4878M110.252 21.8488L110.052 22.354C109.583 23.5428 108.037 26.626 106.505 26.626C106.357 26.626 106.216 26.5963 106.067 26.5369C105.651 26.366 105.353 26.1505 105.086 25.9499C104.766 25.7122 104.491 25.5116 104.141 25.5116C103.859 25.5116 103.606 25.6379 103.331 25.9202C103.011 26.2471 102.9 27.1758 102.721 29.2189C102.625 30.311 102.506 31.6632 102.327 32.005C102.313 32.0273 102.305 32.0496 102.298 32.057C102.127 31.9233 101.77 31.2992 101.517 30.6305C101.733 30.1922 102.342 28.84 102.617 27.369C102.729 26.4774 102.491 25.6527 101.985 25.0807C101.584 24.6275 101.041 24.3749 100.461 24.3749C99.8518 24.3749 98.6846 24.6646 97.6736 26.5889C96.3354 29.4864 97.0788 31.1283 97.8148 32.1238C97.7256 33.632 97.733 34.5013 97.7405 35.1402C97.7405 35.794 97.7405 36.1952 97.6438 36.8267C96.3057 39.7094 94.2166 42.1537 94.1943 42.176L93.9639 42.4434L94.2241 42.6886C94.3728 42.8298 97.904 46.1359 101.145 47.2206L101.443 47.3172L101.591 47.0423C102.64 45.0883 103.13 44.4271 103.532 44.4271C103.747 44.4271 104.045 44.5831 104.431 44.7763C104.714 44.9249 105.041 45.0883 105.442 45.2518C106.126 45.5341 106.855 45.6753 107.621 45.6753C109.643 45.6753 111.747 44.7094 113.702 42.8818C118.11 38.1195 120.995 29.3081 121.121 28.9366L121.24 28.5725L120.876 28.4611C115.858 26.9826 110.706 22.2575 110.654 22.2055L110.252 21.834V21.8488Z" fill="#0D395C"/>
<path d="M99.6403 38.6338C99.6403 38.6338 100.392 40.762 102.392 42.8444C102.883 43.4165 103.232 43.7211 103.894 44.0851C103.292 43.8325 102.754 44.4933 102.107 45.4071C101.475 44.8424 100.971 44.1991 100.392 43.1362C98.4207 39.5114 99.6403 38.6338 99.6403 38.6338Z" fill="#F8E4CD"/>
<path d="M102.32 30.8382C104.023 31.7148 105.316 29.434 104.558 28.0595C107.167 29.2037 110.223 26.3507 110.58 24.0922C111.271 25.5186 112.252 26.0907 113.739 25.5929C115.01 27.6212 116.735 28.7505 119.077 28.535C119.597 30.4518 121.768 29.9392 122.028 28.0892C122.11 27.48 121.694 26.4548 121.478 25.9124C120.489 23.4161 117.553 21.321 115.129 20.4294C112.49 19.4562 108.424 18.8767 106.141 20.9941C105.651 21.4473 105.517 22.1456 105.123 22.6657C104.231 23.8321 103.428 24.7683 103.056 26.2319C102.826 27.1308 102.967 28.0818 102.818 28.9882C102.714 29.6346 102.38 30.1695 102.335 30.8307L102.32 30.8382Z" fill="#0D395C"/>
<path d="M98.0528 42.9626C97.235 42.3386 94.7063 39.3379 94.7063 39.3379L93.399 41.499C93.399 41.499 85.935 40.5183 82.9464 41.0087C79.9578 41.499 70.3602 47.5838 67.1709 56.2466C63.9816 64.9168 57.1421 84.9468 57.1941 87.2351C57.2462 89.5234 58.8594 90.8384 58.8594 90.8384L57.4469 94.4491C57.4469 94.4491 83.8013 105.519 95.3319 102.688C94.4695 100.46 94.7446 99.9618 94.7446 99.9618C94.7446 99.9618 98.9003 98.4833 100.164 96.7448C101.428 95.0063 100.172 77.3241 100.699 74.6049C101.227 71.8857 112.906 58.8915 107.591 49.8647C105.636 48.7874 103.792 47.3461 103.792 47.3461L104.595 46.1722C104.595 46.1722 102.335 46.2093 98.0602 42.9626H98.0528Z" fill="#F2CE14"/>
<path d="M56.7745 70.6758H120.875C123.223 70.6758 125.121 72.6436 125.121 75.0665L125.141 121.044C125.141 123.467 123.242 125.435 120.895 125.435H56.8002C54.4527 125.435 52.5542 123.467 52.5542 121.044L52.5349 75.0665C52.5349 72.6436 54.4334 70.6758 56.7809 70.6758H56.7745Z" fill="#C4C4C4"/>
<path d="M59.09 70.6758H123.191C125.538 70.6758 127.437 72.6436 127.437 75.0665L127.456 121.044C127.456 123.467 125.558 125.435 123.21 125.435H59.1093C56.7618 125.435 54.8632 123.467 54.8632 121.044L54.844 75.0665C54.844 72.6436 56.7425 70.6758 59.09 70.6758Z" fill="#EDEDED"/>
<path d="M57.1348 120.846L57.1348 120.845L57.1155 75.2588C57.1155 75.2588 57.1155 75.2588 57.1155 75.2588C57.1156 74.025 57.9534 73.1385 59.0321 73.1385H123.248C124.327 73.1385 125.165 74.0251 125.165 75.2588L125.184 120.846C125.184 122.079 124.346 122.966 123.268 122.966H59.0514C57.9726 122.966 57.1348 122.079 57.1348 120.846Z" fill="#0068A5" stroke="black" stroke-width="0.4"/>
<path d="M61.5224 94.417C60.7213 94.417 60.1162 94.9054 60.1162 95.5576L60.129 117.967C60.129 118.619 60.7341 119.108 61.5352 119.108H104.198C104.999 119.108 105.605 118.619 105.605 117.967L105.592 95.5576C105.592 94.9054 104.987 94.417 104.186 94.417H61.5224Z" fill="url(#paint0_linear_1823_17916)" fill-opacity="0.8"/>
<path d="M84.9506 80.1719C84.2997 80.1719 83.8081 80.7354 83.8081 81.488L83.8185 107.345C83.8185 108.098 84.3101 108.661 84.961 108.661H119.625C120.276 108.661 120.767 108.098 120.767 107.345L120.757 81.488C120.757 80.7354 120.265 80.1719 119.614 80.1719H84.9506Z" fill="url(#paint1_linear_1823_17916)"/>
<path d="M54.6707 81.874V120.679C54.6707 123.301 56.6141 125.429 59.0065 125.429H78.1841" stroke="#556884" stroke-miterlimit="10" stroke-linecap="round"/>
<path d="M56.9861 110.897V120.948C56.9861 122.127 57.8584 123.089 58.9423 123.089H112.165" stroke="#556884" stroke-miterlimit="10" stroke-linecap="round"/>
<path d="M57.5955 130.37H139.014C140.399 130.37 141.522 129.261 141.522 127.902C141.522 126.537 140.399 125.435 139.014 125.435H57.5955C56.2101 125.435 55.0876 126.543 55.0876 127.902C55.0876 129.268 56.2101 130.37 57.5955 130.37Z" fill="#C4C4C4"/>
<path d="M84.1555 130.37H144.305C145.19 130.37 145.909 129.261 145.909 127.902C145.909 126.537 145.19 125.435 144.305 125.435H84.1555C83.2704 125.435 82.552 126.543 82.552 127.902C82.552 129.268 83.2704 130.37 84.1555 130.37Z" fill="#D1D1D1"/>
<path d="M65.4269 127.102H59.9045V128.486H65.4269V127.102Z" fill="#3D62B3"/>
<path d="M72.957 127.102H67.4346V128.486H72.957V127.102Z" fill="#3D62B3"/>
<path d="M124.429 84.3307C124.429 84.3307 123.641 87.5476 123.151 87.7557C122.66 87.9637 121.002 89.5462 120.103 90.6457C119.203 91.7453 116.571 93.7736 117.018 94.9994C117.464 96.2327 119.114 95.4972 120.519 93.6844C119.077 97.2209 117.597 102.191 118.497 102.845C119.396 103.499 121.307 99.0931 121.946 98.0604C122.586 97.0277 119.947 103.469 120.467 104.427C120.987 105.386 122.63 103.135 124.288 99.1154C125.024 98.1198 122.853 103.506 123.716 104.056C124.586 104.606 125.916 100.728 126.452 99.4571C126.979 98.1867 125.961 102.258 126.303 102.927C126.637 103.595 127.544 103.276 128.251 101.656C128.957 100.037 130.763 94.5982 130.697 92.9786C130.63 91.359 130.184 90.356 130.184 90.356L131.165 86.2103L124.437 84.3232L124.429 84.3307Z" fill="#FFF8E9" stroke="#0D395C" stroke-width="0.4" stroke-miterlimit="10"/>
<path d="M99.1235 50.5189C99.1235 50.5189 103.718 47.7551 107.888 50.0137C112.059 52.2723 130.303 60.0658 134.258 62.993C138.213 65.9203 137.224 76.225 136.689 80.4078C136.154 84.5906 132.503 86.1434 132.503 86.1434L131.477 88.8477L122.645 87.2875L123.381 84.8283C123.381 84.8283 119.456 83.9591 119.04 82.3692C118.616 80.7793 116.029 72.5758 116.029 72.5758L96.0754 67.1833L99.1235 50.5263V50.5189Z" fill="#F2CE14"/>
<path d="M83.7939 85.2746C83.7939 85.2746 86.7974 86.6714 87.2731 86.4188C87.7415 86.1662 90.0089 85.8616 91.4363 85.8541C92.8563 85.8393 96.0902 85.0592 96.7667 86.1736C97.4506 87.288 95.8448 88.1201 93.5477 88.0755C97.2127 89.1677 102.015 91.1216 101.963 92.2361C101.911 93.3505 97.2722 92.0801 96.0679 91.9315C94.8635 91.7829 101.539 93.7591 101.971 94.7621C102.394 95.7651 99.6066 95.6462 95.436 94.4129C94.1944 94.3609 99.7627 96.04 99.6512 97.0578C99.5322 98.0757 95.6739 96.6938 94.3506 96.3074C93.0273 95.9285 96.841 97.6819 97.1533 98.358C97.4655 99.0415 96.6477 99.5393 94.9379 99.0786C93.228 98.618 87.8604 96.6195 86.6338 95.5571C85.4146 94.4946 84.9091 93.5139 84.9091 93.5139L81.0581 91.6863L83.7939 85.2598V85.2746Z" fill="#FFF8E9" stroke="#0D395C" stroke-width="0.4" stroke-miterlimit="10"/>
<path d="M86.0985 41.0011C80.0916 40.3548 70.1446 44.8273 67.2898 49.0324C64.435 53.2375 51.886 68.6092 51.6779 75.5632C51.4697 82.5246 71.676 92.7773 74.7612 93.6094C77.8539 94.4415 79.6753 92.0195 79.6753 92.0195L82.991 93.2751L87.6299 85.5038L84.6934 84.7758C84.6934 84.7758 85.7937 84.9243 85.1989 81.7222C84.6042 78.5201 70.9103 70.0653 70.9103 70.0653C70.9103 70.0653 88.4849 49.9462 82.9315 41.0011H86.091H86.0985Z" fill="#F2CE14"/>
<path d="M116.177 72.5103C116.177 72.5103 118.192 66.381 123.954 67.2577" stroke="#0B2140" stroke-width="0.4" stroke-miterlimit="10" stroke-linecap="round"/>
<path d="M83.3331 42.7188C83.3331 42.7188 85.7938 47.6445 84.4705 51.2255C83.1472 54.8066 73.1853 66.7755 73.1853 66.7755" stroke="#0B2140" stroke-width="0.4" stroke-miterlimit="10" stroke-linecap="round"/>
<path d="M70.509 70.3188C70.509 70.3188 63.0822 68.2609 59.0156 72.6591" stroke="#0B2140" stroke-width="0.4" stroke-miterlimit="10" stroke-linecap="round"/>
<path d="M83.4148 86.0537L80.0024 91.0463" stroke="#0B2140" stroke-width="0.5" stroke-miterlimit="10" stroke-linecap="round"/>
<path d="M124.363 84.5762L131.566 86.2107" stroke="#0B2140" stroke-width="0.5" stroke-miterlimit="10" stroke-linecap="round"/>
<path d="M112.238 37.3538C112.238 37.3538 112.528 37.4058 112.989 37.5321C113.108 37.5693 113.22 37.5916 113.257 37.5396C113.309 37.495 113.294 37.391 113.279 37.2795C113.249 37.0492 113.22 36.8115 113.19 36.5589C113.078 35.541 113.026 35.5336 113.078 35.541C113.13 35.541 113.272 35.5633 113.391 36.5812C113.413 36.8338 113.443 37.0715 113.465 37.3018C113.465 37.4058 113.502 37.5321 113.398 37.6287C113.346 37.6733 113.242 37.6882 113.168 37.6733C113.086 37.6584 113.026 37.6362 112.967 37.6213C112.513 37.4727 112.238 37.3687 112.246 37.3538H112.238Z" fill="#0D395C" stroke="#0D395C" stroke-width="0.25" stroke-miterlimit="10"/>
<path d="M107.896 37.2051L111.553 39.4042C111.553 39.4042 110.081 42.6212 107.881 41.5216C105.978 40.0952 107.13 38.5721 107.896 37.2051Z" fill="#FF4E63" stroke="#0D395C" stroke-width="0.4" stroke-miterlimit="10"/>
<path d="M110.899 40.1627L107.524 38.2311L107.948 37.4658L111.331 39.4718L110.899 40.1702V40.1627Z" fill="#CFE4F1"/>
<path d="M112.559 30.591C112.367 30.6707 111.957 30.0717 111.317 29.5139C110.688 28.9431 110.048 28.598 110.107 28.3979C110.134 28.3052 110.355 28.2697 110.673 28.3468C111 28.4181 111.42 28.6237 111.802 28.9657C112.184 29.3077 112.432 29.7041 112.547 30.018C112.661 30.332 112.652 30.5504 112.559 30.591Z" fill="#0D395C"/>
<path d="M108.974 33.3419C109.576 33.7059 110.394 33.4607 110.795 32.7921C111.197 32.1234 111.026 31.2913 110.423 30.9273C109.821 30.5632 109.003 30.8084 108.602 31.4771C108.201 32.1457 108.371 32.9778 108.974 33.3419Z" fill="#0D395C"/>
<path d="M110.226 32.5494C110.364 32.6277 110.54 32.5886 110.619 32.4514C110.697 32.3142 110.658 32.1379 110.521 32.0595C110.383 31.9811 110.207 32.0203 110.128 32.1575C110.05 32.2946 110.089 32.471 110.226 32.5494Z" fill="white"/>
<path d="M118.825 33.0853C118.704 33.221 118.149 32.9107 117.435 32.7067C116.72 32.4956 116.088 32.471 116.052 32.2886C116.033 32.2091 116.197 32.0936 116.481 32.0335C116.763 31.9662 117.175 31.9669 117.61 32.0922C118.038 32.2192 118.387 32.4337 118.596 32.636C118.804 32.8382 118.878 33.0192 118.825 33.0853Z" fill="#0D395C"/>
<path d="M115.341 36.0464C115.869 36.3659 116.59 36.1504 116.939 35.5635C117.289 34.9766 117.147 34.2485 116.612 33.929C116.077 33.6096 115.371 33.825 115.014 34.4119C114.657 34.9989 114.806 35.727 115.341 36.0464Z" fill="#0D395C"/>
<path d="M116.459 35.4228C116.593 35.5012 116.772 35.4564 116.851 35.3221C116.929 35.1877 116.884 35.0085 116.75 34.9302C116.615 34.8518 116.436 34.8966 116.358 35.0309C116.279 35.1653 116.324 35.3444 116.459 35.4228Z" fill="white"/>
<path d="M100.692 17.9551C100.692 17.9551 96.0754 11.484 90.2469 14.6192C86.3737 16.7069 86.1135 20.3696 86.8123 24.4782C87.0799 26.0829 87.4442 27.762 87.8977 29.4188C89.6076 35.7413 83.2959 39.2554 83.2959 39.2554C83.2959 39.2554 83.8237 40.0875 88.3289 38.8468C93.7633 37.3535 95.2799 30.0874 93.9641 26.9002C90.7822 19.1735 94.5068 16.3577 97.3541 17.9476C99.0788 18.906 97.7407 16.8703 97.7407 16.8703L101.711 19.1363L100.692 17.9476V17.9551Z" fill="#0D395C"/>
<path d="M101.64 27.4801C101.64 27.4801 101.379 26.1279 100.004 26.6926C99.1119 27.064 98.5915 29.9913 99.3349 30.6525C99.8033 31.0685 100.405 30.1176 100.405 30.1176C100.405 30.1176 100.145 29.2632 100.205 28.758C100.264 28.2602 100.777 28.5425 100.777 28.5425C101.35 28.327 101.64 27.4801 101.64 27.4801Z" fill="#F8E4CD"/>
<path d="M93.964 26.9088C93.964 26.9088 96.5659 31.7305 94.8338 35.4453C93.1016 39.16 90.2468 39.4795 90.2468 39.4795C90.2468 39.4795 92.3433 37.4215 91.8526 35.4453C91.362 33.469 90.2468 32.0129 90.2468 32.0129L93.964 26.9014V26.9088Z" fill="#0D395C"/>
<g filter="url(#filter0_d_1823_17916)">
<path d="M137.352 42.1379C142.324 42.1379 146.355 38.1097 146.355 33.1407C146.355 28.1717 142.324 24.1436 137.352 24.1436C132.38 24.1436 128.349 28.1717 128.349 33.1407C128.349 38.1097 132.38 42.1379 137.352 42.1379Z" fill="#9FC500"/>
<path fill-rule="evenodd" clip-rule="evenodd" d="M135.826 35.01C135.693 37.8086 136.948 38.3001 137.926 38.3405C139.951 38.4157 141.207 37.1089 141.27 34.3277L142.335 30.6849C142.526 29.7828 141.351 29.5515 141.068 30.4362L140.293 32.8416C140.258 32.7954 140.2 32.7491 140.148 32.7086L140.808 28.9444C140.906 28.0192 139.616 27.9961 139.523 28.7767L138.869 32.2345C138.835 32.2229 138.754 32.2229 138.725 32.2229L138.945 27.759C138.973 26.9033 137.677 26.8686 137.654 27.7244L137.423 32.4889C137.365 32.5178 137.307 32.5525 137.249 32.5872C136.405 32.2808 135.953 32.3501 136.104 33.229C136.237 34.0096 136.208 34.5763 135.826 35.0215V35.01Z" fill="white"/>
<path fill-rule="evenodd" clip-rule="evenodd" d="M132.852 34.3453C132.447 33.1715 133.743 33.0964 133.992 33.7729C134.385 34.8426 135.513 35.444 136.329 35.681C137.134 35.9181 136.653 37.1728 135.791 37.0052C134.894 36.8317 133.28 35.5769 132.858 34.3453H132.852Z" fill="white"/>
<path fill-rule="evenodd" clip-rule="evenodd" d="M136.046 32.9967C136.26 33.7368 136.202 35.7895 134.929 35.0204C134.177 34.5694 133.801 35.83 134.796 36.5759C135.352 36.9922 136.098 37.715 136.833 37.715C137.845 37.715 138.667 36.7146 138.667 35.483C138.667 32.2218 136.04 32.9851 136.046 32.9967Z" fill="white"/>
<path fill-rule="evenodd" clip-rule="evenodd" d="M133.847 33.1251C134.119 32.8417 135.38 31.4193 136.104 33.2176C136.827 35.0216 137.62 33.5934 137.18 32.4659C136.74 31.3384 134.935 30.101 133.13 32.1074C132.308 33.021 133.292 33.6975 133.847 33.1251Z" fill="white"/>
<path fill-rule="evenodd" clip-rule="evenodd" d="M131.192 36.4893L128.349 41.7123L135.106 39.931L131.192 36.4893Z" fill="#9FC500"/>
</g>
<path d="M152.365 26.0523L148.269 26.1726L149.753 29.1028L152.365 26.0523Z" fill="#FFD700"/>
<path d="M147.983 21.3256L144.45 23.5213L147.359 25.1651L147.983 21.3256Z" fill="#FFD700"/>
<path d="M153.141 32.3262L149.783 30.4518L149.174 33.7482L153.141 32.3262Z" fill="#FFD700"/>
<path opacity="0.3" d="M105.353 67.9708C105.353 67.9708 92.3581 70.4448 86.7972 67.369C81.2364 64.2932 78.0917 60.6602 78.0917 60.6602L71.8246 68.9961L71.1853 70.6677L103.703 70.8163L105.353 67.9782V67.9708Z" fill="#ED725F"/>
<path d="M105.123 57.1162L106.528 63.513C106.885 66.7226 105.725 68.3868 103.175 70.3704" stroke="#0B2140" stroke-width="0.4" stroke-miterlimit="10" stroke-linecap="round"/>
<path opacity="0.3" d="M116.029 72.6662C116.029 72.6662 111.643 68.684 110.646 67.1684C108.609 64.0703 104.223 53.8027 104.223 53.8027C104.223 53.8027 106.275 61.8712 106.453 64.6275C106.587 66.7672 104.342 69.323 104.342 69.323L116.029 72.6662Z" fill="#ED725F"/>
<path d="M83.9204 35.0504C83.9204 35.0059 84.3293 34.9984 85.0281 34.7978C85.7195 34.5972 86.7231 34.1737 87.6672 33.2673C88.604 32.3832 89.4886 30.9865 89.5704 29.2703C89.6894 27.5541 89.0946 25.7115 88.6634 23.7279C88.2174 21.7442 88.2099 19.6639 88.9162 17.97C89.615 16.2761 90.9755 15.0874 92.3137 14.7382C93.6593 14.389 94.7893 14.7679 95.4063 15.1691C95.726 15.3771 95.9267 15.5851 96.0531 15.7337C96.172 15.8897 96.2241 15.9789 96.2166 15.9863C96.1869 16.016 95.9416 15.6743 95.3171 15.3177C94.7075 14.9833 93.6295 14.6787 92.3954 15.0428C91.1762 15.3994 89.9347 16.5212 89.2954 18.1186C88.6486 19.7159 88.6634 21.6848 89.0946 23.6239C89.5184 25.5704 90.128 27.4649 89.9793 29.2926C89.8678 31.1351 88.879 32.6136 87.8754 33.5051C86.8495 34.4189 85.7864 34.8127 85.0578 34.9687C84.6936 35.043 84.4036 35.0727 84.2029 35.0653C84.0096 35.0653 83.9055 35.0653 83.9055 35.043L83.9204 35.0504Z" fill="#375A64"/>
<path d="M97.5324 14.916C97.5324 14.916 95.7184 16.127 95.4285 17.5535L95.7407 17.9324L97.9933 14.9755L97.5324 14.916Z" fill="#44B5DC"/>
<g filter="url(#filter1_f_1823_17916)">
<circle cx="109" cy="36" r="1" fill="#FFBFB6"/>
</g>
<circle cx="65" cy="102" r="0.9" stroke="white" stroke-opacity="0.5" stroke-width="0.2"/>
<circle cx="68" cy="102" r="0.9" stroke="white" stroke-opacity="0.5" stroke-width="0.2"/>
<circle cx="71" cy="102" r="0.9" stroke="white" stroke-opacity="0.5" stroke-width="0.2"/>
<path d="M42.335 82.4648H10.5303C8.89986 82.4648 7.57812 83.7857 7.57812 85.4151V109.813C7.57812 111.443 8.89986 112.763 10.5303 112.763H42.335C43.9654 112.763 45.2872 111.443 45.2872 109.813V85.4151C45.2872 83.7857 43.9654 82.4648 42.335 82.4648Z" fill="#91E5FF"/>
<path d="M40.7568 81H8.95218C7.32174 81 6 82.3209 6 83.9503V108.348C6 109.978 7.32174 111.299 8.95218 111.299H40.7568C42.3873 111.299 43.709 109.978 43.709 108.348V83.9503C43.709 82.3209 42.3873 81 40.7568 81Z" fill="white" stroke="#91E5FF" stroke-width="0.8" stroke-miterlimit="10"/>
<path d="M43.7161 87.8867H6V87.9994H43.7161V87.8867Z" stroke="#91E5FF" stroke-width="0.4" stroke-miterlimit="10"/>
<path d="M13.8913 85.3937C14.5607 85.3937 15.1032 84.8445 15.1032 84.1685C15.1032 83.4926 14.5607 82.9434 13.8913 82.9434C13.222 82.9434 12.6794 83.4926 12.6794 84.1685C12.6794 84.8445 13.222 85.3937 13.8913 85.3937Z" fill="#43B6DD"/>
<path d="M17.2946 85.3937C17.964 85.3937 18.5065 84.8445 18.5065 84.1685C18.5065 83.4926 17.964 82.9434 17.2946 82.9434C16.6253 82.9434 16.0828 83.4926 16.0828 84.1685C16.0828 84.8445 16.6253 85.3937 17.2946 85.3937Z" fill="#0D395C"/>
<path d="M10.2976 85.3937C10.9669 85.3937 11.5094 84.8445 11.5094 84.1685C11.5094 83.4926 10.9669 82.9434 10.2976 82.9434C9.62822 82.9434 9.08569 83.4926 9.08569 84.1685C9.08569 84.8445 9.62822 85.3937 10.2976 85.3937Z" fill="#ED725F"/>
<path d="M38.5516 91.9355H21.7192C20.9994 91.9355 20.4158 92.5172 20.4158 93.2347C20.4158 93.9521 20.9994 94.5338 21.7192 94.5338H38.5516C39.2715 94.5338 39.8551 93.9521 39.8551 93.2347C39.8551 92.5172 39.2715 91.9355 38.5516 91.9355Z" fill="#ED725F"/>
<path d="M31.6324 97.1318H14.8001C14.0802 97.1318 13.4966 97.7135 13.4966 98.431C13.4966 99.1484 14.0802 99.7301 14.8001 99.7301H31.6324C32.3523 99.7301 32.9359 99.1484 32.9359 98.431C32.9359 97.7135 32.3523 97.1318 31.6324 97.1318Z" fill="#44B5DC"/>
<path d="M38.5516 101.92H29.4343C28.7144 101.92 28.1309 102.502 28.1309 103.219C28.1309 103.937 28.7144 104.518 29.4343 104.518H38.5516C39.2715 104.518 39.855 103.937 39.855 103.219C39.855 102.502 39.2715 101.92 38.5516 101.92Z" fill="#F2CE14"/>
<path d="M14.6903 122.413C12.4308 122.413 10.5925 124.241 10.5925 126.5C10.5925 128.759 12.4251 130.586 14.6903 130.586C16.9555 130.586 18.7881 128.759 18.7881 126.5C18.7881 124.241 16.9555 122.413 14.6903 122.413ZM14.6903 128.759C13.4382 128.759 12.4195 127.748 12.4195 126.494C12.4195 125.24 13.4382 124.229 14.6903 124.229C15.9424 124.229 16.9612 125.245 16.9612 126.494C16.9612 127.743 15.9424 128.759 14.6903 128.759Z" fill="white"/>
<path d="M14.7185 121H14.6616C14.1901 121 13.8079 121.381 13.8079 121.851V121.857C13.8079 122.327 14.1901 122.708 14.6616 122.708H14.7185C15.19 122.708 15.5722 122.327 15.5722 121.857V121.851C15.5722 121.381 15.19 121 14.7185 121Z" fill="white"/>
<path d="M10.8087 122.585L10.7685 122.626C10.4351 122.958 10.4351 123.497 10.7685 123.83L10.7725 123.834C11.1059 124.166 11.6464 124.166 11.9798 123.834L12.02 123.793C12.3534 123.461 12.3534 122.922 12.02 122.589L12.016 122.585C11.6826 122.253 11.1421 122.253 10.8087 122.585Z" fill="white"/>
<path d="M9.17529 126.472V126.528C9.17529 126.999 9.55751 127.38 10.029 127.38H10.0347C10.5062 127.38 10.8884 126.999 10.8884 126.528V126.472C10.8884 126.002 10.5062 125.62 10.0347 125.62H10.029C9.55751 125.62 9.17529 126.002 9.17529 126.472Z" fill="white"/>
<path d="M10.7699 130.372L10.8102 130.413C11.1436 130.745 11.6841 130.745 12.0175 130.413L12.0215 130.409C12.3549 130.076 12.3549 129.537 12.0215 129.205L11.9813 129.164C11.6479 128.832 11.1073 128.832 10.7739 129.164L10.7699 129.168C10.4365 129.501 10.4365 130.04 10.7699 130.372Z" fill="white"/>
<path d="M14.6616 132H14.7186C15.19 132 15.5723 131.619 15.5723 131.149V131.143C15.5723 130.673 15.19 130.292 14.7186 130.292H14.6616C14.1902 130.292 13.8079 130.673 13.8079 131.143V131.149C13.8079 131.619 14.1902 132 14.6616 132Z" fill="white"/>
<path d="M18.5739 130.409L18.6141 130.369C18.9475 130.036 18.9475 129.497 18.6141 129.165L18.6101 129.161C18.2767 128.828 17.7362 128.828 17.4028 129.161L17.3625 129.201C17.0291 129.533 17.0291 130.072 17.3625 130.405L17.3665 130.409C17.6999 130.741 18.2405 130.741 18.5739 130.409Z" fill="white"/>
<path d="M20.2109 126.528V126.472C20.2109 126.001 19.8287 125.62 19.3572 125.62H19.3515C18.8801 125.62 18.4978 126.001 18.4978 126.472V126.528C18.4978 126.998 18.8801 127.38 19.3515 127.38H19.3572C19.8287 127.38 20.2109 126.998 20.2109 126.528Z" fill="white"/>
<path d="M18.6144 122.628L18.5741 122.587C18.2407 122.255 17.7002 122.255 17.3668 122.587L17.3628 122.591C17.0294 122.924 17.0294 123.463 17.3628 123.795L17.403 123.836C17.7364 124.168 18.2769 124.168 18.6103 123.836L18.6144 123.832C18.9478 123.499 18.9478 122.96 18.6144 122.628Z" fill="white"/>
</g>
<defs>
<filter id="filter0_d_1823_17916" x="128.349" y="24.1436" width="19.0059" height="18.9941" filterUnits="userSpaceOnUse" color-interpolation-filters="sRGB">
<feFlood flood-opacity="0" result="BackgroundImageFix"/>
<feColorMatrix in="SourceAlpha" type="matrix" values="0 0 0 0 0 0 0 0 0 0 0 0 0 0 0 0 0 0 127 0" result="hardAlpha"/>
<feOffset dx="1" dy="1"/>
<feComposite in2="hardAlpha" operator="out"/>
<feColorMatrix type="matrix" values="0 0 0 0 0 0 0 0 0 0 0 0 0 0 0 0 0 0 0.1 0"/>
<feBlend mode="normal" in2="BackgroundImageFix" result="effect1_dropShadow_1823_17916"/>
<feBlend mode="normal" in="SourceGraphic" in2="effect1_dropShadow_1823_17916" result="shape"/>
</filter>
<filter id="filter1_f_1823_17916" x="106" y="33" width="6" height="6" filterUnits="userSpaceOnUse" color-interpolation-filters="sRGB">
<feFlood flood-opacity="0" result="BackgroundImageFix"/>
<feBlend mode="normal" in="SourceGraphic" in2="BackgroundImageFix" result="shape"/>
<feGaussianBlur stdDeviation="1" result="effect1_foregroundBlur_1823_17916"/>
</filter>
<linearGradient id="paint0_linear_1823_17916" x1="82.8604" y1="94.417" x2="82.8604" y2="119.108" gradientUnits="userSpaceOnUse">
<stop stop-color="#0190C3"/>
<stop offset="1" stop-color="#0190C3" stop-opacity="0"/>
</linearGradient>
<linearGradient id="paint1_linear_1823_17916" x1="102.288" y1="80.1719" x2="102.288" y2="108.661" gradientUnits="userSpaceOnUse">
<stop stop-color="#00A9D7"/>
<stop offset="1" stop-color="#00A9D7" stop-opacity="0"/>
</linearGradient>
<clipPath id="clip0_1823_17916">
<rect width="195" height="140" fill="white"/>
</clipPath>
</defs>
</svg>
