<svg id="e6SnKaypcoT1" xmlns="http://www.w3.org/2000/svg" xmlns:xlink="http://www.w3.org/1999/xlink" viewBox="0 0 180 140" shape-rendering="geometricPrecision" text-rendering="geometricPrecision">
<style><![CDATA[
#e6SnKaypcoT2_tr {animation: e6SnKaypcoT2_tr__tr 3000ms linear infinite normal forwards}@keyframes e6SnKaypcoT2_tr__tr { 0% {transform: translate(20.422555px,17.870415px) rotate(0deg)} 16.666667% {transform: translate(20.422555px,17.870415px) rotate(90deg)} 33.333333% {transform: translate(20.422555px,17.870415px) rotate(180deg)} 50% {transform: translate(20.422555px,17.870415px) rotate(270deg)} 100% {transform: translate(20.422555px,17.870415px) rotate(270deg)}} #e6SnKaypcoT44 {animation: e6SnKaypcoT44_c_o 3000ms linear infinite normal forwards}@keyframes e6SnKaypcoT44_c_o { 0% {opacity: 1} 56.666667% {opacity: 1} 60% {opacity: 0} 73.333333% {opacity: 1} 100% {opacity: 1}} #e6SnKaypcoT45 {animation: e6SnKaypcoT45_c_o 3000ms linear infinite normal forwards}@keyframes e6SnKaypcoT45_c_o { 0% {opacity: 1} 56.666667% {opacity: 1} 60% {opacity: 0} 73.333333% {opacity: 1} 100% {opacity: 1}} #e6SnKaypcoT46 {animation: e6SnKaypcoT46_c_o 3000ms linear infinite normal forwards}@keyframes e6SnKaypcoT46_c_o { 0% {opacity: 1} 56.666667% {opacity: 1} 60% {opacity: 0} 73.333333% {opacity: 1} 100% {opacity: 1}} #e6SnKaypcoT47_tr {animation: e6SnKaypcoT47_tr__tr 3000ms linear infinite normal forwards}@keyframes e6SnKaypcoT47_tr__tr { 0% {transform: translate(11.321465px,41.247751px) rotate(0deg)} 16.666667% {transform: translate(11.321465px,41.247751px) rotate(90deg)} 33.333333% {transform: translate(11.321465px,41.247751px) rotate(180deg)} 50% {transform: translate(11.321465px,41.247751px) rotate(270deg)} 100% {transform: translate(11.321465px,41.247751px) rotate(270deg)}} #e6SnKaypcoT48_tr {animation: e6SnKaypcoT48_tr__tr 3000ms linear infinite normal forwards}@keyframes e6SnKaypcoT48_tr__tr { 0% {transform: translate(171px,128px) rotate(0deg)} 16.666667% {transform: translate(171px,128px) rotate(180deg)} 33.333333% {transform: translate(171px,128px) rotate(270deg)} 50% {transform: translate(171px,128px) rotate(360deg)} 100% {transform: translate(171px,128px) rotate(360deg)}}
]]></style>
<g id="e6SnKaypcoT2_tr" transform="translate(20.422555,17.870415) rotate(0)"><path d="M28.6254,22.5493l3.1358.3661.8158-2.7176-2.8081-1.4581c.1051-1.19-.0126-2.3724-.3273-3.4836l2.4662-2.0072-1.3028-2.5136-2.9908.9951c-.727-.8921-1.6102-1.6542-2.6386-2.23232l.3498-3.20517-2.6601-.84108-1.4189,2.86718c-1.1643-.11057-2.3204.00676-3.4065.3256L15.8703,6.11794L13.4152,7.44337l.9852,3.06163c-.8707.7411-1.6151,1.6462-2.1807,2.6907l-3.13587-.366-.81572,2.7175l2.80809,1.4581c-.1064,1.1943.0139,2.3682.3273,3.4837L8.93731,22.4961l1.30279,2.5136l2.9961-.998c.7271.8921,1.6103,1.6543,2.6346,2.2311l-.3499,3.2051l2.6602.8411l1.4188-2.8672c1.1684.1119,2.3163-.008,3.4065-.3256l1.9696,2.5267l2.4552-1.3254-.9852-3.0617c.8706-.741,1.6138-1.642,2.1765-2.692l.0029.0055Zm-9.891.9473c-3.0385-.9606-4.7448-4.2595-3.8143-7.3592s4.1497-4.8413,7.1881-3.8806s4.746,4.2553,3.8143,7.3593-4.1497,4.8412-7.1881,3.8805Z" transform="translate(-20.422555,-17.870415)" fill="#43b6dd" stroke="#43b6dd" stroke-miterlimit="10"/></g><path d="M49.9112,96.9666c1.2616.6436,2.7765.4561,3.8544-.4713L92.7119,62.8254L82.9567,16.5572c0,0-2.2749-.4155-2.866,0-2.0166,1.419-47.4796,25.0903-47.4796,25.0903-.2235.1165-.452.3496-.6407.6284-.3726.5422-.4371,1.2416-.2335,1.8649L48.9377,95.8314c.1639.4916.5116.9021.9685,1.1352h.005Z" fill="#51a1b7"/><path d="M50.3829,94.3162c.2831.8513,1.063,1.424,1.9421,1.424.4719,0,.9288-.1672,1.2964-.4713L92.7117,62.8254c.5911-.4915.8693-1.277.7153-2.0372L85.0029,18.2397c-.2682-1.3429-1.7086-2.0676-2.9156-1.4645L34.6474,42.4431c-.7301.3953-1.0728,1.272-.8046,2.0727L50.3829,94.3162Z" fill="#fff"/><path d="M93.1689,61.8931L51.0835,95.5984L97.8031,118.935L135.86,73.7414L93.1689,61.8931Z" fill="#f1f7f6"/><path d="M57.7739,97.458l21.1396,9.193L115.64,69.9099L96.0099,64.1277L57.7739,97.458Z" fill="#44b5dc"/><g mask="url(#e6SnKaypcoT25)"><g><path d="M60.853,94.5188L85.6682,105.044" fill="none" stroke="#fff" stroke-miterlimit="10"/><path d="M63.4263,91.8936L88.2464,102.419" fill="none" stroke="#fff" stroke-miterlimit="10"/><path d="M65.999,89.2686L90.8191,99.7942" fill="none" stroke="#fff" stroke-miterlimit="10"/><path d="M68.5767,86.6433L93.3918,97.1639" fill="none" stroke="#fff" stroke-miterlimit="10"/><path d="M71.1494,84.0132L95.9695,94.5388" fill="none" stroke="#fff" stroke-miterlimit="10"/><path d="M73.7227,81.3882L98.5428,91.9138" fill="none" stroke="#fff" stroke-miterlimit="10"/><path d="M76.2954,78.7634L101.116,89.2891" fill="none" stroke="#fff" stroke-miterlimit="10"/><path d="M78.8735,76.1331L103.689,86.6587" fill="none" stroke="#fff" stroke-miterlimit="10"/><path d="M81.4458,73.5081L106.266,84.0337" fill="none" stroke="#fff" stroke-miterlimit="10"/><path d="M84.019,70.8831l24.82,10.5256" fill="none" stroke="#fff" stroke-miterlimit="10"/><path d="M86.5972,68.2529L111.412,78.7786" fill="none" stroke="#fff" stroke-miterlimit="10"/><path d="M89.1699,65.6277L113.99,76.1533" fill="none" stroke="#fff" stroke-miterlimit="10"/><path d="M60.853,99.7841l39.458-34.7392" fill="none" stroke="#fff" stroke-miterlimit="10"/><path d="M64.6079,101.816L105.397,65.0449" fill="none" stroke="#fff" stroke-miterlimit="10"/><path d="M68.5767,103.296L110.488,65.0449" fill="none" stroke="#fff" stroke-miterlimit="10"/><path d="M73.7871,105.044L115.579,65.0449" fill="none" stroke="#fff" stroke-miterlimit="10"/></g><mask id="e6SnKaypcoT25" mask-type="luminance" x="-150%" y="-150%" height="400%" width="400%"><path d="M57.7739,97.458l21.1396,9.193L115.64,69.9099L96.0099,64.1277L57.7739,97.458Z" fill="#fff"/></mask></g><path d="M98.5034,93.8045L108.8,98.6847c.735.3497,1.609.147,2.126-.4865l8.801-10.8196c.79-.9679.398-2.4426-.76-2.8734l-10.058-3.7501c-.665-.2483-1.415-.0709-1.907.4561l-9.04,9.6844c-.8444.9021-.5663,2.3818.5414,2.9089Z" fill="#44b5dc"/><path d="M51.0835,99.2773v-3.6792L97.8031,118.935v4.586L51.0835,99.2773Z" fill="#0d395c"/><path d="M135.86,73.7415L97.8032,118.935v4.587L135.86,77.9882v-4.2467Z" fill="#51a1b7"/><path d="M37.5698,45.9186l44.463-24.1029l8.116,40.1464-38.072,29.3116-14.507-45.3551Z" fill="#44b5dc"/><rect width="51.1229" height="30.5164" rx="4" ry="4" transform="translate(117.271 23.1541)" fill="#106297"/><path d="M160.423,28.3362c.759,0,1.374-.6445,1.374-1.4395s-.615-1.4394-1.374-1.4394-1.375.6444-1.375,1.4394.616,1.4395,1.375,1.4395Z" fill="#43b6dd"/><path d="M164.271,28.3362c.759,0,1.374-.6445,1.374-1.4395s-.615-1.4394-1.374-1.4394-1.375.6444-1.375,1.4394.616,1.4395,1.375,1.4395Z" fill="#0d395c"/><path d="M156.574,28.3362c.759,0,1.375-.6445,1.375-1.4395s-.616-1.4394-1.375-1.4394-1.374.6444-1.374,1.4394.615,1.4395,1.374,1.4395Z" fill="#ed725f"/><path d="M105.208,45.7388h39.267c1.405,0,2.544-1.1636,2.544-2.599v-27.4093c0-1.4354-1.139-2.599-2.544-2.5989h-39.267c-1.405,0-2.544,1.1635-2.544,2.5989v27.4093c0,1.4354,1.139,2.599,2.544,2.599Z" fill="#0f5a8b" fill-opacity="0.2"/><path d="M107.451,42.8762h39.266c1.405,0,2.544-1.1636,2.544-2.5989v-27.4093c0-1.4354-1.139-2.599-2.544-2.599h-39.266c-1.406,0-2.545,1.1636-2.545,2.599v27.4093c0,1.4353,1.139,2.5989,2.545,2.5989Z" fill="#fff"/><path d="M104.906,16.5376v-3.6637c0-1.4369,1.138-2.599,2.544-2.599h39.272c1.407,0,2.545,1.1621,2.545,2.599v3.6637h-44.355-.006Z" fill="#44b5dc"/><path d="M125.715,38.4227c-5.002-1.2134-8.109-6.3451-6.916-11.4768s6.228-8.2886,11.23-7.0752s8.108,6.3451,6.915,11.4768c-1.193,5.1318-6.227,8.2886-11.229,7.0752Z" fill="#f9f9f9" stroke="#44b5dc"/><path d="M131.14,35.1931c1.528,0,2.766-1.288,2.766-2.8769s-1.238-2.877-2.766-2.877-2.766,1.2881-2.766,2.877s1.238,2.8769,2.766,2.8769Zm1.327-3.693c.112-.1946.051-.4471-.136-.5638s-.43-.0537-.542.1409l-.925,1.6036-.433-.4497c-.154-.1605-.404-.1605-.558,0-.155.1605-.155.4207,0,.5812l.611.6359c.273.2836.729.2252.927-.1188l1.056-1.8293Z" clip-rule="evenodd" fill="#ed725f" fill-rule="evenodd"/><path d="M127.583,22.8633c-1.243,0-2.388.2374-3.237.6387-.813.3844-1.505.9995-1.505,1.8273s.692,1.4428,1.505,1.8272c.849.4013,1.994.6387,3.237.6387c1.244,0,2.389-.2374,3.238-.6387.813-.3844,1.505-.9995,1.505-1.8272s-.692-1.4429-1.505-1.8273c-.849-.4013-1.994-.6387-3.238-.6387Z" fill="#37bef0"/><path d="M122.841,27.7952v-.6896c.361.3549.794.6176,1.178.7992.973.4601,2.234.7124,3.564.7124s2.591-.2523,3.565-.7124c.384-.1816.816-.4443,1.178-.7992v.6896c0,.3485-.123.6592-.326.931-.275-.0712-.563-.109-.86-.109-1.225,0-2.306.6442-2.945,1.6246-.201.0128-.405.0194-.612.0194-1.243,0-2.388-.2374-3.237-.6387-.813-.3844-1.505-.9995-1.505-1.8273Z" fill="#37bef0"/><path d="M127.786,31.0812c-.067.0013-.135.002-.203.002-1.33,0-2.591-.2523-3.564-.7124-.384-.1816-.817-.4443-1.178-.7992v.6896c0,.8277.692,1.4428,1.505,1.8273.849.4012,1.994.6387,3.237.6387.007,0,.015,0,.022,0-.014-.135-.022-.2721-.022-.411c0-.4331.072-.8488.203-1.235Z" fill="#37bef0"/><path d="M127.785,33.5472c-.067.0013-.134.002-.202.002-1.33,0-2.591-.2523-3.564-.7124-.384-.1816-.817-.4444-1.178-.7993v.6897c0,.8277.692,1.4428,1.505,1.8272.849.4013,1.994.6388,3.237.6388.424,0,.836-.0276,1.23-.0799-.463-.4162-.821-.9543-1.028-1.5661Z" fill="#37bef0"/><path id="e6SnKaypcoT44" d="M94.48,44.3372l-6.9321,5.0333l6.3233,3.5683.6088-8.6016Z" fill="#ffd700"/><path id="e6SnKaypcoT45" d="M80.6541,41.2861l-3.2998,7.9898l7.2355-.3776-3.9357-7.6122Z" fill="#ffd700"/><path id="e6SnKaypcoT46" d="M103.94,54.6338l-8.434.4032l3.3333,6.5479l5.1007-6.9511Z" fill="#ffd700"/><g id="e6SnKaypcoT47_tr" transform="translate(11.321465,41.247751) rotate(0)"><path d="M17.3073,44.6621l2.2884.2671.5952-1.9831-2.0491-1.064c.0767-.8684-.0092-1.7312-.2389-2.5421l1.7997-1.4647-.9507-1.8343-2.1824.7262c-.5306-.651-1.1751-1.2071-1.9255-1.629l.2553-2.3389-1.9412-.6138-1.0354,2.0923c-.8496-.0807-1.6933.0049-2.48584.2376L7.99957,32.6716l-1.79158.9672.71894,2.2342c-.63536.5408-1.17856,1.2013-1.5913,1.9635l-2.28834-.2671-.59526,1.983l2.04913,1.0641c-.07763.8715.01015,1.7281.23887,2.5421L2.94037,44.6233l.95069,1.8342l2.18634-.7283c.53058.6511,1.17505,1.2072,1.92253,1.6281l-.2553,2.3389l1.94119.6138l1.03538-2.0923c.8526.0816,1.6903-.0059,2.4858-.2376l1.4373,1.8438l1.7916-.9672-.7189-2.2342c.6353-.5408,1.1776-1.1982,1.5883-1.9644l.002.004Zm-7.2177.6913c-2.21725-.701-3.46241-3.1083-2.78343-5.3703s3.02813-3.5328,5.24543-2.8318c2.2172.7011,3.4633,3.1052,2.7834,5.3703s-3.0282,3.5328-5.2454,2.8318Z" transform="translate(-11.321465,-41.247751)" fill="#cbcbcb"/></g><g id="e6SnKaypcoT48_tr" transform="translate(171,128) rotate(0)"><path d="M177.727,129.43l2.273-.429v-2.04l-2.273-.391c-.176-.839-.507-1.624-.961-2.317l1.305-1.911-1.441-1.441-1.885,1.331c-.697-.454-1.475-.785-2.317-.959L171.999,119h-2.039l-.391,2.273c-.839.177-1.624.508-2.317.962l-1.911-1.305-1.44,1.44l1.333,1.886c-.454.697-.785,1.479-.961,2.317l-2.273.429v2.04l2.273.391c.176.842.507,1.621.961,2.317l-1.305,1.911l1.441,1.441l1.888-1.334c.697.454,1.475.785,2.314.959l.429,2.273h2.039l.391-2.273c.842-.177,1.62-.508,2.317-.962l1.911,1.305l1.44-1.44-1.333-1.886c.454-.697.785-1.475.958-2.317l.003.003ZM171,132.223c-2.33,0-4.218-1.891-4.218-4.218s1.888-4.219,4.218-4.219s4.218,1.889,4.218,4.219-1.888,4.218-4.218,4.218Z" transform="translate(-171,-128)" fill="#f2ce14"/></g></svg>
