<svg id="eAkMlXLI83v1" xmlns="http://www.w3.org/2000/svg" xmlns:xlink="http://www.w3.org/1999/xlink" viewBox="0 0 260 141" shape-rendering="geometricPrecision" text-rendering="geometricPrecision">
<style><![CDATA[
#eAkMlXLI83v66 {animation: eAkMlXLI83v66_c_o 1500ms linear infinite normal forwards}@keyframes eAkMlXLI83v66_c_o { 0% {opacity: 0.05} 25.666667% {opacity: 0.05} 65.666667% {opacity: 1} 100% {opacity: 1}} #eAkMlXLI83v67 {animation: eAkMlXLI83v67_c_o 1500ms linear infinite normal forwards}@keyframes eAkMlXLI83v67_c_o { 0% {opacity: 0} 25.666667% {opacity: 0} 65.666667% {opacity: 1} 100% {opacity: 1}} #eAkMlXLI83v68 {animation: eAkMlXLI83v68_c_o 1500ms linear infinite normal forwards}@keyframes eAkMlXLI83v68_c_o { 0% {opacity: 0.01} 25.666667% {opacity: 0.01} 65.666667% {opacity: 1} 100% {opacity: 1}} #eAkMlXLI83v69 {animation: eAkMlXLI83v69_c_o 1500ms linear infinite normal forwards}@keyframes eAkMlXLI83v69_c_o { 0% {opacity: 0.02} 25.666667% {opacity: 0.02} 65.666667% {opacity: 1} 100% {opacity: 1}} #eAkMlXLI83v109_ts {animation: eAkMlXLI83v109_ts__ts 1500ms linear infinite normal forwards}@keyframes eAkMlXLI83v109_ts__ts { 0% {transform: translate(50.367897px,19.2146px) scale(0.974349,0.974349)} 16.666667% {transform: translate(50.367897px,19.2146px) scale(1.478864,1.478864)} 33.333333% {transform: translate(50.367897px,19.2146px) scale(1.678351,1.678351)} 100% {transform: translate(50.367897px,19.2146px) scale(1.678351,1.678351)}} #eAkMlXLI83v109 {animation: eAkMlXLI83v109_c_o 1500ms linear infinite normal forwards}@keyframes eAkMlXLI83v109_c_o { 0% {opacity: 0.4} 16.666667% {opacity: 0.32} 33.333333% {opacity: 0} 100% {opacity: 0}} #eAkMlXLI83v119_to {animation: eAkMlXLI83v119_to__to 1500ms linear infinite normal forwards}@keyframes eAkMlXLI83v119_to__to { 0% {transform: translate(24.24385px,72.63142px)} 16.666667% {transform: translate(27.24295px,72.63142px)} 100% {transform: translate(27.24295px,72.63142px)}} #eAkMlXLI83v120_to {animation: eAkMlXLI83v120_to__to 1500ms linear infinite normal forwards}@keyframes eAkMlXLI83v120_to__to { 0% {transform: translate(31.74145px,77.995121px)} 16.666667% {transform: translate(19.370151px,77.995121px)} 100% {transform: translate(19.370151px,77.995121px)}} #eAkMlXLI83v121_to {animation: eAkMlXLI83v121_to__to 1500ms linear infinite normal forwards}@keyframes eAkMlXLI83v121_to__to { 0% {transform: translate(16.74588px,83.358921px)} 16.666667% {transform: translate(35.49052px,83.358921px)} 100% {transform: translate(35.49052px,83.358921px)}}
]]></style>
<defs><linearGradient id="eAkMlXLI83v64-fill" x1="50.111" y1="90.6547" x2="50.2911" y2="90.6547" spreadMethod="pad" gradientUnits="userSpaceOnUse" gradientTransform="translate(0 0)"><stop id="eAkMlXLI83v64-fill-0" offset="8%" stop-color="#fffbd2"/><stop id="eAkMlXLI83v64-fill-1" offset="26%" stop-color="#ffface"/><stop id="eAkMlXLI83v64-fill-2" offset="43%" stop-color="#fff7c2"/><stop id="eAkMlXLI83v64-fill-3" offset="61%" stop-color="#fff2ae"/><stop id="eAkMlXLI83v64-fill-4" offset="78%" stop-color="#ffeb92"/><stop id="eAkMlXLI83v64-fill-5" offset="96%" stop-color="#ffe36e"/><stop id="eAkMlXLI83v64-fill-6" offset="100%" stop-color="#ffe164"/></linearGradient></defs><g><ellipse rx="1.41667" ry="1.45719" transform="translate(160.417 40.6339)" fill="#f5d1d1" fill-opacity="0.6"/></g><g opacity="0.5"><path d="M195.205,23.3245h-105.9346c-1.9753,0-3.5766,1.6732-3.5766,3.7371v91.2464c0,2.064,1.6013,3.737,3.5766,3.737h105.9346c1.975,0,3.576-1.673,3.576-3.737v-91.2464c0-2.0639-1.601-3.7371-3.576-3.7371Z" fill="#848585"/></g><g mask="url(#eAkMlXLI83v40)"><g><path d="M191.942,19.2146h-108.2577c-2.0186,0-3.655,1.6801-3.655,3.7526v91.6218c0,2.073,1.6364,3.753,3.655,3.753h108.2577c2.019,0,3.655-1.68,3.655-3.753v-91.6218c0-2.0725-1.636-3.7526-3.655-3.7526Z" fill="#0068a5"/><g opacity="0.27"><path d="M221.129,21.2159v-.3426h-185.0876v.3426h185.0876Z" fill="#fff"/><path d="M221.129,28.9659v-.3426h-185.0876v.3426h185.0876Z" fill="#fff"/><path d="M221.129,36.7159v-.3426h-185.0876v.3426h185.0876Z" fill="#fff"/><path d="M221.129,44.4601v-.3427h-185.0876v.3427h185.0876Z" fill="#fff"/><path d="M221.129,52.2101v-.3427h-185.0876v.3427h185.0876Z" fill="#fff"/><path d="M221.129,59.9547v-.3426h-185.0875v.3426h185.0875Z" fill="#fff"/><path d="M221.129,67.7044v-.3426h-185.0875v.3426h185.0875Z" fill="#fff"/><path d="M221.124,75.4544v-.3426h-185.0874v.3426h185.0874Z" fill="#fff"/><path d="M221.129,83.1986v-.3426h-185.0876v.3426h185.0876Z" fill="#fff"/><path d="M221.129,90.9486v-.3426h-185.0876v.3426h185.0876Z" fill="#fff"/><path d="M221.129,98.6927v-.3426h-185.0876v.3426h185.0876Z" fill="#fff"/><path d="M221.129,106.443v-.343h-185.0876v.343h185.0876Z" fill="#fff"/><path d="M221.124,114.192v-.342h-185.0875v.342h185.0875Z" fill="#fff"/><path d="M192.562,189.662h.334v-190.026014h-.334v190.026014Z" fill="#fff"/><path d="M185.019,189.662h.334v-190.026014h-.334v190.026014Z" fill="#fff"/><path d="M177.47,189.662h.334v-190.026014h-.334v190.026014Z" fill="#fff"/><path d="M169.927,189.662h.334v-190.026014h-.334v190.026014Z" fill="#fff"/><path d="M162.373,189.662h.334v-190.026014h-.334v190.026014Z" fill="#fff"/><path d="M154.83,189.662h.334v-190.026014h-.334v190.026014Z" fill="#fff"/><path d="M147.287,189.662h.334v-190.026014h-.334v190.026014Z" fill="#fff"/><path d="M139.739,189.662h.333v-190.026014h-.333v190.026014Z" fill="#fff"/><path d="M132.196,189.662h.333v-190.026014h-.333v190.026014Z" fill="#fff"/><path d="M124.642,189.662h.334v-190.026014h-.334v190.026014Z" fill="#fff"/><path d="M117.099,189.662h.334v-190.026014h-.334v190.026014Z" fill="#fff"/><path d="M109.555,189.662h.334v-190.026014h-.334v190.026014Z" fill="#fff"/><path d="M102.007,189.662h.334v-190.026014h-.334v190.026014Z" fill="#fff"/><path d="M94.4593,189.662h.3337v-190.026014h-.3337v190.026014Z" fill="#fff"/><path d="M86.9104,189.662h.3337v-190.026014h-.3337v190.026014Z" fill="#fff"/></g><path d="M195.597,24.6099h-115.5677v7.6791h115.5677v-7.6791Z" fill="#fff"/><path d="M192.546,19.231h-109.4655c-1.6852,0-3.0512,1.4025-3.0512,3.1325v6.7873c0,1.73,1.366,3.1325,3.0512,3.1325h109.4655c1.685,0,3.051-1.4025,3.051-3.1325v-6.7873c0-1.73-1.366-3.1325-3.051-3.1325Z" fill="#fff"/></g><mask id="eAkMlXLI83v40" mask-type="luminance" x="-150%" y="-150%" height="400%" width="400%"><path d="M191.942,19.2146h-108.2577c-2.0186,0-3.655,1.6801-3.655,3.7526v91.6218c0,2.073,1.6364,3.753,3.655,3.753h108.2577c2.019,0,3.655-1.68,3.655-3.753v-91.6218c0-2.0725-1.636-3.7526-3.655-3.7526Z" fill="#fff"/></mask></g><path d="M125.807,107.987l45.079-2.05.196-11.1493l13.396-7.4344c0,0,6.235,15.4287,1.886,27.6167c0,0-3.74,5.139-24.674,4.481-20.352-.641-45.704-.832-45.704-.832l9.821-10.638v.006Z" fill="#fff8e9" stroke="#0d395c" stroke-miterlimit="10"/><path d="M109.487,83.6009l4.2,26.0611c0,0,29.05-2.463,38.754-2.795c4.625-.158,18.445-.93,18.445-.93v-8.1035c0,0,5.88-.5058,7.803-.9409c2.796-.6309,10.891-3.6601,10.891-3.6601L175.526,62.951l-6.515-3.7417c0,0-7.639-2.8226-10.293-3.3012-3.745-.6744-15.187.4405-15.187.4405l-7.802,1.7349c0,0-10.399,2.9368-12.115,3.894-6.902,3.8504-14.133,21.6234-14.133,21.6234" fill="#f2ce14"/><path d="M160.09,56.3486c0,0,12.067,6.7329,14.414,12.2366c2.346,5.5038,8.931,26.8444,8.931,26.8444l6.144-2.1971c0,0-9.937-28.2421-14.747-30.9505-8.486-4.7804-14.747-5.9334-14.747-5.9334h.005Z" fill="#f4e9a4"/><path d="M153.707,49.0285l5.101-10.2407c0,0,1.966.6744,4.582-2.915c2.617-3.584-.72-6.945-.72-6.945s-3.237-2.6811-6.727-11.1978c-3.491-8.51669-7.83-5.6071-7.83-5.6071s-.111-1.3651-4.476-3.15432c-3.422-1.40313-14.514.65806-17.735,8.77772-2.399,6.0476,2.776,15.2604,2.776,15.2604l13.444-4.0734l11.146,17.86" fill="#0d395c"/><path d="M142.127,55.1956v1.6587c0,0-1.292,2.2788-.625,5.482.816,3.9049,3.253,5.9008,9.408,5.444c1.732-.1306,5.255-2.344,6.298-3.9919c2.792-4.4052-.524-8.5928-.524-8.5928L152.637,43.927c3.21-1.3542,6.394-6.2107,3.337-8.5003-3.056-2.2896-4.783,1.1638-4.783,1.1638l-.016,2.4093" fill="#fff8e9"/><path d="M142.127,55.1956v1.6587c0,0-1.292,2.2788-.625,5.482.816,3.9049,3.253,5.9008,9.408,5.444c1.732-.1306,5.255-2.344,6.298-3.9919c2.792-4.4052-.524-8.5928-.524-8.5928L152.637,43.927c3.21-1.3542,6.394-6.2107,3.337-8.5003-3.056-2.2896-4.783,1.1638-4.783,1.1638l-.016,2.4093" fill="none" stroke="#0d395c" stroke-width="0.7" stroke-miterlimit="10"/><path d="M148.558,50.437c0,0-.259,6.3467-7.225,9.5174v-2.3331l.673-3.8886l6.552-3.2903v-.0054Z" opacity="0.22" fill="#d38888"/><path d="M127.598,31.8428c.026-5.1666,2.352-7.2332,2.352-7.2332l19.715,5.2373l2.623,10.7301-1.123,6.0476-.758.2937c-.662,1.5282-1.875,4.3345-3.205,5.2971-2.15,1.5554-5.668,4.2583-9.784,4.242-6.764-.0217-8.952-7.5921-9.386-11.0347-.228-1.7784-.869-6.227-.095-10.0014.413-2.0122-.281-2.6866-.339-3.5839" fill="#fff8e9"/><path d="M150.921,44.3187c0,0,3.931-.9844,5.239-2.8715c1.309-1.8818,2.156-4.5629.318-6.0204" fill="none" stroke="#0d395c" stroke-linecap="round" stroke-miterlimit="10"/><path d="M86.1797,58.0782c2.5479-6.102-1.3455-9.5881-1.5256-11.671-.2543-2.877.2542-3.9212.2542-3.9212s2.6062-3.138-1.017-3.138c-3.6233,0-3.8192,8.1034-3.8192,8.1034l.2542.261L68.3601,33.3331c0,0-1.5256-.5221-2.0394,1.2345-.5086,1.7621,7.8397,13.134,7.8397,13.134-3.5067,2.4527-7.8397,5.9334-7.8397,8.1142c0,3.6601,9.164,7.8423,9.164,7.8423L82.318,84.047h19.139L86.6392,58.8918l-.4595-.8136Z" fill="#fff8e9" stroke="#0d395c" stroke-width="0.8" stroke-miterlimit="10"/><path d="M70.6484,43.0026c0,0,7.0399,4.9273,7.6385,6.7981.6356,1.985-1.0171,2.6159-2.5479,2.0938-1.5256-.5221-6.881-4.7152-6.881-4.7152s-1.4462-1.9632-.6781-3.2359c.7681-1.2726,2.4632-.9408,2.4632-.9408h.0053Z" fill="#fff8e9" stroke="#0d395c" stroke-width="0.8" stroke-miterlimit="10"/><path d="M68.1002,46.6626c0,0,8.147,5.7539,7.6385,7.8423-.7893,3.2467-3.6233.6091-5.0906-.5221-1.2342-.9518-2.8393-2.2842-3.9199-3.187-.98-.8212-1.2607-2.295-.5509-3.3664.3708-.5656.9694-.9572,1.9229-.7614v-.0054Z" fill="#fff8e9" stroke="#0d395c" stroke-width="0.8" stroke-miterlimit="10"/><path d="M66.0978,50.7798c0,0,7.0769,4.9979,6.6373,6.8144-.6887,2.8226-3.5491.6689-4.8257-.3154-1.07-.8267-2.1295-1.6588-3.0035-2.9096-.641-.9191-1.0965-1.9905-.482-2.9259.3231-.4949.8422-.8321,1.6739-.6635Z" fill="#fff8e9" stroke="#0d395c" stroke-width="0.8" stroke-miterlimit="10"/><path d="M132.122,44.7866l6.653,1.3542c0,0,.36,6.4011-2.696,5.7757-2.665-.5439-3.385-3.0184-3.793-5.8627-.058-.4188-.111-.843-.164-1.2672Z" fill="#ff4e63"/><path d="M133.494,39.9734c0,0-1.568,1.8708-.218,2.1754.885.2012,1.145,0,1.145,0" fill="none" stroke="#0d395c" stroke-miterlimit="10"/><path d="M135.326,36.7211l-1.844-.1523v.8593l1.971.2393-.127-.9463Z" fill="#0d395c"/><path d="M153.352,38.5648c0,0,.795.174.397.7614-.397.5873-1.456,1.2563-1.456,1.2563s-.249,1.5663.625,1.5663c1.382,0,3.533-3.6058,2.94-4.8349-.912-1.8871-2.432-.6906-2.432-.6906s-.471,1.1801-.074,1.9415Z" fill="#f8e4cd"/><path d="M143.638,10.453c0,0,8.83-.78861,14.196,1.104c5.371,1.8871,0,3.622,0,3.622s6.002.7777,6.553,3.2957c.556,2.5181-5.022,3.1598-5.022,3.1598s13.2,5.259,6.595,7.2278c-6.606,1.9687-5.345,1.8599-5.345,1.8599" fill="#0d395c"/><path d="M138.547,47.446l-6.261-1.3868-.164-1.2726l6.653,1.3542-.228,1.3052Z" fill="#cfe4f1"/><path d="M132.122,44.7866l6.653,1.3542c0,0,.36,6.4011-2.696,5.7757-2.665-.5439-3.385-3.0184-3.793-5.8627-.058-.4188-.111-.843-.164-1.2672Z" fill="none" stroke="#001780" stroke-width="0.5" stroke-miterlimit="10"/><path d="M151.546,36.4873l-7.797,1.2726-.111-.6254l8.216-1.3379-.308.6907Z" fill="#0d395c"/><path d="M148.315,50.627c0,0-4.582,6.5371-12.279,5.6397-7.697-.9028-8.412-13.9171-8.412-13.9171" fill="none" stroke="#0d395c" stroke-width="0.8" stroke-miterlimit="10"/><path d="M128.207,101.635c0,0,3.512,5.906,2.246,2.295-5.631-16.0163-4.164-27.7254-4.164-27.7254l-5.239,7.6193l7.157,17.8111Z" fill="url(#eAkMlXLI83v64-fill)"/><path d="M139.601,44.1664c-2.405,0-4.365-2.915-4.365-6.4989s1.96-6.499,4.365-6.499s4.365,2.915,4.365,6.499-1.96,6.4989-4.365,6.4989Zm0-12.5465c-2.166,0-3.93,2.7138-3.93,6.0476s1.764,6.0476,3.93,6.0476c2.167,0,3.931-2.7139,3.931-6.0476s-1.764-6.0476-3.931-6.0476Z" fill="#0d395c"/><path id="eAkMlXLI83v66" d="M207.641,0.249023c.302.032631.604.059824.911.097893c2.262.271925,4.328,1.087694,6.213,2.382064.848.58191,1.627,1.25629,2.347,2.00136.207.2121.207.39157,0,.61999-.281.30999-.561.61999-.842.92998-.207.22298-.371.21754-.599.01632-.498-.4514-.98-.92999-1.52-1.33787-2.241-1.69137-4.762-2.52346-7.543-2.43101-3.014.10333-5.626,1.25629-7.856,3.3338-.159.14684-.307.30455-.466.45683-.191.18491-.366.18491-.546-.01088-.286-.30999-.572-.62542-.858-.94086-.222-.25561-.217-.41876.016-.65805c1.605-1.65874,3.464-2.90416,5.615-3.67099c1.181-.424198,2.394-.679807,3.645-.755946.063,0,.121-.021753.185-.027192.429,0,.858,0,1.292,0l.006-.005439Z" opacity="0.05" fill="#f2ce14"/><path id="eAkMlXLI83v67" d="M206.725,16.6732c-.254-.0978-.525-.1577-.752-.2936-.88-.5167-1.24-1.6098-.874-2.5616.37-.968,1.366-1.5064,2.352-1.278.979.2284,1.636,1.1421,1.578,2.1808-.058.9355-.747,1.7349-1.653,1.9144-.037.0054-.074.0217-.111.038h-.545.005Z" opacity="0" fill="#f2ce14"/><path id="eAkMlXLI83v68" d="M206.952,4.33887c2.993.05982,5.472,1.21822,7.554,3.32292.18.18491.186.3535.011.54928-.297.33719-.599.66894-.901.99525-.201.2121-.355.20666-.567,0-1.271-1.27261-2.77-2.11557-4.529-2.44188-2.044-.3807-3.972-.02176-5.773,1.03331-.663.38613-1.261.86472-1.801,1.41401-.207.20666-.371.20666-.567,0-.302-.32631-.599-.65262-.89-.97893-.191-.2121-.18-.36982.016-.57104c1.78-1.81646,3.898-2.93135,6.404-3.23591.365-.0435.731-.04894,1.049-.0707l-.006-.01631Z" opacity="0.01" fill="#f2ce14"/><path id="eAkMlXLI83v69" d="M212.042,10.8217c-.053.1034-.084.2012-.148.2719-.318.359-.646.7179-.969,1.0714-.143.1577-.281.1306-.477-.0163-.376-.2937-.747-.6145-1.16-.8429-1.844-1.0062-4.068-.7071-5.626.7233-.376.3426-.413.3426-.763-.0381-.254-.2774-.508-.5602-.762-.843-.223-.2501-.218-.3915.016-.62c1.154-1.12572,2.505-1.8436,4.094-2.03395c1.611-.19578,3.088.20666,4.439,1.10945.419.2828.795.6363,1.181.9626.075.0598.112.1632.175.2556Z" opacity="0.02" fill="#f2ce14"/><path d="M122.502,82.1162l-1.452,1.7077l14.403,35.8501l1.992-.223-14.943-37.3348Z" fill="#2682dd"/><path d="M122.502,82.2468h-44.8828L76.1201,83.601l44.9149.223l1.467-1.5772Z" fill="#53a6ea"/><path d="M167.771,77.0583c0,0-1.303,16.1904-6.489,21.8356-6.515,7.0971-27.434,9.1151-27.434,9.1151s17.64-1.267,23.355-1.452c3.433-.114,13.677-.62,13.677-.62v-8.1036c-1.175,0-1.822-4.9055-2.272-8.8267-.466-4.068,1.261-10.9749-.837-11.9484Z" opacity="0.3" fill="#ed725f"/><path d="M109.487,82.116c0,0,9-17.898,14.133-20.1441c5.133-2.2407,11.33-3.6601,11.33-3.6601" fill="none" stroke="#001780" stroke-width="0.5" stroke-linecap="round" stroke-miterlimit="10"/><path d="M149.411,26.3008l-18.1-12.1333c0,0-8.295,9.0116,0,13.1176.492.2448.964.4623,1.414.6635c1.128.4949,2.135.8647,3.03,1.1258-.085.0109-.069.0163.122.0326h.011c.889.2556,1.668.4079,2.341.484l4.884,1.0062c.704.0707,1.218-.6798.911-1.3379l-.509-1.0877c.604.397,1.462.8266,2.697,1.2454c4.004,1.3596,4.195,3.4752,4.195,3.4752s.419,1.7131-.742,6.5697c-.736,3.0673,3.708-6.2597,3.708-6.2597l-3.967-6.9014h.005Zm-7.283.9463v-.669c0,0,.021.2556.317.6472l-.312.0218h-.005Z" fill="#0d395c"/><path d="M159.312,13.2104c.36-1.0333-5.594-2.4528-9.779-2.0666-1.197.1087-1.425.5221-1.425.5221s11.003,2.1155,11.204,1.5445Z" fill="#2682dd"/><path d="M129.743,41.9689c-2.188,0-3.968-2.7192-3.968-6.0639s1.78-6.0639,3.968-6.0639s3.968,2.7192,3.968,6.0639-1.78,6.0639-3.968,6.0639Zm0-11.7145c-1.965,0-3.57,2.5343-3.57,5.6451s1.599,5.6452,3.57,5.6452c1.97,0,3.57-2.5343,3.57-5.6452s-1.6-5.6451-3.57-5.6451Z" fill="#0d395c"/><path d="M163.226,18.2197c.276-1.0333-4.253-2.4528-7.437-2.0667-.911.1088-1.086.5221-1.086.5221s8.37,2.1156,8.523,1.5446Z" fill="#2682dd"/><path d="M165.393,25.9912c.471-.7614-4.058-3.0021-7.48-3.4644-.98-.1305-1.234.1578-1.234.1578s8.454,3.7253,8.714,3.3066Z" fill="#2682dd"/><path d="M126.343,18.6764c0,0,.021-2.2733,2.484-3.7471c1.96-1.1747.09.9191-.101,1.1149-.508.5221-1.382,1.8327-1.567,2.4745-.53,1.8273-.811.1577-.811.1577h-.005Z" fill="#2682dd"/><path d="M139.505,39.5003c.849,0,1.537-.7719,1.537-1.7241s-.688-1.724-1.537-1.724c-.848,0-1.536.7719-1.536,1.724s.688,1.7241,1.536,1.7241Z" fill="#0d395c"/><path d="M140.194,37.7708c.143,0,.26-.1193.26-.2665s-.117-.2665-.26-.2665-.259.1193-.259.2665.116.2665.259.2665Z" fill="#fff"/><path d="M186.475,94.6521L181.395,96.3c3.454,11.714-3.003,17.757-8.089,19.791-3.914,1.566-14.461,1.832-14.461,1.832l1.24,1.724c0,0,4.794-.342,9.821-.19c7.601.223,12.067.615,15.96-4.198.895-1.11,1.314-2.807,1.478-3.976.275-1.98.318-3.666.312-5.009-.01-3.143-1.186-11.6165-1.186-11.6165l.005-.0054Z" opacity="0.22" fill="#d38888"/><path d="M169.286,114.97h-35.793v4.482h35.793v-4.482Z" fill="#2682dd"/><path d="M76.1201,83.6011l44.9299.223l14.403,35.8509-44.5009-.936-14.832-35.1379Z" fill="#f1f7f6"/><path d="M108.364,103.93l-5.694-.446-2.034-4.59l5.694.4514l2.034,4.5846Z" fill="#2682dd"/><path d="M64.4447,52.7102c0,0,5.3237,4.7587,8.057,4.6227c0,0-.0159,1.5446-1.5944,1.3433-1.1442-.1468-6.5632-3.7634-6.4626-5.966Z" opacity="0.22" fill="#d38888"/><path d="M66.0664,49.0774c0,0,7.4054,6.6241,9.4501,5.0578c0,0,.0159,1.8382-1.5626,1.637-1.1442-.1469-7.8875-4.6989-7.8875-6.6948Z" opacity="0.22" fill="#d38888"/><path d="M130.119,37.9719c.849,0,1.536-.7718,1.536-1.724s-.687-1.724-1.536-1.724c-.848,0-1.536.7719-1.536,1.724s.688,1.724,1.536,1.724Z" fill="#0d395c"/><path d="M130.808,36.2478c.143,0,.259-.1193.259-.2665c0-.1471-.116-.2665-.259-.2665s-.26.1194-.26.2665c0,.1472.117.2665.26.2665Z" fill="#fff"/><path d="M138.173,35.0469c0,0,.488-1.37,1.828-1.029c1.219.3117,1.153,1.1231,1.153,1.1231s-1.188-.5116-2.235-.2293c-.262.0706-.813.4939-.746.1352Z" fill="#0d395c"/><path d="M131.92,33.6321c0,0-.355-1.1475-1.896-1.1747-1.404-.0272-1.441.6091-1.441.6091s1.393-.136,2.521.3046c.286.1087.837.5492.816.261Z" fill="#0d395c"/><path d="M126.178,35.1711l1.881-.6472" fill="none" stroke="#001780" stroke-width="0.25" stroke-miterlimit="10"/><path d="M126.178,35.1711l1.971-.4677" fill="none" stroke="#0d395c" stroke-miterlimit="10"/><path d="M182.11,27.7693c1.215,0,2.199-1.0105,2.199-2.257s-.984-2.2569-2.199-2.2569c-1.214,0-2.198,1.0105-2.198,2.2569s.984,2.257,2.198,2.257Z" fill="#43b6dd"/><path d="M188.271,27.7693c1.214,0,2.198-1.0105,2.198-2.257s-.984-2.2569-2.198-2.2569c-1.215,0-2.199,1.0105-2.199,2.2569s.984,2.257,2.199,2.257Z" fill="#0d395c"/><path d="M175.59,27.7693c1.214,0,2.198-1.0105,2.198-2.257s-.984-2.2569-2.198-2.2569-2.198,1.0105-2.198,2.2569.984,2.257,2.198,2.257Z" fill="#ed725f"/><path d="M259.121,38.8813h-28.801c-.485,0-.879.4042-.879.9028v40.1089c0,.4986.394.9028.879.9028h28.801c.485,0,.879-.4042.879-.9028v-40.1089c0-.4986-.394-.9028-.879-.9028Z" opacity="0.2" fill="#0d395c"/><path d="M255.853,34.5959h-28.801c-.485,0-.879.4042-.879.9028v40.1089c0,.4986.394.9028.879.9028h28.801c.485,0,.879-.4042.879-.9028v-40.1089c0-.4986-.394-.9028-.879-.9028Z" fill="#0d395c"/><path d="M251.419,39.1533h-19.933v2.7682h19.933v-2.7682Z" fill="#43b6dd"/><path d="M245.629,72.0615h-8.348c-.832,0-1.504-.6907-1.504-1.5445s.672-1.5446,1.504-1.5446h8.348c.832,0,1.505.6907,1.505,1.5446s-.673,1.5445-1.505,1.5445Z" fill="#ffcc4d"/><path d="M242.054,45.9407h-8.237c-.287,0-.519.2386-.519.5329v.2393c0,.2944.232.533.519.533h8.237c.287,0,.519-.2386.519-.533v-.2393c0-.2943-.232-.5329-.519-.5329Z" fill="#43b6dd"/><path d="M252.542,49.1548h-18.725c-.287,0-.519.2386-.519.533v.2393c0,.2943.232.5329.519.5329h18.725c.287,0,.52-.2386.52-.5329v-.2393c0-.2944-.233-.533-.52-.533Z" fill="#43b6dd"/><path d="M252.542,52.3689h-18.725c-.287,0-.519.2386-.519.533v.2393c0,.2943.232.5329.519.5329h18.725c.287,0,.52-.2386.52-.5329v-.2393c0-.2944-.233-.533-.52-.533Z" fill="#43b6dd"/><path d="M230.077,46.5933c0,.3589-.286.6526-.636.6526-.349,0-.635-.2937-.635-.6526s.286-.6526.635-.6526c.35,0,.636.2937.636.6526Z" fill="#43b6dd"/><path d="M242.054,56.6218h-8.237c-.287,0-.519.2386-.519.533v.2393c0,.2943.232.533.519.533h8.237c.287,0,.519-.2387.519-.533v-.2393c0-.2944-.232-.533-.519-.533Z" fill="#43b6dd"/><path d="M252.542,59.8359h-18.725c-.287,0-.519.2387-.519.533v.2393c0,.2944.232.533.519.533h18.725c.287,0,.52-.2386.52-.533v-.2393c0-.2943-.233-.533-.52-.533Z" fill="#43b6dd"/><path d="M252.542,63.0498h-18.725c-.287,0-.519.2386-.519.533v.2393c0,.2943.232.5329.519.5329h18.725c.287,0,.52-.2386.52-.5329v-.2393c0-.2944-.233-.533-.52-.533Z" fill="#43b6dd"/><path d="M230.077,57.2744c0,.359-.286.6527-.636.6527-.349,0-.635-.2937-.635-.6527c0-.3589.286-.6526.635-.6526.35,0,.636.2937.636.6526Z" fill="#43b6dd"/><g id="eAkMlXLI83v109_ts" transform="translate(50.367897,19.2146) scale(0.974349,0.974349)"><circle id="eAkMlXLI83v109" r="10.7872" transform="translate(0.000001,0)" opacity="0.4" fill="#44b5dc"/></g><circle r="10.7872" transform="translate(50.367898 19.2146)" fill="#44b5dc"/><circle r="12.5" transform="translate(50.367798 19.2145)" fill="none" stroke="#44b5dc" stroke-opacity="0.6"/><path d="M49.2763,7.28369L44.4819,9.08156v3.64964c0,3.0265,2.0436,5.8491,4.7944,6.5383c2.7507-.6892,4.7943-3.5118,4.7943-6.5383v-3.64964L49.2763,7.28369ZM48.641,15.3981l-2.1215-2.1215.845-.845l1.2705,1.2705l2.541-2.541.845.845-3.38,3.392Z" transform="translate(1.367798 6.2145)" fill="#fff"/><path d="M43.389,94.0866h-35.34859c-1.26245,0-2.33746-.9295-2.55798-2.2048L1.03905,65.7986c-.275643-1.6324.9427-3.1287,2.55798-3.1287h34.96817c1.246,0,2.3155.9125,2.547,2.1708l4.8293,26.0776c.3032,1.6437-.9207,3.1683-2.547,3.1683h-.0055Z" fill="#91e5ff" stroke="#fff" stroke-miterlimit="10"/><path d="M46.345,91.7878h-35.9377c-1.28353,0-2.37646-.9295-2.60065-2.2048L3.28921,63.4997c-.28023-1.6323.95842-3.1286,2.60061-3.1286h35.55098c1.2667,0,2.354.9125,2.5894,2.1708L48.94,88.6195c.3083,1.6437-.936,3.1683-2.5894,3.1683h-.0056Z" fill="#fff" stroke="#91e5ff" stroke-miterlimit="10"/><path d="M4.74902,66.501h38.23968" fill="none" stroke="#91e5ff" stroke-miterlimit="10"/><path d="M37.3649,64.9687c.6212,0,1.1247-.5146,1.1247-1.1494s-.5035-1.1494-1.1247-1.1494c-.6211,0-1.1247.5146-1.1247,1.1494s.5036,1.1494,1.1247,1.1494Z" fill="#fff" stroke="#91e5ff" stroke-miterlimit="10"/><path d="M41.4889,62.6699l-1.4996,2.2988" fill="none" stroke="#91e5ff" stroke-miterlimit="10"/><path d="M41.4891,64.9687l-2.2494-2.2988" fill="none" stroke="#91e5ff" stroke-miterlimit="10"/><g id="eAkMlXLI83v119_to" transform="translate(24.24385,72.63142)"><rect width="23.9935" height="3.06504" rx="1.53252" ry="1.53252" transform="translate(-11.99675,-1.53252)" fill="#ed725f"/></g><g id="eAkMlXLI83v120_to" transform="translate(31.74145,77.995121)"><rect width="13.4963" height="3.06504" rx="1.53252" ry="1.53252" transform="translate(-6.74815,-1.532521)" fill="#44b5dc"/></g><g id="eAkMlXLI83v121_to" transform="translate(16.74588,83.358921)"><rect width="8.99756" height="3.06504" rx="1.53252" ry="1.53252" transform="translate(-4.49878,-1.532521)" fill="#f2ce14"/></g></svg>
