<svg width="180" height="140" viewBox="0 0 180 140" fill="none" xmlns="http://www.w3.org/2000/svg">
<path d="M28.6254 22.5493L31.7612 22.9154L32.577 20.1978L29.7689 18.7397C29.874 17.5497 29.7563 16.3673 29.4416 15.2561L31.9078 13.2489L30.605 10.7353L27.6142 11.7304C26.8872 10.8383 26.004 10.0762 24.9756 9.49808L25.3254 6.29291L22.6653 5.45183L21.2464 8.31901C20.0821 8.20844 18.926 8.32577 17.8399 8.64461L15.8703 6.11794L13.4152 7.44337L14.4004 10.505C13.5297 11.2461 12.7853 12.1512 12.2197 13.1957L9.08383 12.8297L8.26811 15.5472L11.0762 17.0053C10.9698 18.1996 11.0901 19.3735 11.4035 20.489L8.93731 22.4961L10.2401 25.0097L13.2362 24.0117C13.9633 24.9038 14.8465 25.666 15.8708 26.2428L15.5209 29.4479L18.1811 30.289L19.5999 27.4218C20.7683 27.5337 21.9162 27.4138 23.0064 27.0962L24.976 29.6229L27.4312 28.2975L26.446 25.2358C27.3166 24.4948 28.0598 23.5938 28.6225 22.5438L28.6254 22.5493ZM18.7344 23.4966C15.6959 22.536 13.9896 19.2371 14.9201 16.1374C15.8505 13.0376 19.0698 11.2961 22.1082 12.2568C25.1466 13.2175 26.8542 16.5121 25.9225 19.6161C24.9908 22.72 21.7728 24.4573 18.7344 23.4966Z" fill="#43B6DD" stroke="#43B6DD" stroke-miterlimit="10"/>
<path d="M49.9112 96.9666C51.1728 97.6102 52.6877 97.4227 53.7656 96.4953L92.7119 62.8254L82.9567 16.5572C82.9567 16.5572 80.6818 16.1417 80.0907 16.5572C78.0741 17.9762 32.6111 41.6475 32.6111 41.6475C32.3876 41.764 32.1591 41.9971 31.9704 42.2759C31.5978 42.8181 31.5333 43.5175 31.7369 44.1408L48.9377 95.8314C49.1016 96.323 49.4493 96.7335 49.9062 96.9666H49.9112Z" fill="#51A1B7"/>
<path d="M50.3829 94.3162C50.666 95.1675 51.4459 95.7402 52.325 95.7402C52.7969 95.7402 53.2538 95.573 53.6214 95.2689L92.7117 62.8254C93.3028 62.3339 93.581 61.5484 93.427 60.7882L85.0029 18.2397C84.7347 16.8968 83.2943 16.1721 82.0873 16.7752L34.6474 42.4431C33.9173 42.8384 33.5746 43.7151 33.8428 44.5158L50.3829 94.3162Z" fill="white"/>
<path d="M93.1689 61.8931L51.0835 95.5984L97.8031 118.935L135.86 73.7414L93.1689 61.8931Z" fill="#F1F7F6"/>
<path d="M57.7739 97.458L78.9135 106.651L115.64 69.9099L96.0099 64.1277L57.7739 97.458Z" fill="#44B5DC"/>
<mask id="mask0_1216_13140" style="mask-type:luminance" maskUnits="userSpaceOnUse" x="57" y="64" width="59" height="43">
<path d="M57.7739 97.458L78.9135 106.651L115.64 69.9099L96.0099 64.1277L57.7739 97.458Z" fill="white"/>
</mask>
<g mask="url(#mask0_1216_13140)">
<path d="M60.853 94.5188L85.6682 105.044" stroke="white" stroke-miterlimit="10"/>
<path d="M63.4263 91.8936L88.2464 102.419" stroke="white" stroke-miterlimit="10"/>
<path d="M65.999 89.2686L90.8191 99.7942" stroke="white" stroke-miterlimit="10"/>
<path d="M68.5767 86.6433L93.3918 97.1639" stroke="white" stroke-miterlimit="10"/>
<path d="M71.1494 84.0132L95.9695 94.5388" stroke="white" stroke-miterlimit="10"/>
<path d="M73.7227 81.3882L98.5428 91.9138" stroke="white" stroke-miterlimit="10"/>
<path d="M76.2954 78.7634L101.116 89.2891" stroke="white" stroke-miterlimit="10"/>
<path d="M78.8735 76.1331L103.689 86.6587" stroke="white" stroke-miterlimit="10"/>
<path d="M81.4458 73.5081L106.266 84.0337" stroke="white" stroke-miterlimit="10"/>
<path d="M84.019 70.8831L108.839 81.4087" stroke="white" stroke-miterlimit="10"/>
<path d="M86.5972 68.2529L111.412 78.7786" stroke="white" stroke-miterlimit="10"/>
<path d="M89.1699 65.6277L113.99 76.1533" stroke="white" stroke-miterlimit="10"/>
<path d="M60.853 99.7841L100.311 65.0449" stroke="white" stroke-miterlimit="10"/>
<path d="M64.6079 101.816L105.397 65.0449" stroke="white" stroke-miterlimit="10"/>
<path d="M68.5767 103.296L110.488 65.0449" stroke="white" stroke-miterlimit="10"/>
<path d="M73.7871 105.044L115.579 65.0449" stroke="white" stroke-miterlimit="10"/>
</g>
<path d="M98.5034 93.8045L108.8 98.6847C109.535 99.0344 110.409 98.8317 110.926 98.1982L119.727 87.3786C120.517 86.4107 120.125 84.936 118.967 84.5052L108.909 80.7551C108.244 80.5068 107.494 80.6842 107.002 81.2112L97.962 90.8956C97.1176 91.7977 97.3957 93.2774 98.5034 93.8045Z" fill="#44B5DC"/>
<path d="M51.0835 99.2773V95.5981L97.8031 118.935V123.521L51.0835 99.2773Z" fill="#0D395C"/>
<path d="M135.86 73.7415L97.8032 118.935V123.522L135.86 77.9882V73.7415Z" fill="#51A1B7"/>
<path d="M37.5698 45.9186L82.0328 21.8157L90.1488 61.9621L52.0768 91.2737L37.5698 45.9186Z" fill="#44B5DC"/>
<rect x="117.271" y="23.1541" width="51.1229" height="30.5164" rx="4" fill="#106297"/>
<path d="M160.423 28.3362C161.182 28.3362 161.797 27.6917 161.797 26.8967C161.797 26.1017 161.182 25.4573 160.423 25.4573C159.664 25.4573 159.048 26.1017 159.048 26.8967C159.048 27.6917 159.664 28.3362 160.423 28.3362Z" fill="#43B6DD"/>
<path d="M164.271 28.3362C165.03 28.3362 165.645 27.6917 165.645 26.8967C165.645 26.1017 165.03 25.4573 164.271 25.4573C163.512 25.4573 162.896 26.1017 162.896 26.8967C162.896 27.6917 163.512 28.3362 164.271 28.3362Z" fill="#0D395C"/>
<path d="M156.574 28.3362C157.333 28.3362 157.949 27.6917 157.949 26.8967C157.949 26.1017 157.333 25.4573 156.574 25.4573C155.815 25.4573 155.2 26.1017 155.2 26.8967C155.2 27.6917 155.815 28.3362 156.574 28.3362Z" fill="#ED725F"/>
<path d="M105.208 45.7388L144.475 45.7388C145.88 45.7388 147.019 44.5752 147.019 43.1398L147.019 15.7305C147.019 14.2951 145.88 13.1315 144.475 13.1316L105.208 13.1316C103.803 13.1316 102.664 14.2951 102.664 15.7305L102.664 43.1398C102.664 44.5752 103.803 45.7388 105.208 45.7388Z" fill="#0F5A8B" fill-opacity="0.2"/>
<path d="M107.451 42.8762L146.717 42.8762C148.122 42.8762 149.261 41.7126 149.261 40.2773L149.261 12.868C149.261 11.4326 148.122 10.269 146.717 10.269L107.451 10.269C106.045 10.269 104.906 11.4326 104.906 12.868L104.906 40.2773C104.906 41.7126 106.045 42.8762 107.451 42.8762Z" fill="white"/>
<path d="M104.906 16.5376L104.906 12.8739C104.906 11.437 106.044 10.2749 107.45 10.2749L146.722 10.2749C148.129 10.2749 149.267 11.437 149.267 12.8739L149.267 16.5376L104.912 16.5376L104.906 16.5376Z" fill="#44B5DC"/>
<path d="M125.715 38.4227C120.713 37.2093 117.606 32.0776 118.799 26.9459C119.992 21.8142 125.027 18.6573 130.029 19.8707C135.031 21.0841 138.137 26.2158 136.944 31.3475C135.751 36.4793 130.717 39.6361 125.715 38.4227Z" fill="#F9F9F9" stroke="#44B5DC"/>
<path fill-rule="evenodd" clip-rule="evenodd" d="M131.14 35.1931C132.668 35.1931 133.906 33.9051 133.906 32.3162C133.906 30.7273 132.668 29.4392 131.14 29.4392C129.612 29.4392 128.374 30.7273 128.374 32.3162C128.374 33.9051 129.612 35.1931 131.14 35.1931ZM132.467 31.5001C132.579 31.3055 132.518 31.053 132.331 30.9363C132.144 30.8195 131.901 30.8826 131.789 31.0772L130.864 32.6808L130.431 32.2311C130.277 32.0706 130.027 32.0706 129.873 32.2311C129.718 32.3916 129.718 32.6518 129.873 32.8123L130.484 33.4482C130.757 33.7318 131.213 33.6734 131.411 33.3294L132.467 31.5001Z" fill="#ED725F"/>
<path d="M127.583 22.8633C126.34 22.8633 125.195 23.1007 124.346 23.502C123.533 23.8864 122.841 24.5015 122.841 25.3293C122.841 26.157 123.533 26.7721 124.346 27.1565C125.195 27.5578 126.34 27.7952 127.583 27.7952C128.827 27.7952 129.972 27.5578 130.821 27.1565C131.634 26.7721 132.326 26.157 132.326 25.3293C132.326 24.5015 131.634 23.8864 130.821 23.502C129.972 23.1007 128.827 22.8633 127.583 22.8633Z" fill="#37BEF0"/>
<path d="M122.841 27.7952V27.1056C123.202 27.4605 123.635 27.7232 124.019 27.9048C124.992 28.3649 126.253 28.6172 127.583 28.6172C128.913 28.6172 130.174 28.3649 131.148 27.9048C131.532 27.7232 131.964 27.4605 132.326 27.1056V27.7952C132.326 28.1437 132.203 28.4544 132 28.7262C131.725 28.655 131.437 28.6172 131.14 28.6172C129.915 28.6172 128.834 29.2614 128.195 30.2418C127.994 30.2546 127.79 30.2612 127.583 30.2612C126.34 30.2612 125.195 30.0238 124.346 29.6225C123.533 29.2381 122.841 28.623 122.841 27.7952Z" fill="#37BEF0"/>
<path d="M127.786 31.0812C127.719 31.0825 127.651 31.0832 127.583 31.0832C126.253 31.0832 124.992 30.8309 124.019 30.3708C123.635 30.1892 123.202 29.9265 122.841 29.5716V30.2612C122.841 31.0889 123.533 31.704 124.346 32.0885C125.195 32.4897 126.34 32.7272 127.583 32.7272C127.59 32.7272 127.598 32.7272 127.605 32.7272C127.591 32.5922 127.583 32.4551 127.583 32.3162C127.583 31.8831 127.655 31.4674 127.786 31.0812Z" fill="#37BEF0"/>
<path d="M127.785 33.5472C127.718 33.5485 127.651 33.5492 127.583 33.5492C126.253 33.5492 124.992 33.2969 124.019 32.8368C123.635 32.6552 123.202 32.3924 122.841 32.0375V32.7272C122.841 33.5549 123.533 34.17 124.346 34.5544C125.195 34.9557 126.34 35.1932 127.583 35.1932C128.007 35.1932 128.419 35.1656 128.813 35.1133C128.35 34.6971 127.992 34.159 127.785 33.5472Z" fill="#37BEF0"/>
<path d="M94.48 44.3372L87.5479 49.3705L93.8712 52.9388L94.48 44.3372Z" fill="#FFD700"/>
<path d="M80.6541 41.2861L77.3543 49.2759L84.5898 48.8983L80.6541 41.2861Z" fill="#FFD700"/>
<path d="M103.94 54.6338L95.506 55.037L98.8393 61.5849L103.94 54.6338Z" fill="#FFD700"/>
<path d="M17.3073 44.6621L19.5957 44.9292L20.1909 42.9461L18.1418 41.8821C18.2185 41.0137 18.1326 40.1509 17.9029 39.34L19.7026 37.8753L18.7519 36.041L16.5695 36.7672C16.0389 36.1162 15.3944 35.5601 14.644 35.1382L14.8993 32.7993L12.9581 32.1855L11.9227 34.2778C11.0731 34.1971 10.2294 34.2827 9.43686 34.5154L7.99957 32.6716L6.20799 33.6388L6.92693 35.873C6.29157 36.4138 5.74837 37.0743 5.33563 37.8365L3.04729 37.5694L2.45203 39.5524L4.50116 40.6165C4.42353 41.488 4.51131 42.3446 4.74003 43.1586L2.94037 44.6233L3.89106 46.4575L6.0774 45.7292C6.60798 46.3803 7.25245 46.9364 7.99993 47.3573L7.74463 49.6962L9.68582 50.31L10.7212 48.2177C11.5738 48.2993 12.4115 48.2118 13.207 47.9801L14.6443 49.8239L16.4359 48.8567L15.717 46.6225C16.3523 46.0817 16.8946 45.4243 17.3053 44.6581L17.3073 44.6621ZM10.0896 45.3534C7.87235 44.6524 6.62719 42.2451 7.30617 39.9831C7.98515 37.7211 10.3343 36.4503 12.5516 37.1513C14.7688 37.8524 16.0149 40.2565 15.335 42.5216C14.6551 44.7867 12.3068 46.0544 10.0896 45.3534Z" fill="#CBCBCB"/>
<path d="M177.727 129.43L180 129.001V126.961L177.727 126.57C177.551 125.731 177.22 124.946 176.766 124.253L178.071 122.342L176.63 120.901L174.745 122.232C174.048 121.778 173.27 121.447 172.428 121.273L171.999 119H169.96L169.569 121.273C168.73 121.45 167.945 121.781 167.252 122.235L165.341 120.93L163.901 122.37L165.234 124.256C164.78 124.953 164.449 125.735 164.273 126.573L162 127.002V129.042L164.273 129.433C164.449 130.275 164.78 131.054 165.234 131.75L163.929 133.661L165.37 135.102L167.258 133.768C167.955 134.222 168.733 134.553 169.572 134.727L170.001 137H172.04L172.431 134.727C173.273 134.55 174.051 134.219 174.748 133.765L176.659 135.07L178.099 133.63L176.766 131.744C177.22 131.047 177.551 130.269 177.724 129.427L177.727 129.43ZM171 132.223C168.67 132.223 166.782 130.332 166.782 128.005C166.782 125.678 168.67 123.786 171 123.786C173.33 123.786 175.218 125.675 175.218 128.005C175.218 130.335 173.33 132.223 171 132.223Z" fill="#F2CE14"/>
</svg>
