<svg width="214" height="140" viewBox="0 0 214 140" fill="none" xmlns="http://www.w3.org/2000/svg">
<g opacity="0.21">
<path d="M153.884 36.8257H65.3344C63.6875 36.8257 62.3477 38.2108 62.3477 39.9141V115.263C62.3477 116.967 63.6875 118.352 65.3344 118.352H153.884C155.531 118.352 156.871 116.967 156.871 115.263V39.9141C156.871 38.2108 155.531 36.8257 153.884 36.8257Z" fill="#848585"/>
</g>
<path d="M158.908 38.8096H68.4234C66.7393 38.8096 65.3716 40.1947 65.3716 41.9074V117.565C65.3716 119.278 66.7393 120.663 68.4234 120.663H158.917C160.602 120.663 161.969 119.278 161.969 117.565V41.9074C161.969 40.1947 160.602 38.8096 158.917 38.8096H158.908Z" fill="#0068A5"/>
<g opacity="0.27">
<path d="M161.969 40.4671V40.1855H64.9995V40.4671H161.96H161.969Z" fill="white"/>
<path d="M161.969 46.8685V46.5869H64.9995V46.8685H161.96H161.969Z" fill="white"/>
<path d="M161.969 53.261V52.9795H64.9995V53.261H161.96H161.969Z" fill="white"/>
<path d="M161.969 59.6624V59.3809H64.9995V59.6624H161.96H161.969Z" fill="white"/>
<path d="M161.969 66.0638V65.7822H64.9995V66.0638H161.96H161.969Z" fill="white"/>
<path d="M161.969 72.4564V72.1748H64.9995V72.4564H161.96H161.969Z" fill="white"/>
<path d="M161.969 78.8577V78.5762H64.9995V78.8577H161.96H161.969Z" fill="white"/>
<path d="M161.96 85.2498V84.9683H64.9995V85.2498H161.96Z" fill="white"/>
<path d="M161.969 91.6512V91.3696H64.9995V91.6512H161.96H161.969Z" fill="white"/>
<path d="M161.969 98.053V97.7715H64.9995V98.053H161.96H161.969Z" fill="white"/>
<path d="M161.969 104.445V104.164H64.9995V104.445H161.96H161.969Z" fill="white"/>
<path d="M161.969 110.847V110.565H64.9995V110.847H161.96H161.969Z" fill="white"/>
<path d="M161.96 117.239V116.958H64.9995V117.239H161.96Z" fill="white"/>
<path d="M158.192 120.177H158.471V49.6943H158.192V120.177Z" fill="white"/>
<path d="M151.883 120.177H152.162V49.6943H151.883V120.177Z" fill="white"/>
<path d="M145.575 120.177H145.854V49.6943H145.575V120.177Z" fill="white"/>
<path d="M139.276 120.177H139.556V49.6943H139.276V120.177Z" fill="white"/>
<path d="M132.958 120.177H133.238V49.6943H132.958V120.177Z" fill="white"/>
<path d="M126.65 120.177H126.929V49.6943H126.65V120.177Z" fill="white"/>
<path d="M120.351 120.177H120.63V49.6943H120.351V120.177Z" fill="white"/>
<path d="M114.043 120.177H114.322V49.6943H114.043V120.177Z" fill="white"/>
<path d="M107.734 120.177H108.014V49.6943H107.734V120.177Z" fill="white"/>
<path d="M101.417 120.177H101.696V49.6943H101.417V120.177Z" fill="white"/>
<path d="M95.1177 120.177H95.3968V49.6943H95.1177V120.177Z" fill="white"/>
<path d="M88.8096 120.177H89.0887V49.6943H88.8096V120.177Z" fill="white"/>
<path d="M82.501 120.177H82.7801V49.6943H82.501V120.177Z" fill="white"/>
<path d="M76.1929 120.177H76.472V49.6943H76.1929V120.177Z" fill="white"/>
<path d="M69.8843 120.177H70.1634V49.6943H69.8843V120.177Z" fill="white"/>
</g>
<path d="M161.969 43.2646H65.3623V49.61H161.96V43.2646H161.969Z" fill="white"/>
<path d="M159.42 38.8281H67.921C66.516 38.8281 65.3716 39.9886 65.3716 41.4112V47.0172C65.3716 48.4492 66.516 49.6003 67.921 49.6003H159.42C160.825 49.6003 161.969 48.4398 161.969 47.0172V41.4112C161.969 39.9793 160.825 38.8281 159.42 38.8281Z" fill="white"/>
<path d="M76.0717 45.8196C77.0859 45.8196 77.914 44.9867 77.914 43.9572C77.914 42.9277 77.0952 42.0947 76.0717 42.0947C75.0482 42.0947 74.2388 42.9277 74.2388 43.9572C74.2388 44.9867 75.0576 45.8196 76.0717 45.8196Z" fill="#43B6DD"/>
<path d="M81.2167 45.8196C82.2309 45.8196 83.0497 44.9867 83.0497 43.9572C83.0497 42.9277 82.2309 42.0947 81.2167 42.0947C80.2026 42.0947 79.3838 42.9277 79.3838 43.9572C79.3838 44.9867 80.2026 45.8196 81.2167 45.8196Z" fill="#0D395C"/>
<path d="M70.6191 45.8196C71.6333 45.8196 72.4521 44.9867 72.4521 43.9572C72.4521 42.9277 71.6333 42.0947 70.6191 42.0947C69.6049 42.0947 68.7769 42.9277 68.7769 43.9572C68.7769 44.9867 69.5956 45.8196 70.6191 45.8196Z" fill="#ED725F"/>
<path d="M185.732 32.9889L196.749 42.2262L210.184 37.2565C211.124 37.3408 208.258 49.8912 208.342 50.4714C208.184 51.3793 207.319 51.9876 206.416 51.8191L184.383 47.8977C183.481 47.7386 182.876 46.8682 183.044 45.9604C183.323 45.3427 184.886 33.0169 185.732 32.9795V32.9889Z" fill="#44B5DC"/>
<path opacity="0.26" d="M185.732 32.9887C186.095 32.6892 186.579 32.5488 187.072 32.633L209.105 36.5544C209.561 36.6387 209.942 36.9007 210.184 37.2564L196.749 42.226L185.732 32.9887Z" fill="#44B5DC"/>
<path d="M201.457 50.9389L197.186 53.0166C196.284 53.2693 189.566 57.3685 189.566 57.3685L159.69 82.0575C158.136 83.2461 156.387 84.0417 154.544 84.519L145.994 86.5124L146.124 69.1234L147.315 69.7318L149.427 69.5539L184.728 51.4817C184.728 51.4817 188.282 43.171 188.831 42.9651C190.171 42.4597 189.715 48.8332 189.715 48.8332" fill="#FFF8E9"/>
<path d="M201.457 50.9389L197.186 53.0166C196.284 53.2693 189.566 57.3685 189.566 57.3685L159.69 82.0575C158.136 83.2461 156.387 84.0417 154.544 84.519L145.994 86.5124L146.124 69.1234L147.315 69.7318L149.427 69.5539L184.728 51.4817C184.728 51.4817 188.282 43.171 188.831 42.9651C190.171 42.4597 189.715 48.8332 189.715 48.8332" stroke="#0D395C" stroke-width="0.5" stroke-miterlimit="10"/>
<path d="M30.1731 65.1182L65.39 79.2877L71.0657 79.5684L75.783 92.6804L67.1858 94.4211C67.2695 94.6738 67.0927 94.1965 67.1858 94.4211C66.367 94.5241 65.5482 94.5615 64.7294 94.4867C59.4259 95.4319 31.9223 75.5441 27.0654 73.2605L30.1731 65.1275V65.1182Z" fill="#FFF8E9"/>
<path d="M67.1858 94.4211L75.783 92.6804L71.0657 79.5684L65.39 79.2877L30.1731 65.1182V65.1275L27.0654 73.2605C31.9223 75.5441 59.4259 95.4319 64.7294 94.4867C65.5482 94.5615 66.367 94.5241 67.1858 94.4211ZM67.1858 94.4211C67.0927 94.1965 67.2695 94.6738 67.1858 94.4211Z" stroke="#0D395C" stroke-width="0.5" stroke-miterlimit="10"/>
<path d="M32.853 66.7654C32.853 66.7654 32.9832 63.1341 26.2748 61.5992C19.5664 60.0643 15.5469 66.1383 15.5469 66.1383C15.5469 66.1383 18.1986 75.0106 29.736 74.9264" fill="#FFF8E9"/>
<path d="M32.853 66.7654C32.853 66.7654 32.9832 63.1341 26.2748 61.5992C19.5664 60.0643 15.5469 66.1383 15.5469 66.1383C15.5469 66.1383 18.1986 75.0106 29.736 74.9264" stroke="#0D395C" stroke-width="0.5" stroke-miterlimit="10" stroke-linecap="round"/>
<path d="M17.026 77.9775H15.2303C9.03356 77.9775 3.99991 72.9143 3.99991 66.6812C3.99991 60.4482 9.03356 55.385 15.2303 55.385H17.026C23.2227 55.385 28.2563 60.4482 28.2563 66.6812C28.2563 72.9237 23.2227 77.9775 17.026 77.9775Z" fill="#44B5DC"/>
<path d="M21.1108 74.4678C17.7426 75.2165 15.4258 71.8005 13.2765 69.8444C11.5087 67.982 8.00098 65.5955 8.4848 62.6006C8.51272 61.2435 8.99654 59.9146 9.95489 58.9412C11.4622 56.9945 12.8672 59.6899 14.0116 60.5697C14.4954 61.0376 14.5047 61.8144 14.0395 62.3011L11.732 64.6876C13.444 66.3535 16.8122 69.6479 18.5149 71.3138L20.8224 68.9273C21.2876 68.4406 22.0598 68.4312 22.5437 68.8992C23.2136 69.7696 25.8839 71.2857 24.5906 72.6053C23.6974 73.6348 22.4785 74.3461 21.1108 74.4678Z" fill="#FFF8E9"/>
<path d="M28.7591 63.6204C28.7591 63.6204 19.5943 62.1792 19.6502 62.6565C19.6967 63.1338 20.1526 64.0603 21.0923 64.5751C22.0228 65.0804 27.196 66.9803 28.7684 67.6916V63.6204H28.7591Z" fill="#FFF8E9"/>
<path opacity="0.22" d="M27.8191 69.8257C27.8191 69.8257 30.2196 71.763 29.8846 74.683L25.3906 74.2244L27.8191 69.8257Z" fill="#D38888"/>
<path d="M134.196 8H171.72C173.088 8 174.195 9.11372 174.195 10.4895C173.888 32.6141 178.773 25.3328 146.831 26.5495L139.025 32.455C138.615 32.7639 138.029 32.4737 138.029 31.9496V26.5495C135.898 26.4278 131.786 27.3825 131.721 24.06V10.4895C131.721 9.11372 132.828 8 134.196 8Z" fill="#44B5DC"/>
<path d="M151.855 14.168L169.496 14.168V11.8376L151.855 11.8376V14.168Z" fill="#E3EEFD"/>
<path d="M151.855 22.4507L169.496 22.4507V20.1203L151.855 20.1203V22.4507Z" fill="#E3EEFD"/>
<path d="M136.149 18.314L153.791 18.314V15.9836L136.149 15.9836V18.314Z" fill="#E3EEFD"/>
<path d="M143.891 14.168H150.543V11.8376H143.891V14.168Z" fill="#E3EEFD"/>
<path d="M136.15 14.168H142.802V11.8376H136.15V14.168Z" fill="#E3EEFD"/>
<path d="M162.843 18.314H169.496V15.9836H162.843V18.314Z" fill="#E3EEFD"/>
<path d="M155.112 18.314H161.764V15.9836H155.112V18.314Z" fill="#E3EEFD"/>
<path d="M99.1558 30.7703C94.2989 35.3468 93.2475 44.659 91.6844 50.9576C90.3539 54.982 86.2879 57.6867 85.59 61.9544C84.8457 66.4655 89.4979 70.8361 93.0149 72.8389C98.0765 75.3565 107.623 74.8511 113.419 74.823C127.004 74.0275 137.201 56.7696 129.842 44.7901C127.822 41.3927 127.05 33.6622 124.389 30.7797C118.416 24.2939 111.391 27.3355 111.391 27.3355C107.269 25.7164 102.552 27.2794 99.1558 30.7797V30.7703Z" fill="#1A1A35"/>
<path d="M63.9849 75.9087C65.1758 75.6373 97.2758 60.7378 97.3503 61.5708L118.406 62.6003C118.89 62.5722 120.006 62.7781 119.978 62.8062C120.546 62.881 149.157 66.6808 149.157 66.6808L148.152 88.1035L128.641 87.3361L137.582 120.607C125.468 120.589 93.582 121.028 82.4633 121.141L88.7903 86.7932L74.7035 93.7938L63.9756 75.89L63.9849 75.9087Z" fill="#F2CE14"/>
<mask id="mask0_1504_14761" style="mask-type:luminance" maskUnits="userSpaceOnUse" x="63" y="61" width="87" height="61">
<path d="M63.9849 75.9087C65.1758 75.6373 97.2758 60.7378 97.3503 61.5708L118.406 62.6003C118.89 62.5722 120.006 62.7781 119.978 62.8062C120.546 62.881 149.157 66.6808 149.157 66.6808L148.152 88.1035L128.641 87.3361L137.582 120.607C125.468 120.589 93.582 121.028 82.4633 121.141L88.7903 86.7932L74.7035 93.7938L63.9756 75.89L63.9849 75.9087Z" fill="white"/>
</mask>
<g mask="url(#mask0_1504_14761)">
<path opacity="0.27" d="M134.214 102.769C117.876 110.219 101.044 110.434 84.6315 102.226L82.7334 108.366C103.426 117.5 114.471 116.798 136.066 109.732L134.224 102.76L134.214 102.769Z" fill="#FF4E63"/>
<path d="M131.572 91.6876C112.2 99.1654 106.85 99.6334 87.1249 92.4644L85.9897 97.7054C106.134 105.118 114.005 106.971 132.567 97.7054L131.572 91.6782V91.6876Z" fill="#FFF8DC"/>
<path opacity="0.3" d="M149.985 81.4771L125.608 76.0957L128.967 88.5619L149.66 89.6288L149.985 81.4771Z" fill="#ED725F"/>
<path opacity="0.3" d="M88.7997 86.8026L90.6233 77.9209L71.0098 89.9191L74.3221 95.7685L88.7997 86.8026Z" fill="#ED725F"/>
</g>
<path opacity="0.41" d="M128.641 87.3359C128.641 87.3359 123.849 104.5 118.406 108.628C112.954 112.755 82.4634 121.141 82.4634 121.141C93.4053 121.122 124.807 120.832 137.582 120.607L128.641 87.3359Z" fill="#F2CE14"/>
<path d="M122.938 44.285C119.997 16.4794 92.9777 34.458 104.794 54.0183L102.691 64.8279L113.177 66.681L113.838 58.4264C118.974 57.5092 122.938 51.5288 122.938 44.285Z" fill="#FFF8EA"/>
<mask id="mask1_1504_14761" style="mask-type:luminance" maskUnits="userSpaceOnUse" x="101" y="29" width="22" height="38">
<path d="M122.938 44.285C119.997 16.4794 92.9777 34.458 104.794 54.0183L102.691 64.8279L113.177 66.681L113.838 58.4264C118.974 57.5092 122.938 51.5288 122.938 44.285Z" fill="white"/>
</mask>
<g mask="url(#mask1_1504_14761)">
<path d="M104.794 54.0186C104.794 54.0186 107.427 57.603 112.452 58.2956C112.452 58.2956 107.576 60.2891 103.91 58.3986L104.794 54.0186Z" fill="#F8E4CD"/>
<path d="M123.291 45.455C118.946 43.7704 111.865 43.0123 111.177 35.5812C111.177 35.5812 108.721 41.5897 101.966 42.7128L108.916 29.0019L115.969 28.8428L124.389 38.0239L123.3 45.4456L123.291 45.455Z" fill="#F8E4CD"/>
</g>
<path d="M118.406 62.5909C115.057 73.3818 100.123 71.0607 97.5737 61.5801L118.406 62.5909Z" fill="#FFF8EA"/>
<path d="M110.795 30.0124C110.795 30.0124 110.916 40.4009 117.55 42.0574L115.578 37.3592C115.578 37.3592 118.341 42.647 124.389 42.516C123.905 35.4968 120.277 27.5416 110.795 30.0124Z" fill="#1A1A35"/>
<path d="M110.795 30.0122C111.8 36.1143 106.571 42.9557 102.179 45.7166C97.8157 38.4914 103.333 30.7796 110.795 30.0122Z" fill="#1A1A35"/>
<path d="M198.21 85.352L199.959 84.3974L191.501 75.8994L189.752 76.8447L198.21 85.352Z" fill="white"/>
<path d="M198.833 79.5586C201.578 78.0424 199.391 73.8964 196.6 75.3283C193.855 76.8445 196.042 80.9905 198.833 79.5586ZM197.158 76.3859C198.535 75.6559 199.642 77.7617 198.275 78.501C196.898 79.231 195.79 77.1253 197.158 76.3859Z" fill="white"/>
<path d="M193.213 86.1753C195.958 84.6591 193.772 80.5131 190.98 81.945C188.236 83.4612 190.422 87.6072 193.213 86.1753ZM191.539 83.0026C192.916 82.2726 194.023 84.3784 192.655 85.1177C191.278 85.8477 190.171 83.742 191.539 83.0026Z" fill="white"/>
<path d="M195.251 112.09C174.409 111.136 178.494 117.229 178.103 97.1161C178.103 96.1521 178.884 95.366 179.843 95.366C200.684 96.3206 196.6 90.2279 196.991 110.34C196.991 111.304 196.209 112.09 195.251 112.09Z" fill="#44B5DC"/>
<path d="M189.268 106.962C180.522 106.578 181.21 108.908 181.266 101.599C181.266 100.991 181.759 100.495 182.364 100.495C191.11 100.878 190.422 98.5479 190.366 105.857C190.366 106.466 189.873 106.962 189.268 106.962Z" fill="white"/>
<path d="M193.827 105.82L190.933 105.146V102.235L193.827 101.636V105.82Z" fill="white"/>
<path d="M115.168 51.6595C114.935 53.2506 114.768 54.2332 113.251 54.5421C111.363 54.4672 111.483 51.7063 111.483 51.7063L115.261 50.9482C115.233 51.1822 115.205 51.4256 115.168 51.6595Z" fill="#FF4E63"/>
<path d="M111.391 50.9014H115.261L115.168 51.6314L111.391 51.6782V50.9014Z" fill="#CFE4F1"/>
<path d="M115.215 51.6313C114.973 53.2691 114.805 54.2705 113.251 54.5887C111.316 54.5139 111.437 50.9106 111.437 50.9106H115.308C115.28 51.154 115.243 51.3973 115.215 51.6406V51.6313Z" stroke="#0D395C" stroke-width="0.25" stroke-miterlimit="10"/>
<path d="M119.439 45.8009C119.439 44.9867 118.843 44.3315 118.108 44.3315C117.373 44.3315 116.778 44.9867 116.778 45.8009C116.778 46.6151 117.373 47.2703 118.108 47.2703C118.843 47.2703 119.439 46.6151 119.439 45.8009Z" fill="#0D395C"/>
<path d="M117.736 45.5669C117.736 45.4452 117.634 45.3423 117.513 45.3423C117.392 45.3423 117.29 45.4452 117.29 45.5669C117.29 45.6886 117.392 45.7915 117.513 45.7915C117.634 45.7915 117.736 45.6886 117.736 45.5669Z" fill="white"/>
<path d="M110.237 45.8009C110.237 44.9867 109.642 44.3315 108.907 44.3315C108.172 44.3315 107.576 44.9867 107.576 45.8009C107.576 46.6151 108.172 47.2703 108.907 47.2703C109.642 47.2703 110.237 46.6151 110.237 45.8009Z" fill="#0D395C"/>
<path d="M108.534 45.5669C108.534 45.4452 108.432 45.3423 108.311 45.3423C108.19 45.3423 108.088 45.4452 108.088 45.5669C108.088 45.6886 108.19 45.7915 108.311 45.7915C108.432 45.7915 108.534 45.6886 108.534 45.5669Z" fill="white"/>
<path d="M117.057 43.8262C117.206 43.9853 117.252 43.377 118.313 43.4051C118.927 43.3209 119.476 43.7233 119.578 43.5361C119.625 43.4425 119.532 43.2834 119.29 43.143C119.048 43.0027 118.667 42.8997 118.239 42.9465C117.811 42.9933 117.457 43.1805 117.262 43.377C117.057 43.5735 117.001 43.7514 117.066 43.8262H117.057Z" fill="#0D395C"/>
<path d="M113.354 48.3562C113.354 48.3562 113.754 48.2813 114.405 48.2158C114.573 48.2064 114.731 48.1784 114.759 48.0941C114.796 48.0099 114.731 47.8789 114.657 47.7478C114.508 47.4671 114.359 47.1676 114.191 46.8587C113.549 45.5859 113.475 45.614 113.549 45.5859C113.624 45.5672 113.81 45.5204 114.461 46.7839C114.619 47.0927 114.768 47.3922 114.908 47.6823C114.964 47.8134 115.066 47.9631 114.982 48.1409C114.936 48.2252 114.815 48.2907 114.703 48.3187C114.601 48.3468 114.508 48.3468 114.424 48.3468C113.773 48.3749 113.363 48.3843 113.363 48.3468L113.354 48.3562Z" fill="#0D395C"/>
<path d="M104.254 45.3426C104.254 42.9186 106.171 40.9438 108.525 40.9438C110.879 40.9438 112.796 42.9186 112.796 45.3426C112.796 47.7665 110.879 49.7413 108.525 49.7413C106.171 49.7413 104.254 47.7665 104.254 45.3426ZM104.682 45.3426C104.682 47.5981 106.413 49.4324 108.534 49.4324C110.656 49.4324 112.377 47.5981 112.377 45.3426C112.377 43.0871 110.646 41.2527 108.534 41.2527C106.422 41.2527 104.682 43.0871 104.682 45.3426Z" fill="#0D395C"/>
<path d="M102.682 46.5685C102.682 46.5685 101.147 43.5081 99.7511 44.6406C99.4813 44.8558 99.0812 45.4548 98.8951 46.1942C98.2903 48.6556 100.291 49.8629 102.468 50.5648L103.156 50.7239L102.682 46.5592V46.5685Z" fill="#FFF8EA"/>
<path d="M114.685 44.9682C114.685 42.7501 116.536 40.9438 118.806 40.9438C121.077 40.9438 122.928 42.7501 122.928 44.9682C122.928 47.1863 121.077 48.9926 118.806 48.9926C116.536 48.9926 114.685 47.1863 114.685 44.9682ZM115.094 44.9682C115.094 47.0365 116.759 48.7118 118.806 48.7118C120.853 48.7118 122.519 47.0272 122.519 44.9682C122.519 42.9092 120.853 41.2246 118.806 41.2246C116.759 41.2246 115.094 42.9092 115.094 44.9682Z" fill="#0D395C"/>
<path d="M112.377 45.333H115.038V44.7808H112.377V45.333Z" fill="#0D395C"/>
<path d="M110.162 44.0509C110.014 44.21 109.967 43.6016 108.906 43.6297C108.292 43.5455 107.743 43.9479 107.641 43.7607C107.594 43.6671 107.688 43.508 107.929 43.3676C108.171 43.2273 108.553 43.1243 108.981 43.1711C109.409 43.2179 109.762 43.4051 109.958 43.6016C110.162 43.7982 110.218 43.976 110.153 44.0509H110.162Z" fill="#0D395C"/>
<path d="M102.179 45.7259L104.543 44.5279L104.682 43.564L101.649 45.0614L102.179 45.7259Z" fill="#0D395C"/>
<path d="M52.9782 25.9787L31.876 16.7788L46.307 30.8641L52.9782 25.9787Z" fill="#44B5DC"/>
<path d="M46.307 30.8641L42.6411 36.8351L31.876 16.7788L46.307 30.8641Z" fill="#0068A5"/>
<path d="M31.876 16.7788L41.9805 32.5768L35.1418 36.0115L31.876 16.7788Z" fill="#44B5DC"/>
<path d="M68.721 120.289C68.8884 119.85 69.7351 120.336 70.1259 120.317C70.4143 120.355 70.3678 120.804 70.0887 120.795C69.7258 120.654 68.7023 120.767 68.721 120.289ZM66.4972 119.709C66.7112 119.288 67.4928 119.84 67.8929 119.85C68.1627 119.906 68.1069 120.336 67.837 120.327C67.4928 120.186 66.4135 120.168 66.4972 119.709ZM64.3665 118.839C64.6456 118.464 65.3063 119.129 65.725 119.185C65.9762 119.269 65.8924 119.662 65.6412 119.653C65.297 119.494 64.2083 119.279 64.3758 118.839H64.3665ZM62.5522 117.753C62.3475 117.519 62.7103 117.201 62.915 117.435C63.0267 117.734 64.3665 118.333 63.5943 118.595C63.1663 118.446 62.8313 118.025 62.5522 117.753ZM61.7706 115.46C61.9381 114.992 62.3568 115.32 62.2358 115.732C62.1335 116.087 62.6638 116.742 62.1428 116.855C61.6776 116.686 61.7799 115.891 61.7706 115.46ZM62.6452 113.214C62.8127 112.952 63.2221 113.214 63.0453 113.476C62.7196 113.822 62.6917 114.459 62.301 114.599C61.6869 114.431 62.487 113.588 62.6452 113.214ZM63.343 112.269C63.6315 112.035 64.0409 111.118 64.4503 111.38C64.5433 111.473 64.5526 111.623 64.4503 111.717C64.1153 111.988 63.9106 112.503 63.5198 112.662C63.3244 112.662 63.2035 112.419 63.3337 112.269H63.343ZM64.9527 110.565C65.2783 110.388 65.8087 109.527 66.1809 109.854C66.2646 109.957 66.246 110.107 66.1437 110.191C65.7808 110.425 65.5017 110.837 65.1202 110.987C64.9062 110.987 64.7945 110.706 64.962 110.565H64.9527ZM66.7857 109.115C67.1299 108.974 67.7626 108.207 68.0976 108.563C68.1627 108.675 68.1255 108.825 68.0138 108.89C67.6323 109.087 67.3067 109.405 66.9252 109.545C66.7019 109.545 66.5903 109.227 66.7857 109.105V109.115ZM68.7861 107.907C69.1396 107.814 69.8561 107.112 70.1445 107.514C70.3399 107.87 69.149 108.226 68.8977 108.366C68.6558 108.366 68.5628 108.02 68.7861 107.907ZM71.2052 106.822C71.5123 106.775 72.0891 106.288 72.2938 106.681C72.3869 107.018 71.931 107.037 71.7263 107.14C71.503 107.206 71.2145 107.355 70.9912 107.402C70.4795 107.252 70.8517 106.878 71.2052 106.822ZM73.0847 106.167C73.4569 106.139 74.2663 105.568 74.4897 105.998C74.5734 106.438 73.4662 106.485 73.1591 106.635C72.8986 106.635 72.8335 106.242 73.0847 106.167ZM75.3084 105.53C75.6713 105.53 76.5459 104.997 76.7227 105.446C76.7599 105.905 75.6992 105.858 75.3736 106.008C75.1037 106.008 75.0479 105.596 75.3177 105.53H75.3084ZM114.322 105.643C114.015 105.643 114.015 105.156 114.322 105.165C114.684 105.259 115.633 104.941 115.708 105.409C115.708 105.54 115.596 105.652 115.466 105.652C115.085 105.652 114.694 105.652 114.312 105.652L114.322 105.643ZM116.62 105.165C116.983 105.25 117.932 104.922 118.015 105.39C118.015 105.521 117.913 105.633 117.783 105.633C117.401 105.633 117.011 105.643 116.629 105.643C116.322 105.643 116.322 105.156 116.629 105.165H116.62ZM111.781 105.371C111.865 104.903 112.814 105.231 113.177 105.156C113.484 105.156 113.484 105.643 113.177 105.633C112.814 105.54 111.856 105.839 111.791 105.371H111.781ZM118.918 105.128C119.281 105.203 120.221 104.866 120.314 105.324C120.248 105.792 119.281 105.512 118.927 105.605C118.62 105.605 118.611 105.128 118.927 105.128H118.918ZM109.483 105.306C109.548 104.847 110.525 105.175 110.879 105.1C111.186 105.1 111.177 105.586 110.879 105.577C110.535 105.484 109.53 105.764 109.493 105.296L109.483 105.306ZM121.216 105.044C121.579 105.119 122.509 104.754 122.612 105.212C122.556 105.689 121.579 105.418 121.225 105.521C120.918 105.521 120.909 105.044 121.216 105.044ZM107.194 105.212C107.315 104.744 108.218 105.109 108.59 105.034C108.897 105.034 108.888 105.521 108.59 105.512C108.237 105.409 107.26 105.68 107.204 105.212H107.194ZM77.5694 105.025C77.9323 105.034 78.8348 104.566 78.9836 105.016C79.0023 105.474 77.9509 105.362 77.6159 105.502C77.3368 105.502 77.2903 105.072 77.5694 105.025ZM104.896 105.081C104.999 104.622 105.929 104.987 106.292 104.922C106.599 104.931 106.58 105.409 106.283 105.399C105.929 105.296 104.943 105.549 104.896 105.081ZM123.514 104.913C123.877 104.978 124.808 104.594 124.919 105.053C124.873 105.53 123.886 105.287 123.533 105.399C123.235 105.399 123.217 104.931 123.514 104.922V104.913ZM102.831 105.184C102.524 105.165 102.552 104.679 102.859 104.707C103.212 104.819 104.18 104.566 104.226 105.034C104.226 105.165 104.115 105.259 103.984 105.259C103.594 105.24 103.212 105.212 102.821 105.184H102.831ZM125.803 104.725C126.166 104.782 127.087 104.37 127.208 104.828C127.18 105.306 126.175 105.09 125.822 105.203C125.524 105.203 125.505 104.744 125.803 104.725ZM100.533 105.025C100.402 105.025 100.3 104.903 100.309 104.772C100.309 104.641 100.43 104.538 100.56 104.548L101.705 104.622C102.003 104.641 101.993 105.109 101.686 105.1C101.668 105.1 100.542 105.025 100.523 105.025H100.533ZM79.8489 104.622C80.2118 104.651 81.133 104.22 81.2632 104.679C81.2353 105.147 80.2397 104.969 79.8862 105.1C79.5977 105.1 79.5605 104.651 79.8489 104.622ZM128.073 104.491C128.446 104.538 129.348 104.108 129.478 104.557C129.46 105.034 128.455 104.847 128.101 104.969C127.813 104.969 127.785 104.52 128.073 104.491ZM98.011 104.622C98.1134 104.164 99.0531 104.529 99.416 104.473C99.7137 104.491 99.7044 104.959 99.3974 104.95C99.0438 104.838 98.0576 105.09 98.011 104.622ZM82.1471 104.342C82.5007 104.389 83.4404 103.995 83.5521 104.463C83.5056 104.931 82.51 104.707 82.1657 104.828C81.868 104.828 81.8494 104.37 82.1471 104.351V104.342ZM95.7222 104.482C95.8245 104.014 96.7643 104.389 97.1271 104.323C97.4249 104.332 97.4156 104.81 97.1085 104.8C96.755 104.697 95.7687 104.95 95.7222 104.482ZM93.424 104.37C93.517 103.902 94.4568 104.257 94.8196 104.192C95.1267 104.201 95.1081 104.679 94.8103 104.669C94.4568 104.566 93.4798 104.838 93.424 104.37ZM130.353 104.173C130.725 104.201 131.609 103.743 131.758 104.192C131.758 104.669 130.744 104.52 130.381 104.651C130.092 104.651 130.055 104.211 130.344 104.173H130.353ZM84.4546 104.155C84.8082 104.22 85.7572 103.864 85.8596 104.323C85.8037 104.791 84.8175 104.529 84.4732 104.632C84.1755 104.632 84.1569 104.164 84.4546 104.155ZM91.1258 104.295C91.2189 103.827 92.1586 104.164 92.5215 104.098C92.8285 104.098 92.8192 104.585 92.5215 104.576C92.1586 104.473 91.2003 104.763 91.1351 104.295H91.1258ZM86.7621 104.061C87.1156 104.136 88.074 103.808 88.1577 104.276C88.0833 104.744 87.125 104.445 86.7714 104.538C86.4643 104.538 86.455 104.061 86.7714 104.061H86.7621ZM88.8276 104.276C88.9021 103.808 89.8604 104.126 90.2233 104.042C90.5303 104.042 90.5303 104.529 90.2233 104.52C89.8604 104.426 88.9114 104.735 88.837 104.267L88.8276 104.276ZM132.614 103.808C132.986 103.827 133.861 103.34 134.019 103.78C134.056 104.248 132.986 104.155 132.651 104.286C132.372 104.286 132.325 103.855 132.605 103.808H132.614ZM134.856 103.35C135.228 103.35 136.084 102.835 136.261 103.265C136.308 103.724 135.238 103.687 134.912 103.818C134.633 103.818 134.586 103.396 134.856 103.34V103.35ZM137.08 102.807C137.452 102.807 138.28 102.245 138.485 102.666C138.55 103.125 137.48 103.134 137.145 103.275C136.875 103.275 136.819 102.863 137.08 102.797V102.807ZM139.285 102.18C139.657 102.161 140.457 101.562 140.681 101.983C140.774 102.432 139.676 102.498 139.36 102.648C139.099 102.648 139.034 102.245 139.285 102.18ZM141.462 101.459C141.835 101.422 142.607 100.795 142.849 101.197C142.979 101.628 141.853 101.777 141.546 101.927C141.286 101.927 141.211 101.543 141.462 101.459ZM143.602 100.636C143.965 100.579 144.719 99.9149 144.97 100.308C145.119 100.729 143.993 100.944 143.695 101.104C143.444 101.104 143.36 100.729 143.602 100.636ZM145.696 99.709C146.077 99.6341 146.747 98.9322 147.045 99.3159C147.231 99.709 146.077 100.027 145.798 100.177C145.556 100.177 145.463 99.8213 145.696 99.7184V99.709ZM147.743 98.6702C148.115 98.5766 148.757 97.8372 149.073 98.2022C149.278 98.5766 148.134 98.979 147.854 99.1288C147.613 99.1288 147.519 98.7825 147.743 98.6795V98.6702ZM149.725 97.5284C150.115 97.3973 150.655 96.6299 151.009 96.9575C151.26 97.3038 150.134 97.8372 149.855 97.9682C149.622 97.9682 149.52 97.6407 149.725 97.519V97.5284ZM152.423 95.46C152.646 95.2354 152.981 95.5911 152.758 95.8063C152.451 96.059 152.134 96.4895 151.725 96.6393C150.962 96.3866 152.265 95.7408 152.423 95.46ZM153.781 93.7005C153.921 93.4198 154.358 93.6537 154.209 93.9252C153.986 94.2527 153.781 94.8517 153.363 95.0202C152.683 94.8423 153.735 94.0468 153.781 93.7005ZM154.219 91.6135C154.181 91.3046 154.665 91.2485 154.693 91.5573C154.684 91.9504 154.861 92.8302 154.395 92.9705C153.902 92.9144 154.386 91.9785 154.219 91.6135ZM153.335 89.6575C153.251 89.5545 153.27 89.4048 153.372 89.3205C153.828 89.0866 154.163 90.1161 154.349 90.3875C154.423 90.5466 154.302 90.7337 154.135 90.7337C153.735 90.584 153.688 89.985 153.335 89.6668V89.6575ZM151.716 88.1039C151.613 88.0196 151.595 87.8699 151.679 87.767C152.051 87.4487 152.59 88.3098 152.907 88.497C153.065 88.6373 152.953 88.9181 152.739 88.9181C152.358 88.7684 152.088 88.3472 151.716 88.1132V88.1039ZM149.836 86.8217C149.725 86.7562 149.687 86.6064 149.753 86.4941C150.078 86.1291 150.729 86.9059 151.064 87.0369C151.26 87.1586 151.157 87.4862 150.934 87.4768C150.553 87.3364 150.227 87.0182 149.836 86.8311V86.8217ZM147.817 85.7735C147.529 85.6518 147.733 85.2026 148.013 85.3336C148.31 85.5208 149.771 85.9419 148.943 86.2976C148.562 86.1759 148.208 85.9326 147.808 85.7735H147.817ZM145.566 84.5942C145.826 84.1825 146.598 84.8189 146.952 84.875C147.194 84.9686 147.11 85.3523 146.859 85.343C146.58 85.1932 145.426 85.006 145.566 84.6036V84.5942ZM143.379 83.8642C143.593 83.4337 144.43 84.0327 144.775 84.0608C145.026 84.1357 144.961 84.5381 144.7 84.5287C144.403 84.379 143.277 84.2948 143.379 83.8642ZM141.165 83.2372C141.36 82.8067 142.235 83.3682 142.57 83.3776C142.83 83.4431 142.774 83.8549 142.504 83.8549C142.216 83.7145 141.081 83.6864 141.165 83.2372ZM138.932 82.6663C139.118 82.2264 139.964 82.7599 140.337 82.7692C140.606 82.8348 140.551 83.2559 140.281 83.2466C139.946 83.0968 138.876 83.1249 138.932 82.6663ZM137.992 82.685L136.875 82.4136C136.568 82.3481 136.689 81.8708 136.987 81.9457L138.103 82.2171C138.373 82.2732 138.317 82.7037 138.048 82.6944C138.029 82.6944 138.01 82.6944 137.992 82.6944V82.685ZM134.465 81.5713C134.652 81.1314 135.508 81.6649 135.87 81.6649C136.14 81.721 136.084 82.1516 135.815 82.1422C135.489 81.9925 134.41 82.0299 134.465 81.5713ZM132.223 81.0472C132.4 80.6073 133.265 81.1221 133.628 81.1221C133.898 81.1782 133.851 81.6087 133.572 81.5994C133.237 81.4496 132.177 81.5058 132.214 81.0472H132.223ZM129.981 80.5512C130.158 80.1113 131.023 80.6167 131.395 80.6167C131.674 80.6728 131.618 81.1033 131.339 81.094C131.004 80.9536 129.944 81.0098 129.981 80.5512ZM127.729 80.0739C127.897 79.634 128.771 80.13 129.143 80.1207C129.423 80.1768 129.376 80.6073 129.097 80.598C128.762 80.4576 127.701 80.5325 127.738 80.0739H127.729ZM125.477 79.6246C125.645 79.1754 126.52 79.6714 126.892 79.6621C127.171 79.7089 127.124 80.1487 126.845 80.1394C126.51 79.999 125.45 80.0926 125.477 79.6246ZM123.217 79.1941C123.375 78.7449 124.259 79.2315 124.631 79.2128C124.91 79.2596 124.863 79.6995 124.584 79.6901C124.249 79.5498 123.189 79.6527 123.217 79.1941ZM121.151 79.0631C120.844 79.0163 120.928 78.5296 121.235 78.5858C121.57 78.7355 122.565 78.5858 122.565 79.0725C122.547 79.1848 122.444 79.269 122.333 79.269C121.942 79.2128 121.551 79.1286 121.16 79.0631H121.151ZM118.685 78.3986C118.834 77.9494 119.727 78.4173 120.1 78.3986C120.388 78.436 120.341 78.8853 120.062 78.8759C119.718 78.7355 118.695 78.8759 118.695 78.3986H118.685ZM116.61 78.305C116.303 78.2582 116.378 77.7809 116.685 77.8277C117.029 77.9681 118.015 77.809 118.015 78.2863C117.997 78.408 117.894 78.4922 117.783 78.4922C117.392 78.436 117.001 78.3612 116.61 78.305ZM114.34 77.9494C114.033 77.9026 114.108 77.4253 114.415 77.4721C114.759 77.6125 115.745 77.444 115.754 77.9213C115.736 78.043 115.633 78.1272 115.522 78.1272C115.131 78.071 114.74 78.0055 114.349 77.9494H114.34ZM112.07 77.6124C111.763 77.575 111.828 77.0883 112.135 77.1351C112.479 77.2662 113.466 77.0977 113.475 77.575C113.456 77.6967 113.354 77.7809 113.242 77.7809C112.851 77.7341 112.461 77.6686 112.07 77.6124ZM109.79 77.2942C109.483 77.2568 109.548 76.7701 109.855 76.8169C110.2 76.948 111.186 76.7701 111.195 77.2474C111.177 77.3691 111.074 77.4533 110.963 77.4533C110.572 77.4065 110.181 77.341 109.79 77.2942ZM107.511 76.9948C107.204 76.9573 107.269 76.4707 107.576 76.5174C107.92 76.6485 108.906 76.4613 108.925 76.9386C108.906 77.0603 108.804 77.1445 108.692 77.1445C108.302 77.0977 107.911 77.0416 107.52 76.9948H107.511ZM105.017 76.4332C105.147 75.9746 106.059 76.4051 106.422 76.3677C106.711 76.3958 106.683 76.8544 106.394 76.845C106.041 76.714 105.036 76.9105 105.017 76.4332ZM102.738 76.1618C102.868 75.7032 103.78 76.1244 104.143 76.0869C104.431 76.115 104.403 76.5736 104.115 76.5642C103.761 76.4426 102.756 76.6298 102.738 76.1618ZM100.663 76.1618C100.356 76.1337 100.412 75.6471 100.719 75.6845C101.063 75.8062 102.049 75.6096 102.077 76.0776C102.058 76.1992 101.956 76.2928 101.835 76.2928C101.444 76.2554 101.054 76.1992 100.663 76.1618ZM98.1692 75.6471C98.2902 75.1885 99.2113 75.6003 99.5742 75.5535C99.8719 75.5815 99.844 76.0401 99.5463 76.0308C99.1927 75.9091 98.1971 76.115 98.1599 75.6377L98.1692 75.6471ZM95.8803 75.4037C96.0013 74.9451 96.9224 75.3569 97.2853 75.3101C97.583 75.3382 97.5551 75.7968 97.2574 75.7874C96.9038 75.6658 95.9083 75.881 95.871 75.4037H95.8803ZM93.5915 75.1697C93.7124 74.7112 94.6336 75.1136 94.9964 75.0668C95.2942 75.0949 95.2663 75.5535 94.9685 75.5441C94.6149 75.4224 93.6194 75.6377 93.5822 75.1697H93.5915ZM91.3026 74.9451C91.4236 74.4865 92.3447 74.889 92.7076 74.8422C93.0053 74.8609 92.9774 75.3289 92.689 75.3195C92.3354 75.1978 91.3398 75.4224 91.3026 74.9451ZM89.0137 74.7299C89.1347 74.2713 90.0558 74.6737 90.4187 74.6176C90.7164 74.6363 90.6885 75.1042 90.4001 75.0949C90.0465 74.9732 89.051 75.1978 89.0137 74.7299ZM86.7249 74.524C86.8458 74.0654 87.767 74.4585 88.1298 74.4117C88.4276 74.4304 88.3996 74.8983 88.1112 74.889C87.7576 74.7767 86.7621 75.0013 86.7249 74.524ZM84.436 74.3181C84.5569 73.8595 85.4781 74.2526 85.841 74.1964C86.1387 74.2151 86.1201 74.6831 85.8223 74.6737C85.4688 74.5614 84.4732 74.786 84.436 74.3087V74.3181ZM82.6682 74.4117C82.4635 74.393 82.1285 74.4117 82.1471 74.1215C82.1843 73.8314 82.5007 73.9156 82.7054 73.9344L83.5521 74.0092C83.8498 74.028 83.8312 74.4959 83.5335 74.4865C83.5056 74.4865 82.6961 74.4117 82.6682 74.4117ZM80.0723 74.1122C79.7652 74.0748 79.8303 73.5881 80.1374 73.6349C80.4816 73.7753 81.4586 73.5787 81.4772 74.0467C81.4586 74.1683 81.3563 74.2619 81.2353 74.2619C80.8445 74.2245 80.4444 74.1683 80.063 74.1122H80.0723ZM77.6066 73.4383C77.7741 72.9985 78.6394 73.4851 79.0116 73.4571C79.3 73.4945 79.2535 73.9437 78.9743 73.9344C78.6301 73.8033 77.5973 73.9156 77.6066 73.4383ZM75.3736 72.9142C75.5596 72.4837 76.397 73.0172 76.7785 73.0172C77.0483 73.0733 77.0018 73.5039 76.7227 73.4945C76.397 73.3541 75.3177 73.3822 75.3736 72.9236V72.9142ZM73.1684 72.2591C73.3824 71.838 74.1826 72.4182 74.5641 72.4369C74.8246 72.5024 74.7688 72.9142 74.4989 72.9049C74.1733 72.7551 73.0847 72.7083 73.1684 72.2498V72.2591ZM71.0098 71.473C71.2517 71.0705 72.0147 71.6976 72.3869 71.735C72.6381 71.8192 72.5637 72.2123 72.3031 72.203C71.9868 72.0439 70.8889 71.9128 71.0005 71.473H71.0098ZM69.0187 70.8833C68.7303 70.7617 68.935 70.3124 69.2141 70.4435C69.4932 70.6306 71.0005 70.9956 70.1631 71.37C69.7723 71.2577 69.3909 71.0424 69.0094 70.8833H69.0187ZM66.8508 69.5263C67.1578 69.1519 67.8091 69.8632 68.1906 69.9474C68.4139 70.0504 68.3302 70.4154 68.0883 70.406C67.8091 70.2656 66.6554 69.91 66.8508 69.5263ZM64.8597 68.3658C65.1853 68.0195 65.7994 68.7682 66.1716 68.8712C66.3856 68.9835 66.2925 69.3297 66.0506 69.3204C65.7901 69.1894 64.6177 68.7121 64.8597 68.3658ZM62.943 67.0929C63.2965 66.7654 63.8548 67.5515 64.227 67.6732C64.4223 67.7949 64.32 68.1224 64.0967 68.1131C63.8548 68.0008 62.6824 67.4018 62.943 67.0836V67.0929ZM61.1007 65.7078C61.4729 65.399 61.9939 66.2132 62.3475 66.3629C62.5336 66.494 62.4219 66.8028 62.2079 66.7935C61.9753 66.6999 60.8123 65.9792 61.11 65.6985L61.1007 65.7078ZM59.3422 64.2197C59.7236 63.9296 60.2075 64.7813 60.5517 64.9497C60.7285 65.0808 60.6169 65.3803 60.4029 65.3803C60.1982 65.3147 59.0258 64.4537 59.3515 64.2291L59.3422 64.2197ZM57.6674 62.975C57.5743 62.8814 57.5743 62.7317 57.6674 62.6381C58.0675 62.3667 58.4955 63.237 58.8304 63.4336C58.9886 63.574 58.877 63.8547 58.663 63.8547C58.2629 63.705 58.0023 63.2558 57.6674 62.9844V62.975ZM56.0577 61.2997C55.9647 61.2061 55.974 61.047 56.0763 60.9628C56.495 60.7195 56.8765 61.6086 57.2022 61.8145C57.351 61.9549 57.2301 62.2263 57.0254 62.2263C56.6253 62.0672 56.3834 61.5899 56.0577 61.3091V61.2997ZM54.5411 59.5496C54.4574 59.4467 54.4667 59.2969 54.569 59.2127C54.997 58.9881 55.332 59.8959 55.6483 60.1205C55.7879 60.2702 55.667 60.5229 55.4716 60.5229C55.0715 60.3638 54.8575 59.8491 54.5411 59.559V59.5496ZM53.1083 57.7246C53.0245 57.6217 53.0524 57.4626 53.1548 57.3877C53.5921 57.1818 53.8805 58.1083 54.1876 58.3517C54.3178 58.5014 54.1876 58.7447 54.0015 58.7447C53.6014 58.5856 53.406 58.0428 53.1083 57.734V57.7246ZM51.7591 55.8341C51.6847 55.7218 51.7126 55.572 51.8243 55.4972C52.2709 55.31 52.5221 56.2552 52.8105 56.5079C52.9222 56.6577 52.8105 56.8917 52.6151 56.8917C52.215 56.7326 52.0476 56.1617 51.7591 55.8341ZM50.503 53.8874C50.3356 53.6254 50.7543 53.3633 50.9124 53.6347C51.0148 53.9904 51.9824 54.8046 51.3218 54.9824C50.9124 54.8233 50.7822 54.2243 50.503 53.8874ZM49.3307 51.8846C49.1725 51.6132 49.6005 51.3699 49.7494 51.6506C49.8424 52.0063 50.7543 52.8486 50.1123 53.017C49.7029 52.8579 49.5912 52.2309 49.3307 51.894V51.8846ZM48.2421 49.835C48.0932 49.5542 48.5305 49.339 48.6701 49.6197C48.7445 49.9847 49.6191 50.8364 48.9864 50.9955C48.577 50.8364 48.4933 50.1906 48.2421 49.835ZM47.2372 47.7386C47.107 47.4578 47.5443 47.2519 47.6745 47.5327C47.7396 47.8883 48.5584 48.7961 47.9443 48.9178C47.5256 48.7587 47.4791 48.0942 47.2372 47.7292V47.7386ZM46.3161 45.6047C46.1951 45.3146 46.6417 45.1274 46.7627 45.4175C46.8092 45.7732 47.5908 46.6997 46.9953 46.8214C46.5766 46.6623 46.558 45.9697 46.3254 45.6047H46.3161ZM45.4787 43.4334C45.367 43.1433 45.823 42.9748 45.9253 43.265C45.9532 43.6206 46.6883 44.5565 46.1114 44.6688C45.6927 44.5284 45.6927 43.7797 45.4787 43.4241V43.4334ZM44.7343 41.2247C44.6413 40.9252 45.1065 40.7848 45.1903 41.0843C45.1996 41.44 45.8881 42.3946 45.3205 42.4975C44.9018 42.3572 44.9297 41.5804 44.7343 41.2247ZM44.3994 40.1016C44.1947 39.381 44.1016 38.9786 44.1016 38.9598C44.0272 38.651 44.5017 38.548 44.5669 38.8569C44.5669 38.8569 44.6599 39.2687 44.8553 39.9706C44.9018 40.1204 44.7809 40.2795 44.6227 40.2795C44.5203 40.2795 44.418 40.2139 44.3901 40.1016H44.3994Z" fill="#BCBCBC"/>
<path d="M73.9593 117.977C73.643 136.517 46.2324 136.508 45.916 117.977C46.2324 99.4371 73.643 99.4465 73.9593 117.977Z" fill="#848585" fill-opacity="0.2"/>
<path d="M75.1966 116.864C74.8803 135.404 47.4697 135.394 47.1533 116.864C47.4697 98.3234 74.8803 98.3327 75.1966 116.864Z" fill="#FFF5CA"/>
<path d="M60.3751 115.516L57.9746 112.792C57.3698 112.109 56.3277 112.044 55.6392 112.652L54.3273 113.822C53.6481 114.43 53.5829 115.478 54.1877 116.171L59.9378 122.704C61.2032 124.014 62.3942 122.797 63.3804 121.861L64.8226 120.579L78.8815 108.066C79.5607 107.458 79.6258 106.41 79.021 105.717C78.1185 104.678 77.0206 103.022 75.5319 104.257L62.7105 115.666C62.0313 116.274 60.9799 116.208 60.3751 115.525V115.516Z" fill="#ED725F"/>
<path d="M101.435 45.6792C101.435 45.6792 100.393 44.865 99.7604 46.1471C99.351 46.9801 100.83 49.4321 101.779 49.4321C102.384 49.4321 102.207 48.3652 102.207 48.3652C102.207 48.3652 101.482 47.9066 101.203 47.5136C100.933 47.1111 101.472 46.9988 101.472 46.9988C101.742 46.4841 101.426 45.6792 101.426 45.6792H101.435Z" fill="#F8E4CD"/>
<path opacity="0.2" fill-rule="evenodd" clip-rule="evenodd" d="M203.811 73.0448C203.392 71.7065 203.104 70.0312 203.001 68.1781C202.331 68.7209 201.68 69.1608 201.075 69.479C201.382 68.88 201.82 68.2155 202.369 67.5417C200.526 67.4388 198.861 67.1486 197.53 66.7275C198.861 66.3063 200.526 66.0162 202.369 65.9132C201.829 65.2394 201.392 64.5843 201.075 63.9759C201.671 64.2848 202.331 64.7246 203.001 65.2768C203.104 63.4238 203.392 61.7485 203.811 60.4102C204.229 61.7485 204.518 63.4238 204.62 65.2768C205.29 64.734 205.941 64.2941 206.546 63.9759C206.239 64.5749 205.802 65.2394 205.253 65.9132C207.095 66.0162 208.761 66.3063 210.091 66.7275C208.77 67.1486 207.095 67.4388 205.253 67.5417C205.793 68.2155 206.23 68.8707 206.546 69.479C205.951 69.1702 205.29 68.7303 204.62 68.1781C204.518 70.0312 204.229 71.7065 203.811 73.0448Z" fill="#F2CE14"/>
<path opacity="0.2" fill-rule="evenodd" clip-rule="evenodd" d="M203.811 70.4524C203.559 69.6662 203.392 68.6835 203.336 67.5885C202.945 67.9067 202.554 68.1688 202.21 68.3559C202.396 68.0003 202.647 67.6166 202.973 67.2235C201.894 67.1673 200.908 66.9895 200.126 66.7462C200.908 66.4935 201.885 66.325 202.973 66.2689C202.657 65.8758 202.396 65.4827 202.21 65.1364C202.564 65.3236 202.945 65.5763 203.336 65.9039C203.392 64.8182 203.569 63.8262 203.811 63.04C204.062 63.8262 204.229 64.8089 204.285 65.9039C204.676 65.5857 205.067 65.3236 205.411 65.1364C205.225 65.4921 204.974 65.8758 204.648 66.2689C205.727 66.325 206.713 66.5029 207.495 66.7462C206.713 66.9989 205.736 67.1673 204.648 67.2235C204.964 67.6166 205.225 68.0097 205.411 68.3559C205.057 68.1688 204.676 67.9161 204.285 67.5885C204.229 68.6741 204.052 69.6662 203.811 70.4524Z" fill="#F2CE14"/>
<path opacity="0.5" fill-rule="evenodd" clip-rule="evenodd" d="M203.811 68.8709C203.671 68.4217 203.569 67.8508 203.532 67.2237C203.308 67.4109 203.085 67.5606 202.88 67.6636C202.983 67.4577 203.132 67.2331 203.318 67.0085C202.694 66.971 202.127 66.8774 201.68 66.7277C202.127 66.5873 202.694 66.4843 203.318 66.4469C203.132 66.2223 202.983 65.9977 202.88 65.7918C203.085 65.8947 203.308 66.0445 203.532 66.2317C203.569 65.6046 203.662 65.0337 203.811 64.5845C203.95 65.0337 204.053 65.6046 204.09 66.2317C204.313 66.0445 204.537 65.8947 204.741 65.7918C204.639 65.9977 204.49 66.2223 204.304 66.4469C204.927 66.4843 205.495 66.5779 205.942 66.7277C205.495 66.8681 204.927 66.971 204.304 67.0085C204.49 67.2331 204.639 67.4577 204.741 67.6636C204.537 67.5606 204.313 67.4109 204.09 67.2237C204.053 67.8508 203.96 68.4217 203.811 68.8709Z" fill="#F2CE14"/>
<path opacity="0.2" fill-rule="evenodd" clip-rule="evenodd" d="M63.2965 33.1195C62.8779 31.7812 62.5894 30.1059 62.4871 28.2528C61.8172 28.7956 61.1659 29.2355 60.5611 29.5537C60.8681 28.9547 61.3054 28.2903 61.8544 27.6164C60.0121 27.5135 58.3466 27.2233 57.0161 26.8022C58.3466 26.381 60.0121 26.0909 61.8544 25.9879C61.3147 25.3141 60.8774 24.659 60.5611 24.0506C61.1565 24.3595 61.8172 24.7994 62.4871 25.3515C62.5894 23.4985 62.8779 21.8232 63.2965 20.4849C63.7152 21.8232 64.0037 23.4985 64.106 25.3515C64.7759 24.8087 65.4272 24.3688 66.032 24.0506C65.725 24.6496 65.2877 25.3141 64.7387 25.9879C66.581 26.0909 68.2465 26.381 69.577 26.8022C68.2558 27.2233 66.581 27.5135 64.7387 27.6164C65.2784 28.2903 65.7157 28.9454 66.032 29.5537C65.4365 29.2449 64.7759 28.805 64.106 28.2528C64.0037 30.1059 63.7152 31.7812 63.2965 33.1195Z" fill="#F2CE14"/>
<path opacity="0.2" fill-rule="evenodd" clip-rule="evenodd" d="M63.2963 30.5178C63.0451 29.7316 62.8776 28.7489 62.8218 27.6539C62.431 27.9721 62.0402 28.2342 61.696 28.4214C61.8821 28.0657 62.1333 27.682 62.4589 27.2889C61.3796 27.2328 60.3934 27.055 59.6118 26.8116C60.3934 26.5589 61.3703 26.3905 62.4589 26.3343C62.1426 25.9412 61.8821 25.5482 61.696 25.2019C62.0496 25.3891 62.431 25.6418 62.8218 25.9693C62.8776 24.8837 63.0544 23.8916 63.2963 23.1055C63.5476 23.8916 63.715 24.8743 63.7709 25.9693C64.1616 25.6511 64.5524 25.3891 64.8967 25.2019C64.7106 25.5575 64.4594 25.9412 64.1337 26.3343C65.213 26.3905 66.1993 26.5683 66.9809 26.8116C66.1993 27.0643 65.2223 27.2328 64.1337 27.2889C64.4501 27.682 64.7106 28.0751 64.8967 28.4214C64.5431 28.2342 64.1616 27.9815 63.7709 27.6539C63.715 28.7396 63.5383 29.7316 63.2963 30.5178Z" fill="#F2CE14"/>
<path opacity="0.5" fill-rule="evenodd" clip-rule="evenodd" d="M63.2967 28.9456C63.1571 28.4964 63.0548 27.9255 63.0176 27.2984C62.7943 27.4856 62.571 27.6353 62.3663 27.7383C62.4686 27.5324 62.6175 27.3078 62.8036 27.0832C62.1802 27.0457 61.6126 26.9521 61.166 26.8024C61.6126 26.662 62.1802 26.5591 62.8036 26.5216C62.6175 26.297 62.4686 26.0724 62.3663 25.8665C62.571 25.9694 62.7943 26.1192 63.0176 26.3064C63.0548 25.6793 63.1478 25.1084 63.2967 24.6592C63.4363 25.1084 63.5386 25.6793 63.5758 26.3064C63.7991 26.1192 64.0225 25.9694 64.2272 25.8665C64.1248 26.0724 63.9759 26.297 63.7898 26.5216C64.4132 26.5591 64.9808 26.6526 65.4274 26.8024C64.9808 26.9428 64.4132 27.0457 63.7898 27.0832C63.9759 27.3078 64.1248 27.5324 64.2272 27.7383C64.0225 27.6353 63.7991 27.4856 63.5758 27.2984C63.5386 27.9255 63.4456 28.4964 63.2967 28.9456Z" fill="#F2CE14"/>
</svg>
