<svg width="195" height="140" viewBox="0 0 195 140" fill="none" xmlns="http://www.w3.org/2000/svg">
<g clip-path="url(#clip0_1511_15046)">
<path d="M72.0908 88.158C72.0908 88.158 71.8372 88.2153 71.3434 88.3122C70.8496 88.4136 70.1112 88.5457 69.1458 88.7528C67.2151 89.1493 64.3724 89.7617 60.7646 90.7398C57.1657 91.7355 52.766 93.0572 47.9215 95.2336C46.7159 95.7843 45.4792 96.3835 44.2469 97.0796C43.0146 97.7712 41.7646 98.5334 40.559 99.4234C39.3579 100.318 38.1745 101.318 37.1558 102.521C36.146 103.719 35.2473 105.111 34.847 106.71C34.4199 108.296 34.54 110.059 35.2118 111.645C35.8702 113.244 36.9868 114.663 38.2902 115.909C40.9238 118.412 44.2647 120.306 47.8236 121.936C54.9903 125.161 63.1713 127.325 71.855 128.937C80.5521 130.532 89.8096 131.519 99.4275 131.951C109.045 132.369 119.033 132.25 129.207 131.426C139.381 130.589 149.274 129.109 158.59 126.686C163.239 125.465 167.749 124.007 171.971 122.135C174.08 121.192 176.122 120.157 178.017 118.941C179.912 117.725 181.687 116.346 183.111 114.685C184.53 113.041 185.575 111.028 185.637 108.9C185.66 108.636 185.628 108.376 185.611 108.111C185.579 107.851 185.597 107.583 185.526 107.332L185.353 106.565C185.308 106.305 185.179 106.072 185.099 105.825C184.752 104.838 184.169 103.961 183.573 103.124C182.296 101.49 180.713 100.155 179.062 98.996C177.403 97.8417 175.65 96.8813 173.897 96.0046C170.37 94.2819 166.802 92.9691 163.319 91.8897C159.835 90.8103 156.432 89.9556 153.167 89.2374C140.075 86.4398 129.22 85.6821 121.755 85.2679C118.018 85.0741 115.109 85.0697 113.138 85.0168C112.155 84.9948 111.403 84.9771 110.896 84.9683C110.389 84.9551 110.131 84.9419 110.131 84.9419C110.131 84.9419 110.389 84.9419 110.896 84.9419C111.403 84.9463 112.155 84.9551 113.138 84.9683C115.109 85.0036 118.018 84.9948 121.76 85.1754C129.229 85.5587 140.088 86.2944 153.202 89.0744C156.472 89.7881 159.88 90.6384 163.372 91.7178C166.864 92.7928 170.445 94.1057 173.982 95.8283C175.744 96.7051 177.505 97.6655 179.178 98.8286C180.842 99.9961 182.443 101.34 183.738 102.996C184.347 103.847 184.939 104.737 185.295 105.75C185.379 106.001 185.508 106.243 185.553 106.508L185.731 107.292C185.802 107.552 185.784 107.825 185.82 108.094C185.838 108.363 185.873 108.631 185.846 108.904C185.815 109.988 185.531 111.063 185.077 112.054C184.627 113.055 183.996 113.971 183.275 114.812C181.829 116.5 180.041 117.888 178.137 119.112C176.228 120.337 174.178 121.381 172.065 122.329C167.825 124.205 163.31 125.672 158.648 126.897C149.319 129.329 139.412 130.809 129.224 131.651C119.037 132.475 109.041 132.594 99.4142 132.171C89.7874 131.739 80.5254 130.748 71.815 129.144C63.1179 127.523 54.928 125.351 47.7435 122.108C44.1757 120.469 40.8215 118.562 38.1701 116.037C36.8533 114.777 35.7233 113.337 35.0561 111.706C34.371 110.09 34.2509 108.283 34.6913 106.666C35.1005 105.032 36.017 103.626 37.0401 102.415C38.0722 101.203 39.2644 100.194 40.4745 99.3C41.6889 98.4057 42.9435 97.6435 44.1802 96.9562C45.4169 96.2645 46.658 95.6609 47.8681 95.1146C52.726 92.9426 57.1301 91.6297 60.7379 90.6473C64.3546 89.6824 67.2018 89.0832 69.1369 88.6999C71.0721 88.3166 72.0908 88.1536 72.0908 88.1536V88.158Z" stroke="#F1F7F6" stroke-miterlimit="10"/>
<path d="M185.984 63.1404C185.909 63.1404 185.846 60.9191 185.846 58.181C185.846 55.443 185.909 53.2217 185.984 53.2217C186.059 53.2217 186.122 55.443 186.122 58.181C186.122 60.9191 186.059 63.1404 185.984 63.1404Z" fill="#E1E1E1"/>
<path d="M191.11 58.1754C191.11 58.2499 188.816 58.3139 185.984 58.3139C183.152 58.3139 180.858 58.2499 180.858 58.1754C180.858 58.1008 183.152 58.0369 185.984 58.0369C188.816 58.0369 191.11 58.1008 191.11 58.1754Z" fill="#E1E1E1"/>
<path d="M2.82744 106.278C4.50027 106.278 5.85636 104.921 5.85636 103.247C5.85636 101.573 4.50027 100.216 2.82744 100.216C1.15462 100.216 -0.201477 101.573 -0.201477 103.247C-0.201477 104.921 1.15462 106.278 2.82744 106.278Z" fill="#106297"/>
<path d="M55.2578 18.6609C55.2578 20.3336 53.9004 21.6919 52.2289 21.6919C50.5574 21.6919 49.2 20.3336 49.2 18.6609C49.2 16.9882 50.5574 15.6299 52.2289 15.6299C53.9004 15.6299 55.2578 16.9882 55.2578 18.6609Z" fill="#44B5DC"/>
<path d="M68.7009 24.963C68.7009 25.7993 68.0249 26.4812 67.1838 26.4812C66.3427 26.4812 65.6667 25.8047 65.6667 24.963C65.6667 24.1213 66.3427 23.4448 67.1838 23.4448C68.0249 23.4448 68.7009 24.1213 68.7009 24.963Z" fill="#44B5DC"/>
<path d="M143.776 109.154C143.776 109.991 143.1 110.673 142.259 110.673C141.418 110.673 140.742 109.996 140.742 109.154C140.742 108.313 141.418 107.636 142.259 107.636C143.1 107.636 143.776 108.313 143.776 109.154Z" fill="#E1E1E1"/>
<path d="M81.6485 34.1604C61.9099 35.5933 40.3668 38.2089 24.5674 44.2816L29.5553 78.0703C29.5553 78.0703 60.1799 67.1021 85.0926 67.8639L81.6485 34.1657V34.1604Z" fill="#FF4F5B"/>
<path d="M81.6485 34.1604C61.9099 35.5933 40.3668 38.2089 24.5674 44.2816L29.5553 78.0703C29.5553 78.0703 60.1799 67.1021 85.0926 67.8639L81.6485 34.1657V34.1604Z" fill="#F3F3F3"/>
<path d="M80.2271 63.4051C80.2271 63.4051 80.1633 63.4211 80.0355 63.4424C79.8971 63.4637 79.7108 63.485 79.4766 63.517C78.9655 63.5809 78.2469 63.6714 77.3207 63.7886C76.3838 63.9005 75.2393 64.039 73.9138 64.2308C72.5883 64.4225 71.0765 64.609 69.4157 64.886C62.7563 65.9141 53.595 67.6187 43.6352 70.1916C40.1751 71.0865 36.8375 72.0081 33.7873 72.9669L33.6382 73.0149L33.6169 72.8604C32.5523 65.115 31.5196 58.4351 30.7264 53.6994C30.3218 51.3449 29.9971 49.4645 29.7735 48.1541C29.6618 47.5202 29.5766 47.0248 29.5127 46.6732C29.4861 46.5134 29.4648 46.3909 29.4488 46.2897C29.4382 46.2044 29.4329 46.1565 29.4382 46.1565C29.4382 46.1565 29.4542 46.1991 29.4754 46.2843C29.4967 46.3802 29.5234 46.5081 29.5606 46.6626C29.6351 47.0141 29.7363 47.5042 29.864 48.1381C30.1196 49.4272 30.4762 51.3076 30.8914 53.6728C31.7272 58.4031 32.7971 65.0777 33.8831 72.8284L33.7127 72.7219C36.7736 71.7524 40.1059 70.8308 43.5767 69.9359C53.5418 67.3577 62.7244 65.685 69.3944 64.7049C71.0605 64.4385 72.5777 64.2627 73.9031 64.0869C75.2286 63.9058 76.3785 63.7833 77.3153 63.6927C78.2416 63.5969 78.9655 63.5276 79.4766 63.4743C79.7108 63.453 79.8971 63.4371 80.0408 63.4264C80.1686 63.4157 80.2325 63.4157 80.2325 63.4211L80.2271 63.4051Z" fill="#0068A5"/>
<path d="M80.8925 55.1912C80.8925 55.1912 80.818 54.9568 80.6636 54.52C80.4933 54.0885 80.1899 53.4706 79.6469 52.7727C79.1039 52.0802 78.3214 51.3185 77.2514 50.6739C76.9906 50.4981 76.6925 50.3756 76.3997 50.2211C76.091 50.1039 75.7769 49.9548 75.4362 49.8749C74.7655 49.6725 74.0149 49.5606 73.2431 49.6618C72.4765 49.7524 71.6887 50.0294 71.0073 50.5408C70.3206 51.0415 69.7244 51.718 69.2187 52.4851C68.1807 54.0246 67.5046 55.8996 66.7115 57.844C66.2909 58.8028 65.7479 59.799 64.8536 60.5074C64.4118 60.859 63.8901 61.1413 63.3152 61.2479C62.735 61.3597 62.1228 61.2745 61.5799 61.0455C59.3335 60.1559 58.3327 57.5616 56.0597 56.7733C54.9471 56.3951 53.7068 56.5442 52.6901 57.0503C52.179 57.306 51.7212 57.6575 51.3539 58.0837C50.9866 58.5098 50.7151 59.0106 50.4649 59.5166C49.9592 60.5181 49.576 61.6314 48.7189 62.4145C48.2984 62.798 47.7554 63.0644 47.1858 63.107C46.6216 63.1549 46.0626 63.0058 45.5835 62.7607C44.62 62.26 43.9014 61.4503 43.3797 60.5927C42.8687 59.7137 42.5546 58.7975 42.2139 57.9345C41.8786 57.0662 41.5272 56.2406 41.0588 55.5321C40.5903 54.8236 39.9835 54.2483 39.2915 53.8914C37.9074 53.1563 36.3584 53.2415 35.2458 53.7742C34.096 54.2643 33.239 54.9568 32.6747 55.628C32.1104 56.3045 31.8443 56.949 31.7112 57.3912C31.5728 57.8333 31.5568 58.0837 31.5355 58.0784C31.5355 58.0784 31.5355 57.828 31.658 57.3752C31.7751 56.9224 32.0306 56.2566 32.5895 55.5587C33.1485 54.8609 34.0162 54.1471 35.1819 53.6304C36.3211 53.071 37.9341 52.9592 39.382 53.7156C40.1059 54.0832 40.7447 54.6798 41.2345 55.4096C41.7242 56.1394 42.0862 56.981 42.4269 57.8493C42.7729 58.7123 43.0923 59.6285 43.5873 60.4648C44.093 61.2905 44.7904 62.0682 45.7006 62.5317C46.1531 62.7607 46.6588 62.8886 47.1645 62.846C47.6702 62.8087 48.1547 62.569 48.5433 62.2174C49.3311 61.5036 49.7144 60.4116 50.2254 59.3941C50.4809 58.8827 50.7577 58.3607 51.1516 57.9026C51.5402 57.4445 52.03 57.0769 52.5676 56.8052C53.6482 56.2672 54.9578 56.1074 56.1502 56.5122C57.3585 56.9118 58.2262 57.844 59.03 58.6856C59.8285 59.5379 60.6536 60.3743 61.681 60.7951C62.1867 61.0082 62.7403 61.0827 63.262 60.9815C63.789 60.8857 64.2734 60.63 64.6886 60.2997C65.5297 59.6338 66.062 58.6856 66.4772 57.7428C67.2704 55.8197 67.9624 53.918 69.0271 52.3572C69.5487 51.5742 70.1662 50.8817 70.8795 50.365C71.5875 49.8376 72.418 49.5499 73.2218 49.4647C74.0256 49.3688 74.8028 49.4913 75.4895 49.7044C75.8408 49.7897 76.1549 49.9495 76.4743 50.072C76.7724 50.2318 77.0758 50.365 77.3366 50.5461C78.4172 51.2173 79.1998 52.0003 79.7374 52.7141C80.2751 53.4279 80.5625 54.0672 80.7222 54.5093C80.802 54.7277 80.8287 54.9088 80.8606 55.026C80.8872 55.1432 80.8979 55.2018 80.8979 55.2018L80.8925 55.1912Z" fill="#0068A5"/>
<path d="M28.5918 50.7537C28.6078 50.8283 28.3469 50.9402 28.0169 51.0041C27.6869 51.068 27.4047 51.0573 27.3888 50.9828C27.3728 50.9082 27.6336 50.7963 27.9637 50.7324C28.2937 50.6685 28.5758 50.6791 28.5918 50.7537Z" fill="#375A64"/>
<path d="M29.4648 56.9278C29.4968 56.997 29.3051 57.1568 29.0336 57.2847C28.7622 57.4125 28.5173 57.4551 28.4853 57.3859C28.4534 57.3166 28.645 57.1568 28.9165 57.029C29.188 56.9011 29.4329 56.8585 29.4648 56.9278Z" fill="#375A64"/>
<path d="M30.5561 63.6663C30.5827 63.7409 30.3804 63.8741 30.1089 63.97C29.8374 64.0659 29.5979 64.0818 29.5713 64.0126C29.5446 63.938 29.7469 63.8048 30.0184 63.709C30.2899 63.6131 30.5294 63.5971 30.5561 63.6663Z" fill="#375A64"/>
<path d="M31.8656 70.2929C31.8869 70.3675 31.6633 70.5007 31.3599 70.5966C31.0565 70.6924 30.7956 70.7084 30.7744 70.6339C30.7531 70.5593 30.9766 70.4261 31.2801 70.3302C31.5835 70.2343 31.8443 70.2184 31.8656 70.2929Z" fill="#375A64"/>
<path d="M69.0856 38.454C69.0856 38.454 69.3145 38.3741 69.7297 38.3101C70.1556 38.2356 70.7731 38.145 71.5663 38.0331C73.1473 37.8094 75.4043 37.5164 78.0925 37.1861L78.2203 37.1702L78.231 37.298C78.4386 39.5673 78.6834 42.1775 78.9389 44.9475L78.9496 45.0647L78.9602 45.1978L78.8272 45.2138C75.58 45.6133 72.5511 45.9809 70.0012 46.2952L69.8841 46.3112L69.8735 46.194C69.6286 43.8768 69.421 41.9431 69.2719 40.5528C69.2081 39.9082 69.1602 39.3862 69.1229 38.9973C69.091 38.6404 69.0803 38.454 69.091 38.4593C69.1016 38.4646 69.1335 38.6617 69.1868 39.0293C69.24 39.4235 69.3145 39.9455 69.3997 40.6007C69.5754 41.9751 69.8149 43.8821 70.1077 46.1673L69.9746 46.0661C72.5191 45.7412 75.5427 45.3577 78.7952 44.9422L78.6728 45.0913L78.6621 44.9741C78.4173 42.2041 78.1884 39.5886 77.9861 37.3246L78.1245 37.4365C73.0568 38.0118 70.0864 38.3474 69.091 38.4646L69.0856 38.454Z" fill="#375A64"/>
<path d="M77.2781 39.7963C77.2781 39.8762 75.761 39.8762 73.9085 40.0786C72.056 40.2704 70.5708 40.59 70.5549 40.5101C70.5336 40.4408 72.0028 39.9987 73.8819 39.8069C75.7557 39.6045 77.2887 39.7323 77.2834 39.8069L77.2781 39.7963Z" fill="#375A64"/>
<path d="M77.3739 41.7782C77.3739 41.8581 75.9579 41.9114 74.2278 42.0819C72.4925 42.247 71.0978 42.4654 71.0818 42.3855C71.0658 42.3162 72.4552 41.97 74.2012 41.8049C75.9472 41.6344 77.3739 41.7036 77.3739 41.7782Z" fill="#375A64"/>
<path d="M75.2606 43.5036C75.2712 43.5782 74.4674 43.7433 73.4667 43.8712C72.4659 43.999 71.6461 44.0416 71.6355 43.9617C71.6248 43.8872 72.4286 43.722 73.4294 43.5942C74.4302 43.4663 75.25 43.4237 75.2606 43.5036Z" fill="#375A64"/>
<path d="M179.578 29.3389C160.255 23.4473 143.949 18.4134 122.06 18.5519L118.717 52.9798C141.453 54.9934 149.049 56.4849 170.044 64.0865L179.578 29.3389Z" fill="#EBEBEB"/>
<g opacity="0.8">
<path d="M179.578 29.3389C160.255 23.4473 143.949 18.4134 122.06 18.5519L118.717 52.9798C141.453 54.9934 149.049 56.4849 170.044 64.0865L179.578 29.3389Z" fill="#EBEBEB"/>
</g>
<path d="M135.832 35.257L136.683 27.9538C134.655 27.7194 132.489 28.3107 130.727 29.6052C128.645 31.1233 127.128 33.611 127.064 36.8285C127.059 37.1801 127.064 37.5423 127.096 37.9099C127.096 37.9205 127.096 37.9258 127.096 37.9365L135.624 36.9776L135.837 35.2624L135.832 35.257Z" fill="#FFEC86"/>
<path d="M144.647 34.0634C143.806 31.352 141.778 29.0188 138.573 28.273C138.488 28.2517 138.403 28.2358 138.312 28.2144C138.259 28.2038 138.2 28.1931 138.147 28.1825C137.982 28.1505 137.817 28.1292 137.652 28.1079C137.647 28.1079 137.636 28.1079 137.631 28.1079C137.625 28.1079 137.615 28.1079 137.609 28.1079L136.758 35.4111L136.555 37.1264L144.604 40.0669H144.615C144.817 39.4649 144.956 38.8363 145.03 38.1971C145.19 36.8281 145.062 35.4058 144.647 34.0687V34.0634Z" fill="#ED725F"/>
<g opacity="0.3">
<path d="M144.647 34.0634C143.806 31.352 141.778 29.0188 138.573 28.273C138.488 28.2517 138.403 28.2358 138.312 28.2144C138.259 28.2038 138.2 28.1931 138.147 28.1825C137.982 28.1505 137.817 28.1292 137.652 28.1079C137.647 28.1079 137.636 28.1079 137.631 28.1079C137.625 28.1079 137.615 28.1079 137.609 28.1079L136.758 35.4111L136.555 37.1264L144.604 40.0669H144.615C144.817 39.4649 144.956 38.8363 145.03 38.1971C145.19 36.8281 145.062 35.4058 144.647 34.0687V34.0634Z" fill="#ED725F"/>
</g>
<path d="M135.954 37.9363L127.426 38.8951C127.783 43.0288 130.796 46.454 134.841 46.9494C138.908 47.4502 142.682 44.8293 144.008 40.8767L135.959 37.9363" fill="#00A9D7"/>
<path d="M172.115 35.9016C172.115 35.9016 171.838 35.811 171.364 35.5979C170.89 35.3849 170.198 35.0812 169.341 34.719C167.622 33.9999 165.216 33.089 162.485 32.3059C159.754 31.5282 157.226 31.0274 155.389 30.7345C154.468 30.5853 153.723 30.4788 153.207 30.4095C152.69 30.3403 152.403 30.2923 152.408 30.271C152.408 30.2497 152.701 30.2657 153.217 30.303C153.739 30.3403 154.489 30.4148 155.416 30.5427C157.268 30.7877 159.813 31.2618 162.56 32.0449C165.306 32.8333 167.718 33.7708 169.421 34.5432C170.273 34.9268 170.954 35.257 171.417 35.5021C171.88 35.7471 172.131 35.8856 172.125 35.9016H172.115Z" fill="#0D395C"/>
<path d="M171.529 39.497C171.529 39.497 171.252 39.4065 170.779 39.1934C170.305 38.9803 169.613 38.6767 168.75 38.3145C167.031 37.5953 164.625 36.6844 161.894 35.9014C159.163 35.1236 156.635 34.6229 154.798 34.3299C153.877 34.1808 153.132 34.0742 152.616 34.005C152.099 33.9357 151.812 33.8878 151.817 33.8665C151.817 33.8452 152.11 33.8611 152.626 33.8984C153.148 33.9357 153.899 34.0103 154.825 34.1382C156.677 34.3832 159.222 34.8573 161.969 35.6403C164.715 36.4287 167.127 37.3663 168.83 38.1387C169.682 38.5222 170.363 38.8525 170.826 39.0975C171.29 39.3426 171.54 39.4811 171.534 39.497H171.529Z" fill="#0D395C"/>
<path d="M170.944 43.0876C170.944 43.0876 170.667 42.9971 170.193 42.784C169.719 42.5709 169.027 42.2673 168.165 41.905C166.445 41.1859 164.039 40.275 161.309 39.4919C158.578 38.7142 156.049 38.2135 154.213 37.9205C153.292 37.7713 152.546 37.6648 152.03 37.5956C151.514 37.5263 151.226 37.4784 151.232 37.4571C151.232 37.4357 151.524 37.4517 152.041 37.489C152.562 37.5263 153.313 37.6009 154.239 37.7287C156.092 37.9738 158.636 38.4479 161.383 39.2309C164.13 40.0193 166.541 40.9568 168.245 41.7293C169.096 42.1128 169.778 42.4431 170.241 42.6881C170.704 42.9331 170.954 43.0716 170.949 43.0876H170.944Z" fill="#0D395C"/>
<path d="M169.772 46.6831C169.772 46.6831 169.506 46.5926 169.043 46.3795C168.585 46.1664 167.915 45.8628 167.084 45.5059C165.423 44.7867 163.086 43.8812 160.435 43.0981C157.785 42.3204 155.331 41.8143 153.542 41.5213C152.648 41.3722 151.924 41.2656 151.418 41.1964C150.918 41.1271 150.641 41.0792 150.641 41.0579C150.641 41.0366 150.923 41.0526 151.429 41.0898C151.934 41.1271 152.669 41.207 153.569 41.3296C155.368 41.5746 157.843 42.0487 160.51 42.8318C163.172 43.6201 165.514 44.563 167.159 45.3301C167.984 45.7136 168.644 46.0439 169.086 46.2889C169.533 46.5286 169.778 46.6725 169.767 46.6884L169.772 46.6831Z" fill="#0D395C"/>
<path d="M167.228 49.5496C167.228 49.5496 166.983 49.475 166.568 49.2885C166.105 49.0808 165.514 48.8198 164.811 48.5055C163.321 47.8609 161.245 47.0033 158.865 46.3214C156.486 45.6449 154.266 45.272 152.664 45.0377C151.902 44.9311 151.264 44.8459 150.758 44.7713C150.305 44.7074 150.061 44.6648 150.061 44.6488C150.061 44.6275 150.316 44.6381 150.769 44.6648C151.221 44.6914 151.881 44.75 152.69 44.8406C154.309 45.027 156.544 45.3732 158.945 46.0551C161.346 46.7423 163.422 47.6319 164.896 48.3297C165.631 48.6813 166.222 48.9743 166.621 49.1927C167.02 49.4057 167.239 49.5336 167.233 49.5496H167.228Z" fill="#0D395C"/>
<path d="M158.642 49.9538C158.631 49.9911 158.109 49.8632 157.268 49.6715C156.427 49.4744 155.261 49.224 153.962 49.0003C152.664 48.7712 151.477 48.6114 150.619 48.4889C149.762 48.3717 149.23 48.2865 149.235 48.2492C149.235 48.2119 149.778 48.2225 150.641 48.2971C151.503 48.3717 152.701 48.4995 154.005 48.7286C155.315 48.9523 156.48 49.24 157.316 49.485C158.152 49.7301 158.652 49.9271 158.642 49.9591V49.9538Z" fill="#0D395C"/>
<path d="M125.419 22.6321C125.419 22.6321 125.563 22.6214 125.861 22.6108C126.175 22.6001 126.617 22.5841 127.192 22.5681C128.368 22.5415 130.067 22.5575 132.238 22.68C136.566 22.973 142.784 23.7028 149.965 25.8549L150.061 25.8815L150.045 25.9827C148.714 33.6109 147.128 42.6826 145.435 52.3936C145.366 52.7878 145.296 53.1767 145.227 53.5655L145.201 53.7147L145.057 53.6774C141.016 52.6173 137.035 51.8236 133.223 51.2323C129.412 50.6464 125.765 50.2309 122.375 50.0178L122.247 50.0071L122.263 49.8793C123.194 41.7344 123.977 34.916 124.525 30.1164C124.802 27.7406 125.025 25.8708 125.175 24.5764C125.249 23.9478 125.308 23.4631 125.35 23.1221C125.372 22.9677 125.387 22.8451 125.398 22.7546C125.409 22.6747 125.419 22.6321 125.419 22.6321C125.419 22.6321 125.419 22.68 125.414 22.7652C125.403 22.8611 125.393 22.989 125.377 23.1488C125.34 23.495 125.292 23.9904 125.228 24.6297C125.089 25.9294 124.892 27.8152 124.642 30.2016C124.126 34.9852 123.386 41.7877 122.508 49.9113L122.39 49.7781C125.792 49.9858 129.444 50.3907 133.266 50.9713C137.088 51.5573 141.08 52.3457 145.131 53.4111L144.961 53.5229C145.03 53.1394 145.099 52.7452 145.169 52.351C146.877 42.6453 148.474 33.5789 149.816 25.9507L149.896 26.0839C142.757 23.9212 136.55 23.1488 132.233 22.8238C130.072 22.68 128.358 22.6427 127.208 22.6427C126.638 22.6427 126.197 22.6427 125.888 22.6427C125.584 22.6427 125.425 22.6374 125.425 22.6374L125.419 22.6321Z" fill="#0D395C"/>
<path d="M102.585 114.214L121.429 118.391L124.309 114.214L123.841 108.84L120.977 106.219H111.107L101.893 114.529" fill="#FF4F5B"/>
<g opacity="0.3">
<path d="M102.585 114.214L121.429 118.391L124.309 114.214L123.841 108.84L120.977 106.219H111.107L101.893 114.529" fill="black"/>
</g>
<path d="M131.32 75.3812L155.104 72.1744L158.846 71.1197C158.846 71.1197 167.422 69.2339 168.22 68.9516C169.147 68.6213 169.525 68.9889 169.626 69.3352C169.78 69.8785 169.258 70.4911 168.471 70.8001C168.199 70.9066 163.85 72.4141 163.85 72.4141C163.85 72.4141 164.281 72.4834 165.319 72.8403C166.357 73.1919 167.358 74.5342 167.858 76.1004C168.359 77.6665 168.359 78.1459 167.763 78.3696C167.523 78.4602 167.278 78.3909 167.071 78.2737C166.73 78.082 166.48 77.7517 166.357 77.3788C165.521 74.8858 163.962 74.6887 163.962 74.6887L163.472 74.8272C163.472 74.8272 165.08 75.9512 165.053 77.3096C165.053 77.5333 165 77.7251 164.931 77.8955C165.16 78.5561 165.026 79.3285 164.585 79.8718C164.127 80.4365 163.35 80.7241 162.636 80.6016C162.296 80.543 161.923 80.3406 161.875 79.9943C161.848 79.8132 161.918 79.6321 161.987 79.4616C162.019 79.3711 162.056 79.2752 162.072 79.1846L160.645 79.3817C160.645 79.3817 157.42 79.6481 156.025 79.9251L133.752 86.637C130.665 87.5692 127.412 85.7847 126.539 82.6791C125.587 79.3018 127.844 75.8606 131.32 75.3919V75.3812Z" fill="#FFF8E9" stroke="#0D395C" stroke-width="0.5" stroke-miterlimit="10"/>
<path d="M155.658 72.7812C155.695 73.282 156.195 73.6282 156.685 73.7294C157.175 73.8306 157.686 73.7667 158.181 73.8306C159.661 74.0331 160.816 75.3808 162.306 75.5086C162.514 75.5246 162.775 75.482 162.839 75.2849C162.897 75.0985 162.738 74.9227 162.594 74.7948C161.359 73.7028 160.119 72.6054 158.884 71.5134" fill="#FFF8E9"/>
<path d="M155.658 72.7812C155.695 73.282 156.195 73.6282 156.685 73.7294C157.175 73.8306 157.686 73.7667 158.181 73.8306C159.661 74.0331 160.816 75.3808 162.306 75.5086C162.514 75.5246 162.775 75.482 162.839 75.2849C162.897 75.0985 162.738 74.9227 162.594 74.7948C161.359 73.7028 160.119 72.6054 158.884 71.5134" stroke="#0D395C" stroke-width="0.5" stroke-miterlimit="10"/>
<path d="M158.873 71.5136C158.873 71.5136 159.043 71.6095 159.309 71.8279C159.581 72.0463 159.964 72.3606 160.432 72.7601C160.917 73.1809 161.47 73.655 162.077 74.1717C162.232 74.3049 162.391 74.4434 162.551 74.5819C162.69 74.7257 162.934 74.8482 162.982 75.1892C162.998 75.3596 162.865 75.5301 162.727 75.5834C162.588 75.6473 162.455 75.6526 162.328 75.6473C162.083 75.626 161.843 75.5834 161.609 75.5035C160.672 75.1998 159.953 74.6352 159.229 74.2942C158.873 74.1185 158.516 73.9959 158.17 73.9427C157.824 73.8894 157.489 73.9001 157.175 73.8787C156.541 73.8628 156.025 73.5911 155.817 73.2928C155.599 72.9891 155.642 72.7654 155.652 72.7707C155.679 72.7654 155.679 72.9732 155.902 73.2182C156.121 73.4686 156.573 73.6816 157.18 73.6763C157.483 73.687 157.824 73.6603 158.197 73.7083C158.575 73.7562 158.958 73.8841 159.336 74.0545C160.092 74.3955 160.821 74.9495 161.689 75.2265C161.902 75.2957 162.125 75.3383 162.333 75.3596C162.54 75.3756 162.716 75.301 162.695 75.1892C162.695 75.0666 162.524 74.9175 162.365 74.779C162.205 74.6352 162.051 74.4967 161.896 74.3582C161.305 73.8201 160.768 73.3301 160.294 72.8986C159.842 72.4831 159.474 72.1368 159.229 71.8971C158.985 71.6574 158.851 71.5136 158.862 71.5029L158.873 71.5136Z" fill="#FFF8E9" stroke="#0D395C" stroke-width="0.5" stroke-miterlimit="10"/>
<path d="M163.435 74.7687C163.435 74.806 163.802 74.6089 164.372 74.758C164.648 74.8326 164.947 75.019 165.186 75.3174C165.426 75.6157 165.612 76.0045 165.772 76.4307C165.937 76.8568 166.091 77.2723 166.315 77.6186C166.538 77.9595 166.804 78.2259 167.092 78.3697C167.379 78.5135 167.672 78.4709 167.821 78.3857C167.975 78.3004 168.034 78.2259 168.029 78.2205C168.018 78.2045 167.944 78.2631 167.794 78.3217C167.645 78.375 167.401 78.3963 167.156 78.2578C166.906 78.1193 166.661 77.8583 166.458 77.5334C166.256 77.2031 166.107 76.7982 165.942 76.3721C165.777 75.9406 165.585 75.5304 165.314 75.2161C165.053 74.8965 164.707 74.6994 164.398 74.6408C164.09 74.5769 163.895 74.5928 163.73 74.6408C163.565 74.6887 163.373 74.7795 163.429 74.7793L163.435 74.7687Z" fill="#FFF8E9" stroke="#0D395C" stroke-width="0.5" stroke-miterlimit="10"/>
<path d="M168.774 70.6726C168.774 70.6726 168.433 70.7684 167.906 70.9655C167.315 71.1839 166.613 71.4396 165.841 71.7273C165.058 71.999 164.356 72.2493 163.765 72.4571C163.233 72.6435 162.902 72.7554 162.908 72.782C162.913 72.8033 163.259 72.7341 163.802 72.5796C164.345 72.4251 165.09 72.1907 165.905 71.8978C166.714 71.6048 167.443 71.3118 167.96 71.0827C168.476 70.8537 168.79 70.6939 168.779 70.6672L168.774 70.6726Z" fill="#FFF8E9" stroke="#0D395C" stroke-width="0.5" stroke-miterlimit="10"/>
<path d="M162.801 76.095C162.801 76.095 162.865 76.1802 162.988 76.3134C163.099 76.4412 163.291 76.665 163.254 76.9686C163.238 77.1177 163.137 77.2456 162.972 77.3202C162.812 77.4001 162.615 77.432 162.397 77.48C162.184 77.5226 161.923 77.6025 161.753 77.8262C161.593 78.0446 161.556 78.3429 161.646 78.6093C161.737 78.881 161.95 79.078 162.178 79.1846C162.413 79.2911 162.658 79.3284 162.897 79.2911C163.344 79.2006 163.706 79.0354 163.999 78.881C164.292 78.7211 164.51 78.5507 164.632 78.4069C164.755 78.263 164.787 78.1565 164.782 78.1565C164.766 78.1512 164.718 78.2364 164.585 78.3589C164.451 78.4814 164.233 78.6253 163.94 78.7691C163.648 78.9076 163.28 79.0567 162.87 79.1313C162.487 79.1899 161.966 78.9928 161.816 78.5613C161.747 78.3483 161.774 78.1086 161.896 77.9434C162.019 77.7783 162.226 77.7037 162.434 77.6558C162.642 77.6078 162.855 77.5705 163.041 77.4693C163.227 77.3788 163.371 77.187 163.382 76.9952C163.403 76.617 163.163 76.3933 163.036 76.2761C162.892 76.1536 162.796 76.111 162.796 76.111L162.801 76.095Z" fill="#FFF8E9" stroke="#0D395C" stroke-width="0.5" stroke-miterlimit="10"/>
<path d="M162.296 79.0618C162.296 79.0618 162.195 79.0618 162.061 79.1737C161.934 79.2802 161.774 79.5146 161.795 79.8342C161.817 80.1485 162.045 80.5054 162.423 80.6812C162.801 80.857 163.275 80.8517 163.717 80.6972C164.159 80.5427 164.515 80.2497 164.744 79.9142C164.973 79.5786 165.069 79.2163 165.09 78.918C165.112 78.6144 165.064 78.3747 165.016 78.2149C164.963 78.0551 164.915 77.9751 164.904 77.9805C164.867 77.9858 165.032 78.332 164.963 78.902C164.925 79.179 164.824 79.5146 164.606 79.8129C164.393 80.1112 164.058 80.3776 163.658 80.5214C163.259 80.6652 162.828 80.6706 162.498 80.5214C162.168 80.3776 161.96 80.0793 161.928 79.8129C161.896 79.5413 162.014 79.3282 162.115 79.2163C162.221 79.0991 162.306 79.0672 162.301 79.0565L162.296 79.0618Z" fill="#FFF8E9" stroke="#0D395C" stroke-width="0.5" stroke-miterlimit="10"/>
<path d="M158.335 77.1069C158.335 77.1069 158.33 76.9365 158.181 76.6968C158.037 76.4624 157.755 76.1534 157.313 75.9883L157.324 76.1481C157.499 76.0629 157.686 75.9616 157.867 75.8445C158.894 75.1946 159.4 74.321 159.357 74.305C159.315 74.2677 158.756 75.0667 157.766 75.69C157.59 75.8018 157.409 75.903 157.244 75.9883L157.058 76.0842L157.255 76.1481C157.654 76.2866 157.931 76.5476 158.09 76.7554C158.25 76.9631 158.309 77.1123 158.335 77.1069Z" fill="#FFF8E9" stroke="#0D395C" stroke-width="0.5" stroke-miterlimit="10"/>
<path d="M54.7503 82.8438C54.7503 82.8438 51.2743 77.2079 50.6621 76.7338C50.0446 76.2544 44.5457 74.2408 44.0772 74.39C43.6088 74.5391 36.9441 75.6791 37.7053 76.4675C38.4719 77.2612 43.1191 76.3982 43.1191 76.3982L43.7419 76.7125C43.7419 76.7125 39.7282 77.3517 38.8818 77.8418C38.1046 78.2893 38.3707 79.2428 39.1053 79.1682C39.84 79.0936 43.332 78.4171 43.5396 78.5609C43.7472 78.7048 39.7441 79.5038 39.313 79.7595C38.7327 80.1004 38.6742 81.1339 39.4088 81.0859C39.84 81.0539 43.6141 80.0791 43.6141 80.0791C43.6141 80.0791 40.6225 81.2351 40.3457 81.4961C39.8932 81.9276 40.2498 82.5774 40.8993 82.4336C41.3464 82.3377 43.4598 81.3256 44.056 81.1978C44.056 81.1978 44.6149 81.3469 45.1206 82.4762C45.3548 83.0036 46.4301 86.285 48.3944 86.2424C50.1351 86.2051 51.8438 87.638 51.8438 87.638L54.7557 82.8491L54.7503 82.8438Z" fill="#FFF8E9" stroke="#0D395C" stroke-width="0.5" stroke-miterlimit="10"/>
<path d="M37.7161 76.4838C37.7054 76.5211 38.1526 76.7075 38.9298 76.8194C39.3184 76.8727 39.7868 76.9046 40.3032 76.878C40.8142 76.8194 41.3678 76.7448 41.9534 76.6596C42.3845 76.5957 42.7998 76.5371 43.199 76.4785H43.1245C44.7694 77.0591 45.9724 77.4373 45.999 77.3734C46.0256 77.3095 44.8598 76.8141 43.2256 76.1908L43.1937 76.1802H43.1511C42.7625 76.2388 42.3473 76.292 41.9161 76.3506C41.3465 76.4359 40.8035 76.5158 40.2819 76.5904C39.7815 76.633 39.329 76.6276 38.9511 76.601C38.1898 76.5477 37.7267 76.4412 37.7161 76.4838Z" fill="#FF9A6C"/>
<path d="M52.1419 82.178C51.7374 82.5563 51.0666 82.4604 50.5929 82.178C50.1191 81.8904 49.7518 81.4536 49.2993 81.134C47.9419 80.1804 45.9936 80.4042 44.6841 79.3867C44.5031 79.2429 44.3221 79.0139 44.4233 78.8061C44.5137 78.6143 44.7746 78.593 44.9928 78.5984C46.824 78.641 48.6552 78.6889 50.4811 78.7315" stroke="#0D395C" stroke-width="0.25" stroke-miterlimit="10"/>
<path d="M50.4811 78.7208C50.4811 78.7208 50.2681 78.6729 49.8902 78.6462C49.5069 78.6196 48.9533 78.5877 48.2719 78.5557C47.5586 78.5291 46.7548 78.4971 45.8712 78.4651C45.6423 78.4598 45.4134 78.4491 45.1791 78.4438C44.9609 78.4545 44.6681 78.3693 44.3753 78.609C44.2369 78.7368 44.2156 78.9712 44.2848 79.1203C44.3487 79.2748 44.4499 79.3814 44.5616 79.4772C44.7799 79.6424 45.0035 79.7862 45.2483 79.9034C46.2385 80.3615 47.2499 80.4467 48.0909 80.7184C48.5115 80.8463 48.9001 81.0114 49.2195 81.2298C49.5389 81.4482 49.805 81.7092 50.0765 81.9276C50.6035 82.3911 51.2263 82.5615 51.6203 82.4763C52.0248 82.3964 52.1579 82.178 52.1472 82.178C52.1313 82.1514 51.9716 82.3218 51.6043 82.3591C51.237 82.3964 50.71 82.2313 50.2202 81.7625C49.9647 81.5441 49.7092 81.2671 49.3685 81.0221C49.0278 80.777 48.6179 80.5906 48.1814 80.4468C47.3084 80.1538 46.297 80.0526 45.3867 79.6264C45.1578 79.5252 44.9502 79.3867 44.7639 79.2429C44.5883 79.099 44.4978 78.9073 44.5989 78.8327C44.6947 78.7368 44.9449 78.7421 45.1791 78.7475C45.4134 78.7475 45.6476 78.7528 45.8712 78.7581C46.7548 78.7688 47.5639 78.7741 48.2719 78.7847C48.9533 78.7847 49.5069 78.7848 49.8902 78.7741C50.2735 78.7634 50.4864 78.7475 50.4864 78.7261L50.4811 78.7208Z" stroke="#0D395C" stroke-width="0.25" stroke-miterlimit="10"/>
<path d="M94.6479 215.815L105.097 133.008L101.754 113.756L82.0478 114.8L79.5938 214.286C79.5725 215.027 80.0942 215.676 80.8181 215.82L92.295 217.589C93.4395 217.765 94.4988 216.966 94.6426 215.815H94.6479Z" fill="#0D395C"/>
<path d="M104.799 135.784L123.803 154.609L96.4578 161.262L98.4061 175.07L135.424 170.03C138.586 169.599 141.434 167.889 143.302 165.295C146.166 161.315 146.241 155.967 143.478 151.913L114.642 109.554L101.76 113.757L104.799 135.784Z" fill="#0D395C"/>
<path d="M103.751 130.995C103.825 130.979 104.123 132.039 104.411 133.36C104.698 134.681 104.874 135.767 104.799 135.783C104.725 135.799 104.427 134.739 104.139 133.418C103.852 132.097 103.676 131.011 103.751 130.995Z" fill="#375A64"/>
<path d="M100.977 163.004C100.977 163.004 101.132 162.945 101.43 162.855C101.738 162.759 102.18 162.62 102.76 162.439C103.942 162.082 105.662 161.555 107.86 160.889C112.289 159.557 118.65 157.64 126.417 155.301L126.369 155.477C119.933 148.621 112.124 140.295 103.554 131.165L103.788 131.085C103.335 134.904 102.862 138.894 102.383 142.964C100.03 162.69 97.8205 180.53 96.1064 193.437C95.2547 199.888 94.5095 205.103 93.9612 208.698C93.6577 210.493 93.4555 211.889 93.2478 212.827C93.1467 213.29 93.0722 213.642 93.019 213.892C92.9657 214.132 92.9338 214.254 92.9338 214.254C92.9338 214.254 92.9497 214.126 92.9923 213.887C93.0402 213.636 93.1041 213.279 93.1946 212.816C93.3863 211.878 93.5672 210.478 93.8547 208.682C94.371 205.081 95.0897 199.866 95.9095 193.41C97.5703 180.503 99.7528 162.658 102.106 142.932C102.59 138.862 103.064 134.872 103.516 131.053L103.554 130.76L103.756 130.973C112.31 140.119 120.109 148.461 126.529 155.328L126.646 155.456L126.481 155.504C118.698 157.805 112.332 159.691 107.897 161.001C105.688 161.646 103.964 162.152 102.782 162.498C102.202 162.663 101.754 162.791 101.44 162.881C101.137 162.967 100.977 163.004 100.977 163.004Z" fill="#375A64"/>
<path d="M94.8288 214.254C94.7543 214.244 96.9262 196.67 99.6783 175.006C102.43 153.33 104.725 135.778 104.799 135.783C104.874 135.794 102.707 153.362 99.9498 175.038C97.1977 196.702 94.9034 214.265 94.8288 214.254Z" fill="#375A64"/>
<path d="M101.712 122.232C101.749 122.221 101.919 122.711 102.154 123.516C102.388 124.32 102.675 125.439 102.947 126.69C103.218 127.937 103.421 129.077 103.543 129.908C103.665 130.734 103.713 131.25 103.676 131.261C103.639 131.266 103.522 130.76 103.351 129.945C103.16 129.029 102.931 127.948 102.675 126.754C102.409 125.561 102.164 124.485 101.962 123.569C101.781 122.754 101.675 122.248 101.712 122.237V122.232Z" fill="#375A64"/>
<path d="M102.936 120.607C102.904 120.591 103.202 120.346 103.708 120.522C103.942 120.607 104.224 120.842 104.283 121.204C104.347 121.545 104.219 121.982 103.852 122.211C103.474 122.429 103.027 122.333 102.76 122.104C102.473 121.865 102.43 121.481 102.516 121.241C102.59 120.991 102.75 120.836 102.872 120.767C102.995 120.698 103.08 120.698 103.08 120.714C103.106 120.751 102.787 120.863 102.707 121.289C102.67 121.492 102.718 121.747 102.925 121.907C103.122 122.067 103.463 122.126 103.713 121.976C103.963 121.827 104.075 121.502 104.038 121.247C104.006 120.986 103.82 120.799 103.633 120.703C103.245 120.512 102.952 120.65 102.941 120.607H102.936Z" fill="#375A64"/>
<path d="M88.324 57.3071L77.4114 62.5807L82.1171 95.4372L80.27 110.182C80.0304 112.084 80.7544 113.975 82.1916 115.237L99.8169 114.891L112.161 108.099L117.831 107.141L115.51 95.9167L116.548 79.9945L129.446 86.8875C130.441 87.4202 131.597 87.5587 132.688 87.2764L156.339 81.1557L155.109 72.036L133.699 74.4598L117.394 60.0451L105.257 57.3177L103.096 53.738H90.6769L89.8092 54.3879C89.394 54.6969 89.0799 55.1284 88.9096 55.6184L88.324 57.3124V57.3071Z" fill="#F2CE14"/>
<path d="M77.4114 62.5808C77.4114 62.5808 73.8342 64.8501 72.4981 68.9944C71.2524 72.8724 68.4364 88.5496 68.4364 88.5496L56.0386 80.8522L48.8948 88.3685L65.4235 102.954C67.9573 105.191 71.5825 105.692 74.6273 104.221C77.1665 102.996 78.9232 100.578 79.3065 97.7812L81.3346 82.9137L77.4114 62.5808Z" fill="#F2CE14"/>
<path d="M114.642 109.554L113.876 108.425L105.715 109.932L104.214 113.411L114.642 109.554Z" fill="#FFBF9D"/>
<path d="M82.1917 115.238C89.4845 118.173 97.2671 117.097 104.214 113.411C106.311 112.297 108.254 110.918 110.357 109.82C112.46 108.723 114.796 107.913 117.165 108.078C119.534 108.243 121.919 109.554 122.866 111.727C123.814 113.906 122.866 116.868 120.636 117.683L121.424 118.386C124.698 116.862 126.252 112.452 124.655 109.208C123.431 106.72 120.854 105.239 118.97 103.209C116.196 100.226 115.909 94.4467 115.888 89.9561" fill="#F2CE14"/>
<path d="M98.188 63.6623C98.188 63.6623 97.9963 63.6889 97.6503 63.6943C97.3203 63.7529 96.7826 63.8221 96.3568 64.2909C95.9362 64.7437 95.702 65.5108 95.7127 66.3737C95.7127 67.2314 95.883 68.2222 96.3035 69.165L96.5111 69.6231L96.1119 69.3248C95.2016 68.6483 94.2594 67.828 93.3651 66.8904C91.2571 64.6904 89.8465 62.272 89.1385 60.4129C88.7658 59.486 88.5742 58.7029 88.4518 58.1596C88.3559 57.6109 88.308 57.3073 88.3293 57.3073C88.3932 57.2913 88.5476 58.5218 89.3195 60.3383C90.0647 62.1548 91.486 64.5253 93.5674 66.6987C94.4511 67.6255 95.3773 68.4352 96.2716 69.1118L96.0746 69.2716C95.8457 68.7708 95.7127 68.2648 95.6222 67.78C95.5317 67.2899 95.4838 66.8158 95.4997 66.3684C95.4997 65.4735 95.7659 64.6584 96.2503 64.1737C96.7347 63.6783 97.3149 63.6357 97.6556 63.6037C98.0123 63.625 98.1986 63.6463 98.1986 63.657L98.188 63.6623Z" fill="#1A2E35"/>
<path d="M98.8374 63.6625C99.737 63.2737 101.068 63.849 101.712 64.5841C102.138 65.0688 102.377 65.7453 102.942 66.065C103.506 66.3846 105.279 66.6296 105.795 66.2354C105.795 66.2354 106.109 64.7172 106.274 64.0887C106.929 61.601 107.211 59.337 107.488 56.8014C105.768 55.9704 106.242 54.8731 103.155 55.0808C103.155 55.0808 103.926 57.3608 103.261 59.4383" fill="#F2CE14"/>
<path d="M103.261 59.4382C103.235 59.4275 103.373 59.028 103.442 58.2716C103.496 57.5205 103.458 56.3965 103.059 55.1127L103.022 54.9849H103.15C103.831 54.9369 104.619 54.8783 105.428 55.182C105.832 55.3365 106.168 55.6507 106.482 55.9384C106.796 56.2314 107.142 56.4871 107.547 56.6788L107.632 56.7161L107.621 56.812C107.483 58.1065 107.328 59.5181 107.083 60.9777C106.924 61.9312 106.732 62.8528 106.509 63.7317C106.285 64.6106 106.109 65.4576 105.923 66.2567L105.912 66.3099L105.875 66.3312C105.566 66.5283 105.258 66.539 104.965 66.555C104.672 66.5603 104.385 66.539 104.108 66.5017C103.831 66.4644 103.565 66.4058 103.309 66.3259C103.059 66.2513 102.798 66.1288 102.612 65.9424C102.234 65.5801 102.037 65.1487 101.792 64.8184C101.553 64.4828 101.249 64.2378 100.951 64.0566C100.355 63.6891 99.7959 63.5772 99.418 63.5772C99.04 63.5772 98.8484 63.6784 98.8431 63.6571C98.8431 63.6571 99.0241 63.524 99.418 63.492C99.8066 63.46 100.397 63.5559 101.031 63.9181C101.345 64.0993 101.675 64.3496 101.941 64.7012C102.207 65.0475 102.415 65.4683 102.756 65.7826C103.091 66.0915 103.618 66.1821 104.14 66.262C104.406 66.294 104.677 66.3153 104.954 66.3046C105.226 66.294 105.524 66.2567 105.721 66.1235L105.673 66.1981C105.854 65.3937 106.029 64.5307 106.248 63.6571C106.466 62.7835 106.652 61.8673 106.812 60.9191C107.057 59.4702 107.217 58.0638 107.36 56.7747L107.435 56.9079C107.009 56.7055 106.631 56.4178 106.312 56.1195C105.992 55.8212 105.699 55.5389 105.337 55.3951C104.613 55.1074 103.836 55.1447 103.166 55.1713L103.256 55.0382C103.645 56.3752 103.65 57.5098 103.559 58.2716C103.506 58.6551 103.437 58.9481 103.378 59.1399C103.315 59.3317 103.277 59.4329 103.267 59.4275L103.261 59.4382Z" fill="#1A2E35"/>
<path d="M113.487 100.019C113.487 100.019 113.279 100.259 112.875 100.653C112.672 100.855 112.417 101.095 112.108 101.351C111.799 101.612 111.459 101.926 111.049 102.23C110.25 102.869 109.255 103.561 108.105 104.27C106.945 104.957 105.63 105.65 104.193 106.257C102.755 106.853 101.339 107.306 100.035 107.652C98.7256 107.977 97.5279 108.201 96.5164 108.324C96.0107 108.404 95.5529 108.425 95.1484 108.462C94.7438 108.499 94.3978 108.515 94.1103 108.515C93.5408 108.526 93.2267 108.526 93.2267 108.505C93.2267 108.483 93.5408 108.451 94.105 108.404C94.3871 108.382 94.7332 108.356 95.1324 108.302C95.5316 108.254 95.9894 108.212 96.4898 108.127C97.4906 107.983 98.6724 107.738 99.9712 107.402C101.259 107.051 102.659 106.592 104.086 106.001C105.507 105.399 106.817 104.723 107.972 104.051C109.122 103.364 110.123 102.693 110.926 102.075C111.342 101.782 111.688 101.484 112.002 101.234C112.321 100.988 112.582 100.759 112.795 100.573C113.226 100.2 113.471 100.003 113.482 100.019H113.487Z" fill="#1A2E35"/>
<path d="M110.053 82.5251C110.053 82.5251 110.048 82.6263 110.006 82.8181C109.958 83.0365 109.894 83.3135 109.819 83.6491C109.739 84.0113 109.633 84.4481 109.468 84.9489C109.308 85.4496 109.154 86.0302 108.898 86.6428C108.781 86.9518 108.653 87.2767 108.526 87.6123C108.393 87.9479 108.228 88.2835 108.068 88.6404C107.765 89.3595 107.355 90.084 106.945 90.8564C106.072 92.3746 105.002 93.9833 103.708 95.5388C102.399 97.0836 101.004 98.4207 99.6625 99.5446C98.9705 100.083 98.3264 100.61 97.677 101.036C97.3523 101.255 97.0542 101.478 96.7454 101.665C96.4367 101.851 96.1386 102.027 95.8564 102.203C95.2975 102.56 94.7545 102.81 94.2914 103.055C93.8283 103.305 93.4131 103.487 93.0724 103.63C92.753 103.764 92.4975 103.87 92.2899 103.961C92.1089 104.035 92.0131 104.067 92.0077 104.057C92.0024 104.046 92.0929 103.998 92.2686 103.907C92.4709 103.806 92.721 103.684 93.0298 103.535C93.3652 103.38 93.7697 103.183 94.2222 102.922C94.68 102.666 95.2123 102.4 95.7606 102.038C96.0374 101.862 96.3302 101.681 96.6336 101.489C96.937 101.297 97.2351 101.068 97.5492 100.85C98.1933 100.418 98.8268 99.8909 99.5082 99.3475C100.834 98.2236 102.207 96.8918 103.506 95.363C104.783 93.8182 105.853 92.2308 106.732 90.7339C107.147 89.9721 107.557 89.253 107.871 88.5445C108.031 88.193 108.206 87.8627 108.339 87.5271C108.472 87.1968 108.6 86.8772 108.728 86.5682C108.989 85.9663 109.159 85.391 109.33 84.9009C109.511 84.4108 109.633 83.974 109.723 83.6171C109.819 83.2869 109.899 83.0152 109.958 82.8021C110.016 82.6157 110.048 82.5198 110.059 82.5198L110.053 82.5251Z" fill="#1A2E35"/>
<path d="M87.6054 117.912C87.6054 117.912 87.1795 117.71 86.6365 117.187C86.0936 116.671 85.4441 115.829 84.9917 114.769C84.5445 113.704 84.4008 112.649 84.4114 111.898C84.4221 111.141 84.5445 110.694 84.5765 110.699C84.6244 110.705 84.5711 111.163 84.6084 111.893C84.6457 112.622 84.816 113.629 85.2472 114.657C85.6837 115.685 86.2799 116.511 86.7749 117.049C87.27 117.587 87.632 117.869 87.6054 117.912Z" fill="#1A2E35"/>
<path d="M87.2168 113.762C87.2966 113.783 87.1476 114.465 87.2274 115.307C87.2913 116.149 87.5522 116.798 87.4776 116.83C87.4191 116.868 87.0198 116.228 86.9506 115.328C86.8708 114.428 87.1529 113.73 87.2168 113.762Z" fill="#1A2E35"/>
<path d="M81.9627 94.6919C81.9627 94.6919 81.9308 94.6067 81.8989 94.4415C81.8616 94.2444 81.819 94.0047 81.7658 93.7171C81.654 93.0459 81.4996 92.1403 81.3186 91.0483C80.946 88.795 80.4137 85.6841 79.7749 82.2588C79.1361 78.8336 78.508 75.7387 78.0448 73.5014C77.8213 72.4147 77.6403 71.5198 77.5019 70.8486C77.4486 70.5609 77.4007 70.3212 77.3635 70.1241C77.3369 69.959 77.3262 69.8684 77.3315 69.8684C77.3422 69.8684 77.3688 69.9483 77.4167 70.1134C77.4699 70.3052 77.5285 70.5396 77.603 70.8273C77.7627 71.4452 77.9756 72.3454 78.2312 73.4588C78.7422 75.6854 79.4023 78.775 80.0411 82.2056C80.6798 85.6361 81.1802 88.7524 81.5049 91.0163C81.67 92.1456 81.7924 93.0672 81.8669 93.7011C81.8989 93.9941 81.9255 94.2338 81.9468 94.4309C81.9627 94.596 81.9681 94.6866 81.9574 94.6866L81.9627 94.6919Z" fill="#1A2E35"/>
<path d="M116.037 94.6917C116.037 94.6917 116.021 94.6011 116.01 94.4307C116.005 94.2283 115.994 93.9779 115.989 93.6743C115.973 93.0191 115.973 92.0655 115.978 90.8936C116 88.5444 116.101 85.3003 116.372 81.7206C116.644 78.1463 117.006 74.9181 117.282 72.5849C117.426 71.4503 117.543 70.5181 117.634 69.8256C117.676 69.5273 117.714 69.2822 117.746 69.0745C117.772 68.904 117.793 68.8135 117.804 68.8135C117.815 68.8135 117.815 68.904 117.804 69.0798C117.788 69.2822 117.767 69.5326 117.746 69.8363C117.682 70.5341 117.591 71.4663 117.485 72.6063C117.256 74.9448 116.926 78.1676 116.66 81.7419C116.388 85.311 116.255 88.5498 116.181 90.8989C116.149 92.0389 116.122 92.9764 116.101 93.6796C116.09 93.9832 116.079 94.2283 116.069 94.436C116.058 94.6065 116.047 94.697 116.042 94.697L116.037 94.6917Z" fill="#1A2E35"/>
<path d="M73.4722 96.0663C73.3764 96.1089 72.6791 94.1645 71.3216 92.0551C69.9536 89.9456 68.3673 88.6192 68.4365 88.55C68.4577 88.5233 68.873 88.827 69.4798 89.4023C70.0813 89.9776 70.8585 90.8405 71.5505 91.9059C72.2426 92.9766 72.7323 94.0207 73.0464 94.7931C73.3551 95.5655 73.5042 96.0556 73.4722 96.0716V96.0663Z" fill="#1A2E35"/>
<path d="M74.3878 93.749C74.3452 93.7649 74.1642 93.3441 73.7916 92.7102C73.419 92.0816 72.8121 91.2613 71.9498 90.5528C71.0874 89.8497 70.1771 89.3809 69.5117 89.0666C68.8463 88.7576 68.4205 88.5818 68.4311 88.5446C68.4417 88.5126 68.8889 88.6191 69.5862 88.8908C70.2783 89.1625 71.2258 89.6099 72.1201 90.3397C73.0144 91.0695 73.6213 91.9485 73.9566 92.6143C74.292 93.2855 74.4091 93.7383 74.3825 93.749H74.3878Z" fill="#1A2E35"/>
<path d="M124.421 109.772C124.378 109.783 124.304 109.581 124.117 109.309C123.936 109.032 123.617 108.696 123.181 108.451C122.739 108.206 122.286 108.116 121.956 108.105C121.626 108.094 121.413 108.137 121.403 108.094C121.392 108.068 121.589 107.95 121.951 107.908C122.308 107.865 122.829 107.934 123.319 108.206C123.809 108.478 124.139 108.883 124.293 109.208C124.447 109.538 124.458 109.767 124.426 109.772H124.421Z" fill="#FAFAFA"/>
<path d="M102.436 107.061C102.457 107.098 101.797 107.428 100.77 108.014C99.753 108.606 98.3423 109.474 97.1499 110.816C95.9575 112.153 95.3613 113.73 95.2335 114.886C95.0898 116.053 95.324 116.777 95.2655 116.788C95.2495 116.788 95.1803 116.617 95.1111 116.287C95.0419 115.957 94.994 115.467 95.0366 114.865C95.1164 113.661 95.7073 112.015 96.9423 110.63C98.172 109.25 99.6252 108.393 100.674 107.844C101.201 107.567 101.643 107.37 101.946 107.237C102.255 107.104 102.425 107.045 102.436 107.061Z" fill="#FAFAFA"/>
<g opacity="0.3">
<path d="M94.664 108.808C94.1583 109.027 94.2062 109.837 94.6321 110.188C95.058 110.54 95.6595 110.55 96.2131 110.524C102.457 110.225 108.478 106.837 111.986 101.66C107.174 105.612 100.86 107.104 94.7918 108.478" fill="black"/>
</g>
<g opacity="0.14">
<path d="M93.7164 103.375C93.1948 102.57 93.5461 101.441 94.2221 100.765C94.8982 100.083 95.8244 99.7259 96.6815 99.2997C99.8169 97.7549 102.393 95.1021 103.857 91.9273C104.826 89.8285 105.561 87.2555 107.701 86.3926C106.609 93.7917 101.105 100.36 94.0145 102.725" fill="#ED725F"/>
</g>
<g opacity="0.3">
<path d="M78.6038 75.7546C79.1415 81.5716 78.7262 87.4792 77.3795 93.163C77.092 94.3723 76.762 95.5868 76.7833 96.8333C76.8046 98.0745 77.5764 99.5127 78.5559 100.28C79.4396 98.2449 79.4555 96.2793 79.8282 94.0846C80.1635 92.103 80.7278 87.4899 80.7278 87.4206C80.8076 83.3775 79.8548 79.9203 78.3004 76.282" fill="#ED725F"/>
</g>
<g opacity="0.36">
<path d="M88.6381 58.2664C89.4153 62.5386 91.5553 66.5498 94.6641 69.5808C95.8405 70.7261 97.3044 71.7915 98.9493 71.7382C98.007 69.8098 97.7143 67.5672 98.1295 65.4577C99.5401 66.3473 100.961 67.2423 102.516 67.8442C104.07 68.4461 105.784 68.7445 107.413 68.4035C107.754 65.4524 108.095 62.5013 108.435 59.5502C108.473 59.2146 108.51 58.8577 108.345 58.5594C108.18 58.2664 107.733 58.1119 107.504 58.3569C107.408 58.4582 107.371 58.6073 107.339 58.7458C106.737 61.3347 106.407 63.6466 105.806 66.2355C105.374 66.6616 104.049 66.4858 103.176 66.1662C102.415 65.8839 102.122 65.2553 101.622 64.6214C101.116 63.9875 101.206 64.0994 100.461 63.7798C99.0877 63.1991 96.4527 63.6626 95.8777 64.8931C95.3028 66.1289 95.7393 67.7483 96.1226 68.9629C92.3165 66.5018 89.4899 62.5759 88.356 58.1812" fill="#ED725F"/>
</g>
<g opacity="0.3">
<path d="M117.666 70.7637C117.559 70.9767 120.982 82.5255 120.982 82.5255L116.548 79.9952L117.671 70.7637H117.666Z" fill="black"/>
</g>
<path d="M92.4068 49.934L90.1125 55.6391C90.1125 56.6885 90.4851 57.706 91.1612 58.5103C92.1992 59.7409 93.4502 60.7796 94.8502 61.568L98.5551 63.6562L101.621 60.9181C102.521 60.1137 103.059 58.9738 103.107 57.7646C103.16 56.4275 102.835 51.857 102.835 51.857C102.835 51.857 107.035 52.7945 108.206 47.2705C109.287 42.1727 108.467 42.5668 109.159 37.6661C109.888 32.5203 103.586 30.5067 98.4114 30.0752C90.3361 30.8529 93.7429 47.3238 92.4174 49.9287L92.4068 49.934Z" fill="#FFF8E9"/>
<path d="M103.154 55.0799C103.154 55.0799 99.9072 54.9999 96.6441 52.5496C96.6441 52.5496 97.9856 56.4382 103.144 56.4009L103.16 55.0799H103.154Z" fill="#FFF8E9"/>
<path d="M106.088 41.4116C106.647 41.4116 107.104 40.9109 107.104 40.293C107.104 39.675 106.652 39.1743 106.088 39.1743C105.523 39.1743 105.071 39.675 105.071 40.293C105.071 40.9109 105.523 41.4116 106.088 41.4116Z" fill="#0D395C"/>
<path d="M106.4 40.8057C106.634 40.8057 106.816 40.6164 106.816 40.3893C106.816 40.1622 106.621 39.9729 106.4 39.9729C106.179 39.9729 105.984 40.1622 105.984 40.3893C105.984 40.6164 106.166 40.8057 106.4 40.8057Z" fill="white"/>
<path d="M99.5127 41.3774C100.072 41.3774 100.529 40.8767 100.529 40.2588C100.529 39.6409 100.077 39.1401 99.5127 39.1401C98.9484 39.1401 98.4959 39.6409 98.4959 40.2588C98.4959 40.8767 98.9484 41.3774 99.5127 41.3774Z" fill="#0D395C"/>
<path d="M99.8249 40.7715C100.059 40.7715 100.241 40.5822 100.241 40.3551C100.241 40.128 100.046 39.9387 99.8249 39.9387C99.6039 39.9387 99.4089 40.128 99.4089 40.3551C99.4089 40.5822 99.5909 40.7715 99.8249 40.7715Z" fill="white"/>
<path d="M100.897 37.2619C100.802 37.4696 100.024 37.3045 99.0875 37.3364C98.1507 37.3524 97.3841 37.5602 97.2776 37.3577C97.2297 37.2619 97.3788 37.0701 97.6982 36.889C98.0123 36.7079 98.5073 36.548 99.0663 36.5321C99.6252 36.5161 100.126 36.6493 100.45 36.8144C100.78 36.9795 100.935 37.1606 100.892 37.2619H100.897Z" fill="#0D395C"/>
<path d="M107.743 37.4323C107.589 37.5974 107.062 37.3684 106.412 37.3045C105.763 37.2192 105.199 37.3258 105.087 37.1287C105.039 37.0328 105.14 36.8623 105.396 36.7132C105.646 36.564 106.056 36.4575 106.503 36.5107C106.95 36.564 107.328 36.7558 107.536 36.9582C107.748 37.1606 107.812 37.3524 107.743 37.4323Z" fill="#0D395C"/>
<path d="M96.1385 32.0891C96.1385 32.0891 96.1172 32.1051 96.1065 32.1104C95.2388 32.6857 94.6213 33.5753 94.3924 34.5981C94.3818 34.6354 94.3765 34.6674 94.3711 34.6993C94.0517 36.1482 93.9612 37.6398 93.6259 39.0834C93.2905 40.527 93.3544 41.6296 91.9065 41.9546C90.9962 42.1623 90.219 41.651 89.8943 41.1342C89.7665 40.9371 89.7665 40.6868 89.7665 40.4471C89.7878 36.8887 89.0692 35.509 89.3833 31.8174C89.4684 30.8107 90.0167 29.9051 90.8844 29.3884C91.7042 28.8983 92.6943 28.4029 93.5194 28.877C94.3445 29.3564 95.324 31.0557 95.9362 31.7961" fill="#0D395C"/>
<path d="M93.7324 40.1118C93.6472 40.0692 89.4738 38.0396 90.1286 41.7312C90.5757 44.2455 92.9499 44.8687 92.9605 44.7675C92.9712 44.6663 93.7324 40.1118 93.7324 40.1118Z" fill="#FFF8E9"/>
<path d="M90.7672 39.4938C90.7672 39.4938 90.9269 39.4086 91.0813 39.1422C91.2357 38.8812 91.3794 38.4338 91.3635 37.8851C91.3794 36.7504 90.4798 35.4507 90.4851 33.8792C90.4691 33.1015 90.6661 32.3611 91.0441 31.8177C91.4167 31.2744 91.965 30.9494 92.4387 30.8003C92.9232 30.6458 93.3437 30.6777 93.6205 30.7363C93.8973 30.8056 94.0464 30.8802 94.0623 30.8535C94.073 30.8375 93.9505 30.7204 93.6631 30.6032C93.381 30.4966 92.9125 30.4167 92.3749 30.5605C91.8425 30.6937 91.225 31.024 90.7832 31.6313C90.3467 32.2279 90.1231 33.0482 90.1338 33.8846C90.1338 34.7209 90.3787 35.4986 90.6288 36.1538C90.879 36.809 91.0813 37.3897 91.1186 37.9011C91.2197 38.9451 90.7193 39.4725 90.7672 39.4938Z" fill="#375A64"/>
<path d="M94.3073 28.9728C93.562 27.4973 96.0906 25.6808 97.8685 25.276C99.6465 24.8711 101.85 25.9045 103.527 26.6183C104.581 27.0711 105.624 27.6624 106.774 27.7104C107.546 27.7423 108.297 27.5239 109.042 27.3268C109.787 27.1297 110.559 26.9539 111.32 27.0711C112.082 27.1883 112.837 27.6571 113.066 28.3922C113.301 29.1273 112.8 30.0649 112.034 30.1075C113.05 29.6547 114.392 30.4697 114.461 31.583C114.53 32.691 113.29 33.6659 112.231 33.3409C112.763 33.0053 113.471 33.6925 113.359 34.3104C113.247 34.9283 112.646 35.3332 112.05 35.5409C110.532 36.063 108.845 35.7167 107.376 35.0828C105.907 34.4489 104.565 33.538 103.112 32.8668C101.659 32.1956 99.2259 31.0077 97.6769 31.4126C96.5377 31.7109 95.654 32.984 95.0525 32.6378C94.4723 32.3022 94.1423 31.6363 94.073 30.9704C94.0092 30.3046 94.1582 29.6334 94.3073 28.9782" fill="#0D395C"/>
<path d="M112.167 31.3541C112.14 31.3328 111.964 31.5991 111.555 31.9773C111.145 32.3502 110.463 32.8243 109.505 33.0694C108.558 33.3144 107.301 33.3144 106.173 32.6592C105.023 32.0253 104.091 30.8747 103 29.7667C101.914 28.6533 100.594 27.785 99.2153 27.5453C97.8472 27.3003 96.5324 27.6998 95.7658 28.4296C94.994 29.1647 94.7757 30.0596 94.781 30.6296C94.781 30.9226 94.8396 31.141 94.8769 31.2848C94.9301 31.4287 94.962 31.4979 94.9727 31.4926C95.0046 31.4819 94.8822 31.1836 94.9141 30.6296C94.9461 30.0916 95.1909 29.2606 95.9255 28.6054C96.6495 27.9555 97.8738 27.6093 99.1514 27.8543C100.434 28.094 101.685 28.9197 102.745 30.0064C103.815 31.0877 104.778 32.2703 106.008 32.9309C107.232 33.618 108.579 33.5861 109.558 33.2984C110.559 33.0108 111.246 32.4781 111.64 32.0626C111.837 31.8495 111.975 31.679 112.05 31.5459C112.129 31.418 112.167 31.3488 112.156 31.3434L112.167 31.3541Z" fill="#375A64"/>
<path d="M92.2951 40.527C92.2951 40.527 91.4114 39.8451 90.8791 40.9212C90.5331 41.6243 91.784 43.6859 92.5878 43.6859C93.0936 43.6859 92.9498 42.7909 92.9498 42.7909C92.9498 42.7909 92.3323 42.4074 92.1034 42.0718C91.8745 41.7362 92.3323 41.635 92.3323 41.635C92.5612 41.1982 92.2897 40.527 92.2897 40.527H92.2951Z" fill="#F8E4CD"/>
<path d="M1.46287 134.553C1.46287 135.491 0.701652 136.253 -0.235237 136.253C-1.17213 136.253 -1.93335 135.491 -1.93335 134.553C-1.93335 133.616 -1.17213 132.854 -0.235237 132.854C0.701652 132.854 1.46287 133.616 1.46287 134.553Z" fill="white"/>
<path d="M163.322 134.25C164.26 134.25 165.02 133.49 165.02 132.551C165.02 131.613 164.26 130.852 163.322 130.852C162.384 130.852 161.624 131.613 161.624 132.551C161.624 133.49 162.384 134.25 163.322 134.25Z" fill="white"/>
<path d="M59.2963 78.8064C59.5315 78.8064 59.7222 78.6156 59.7222 78.3803C59.7222 78.1449 59.5315 77.9541 59.2963 77.9541C59.0611 77.9541 58.8705 78.1449 58.8705 78.3803C58.8705 78.6156 59.0611 78.8064 59.2963 78.8064Z" fill="#FF4F5B"/>
<path d="M135.908 124.873C115.27 130.339 95.3772 129.929 73.6957 124.873L71.1619 85.2144C93.5674 89.5771 116.058 89.0285 135.908 84.2769V124.873Z" fill="#FF4F5B"/>
<path d="M135.908 124.873C115.27 130.339 95.3772 129.929 73.6957 124.873L71.1619 85.2144C93.5674 89.5771 116.058 89.0285 135.908 84.2769V124.873Z" fill="#DFDFDF"/>
<path d="M132.709 118.843C132.709 118.843 132.666 118.87 132.581 118.907C132.48 118.95 132.352 119.003 132.193 119.072C131.847 119.211 131.346 119.435 130.681 119.669C129.361 120.17 127.418 120.82 124.969 121.464C120.088 122.769 113.114 123.808 105.39 123.701C97.6609 123.6 90.73 122.54 85.7688 121.603C83.2882 121.129 81.2866 120.697 79.9132 120.377C79.2265 120.223 78.6942 120.084 78.3322 119.999C78.1672 119.957 78.0288 119.919 77.9223 119.893C77.8318 119.866 77.7839 119.85 77.7839 119.845C77.7839 119.845 77.8318 119.845 77.9277 119.861C78.0395 119.882 78.1725 119.909 78.3429 119.941C78.7261 120.021 79.2585 120.132 79.9345 120.271C81.3186 120.559 83.3201 120.963 85.8007 121.411C90.762 122.3 97.6875 123.329 105.39 123.43C113.088 123.536 120.04 122.535 124.921 121.283C127.365 120.67 129.313 120.047 130.644 119.578C131.314 119.355 131.82 119.147 132.171 119.03C132.336 118.971 132.464 118.928 132.571 118.891C132.661 118.859 132.709 118.849 132.709 118.854V118.843Z" fill="#0068A5"/>
<path d="M102.388 120.457C99.8008 121.224 97.1392 121.022 94.4403 120.191V106.074C97.0913 105.542 99.7369 105.542 102.388 106.074V120.457Z" fill="#2598E2"/>
<path d="M115.212 119.621C115.212 119.621 115.206 119.584 115.201 119.514C115.201 119.429 115.196 119.333 115.19 119.205C115.185 118.918 115.174 118.524 115.158 118.028C115.137 116.984 115.11 115.503 115.073 113.644C115.015 109.899 114.94 104.658 114.844 98.5796L114.951 98.7074C112.422 98.1854 109.574 98.1641 106.726 98.7127L106.838 98.5742C106.838 98.6648 106.838 98.7607 106.838 98.8566C106.923 107.199 106.998 114.736 107.051 120.116L106.977 120.02C108.249 120.287 109.415 120.425 110.442 120.441C111.469 120.463 112.348 120.361 113.056 120.228C113.764 120.095 114.301 119.919 114.658 119.807C114.823 119.749 114.956 119.706 115.063 119.669C115.153 119.637 115.206 119.621 115.212 119.626C115.217 119.632 115.174 119.648 115.084 119.69C114.977 119.733 114.844 119.791 114.679 119.861C114.323 119.994 113.79 120.18 113.077 120.335C112.364 120.484 111.475 120.601 110.437 120.596C109.399 120.596 108.217 120.468 106.934 120.212L106.859 120.196V120.116C106.785 114.736 106.678 107.204 106.561 98.8619C106.561 98.766 106.561 98.6701 106.561 98.5796V98.4624L106.673 98.4411C109.553 97.8871 112.438 97.9137 115.004 98.4464L115.11 98.4677V98.5742C115.158 104.679 115.196 109.947 115.222 113.708C115.222 115.556 115.233 117.032 115.233 118.071C115.233 118.561 115.233 118.944 115.228 119.227C115.228 119.344 115.228 119.44 115.222 119.52C115.222 119.584 115.222 119.616 115.212 119.616V119.621Z" fill="#0068A5"/>
<path d="M127.428 117.959C125.299 119.11 122.499 119.264 119.481 119.088V95.7723C122.185 95.197 124.847 95.0905 127.428 95.7723V117.954V117.959Z" fill="#0068A5"/>
<path d="M89.7718 119.302C89.7718 119.302 89.7559 119.083 89.7452 118.705C89.7399 118.295 89.7292 117.752 89.7133 117.075C89.6973 115.658 89.676 113.692 89.6494 111.349L89.7292 111.46C87.5999 110.677 84.9383 109.937 82.0798 110.187H82.0638L82.1915 110.049C82.1862 112.957 82.1756 115.685 82.1702 118.002L82.0957 117.89C83.171 118.348 84.225 118.588 85.1619 118.764C86.1041 118.934 86.9292 119.03 87.6159 119.099C88.276 119.153 88.803 119.2 89.2076 119.232C89.5589 119.259 89.7612 119.286 89.7718 119.291C89.7825 119.296 89.5908 119.307 89.2076 119.302C88.8403 119.296 88.2973 119.28 87.6106 119.232C86.9239 119.185 86.0881 119.105 85.1353 118.95C84.1878 118.785 83.1178 118.556 82.0105 118.103L81.936 118.071V117.991C81.9307 115.674 81.9254 112.947 81.9147 110.038V109.91L82.0425 109.9H82.0585C84.9862 109.644 87.6798 110.411 89.8197 111.221L89.8996 111.253V111.338C89.873 113.714 89.8517 115.701 89.8357 117.139C89.8251 117.805 89.8144 118.338 89.8038 118.742C89.7931 119.11 89.7878 119.296 89.7771 119.291L89.7718 119.302Z" fill="#0068A5"/>
<path d="M93.5087 98.6754C93.5087 98.7127 92.9178 98.7553 91.9543 98.7713C90.9908 98.7872 89.6653 98.7713 88.2014 98.6807C86.7376 98.5955 85.4121 98.457 84.4592 98.3291C83.5064 98.2013 82.9208 98.0894 82.9261 98.0521C82.9261 98.0148 83.5223 98.0521 84.4805 98.132C85.4387 98.2119 86.7535 98.3131 88.2174 98.4037C89.676 98.4889 91.0015 98.5369 91.9596 98.5742C92.9178 98.6115 93.514 98.6328 93.514 98.6754H93.5087Z" fill="#0068A5"/>
<path d="M92.327 100.413C92.327 100.45 91.8053 100.445 90.9643 100.407C90.1232 100.37 88.9627 100.295 87.6798 100.194C86.3969 100.098 85.2365 99.9918 84.4007 99.9012C83.565 99.8106 83.0486 99.7361 83.0539 99.6988C83.0539 99.6615 83.5809 99.6668 84.422 99.7041C85.2631 99.7414 86.4235 99.816 87.7011 99.9172C88.9787 100.013 90.1392 100.12 90.9749 100.21C91.8106 100.301 92.327 100.375 92.327 100.413Z" fill="#0068A5"/>
<path d="M95.2335 102.687C95.2335 102.687 95.2335 102.511 95.2388 102.192C95.2548 101.851 95.2707 101.393 95.292 100.817C95.3506 99.6133 95.4304 97.9194 95.5263 95.8366L95.6274 95.9431C91.8053 95.991 86.5992 95.8099 80.9193 95.1281C80.7809 95.2453 81.1056 94.9683 81.0737 95.0002V95.0056V95.0269V95.0535V95.1121V95.224L81.0524 95.4477L81.0258 95.8952C81.0098 96.1935 80.9885 96.4864 80.9725 96.7848C80.9406 97.3707 80.9033 97.9567 80.8714 98.5267C80.8022 99.6719 80.7383 100.78 80.6744 101.84L80.5573 101.702C84.8106 102.224 88.4836 102.447 91.092 102.548C92.3749 102.586 93.4023 102.618 94.1422 102.639C94.4723 102.65 94.7384 102.66 94.946 102.666C95.1323 102.676 95.2335 102.682 95.2388 102.687C95.2388 102.692 95.1536 102.698 94.9673 102.708C94.7863 102.714 94.4989 102.73 94.1422 102.73C93.4342 102.74 92.3962 102.74 91.0867 102.714C88.4783 102.66 84.7946 102.469 80.5254 101.963L80.403 101.947V101.824C80.4722 100.764 80.5307 99.656 80.5946 98.5107C80.6265 97.9407 80.6585 97.3547 80.6957 96.7688C80.7117 96.4758 80.7277 96.1775 80.749 95.8792L80.7756 95.4317L80.7862 95.208V95.0961L80.7969 95.0375V95.0109V94.9949V94.9842C80.7649 95.0109 81.0897 94.7339 80.9512 94.8511C86.6152 95.5329 91.8053 95.7407 95.6221 95.7407H95.7285L95.7232 95.8472C95.5795 97.9514 95.4624 99.6613 95.3772 100.876C95.3346 101.44 95.2974 101.893 95.2761 102.224C95.2494 102.527 95.2335 102.687 95.2282 102.676L95.2335 102.687Z" fill="#0068A5"/>
<path d="M97.0435 105.675C96.9743 105.713 96.5325 105.068 96.0214 104.253C95.5051 103.433 95.1644 102.719 95.2336 102.682C95.3028 102.644 95.7446 103.289 96.2556 104.104C96.772 104.924 97.1127 105.638 97.0435 105.675Z" fill="#0068A5"/>
<path d="M10.807 54.0298L17.5515 94.8714C17.5515 94.8714 27.8466 114.165 55.2134 118.518L50.7951 82.0601C50.7951 82.0601 25.4884 74.2295 10.8016 54.0298H10.807Z" fill="#F4E9A4"/>
<path d="M51.6894 115.609C51.6894 115.609 51.6309 115.599 51.5138 115.567C51.386 115.529 51.221 115.481 51.0081 115.423C50.5503 115.284 49.9062 115.087 49.0811 114.837C48.2453 114.57 47.2073 114.293 46.0575 113.825C45.4772 113.601 44.8544 113.367 44.1943 113.116C43.5343 112.866 42.8369 112.605 42.1289 112.264C40.7023 111.609 39.1213 110.943 37.5137 110.037C35.8688 109.206 34.1973 108.162 32.446 107.044C28.9859 104.764 25.4406 101.828 22.2786 98.2275C20.8679 96.5921 19.5957 94.9035 18.6109 93.1083L18.6002 93.0923V93.071C17.3652 85.1126 16.2846 78.1183 15.5074 73.095C15.1348 70.602 14.8314 68.5991 14.6238 67.2034C14.528 66.5269 14.4534 65.9942 14.4002 65.616C14.3789 65.4456 14.3629 65.3124 14.347 65.2058C14.3363 65.1153 14.331 65.0673 14.3363 65.062C14.3363 65.062 14.3523 65.11 14.3683 65.2005C14.3895 65.307 14.4108 65.4402 14.4428 65.6107C14.5067 65.9889 14.5972 66.5163 14.7143 67.1928C14.9432 68.5884 15.2732 70.586 15.6778 73.0737C16.4763 78.0917 17.5941 85.0806 18.8611 93.0337L18.8504 92.9911C19.8139 94.7437 21.0862 96.4323 22.4862 98.0517C25.6322 101.631 29.1509 104.556 32.5844 106.836C34.3197 107.949 35.9806 109.004 37.6148 109.835C39.2118 110.746 40.7875 111.422 42.1981 112.088C42.9008 112.434 43.5928 112.701 44.2529 112.956C44.9076 113.212 45.5251 113.457 46.1054 113.686C47.2499 114.171 48.2826 114.459 49.1077 114.741C49.9221 115.013 50.5662 115.226 51.0187 115.38C51.2263 115.449 51.386 115.508 51.5138 115.551C51.6256 115.593 51.6788 115.615 51.6788 115.62L51.6894 115.609Z" fill="#0068A5"/>
<path d="M49.2832 103.751C49.2832 103.751 49.2566 103.783 49.1874 103.837C49.1129 103.895 49.0171 103.975 48.9 104.071C48.6285 104.284 48.2505 104.577 47.7608 104.955C46.7494 105.733 45.2908 106.846 43.4649 108.247L43.3957 108.301L43.3478 108.231C41.8999 106.228 40.1166 103.762 38.0938 100.955L38.2535 100.981C36.9866 101.882 35.6345 102.846 34.2238 103.853L34.0907 103.949L34.0322 103.794C32.4618 99.5272 30.6945 94.7383 28.8367 89.6937C28.5865 89.0118 28.3363 88.3353 28.0914 87.6641L28.347 87.6801C27.2184 89.9227 26.1165 92.1068 25.0625 94.2003L24.9188 94.4826L24.8177 94.1843C21.9644 85.9488 19.537 78.9493 17.9613 74.4054L18.1051 74.3947C17.6739 76.2112 17.3332 77.6495 17.099 78.651C16.9819 79.1304 16.8914 79.5033 16.8222 79.7696C16.7902 79.8868 16.7689 79.9827 16.7476 80.0573C16.7317 80.1212 16.721 80.1532 16.7157 80.1532C16.7157 80.1532 16.7157 80.1212 16.7263 80.0519C16.7423 79.972 16.7583 79.8815 16.7849 79.759C16.8435 79.4873 16.9233 79.1091 17.0244 78.6296C17.2427 77.6282 17.5621 76.1846 17.9613 74.3574L18.0199 74.0964L18.1104 74.3468C19.7074 78.88 22.1773 85.8636 25.0732 94.0884L24.8283 94.0724C25.8823 91.9789 26.9736 89.7949 28.1021 87.5469L28.2458 87.2593L28.3576 87.5576C28.6025 88.2288 28.8527 88.9053 29.1029 89.5871C30.9553 94.6317 32.7067 99.426 34.277 103.698L34.0854 103.64C35.5014 102.638 36.8588 101.679 38.1257 100.784L38.2216 100.72L38.2908 100.816C40.2976 103.634 42.0649 106.117 43.4969 108.13L43.3798 108.114C45.2269 106.74 46.7015 105.643 47.7235 104.881C48.2186 104.519 48.6072 104.231 48.8893 104.028C49.0118 103.938 49.1129 103.869 49.1927 103.815C49.262 103.767 49.2992 103.746 49.2992 103.746L49.2832 103.751Z" fill="#0068A5"/>
<path d="M48.3411 84.1644C48.3411 84.1644 48.1335 84.1378 47.7662 84.0366C47.3989 83.9354 46.8772 83.7756 46.2385 83.5678C44.9556 83.1417 43.2042 82.4865 41.3251 81.6395C39.446 80.7872 37.7958 79.9082 36.63 79.2264C36.0445 78.8855 35.5813 78.5978 35.2673 78.3901C34.9532 78.1823 34.7829 78.0598 34.7935 78.0438C34.8041 78.0278 34.9905 78.1184 35.3258 78.2995C35.7091 78.5072 36.1775 78.7576 36.7312 79.0559C37.9182 79.6951 39.5738 80.5421 41.4475 81.3891C43.3213 82.2361 45.0514 82.9179 46.313 83.3867C46.8985 83.6051 47.3989 83.7862 47.8088 83.9407C48.1601 84.0739 48.3571 84.1538 48.3518 84.1698L48.3411 84.1644Z" fill="#0068A5"/>
<path d="M49.427 85.8578C49.4163 85.8951 48.9106 85.8152 48.1068 85.6235C47.303 85.4317 46.1958 85.1227 45.0087 84.6966C43.8163 84.2704 42.7676 83.8123 42.0224 83.4447C41.2771 83.0825 40.8353 82.8215 40.8512 82.7842C40.8672 82.7469 41.341 82.9493 42.1022 83.2636C42.8634 83.5779 43.9174 84.0094 45.0992 84.4302C46.2809 84.851 47.3669 85.192 48.16 85.4317C48.9479 85.6714 49.4376 85.8152 49.4323 85.8525L49.427 85.8578Z" fill="#0068A5"/>
<path d="M38.6422 100.965C38.6422 101.301 38.4346 101.578 38.1844 101.578C37.9342 101.578 37.7266 101.306 37.7266 100.965C37.7266 100.624 37.9342 100.353 38.1844 100.353C38.4346 100.353 38.6422 100.624 38.6422 100.965Z" fill="#F2CE14"/>
<path d="M28.1714 88.6654C28.4242 88.6654 28.6292 88.3911 28.6292 88.0528C28.6292 87.7145 28.4242 87.4402 28.1714 87.4402C27.9185 87.4402 27.7136 87.7145 27.7136 88.0528C27.7136 88.3911 27.9185 88.6654 28.1714 88.6654Z" fill="#F2CE14"/>
<path d="M18.5256 74.5813C18.5256 74.9169 18.318 75.1939 18.0678 75.1939C17.8177 75.1939 17.61 74.9223 17.61 74.5813C17.61 74.2404 17.8177 73.9688 18.0678 73.9688C18.318 73.9688 18.5256 74.2404 18.5256 74.5813Z" fill="#F2CE14"/>
<path d="M195.21 59.5347L191.829 101.031C191.829 101.031 181.96 118.775 154.78 119.452L158.138 77.6729C158.138 77.6729 181.848 76.7087 195.21 59.5347Z" fill="#FF4F5B"/>
<path d="M194.704 57.3717C193.82 54.5005 191.67 50.4041 186.559 49.5518L180.517 105.367C180.517 105.367 191.861 103.103 192.165 96.8815C192.191 96.3435 194.459 68.6062 195.029 61.7344C195.151 60.2323 195.151 58.8153 194.704 57.3717Z" fill="#F2CE14"/>
<path d="M195.21 59.5347L191.829 101.031C191.829 101.031 181.96 118.775 154.78 119.452L158.138 77.6729C158.138 77.6729 181.848 76.7087 195.21 59.5347Z" fill="#F4E9A4"/>
<path d="M194.4 70.1139C191.691 74.0345 190.163 78.7649 190.067 83.5325C190.041 84.9068 190.121 86.3344 189.599 87.6076C189.077 88.8807 187.709 89.9461 186.384 89.5785C185 89.2003 184.377 87.5596 183.163 86.7925C182.082 86.1107 180.619 86.2279 179.517 86.8671C178.415 87.5117 177.632 88.609 177.121 89.7809C176.131 92.0555 176.067 94.6231 175.338 96.9936C174.609 99.3641 172.825 101.756 170.35 101.862C169.445 101.9 168.551 101.628 167.646 101.655C165.735 101.713 164.074 103.136 163.18 104.83C162.285 106.523 162.019 108.468 161.769 110.364C161.769 110.364 176.259 111.744 192.521 92.5243L194.4 70.1033V70.1139Z" fill="#43B6DD"/>
<path d="M171.367 95.283C171.367 95.7998 171.111 96.2153 170.797 96.2153C170.483 96.2153 170.228 95.7998 170.228 95.283C170.228 94.7663 170.483 94.3508 170.797 94.3508C171.111 94.3508 171.367 94.7663 171.367 95.283Z" fill="#0068A5"/>
<path d="M178.191 78.0352C178.191 78.552 177.936 78.9675 177.622 78.9675C177.307 78.9675 177.052 78.552 177.052 78.0352C177.052 77.5185 177.307 77.103 177.622 77.103C177.936 77.103 178.191 77.5185 178.191 78.0352Z" fill="#0068A5"/>
<path d="M194.076 72.1162C194.076 72.1162 194.049 72.2014 193.98 72.3506C193.9 72.5211 193.799 72.7448 193.671 73.0218C193.384 73.6291 192.984 74.4814 192.479 75.5574C191.425 77.7521 189.939 80.8524 188.156 84.5652L188.098 84.6878L187.981 84.6132C184.968 82.7061 181.465 80.4901 177.733 78.125L177.936 78.0611C177.802 78.3913 177.653 78.7482 177.51 79.1105C174.976 85.3217 172.655 91.0055 170.893 95.3256L170.85 95.4375L170.749 95.3789C168.194 93.9406 166.107 92.7847 164.659 91.9963C163.935 91.6021 163.371 91.2985 162.983 91.1067C162.802 91.0162 162.653 90.9469 162.541 90.8883C162.44 90.851 162.386 90.8244 162.386 90.8191C162.402 90.7658 163.254 91.1333 164.718 91.8951C166.187 92.6515 168.285 93.7808 170.856 95.1978L170.707 95.2511C172.453 90.9256 174.752 85.2311 177.265 79.0093C177.409 78.6523 177.558 78.2901 177.691 77.9599L177.755 77.8054L177.893 77.8959C181.625 80.2717 185.117 82.4984 188.124 84.4161L187.949 84.464C189.764 80.7725 191.286 77.6882 192.356 75.5041C192.889 74.4388 193.309 73.5971 193.613 73.0005C193.756 72.7288 193.868 72.5104 193.953 72.3453C194.033 72.1961 194.076 72.1215 194.081 72.1269L194.076 72.1162Z" fill="#0068A5"/>
<path d="M108.824 42.7485C108.824 42.7485 108.898 52.1239 103.202 51.9055C98.5126 51.7244 96.1384 47.1859 96.1384 47.1859" stroke="#0D395C" stroke-width="0.5" stroke-miterlimit="10"/>
<path d="M103.234 43.1377C103.234 43.1377 103.522 43.0844 103.985 43.0365C104.102 43.0258 104.214 43.0099 104.235 42.9513C104.262 42.8927 104.219 42.8021 104.161 42.7062C104.054 42.5038 103.942 42.296 103.831 42.0723C103.373 41.1721 103.32 41.1827 103.373 41.1721C103.426 41.1561 103.559 41.1241 104.022 42.0244C104.134 42.2481 104.24 42.4559 104.342 42.6636C104.384 42.7595 104.459 42.866 104.395 42.9885C104.363 43.0525 104.272 43.0951 104.198 43.1111C104.123 43.127 104.054 43.127 103.996 43.1324C103.527 43.1537 103.234 43.159 103.234 43.1377Z" stroke="#0D395C" stroke-width="0.25" stroke-miterlimit="10"/>
<path d="M100.722 44.5864C100.844 44.5438 101.068 45.3748 101.93 45.7743C102.798 46.1791 103.655 45.8489 103.692 45.9607C103.719 46.0087 103.538 46.1738 103.165 46.2857C102.803 46.3975 102.239 46.4188 101.706 46.1738C101.179 45.9288 100.865 45.4973 100.743 45.1617C100.621 44.8208 100.658 44.5917 100.716 44.5811L100.722 44.5864Z" fill="#0D395C"/>
<path d="M93.679 40.4371C93.679 40.4371 92.1406 38.8443 90.5276 39.8032C88.9147 40.762 91.1558 44.7945 92.9604 44.7732C92.9604 44.7732 93.6204 49.0241 90.6714 53.7331" stroke="#0D395C" stroke-width="0.5" stroke-miterlimit="10"/>
</g>
<defs>
<clipPath id="clip0_1511_15046">
<rect width="195" height="140" fill="white"/>
</clipPath>
</defs>
</svg>
