<svg width="29" height="28" viewBox="0 0 29 28" fill="none" xmlns="http://www.w3.org/2000/svg">
<g clip-path="url(#clip0_1568_15840)">
<path d="M28.1046 11.9894C28.4923 11.9894 28.7446 11.5812 28.5717 11.2338L27.5222 9.12622V3.02535C27.5222 1.36367 26.1767 0.0166016 24.517 0.0166016H15.492C13.8323 0.0166016 12.4868 1.36367 12.4868 3.02535V9.85449C12.4868 11.0336 13.4415 11.9894 14.6193 11.9894H28.1046Z" fill="#D1F19E"/>
<path d="M15.7005 5.20734C15.2812 5.12745 14.9773 4.76134 14.9773 4.33399V2.72144C14.9773 1.53275 15.666 0.505363 16.6655 0.0166016H15.492C13.8323 0.0166016 12.4868 1.36367 12.4868 3.02535V7.69245H13.7091V11.8762C13.9242 11.9492 14.1544 11.9894 14.3942 11.9894H19.4727V9.7715C19.4727 7.50657 17.8458 5.61604 15.7005 5.20734Z" fill="#BBEC6C"/>
<path d="M18.0095 9.77165C18.0095 8.13842 16.6871 6.81445 15.0558 6.81445H3.62024C1.98892 6.81445 0.666504 8.13842 0.666504 9.77165V17.0697C0.666504 18.7029 1.98892 20.0269 3.62024 20.0269H4.89319L6.12416 21.5036C6.25506 21.6606 6.49603 21.6606 6.62687 21.5036L7.85784 20.0269H15.8344C17.0356 20.0269 18.0094 19.0519 18.0094 17.8493V9.77165H18.0095Z" fill="#FDB4BA"/>
<path d="M4.95402 18.4658C3.52975 18.4658 2.37514 17.3098 2.37514 15.8839V10.1446C2.37514 8.73513 3.12158 7.50047 4.24006 6.81445H3.62024C1.98892 6.8144 0.666504 8.13836 0.666504 9.77159V17.0696C0.666504 18.7028 1.98892 20.0268 3.62024 20.0268H4.89319L6.12416 21.5036C6.25506 21.6606 6.49603 21.6606 6.62687 21.5036L7.85784 20.0268H15.8344C16.8217 20.0268 17.6548 19.3681 17.9204 18.4657H4.95402V18.4658Z" fill="#FE99A0"/>
<path d="M26.14 15.5928H17.2005C15.8051 15.5928 14.6738 16.7253 14.6738 18.1224V24.2374C14.6738 25.6345 15.8051 26.767 17.2005 26.767H23.1481L23.9586 27.8555C24.1179 28.0694 24.4379 28.0694 24.5972 27.8555L25.4077 26.767H26.1401C27.5355 26.767 28.6668 25.6345 28.6668 24.2374V18.1224C28.6667 16.7253 27.5355 15.5928 26.14 15.5928Z" fill="#FEDBA6"/>
<path d="M18.398 25.2633C17.3313 25.2633 16.4666 24.3976 16.4666 23.3297V17.4711C16.4666 16.563 17.092 15.8015 17.9349 15.5938H17.2005C15.8051 15.5938 14.6738 16.7263 14.6738 18.1234V24.2383C14.6738 25.6354 15.8051 26.768 17.2005 26.768H23.1481L23.9586 27.8565C24.1179 28.0703 24.4379 28.0703 24.5972 27.8565L25.4077 26.768H26.1401C27.171 26.768 28.0571 26.1495 28.45 25.2633H18.398V25.2633Z" fill="#FECE85"/>
</g>
<defs>
<clipPath id="clip0_1568_15840">
<rect width="28" height="28" fill="white" transform="translate(0.666504)"/>
</clipPath>
</defs>
</svg>
