<svg width="38" height="38" viewBox="0 0 38 38" fill="none" xmlns="http://www.w3.org/2000/svg">
<rect y="-0.000976562" width="38" height="38" rx="19" fill="white"/>
<g clip-path="url(#clip0_1577_13582)">
<path d="M30.2549 18.4141H29.7233L28.3961 19.3858L27.3042 21.0606V26.0929L27.6527 26.4331L28.1422 26.6181H32.0563C32.5775 26.6181 33 26.1956 33 25.6744V22.623C33 20.7517 31.8679 19.132 30.2549 18.4141Z" fill="#FDB4BA"/>
<path d="M13.5221 19.6921C13.0378 19.1084 12.4127 18.6452 11.7005 18.3555H11.129L9.57161 19.4513L8.92718 20.8476L8.53857 21.8501V25.7348L8.89136 26.3912L9.47736 26.618H13.2371L14.0231 26.0212V20.3165L13.5221 19.6921Z" fill="#D1F19E"/>
<path d="M8.81366 25.6748V22.6917C8.81366 20.7528 9.99666 19.0524 11.7004 18.3558C11.0983 18.1109 10.434 17.9898 9.73894 18.0258C7.28141 18.153 5.37646 20.2308 5.37646 22.6916V25.6747C5.37646 26.1959 5.79892 26.6183 6.32008 26.6183H9.75719C9.23611 26.6184 8.81366 26.1959 8.81366 25.6748Z" fill="#00C63A"/>
<path d="M27.5101 25.6747V22.6233C27.5101 20.7518 28.6421 19.1321 30.255 18.4142C29.6168 18.1302 28.9034 17.987 28.1548 18.0258C26.828 18.0945 25.663 18.7324 24.8712 19.6915L24.3535 20.3407V25.8784L25.1395 26.6184H28.4537C27.9326 26.6184 27.5101 26.196 27.5101 25.6747Z" fill="#FE99A0"/>
<path d="M20.9111 15.7588L19.7218 15.9958L18.23 16.5447L16.1445 18.872V25.4488L16.6741 26.6175H25.139V21.4535C25.139 18.779 23.3508 16.5022 20.9111 15.7588Z" fill="#8AC9FE"/>
<path d="M20.9109 15.7593C20.3404 15.5854 19.7345 15.4951 19.1073 15.5035C15.8393 15.5473 13.2368 18.2639 13.2368 21.5321V26.618H16.6739V21.5321C16.674 18.8322 18.4508 16.5104 20.9109 15.7593Z" fill="#00ABF2"/>
<path d="M11.3077 12.125H10.6989L9.41061 13.1074C9.41061 13.1074 9.13948 14.6589 9.09605 14.7305C9.05262 14.8022 8.92467 16.3297 9.09605 16.4014C9.26743 16.473 10.5444 17.6306 10.5444 17.6306L11.3078 17.7205C12.3536 17.2234 13.0769 16.1577 13.0769 14.9227C13.0769 13.6878 12.3536 12.622 11.3077 12.125Z" fill="#FFCEBE"/>
<path d="M9.53861 14.9244C9.53861 13.6894 10.2618 12.6236 11.3077 12.1266C10.9054 11.9354 10.4555 11.8281 9.98052 11.8281C8.27055 11.8281 6.88428 13.2143 6.88428 14.9244C6.88428 16.6344 8.27048 18.0206 9.98052 18.0206C10.4555 18.0206 10.9054 17.9133 11.3077 17.7221C10.2618 17.2251 9.53861 16.1594 9.53861 14.9244Z" fill="#FFB1A0"/>
<path d="M29.7228 12.125H29.1619L28.2548 13.0955C28.2548 13.0955 27.7894 14.4918 27.7655 14.5754C27.7416 14.6589 27.7655 15.3392 27.7655 15.3392L28.0878 16.7236L28.8754 17.4396L29.7228 17.7204C30.7686 17.2234 31.4918 16.1576 31.4918 14.9227C31.4918 13.6877 30.7686 12.622 29.7228 12.125Z" fill="#FFCEBE"/>
<path d="M27.9541 14.9244C27.9541 13.6894 28.6774 12.6236 29.7232 12.1266C29.321 11.9354 28.8711 11.8281 28.396 11.8281C26.686 11.8281 25.2998 13.2143 25.2998 14.9244C25.2998 16.6344 26.686 18.0206 28.396 18.0206C28.8711 18.0206 29.321 17.9133 29.7232 17.7221C28.6774 17.2251 27.9541 16.1594 27.9541 14.9244Z" fill="#FFB1A0"/>
<path d="M20.8826 7.87598H20.4199L18.7371 9.12261L18.2358 10.698V12.524L19.3756 14.3559L20.026 14.9168L20.4437 15.078L20.8825 15.1278C22.2455 14.4896 23.19 13.1064 23.19 11.5019C23.19 9.89741 22.2456 8.51415 20.8826 7.87598Z" fill="#FFCEBE"/>
<path d="M18.575 11.5013C18.575 9.89685 19.5195 8.51366 20.8826 7.87541C20.3678 7.63444 19.7938 7.49902 19.1878 7.49902C16.9775 7.49902 15.1855 9.29087 15.1855 11.5013C15.1855 13.7118 16.9775 15.5036 19.1878 15.5036C19.7938 15.5036 20.3678 15.3682 20.8826 15.1272C19.5195 14.489 18.575 13.1058 18.575 11.5013Z" fill="#FFB1A0"/>
<path d="M20.3822 22.9248H19.7137L17.9789 24.3688L17.5259 25.508V27.6699L18.5098 29.56L19.6814 30.3173L20.3822 30.3105C21.9411 29.8066 23.0689 28.3441 23.0689 26.6176C23.0689 24.8911 21.941 23.4286 20.3822 22.9248Z" fill="#FFE02F"/>
<path d="M17.6961 26.6182C17.6961 24.8917 18.8239 23.4292 20.3828 22.9253C20.0065 22.8037 19.6053 22.7373 19.1885 22.7373C17.0452 22.7373 15.3076 24.4749 15.3076 26.6182C15.3076 28.7616 17.0452 30.4991 19.1885 30.4991C19.6053 30.4991 20.0065 30.4327 20.3828 30.3111C18.8239 29.8073 17.6961 28.3448 17.6961 26.6182Z" fill="#FBC700"/>
<path d="M18.9962 28.2992C18.8472 28.2992 18.698 28.2423 18.5843 28.1286L17.3684 26.9126C17.1409 26.6851 17.1409 26.3162 17.3684 26.0887C17.5958 25.8613 17.9648 25.8613 18.1922 26.0887L18.9963 26.8927L20.362 25.527C20.5895 25.2995 20.9584 25.2996 21.1859 25.5271C21.4134 25.7546 21.4133 26.1235 21.1859 26.351L19.4082 28.1286C19.2943 28.2423 19.1453 28.2992 18.9962 28.2992Z" fill="#00C2FB"/>
</g>
<defs>
<clipPath id="clip0_1577_13582">
<rect width="28" height="23" fill="white" transform="translate(5 7.49902)"/>
</clipPath>
</defs>
</svg>
