<svg width="28" height="28" viewBox="0 0 28 28" fill="none" xmlns="http://www.w3.org/2000/svg">
<g clip-path="url(#clip0_1568_15793)">
<path d="M16.7311 23.1904H11.2691C11.2691 23.1904 11.2179 26.4038 10.8091 27.5776H17.1911C16.7822 26.4038 16.7311 23.1904 16.7311 23.1904Z" fill="#C5D3DD"/>
<path d="M16.7713 24.3195H11.229C11.2617 23.6669 11.269 23.1914 11.269 23.1914H16.7312C16.7312 23.1914 16.7386 23.6669 16.7713 24.3195Z" fill="#B6C4CF"/>
<path d="M0 19.6877V5.16471C0 4.37584 0.639516 3.73633 1.42838 3.73633H26.5715C27.3604 3.73633 27.9999 4.37584 27.9999 5.16471V19.6877H0Z" fill="#596C76"/>
<path d="M0 20.331V5.16471C0 4.37584 0.639516 3.73633 1.42838 3.73633H26.5715C27.3604 3.73633 27.9999 4.37584 27.9999 5.16471V20.331H0L0 20.331Z" fill="#596C76"/>
<path d="M28.0002 5.16449V19.688H26.8721V5.16449C26.8721 4.37595 26.2324 3.73633 25.4434 3.73633H26.5715C27.3605 3.73633 28.0002 4.37595 28.0002 5.16449Z" fill="#465A61"/>
<path d="M26.2362 20.3309H1.76367V6.3014C1.76367 5.95643 2.04334 5.67676 2.38831 5.67676H25.6116C25.9566 5.67676 26.2363 5.95643 26.2363 6.3014V20.3309H26.2362Z" fill="#8AC9FE"/>
<path d="M26.2363 6.30173V19.688H25.1083V6.30173C25.1083 5.95654 24.8285 5.67676 24.4839 5.67676H25.612C25.9566 5.67676 26.2363 5.95654 26.2363 6.30173Z" fill="#528FD8"/>
<path d="M26.5715 23.3181H1.42838C0.639516 23.3181 0 22.6786 0 21.8898V19.6875H27.9999V21.8898C27.9999 22.6786 27.3604 23.3181 26.5715 23.3181Z" fill="#D9E7EC"/>
<path d="M27.9997 19.6875V21.8895C27.9997 22.6786 27.3601 23.3183 26.571 23.3183H25.4429C26.2314 23.3183 26.871 22.6786 26.871 21.8895V19.6875H27.9997Z" fill="#C5D3DD"/>
<path d="M14.963 21.926H13.0372C12.8039 21.926 12.6147 21.7368 12.6147 21.5035C12.6147 21.2702 12.8039 21.0811 13.0372 21.0811H14.963C15.1963 21.0811 15.3854 21.2702 15.3854 21.5035C15.3854 21.7368 15.1963 21.926 14.963 21.926Z" fill="#B6C4CF"/>
<path d="M18.9756 28.0002H9.02451C8.79122 28.0002 8.60205 27.811 8.60205 27.5777C8.60205 27.3444 8.79122 27.1553 9.02451 27.1553H18.9756C19.2089 27.1553 19.398 27.3444 19.398 27.5777C19.398 27.811 19.2089 28.0002 18.9756 28.0002Z" fill="#B6C4CF"/>
<path d="M12.2495 6.67384V5.34767C12.2495 5.19323 12.3747 5.068 12.5292 5.068H13.4513C13.5804 5.068 13.6912 4.97935 13.723 4.85428C13.8348 4.41465 14.0089 3.9999 14.2352 3.61982C14.3011 3.5093 14.2848 3.36859 14.1939 3.27759L13.5412 2.62484C13.432 2.51562 13.432 2.33855 13.5412 2.22934L14.4789 1.29155C14.5881 1.18234 14.7652 1.18234 14.8745 1.29155L15.5272 1.94425C15.6182 2.03525 15.7588 2.05144 15.8694 1.98559C16.2494 1.7593 16.6642 1.58517 17.1038 1.47339C17.2289 1.44162 17.3176 1.33071 17.3176 1.2017V0.279672C17.3176 0.125234 17.4428 0 17.5972 0H18.9234C19.0778 0 19.2031 0.125234 19.2031 0.279672V1.20181C19.2031 1.33087 19.2917 1.44173 19.4168 1.4735C19.8564 1.58528 20.2712 1.75941 20.6513 1.9857C20.7618 2.05155 20.9025 2.0353 20.9935 1.94436L21.6462 1.29166C21.7554 1.18245 21.9325 1.18245 22.0417 1.29166L22.9794 2.22939C23.0886 2.3386 23.0886 2.51568 22.9794 2.62489L22.3267 3.27759C22.2357 3.36859 22.2195 3.50924 22.2853 3.61982C22.5116 3.99984 22.6857 4.41459 22.7975 4.85428C22.8293 4.97935 22.9402 5.068 23.0692 5.068H23.9914C24.1458 5.068 24.271 5.19323 24.271 5.34767V6.67384C24.271 6.82828 24.1458 6.95352 23.9914 6.95352H23.0692C22.9402 6.95352 22.8293 7.04216 22.7975 7.16723C22.6857 7.60687 22.5116 8.02162 22.2853 8.4017C22.2195 8.51222 22.2357 8.65293 22.3267 8.74393L22.9794 9.39663C23.0886 9.50584 23.0886 9.68291 22.9794 9.79212L22.0416 10.7299C21.9324 10.8391 21.7553 10.8391 21.6461 10.7299L20.9934 10.0772C20.9024 9.98621 20.7617 9.97002 20.6512 10.0359C20.2711 10.2622 19.8564 10.4363 19.4167 10.5481C19.2916 10.5798 19.203 10.6908 19.203 10.8198V11.7419C19.203 11.8963 19.0777 12.0216 18.9233 12.0216H17.5971C17.4427 12.0216 17.3175 11.8963 17.3175 11.7419V10.8197C17.3175 10.6907 17.2288 10.5798 17.1037 10.548C16.6641 10.4362 16.2494 10.2621 15.8693 10.0358C15.7588 9.96997 15.618 9.98621 15.527 10.0772L14.8743 10.7299C14.7651 10.8391 14.5881 10.8391 14.4788 10.7299L13.5411 9.79207C13.4319 9.68286 13.4319 9.50578 13.5411 9.39657L14.1938 8.74382C14.2848 8.65288 14.3009 8.51216 14.2351 8.40159C14.0088 8.02156 13.8347 7.60681 13.7229 7.16712C13.6911 7.04205 13.5802 6.95341 13.4512 6.95341H12.5291C12.3747 6.95352 12.2495 6.82828 12.2495 6.67384Z" fill="#8D9CA8"/>
<path d="M19.8568 1.60934C19.8347 1.70395 19.6912 1.9571 19.6355 2.02595C19.5499 2.13177 19.4074 2.17306 19.277 2.13402C18.7825 1.98598 18.7098 1.90192 18.4899 1.79895C18.3816 1.74825 18.3081 1.64423 18.3081 1.52458V0H18.9232C19.0781 0 19.2028 0.125344 19.2028 0.279617V1.20209C19.2028 1.33077 19.292 1.44216 19.4167 1.47394C19.5666 1.51189 19.7136 1.55701 19.8568 1.60934Z" fill="#7A8C98"/>
<path d="M20.3346 10.2085C20.117 10.3042 19.7205 10.4639 19.4662 10.5355C19.4498 10.5405 19.4334 10.5443 19.417 10.5487C19.3464 10.5667 19.2879 10.6094 19.2496 10.6668C19.2371 10.6854 19.2267 10.7062 19.219 10.728C19.2135 10.7423 19.2097 10.7576 19.207 10.7729C19.2042 10.7882 19.2031 10.8046 19.2031 10.8205V11.7425C19.2031 11.894 19.0828 12.0176 18.933 12.0219H18.1685C18.2281 11.9694 18.2653 11.8918 18.2653 11.8059V10.4191C18.2653 10.2845 18.3582 10.1686 18.4884 10.1358C18.9483 10.0187 19.3792 9.88147 19.7763 9.64577C19.8917 9.57632 20.0388 9.59382 20.1339 9.68843L20.3346 10.2085Z" fill="#7A8C98"/>
<path d="M22.327 3.2777C22.2363 3.36908 22.2195 3.50941 22.2858 3.62026C22.5081 3.9935 22.6796 4.4007 22.7916 4.83241H22.0775C21.9427 4.83241 21.8268 4.73993 21.7934 4.60961C21.6764 4.15007 21.4948 3.71667 21.2581 3.31948C21.1895 3.2042 21.2063 3.05709 21.3015 2.96187L21.7612 2.50223C21.8754 2.38804 21.8754 2.20309 21.7612 2.0889L21.305 1.63324L21.6463 1.29183C21.7556 1.18267 21.9327 1.18267 22.0418 1.29183L22.9799 2.22988C23.0891 2.33904 23.0891 2.51562 22.9799 2.62538L22.327 3.2777Z" fill="#7A8C98"/>
<path d="M24.271 5.34803V6.67437C24.271 6.8287 24.1462 6.95398 23.9913 6.95398H23.0694C22.9402 6.95398 22.8293 7.04258 22.7976 7.16787C22.6856 7.60739 22.5118 8.02236 22.2856 8.40227C22.2194 8.51258 22.236 8.65351 22.3269 8.74429L22.9797 9.39715C23.0889 9.5063 23.0889 9.68349 22.9797 9.79265L22.0417 10.7302C21.9325 10.8394 21.7553 10.8394 21.6462 10.7302L21.2162 10.3003L21.7712 9.76722C21.8854 9.65303 21.8854 9.46808 21.7712 9.35389L21.1902 8.78957C21.0949 8.6943 21.0782 8.54725 21.1467 8.43197C21.3835 8.03477 21.8798 6.87966 21.9969 6.42067C22.0303 6.28975 22.1462 6.19727 22.281 6.19727H23.0113C23.1729 6.19727 23.3274 6.06635 23.3274 5.90481V5.06836H23.9914C24.1462 5.06836 24.271 5.1937 24.271 5.34803Z" fill="#7A8C98"/>
<path d="M18.2604 8.78061C19.7898 8.78061 21.0296 7.54079 21.0296 6.0114C21.0296 4.48201 19.7898 3.24219 18.2604 3.24219C16.731 3.24219 15.4912 4.48201 15.4912 6.0114C15.4912 7.54079 16.731 8.78061 18.2604 8.78061Z" fill="#596C76"/>
<path d="M21.0294 6.01082C21.0294 7.54043 19.7896 8.7802 18.26 8.7802C17.606 8.7802 17.0044 8.55324 16.5303 8.17371C16.7988 8.26012 17.0848 8.30715 17.3818 8.30715C18.9108 8.30715 20.1506 7.06738 20.1506 5.53777C20.1506 4.66332 19.7454 3.88348 19.1126 3.37598C20.225 3.73527 21.0294 4.77926 21.0294 6.01082Z" fill="#465A61"/>
<path d="M18.2602 7.25477C18.947 7.25477 19.5038 6.69799 19.5038 6.01117C19.5038 5.32435 18.947 4.76758 18.2602 4.76758C17.5734 4.76758 17.0166 5.32435 17.0166 6.01117C17.0166 6.69799 17.5734 7.25477 18.2602 7.25477Z" fill="#D9E7EC"/>
<path d="M19.5039 6.01086C19.5039 6.69773 18.9472 7.255 18.2603 7.255C17.7626 7.255 17.3328 6.96242 17.1343 6.53969C17.2601 6.58289 17.3957 6.60641 17.5362 6.60641C18.2231 6.60641 18.7804 6.04969 18.7804 5.36281C18.7804 5.17359 18.7383 4.99422 18.6622 4.83398C19.1517 5.00078 19.5039 5.46508 19.5039 6.01086Z" fill="#C5D3DD"/>
<path d="M3.72949 13.4744V12.4588C3.72949 12.3405 3.82536 12.2446 3.9437 12.2446H4.64988C4.7487 12.2446 4.83363 12.1767 4.85797 12.0809C4.94355 11.7442 5.07688 11.4266 5.25024 11.1356C5.30066 11.0509 5.28825 10.9432 5.21858 10.8735L4.71873 10.3736C4.63506 10.2899 4.63506 10.1544 4.71873 10.0707L5.43689 9.35252C5.52056 9.26885 5.65613 9.26885 5.7398 9.35252L6.23965 9.85237C6.30932 9.92204 6.41705 9.93445 6.50171 9.88403C6.79276 9.71073 7.11038 9.5774 7.44709 9.49176C7.54285 9.46742 7.61077 9.38249 7.61077 9.28367V8.57749C7.61077 8.4592 7.70664 8.36328 7.82498 8.36328H8.84059C8.95887 8.36328 9.0548 8.45915 9.0548 8.57749V9.28367C9.0548 9.38249 9.12266 9.46742 9.21848 9.49176C9.55519 9.57734 9.87281 9.71067 10.1639 9.88403C10.2485 9.93445 10.3563 9.92204 10.4259 9.85237L10.9258 9.35252C11.0094 9.26885 11.145 9.26885 11.2287 9.35252L11.9468 10.0707C12.0305 10.1544 12.0305 10.2899 11.9468 10.3736L11.447 10.8735C11.3773 10.9432 11.3649 11.0509 11.4153 11.1356C11.5886 11.4266 11.722 11.7442 11.8076 12.0809C11.8319 12.1767 11.9169 12.2446 12.0157 12.2446H12.7219C12.8402 12.2446 12.9361 12.3405 12.9361 12.4588V13.4744C12.9361 13.5927 12.8402 13.6886 12.7219 13.6886H12.0157C11.9169 13.6886 11.8319 13.7565 11.8076 13.8523C11.722 14.189 11.5887 14.5067 11.4153 14.7977C11.3649 14.8824 11.3773 14.9901 11.447 15.0598L11.9468 15.5596C12.0305 15.6433 12.0305 15.7789 11.9468 15.8625L11.2287 16.5807C11.145 16.6644 11.0094 16.6644 10.9258 16.5807L10.4259 16.0808C10.3563 16.0112 10.2485 15.9987 10.1639 16.0492C9.87281 16.2225 9.55519 16.3558 9.21848 16.4414C9.12272 16.4658 9.0548 16.5507 9.0548 16.6495V17.3557C9.0548 17.474 8.95887 17.5699 8.84059 17.5699H7.82498C7.70669 17.5699 7.61077 17.4741 7.61077 17.3557V16.6495C7.61077 16.5507 7.54291 16.4658 7.44709 16.4414C7.11038 16.3559 6.79276 16.2225 6.50171 16.0492C6.41705 15.9987 6.30932 16.0112 6.23965 16.0808L5.7398 16.5807C5.65613 16.6644 5.52056 16.6644 5.43689 16.5807L4.71873 15.8625C4.63506 15.7789 4.63506 15.6433 4.71873 15.5596L5.21858 15.0597C5.28825 14.99 5.30066 14.8823 5.25024 14.7976C5.07694 14.5066 4.94361 14.189 4.85797 13.8523C4.83363 13.7565 4.7487 13.6886 4.64988 13.6886H3.94365C3.82536 13.6886 3.72949 13.5927 3.72949 13.4744Z" fill="#8D9CA8"/>
<path d="M9.21837 9.49148C9.39938 9.53742 9.57493 9.59758 9.74337 9.66977L9.53315 10.1663C9.46369 10.2363 9.35864 10.2435 9.2712 10.198C8.91365 10.0121 8.83052 10.0043 8.46133 9.83148C8.3718 9.78959 8.29781 9.7221 8.29781 9.62366V8.57711C8.29781 8.45898 8.20211 8.36328 8.08398 8.36328H8.84053C8.9592 8.36328 9.05491 8.45898 9.05491 8.57711V9.28367C9.05485 9.38211 9.12266 9.46688 9.21837 9.49148Z" fill="#7A8C98"/>
<path d="M11.1699 12.0802C11.0374 12.0802 10.9223 11.9932 10.8816 11.8671C10.7984 11.6092 10.6869 11.3639 10.551 11.1352C10.5002 11.0504 10.5128 10.9427 10.5822 10.8727L11.0821 10.3728C11.1657 10.2892 11.1657 10.1535 11.0821 10.0704L10.6446 9.63291L10.9256 9.35182C11.0093 9.26814 11.1449 9.26814 11.2286 9.35182L11.9467 10.0704C12.0303 10.1535 12.0303 10.2892 11.9467 10.3728L11.4468 10.8727C11.3774 10.9427 11.3648 11.0504 11.4151 11.1352C11.5885 11.4261 11.7219 11.7438 11.8078 12.0802H11.1699Z" fill="#7A8C98"/>
<path d="M11.9275 13.707C11.869 13.7338 11.8242 13.7863 11.8078 13.852C11.7219 14.1888 11.5885 14.5066 11.4151 14.7975C11.3648 14.8823 11.3774 14.99 11.4468 15.0595L11.9467 15.5593C12.0303 15.643 12.0303 15.7786 11.9467 15.8623L11.2286 16.5803C11.1449 16.664 11.0093 16.664 10.9256 16.5803L10.6451 16.2998L11.0821 15.8623C11.1657 15.7786 11.1657 15.643 11.0821 15.5593L10.5822 15.0595C10.5128 14.99 10.5002 14.8823 10.551 14.7975C10.7238 14.5066 10.8573 14.1888 10.9431 13.852C10.9482 13.832 10.9558 13.8101 10.9657 13.7891C10.9896 13.7381 11.0425 13.707 11.0988 13.707H11.9275Z" fill="#7A8C98"/>
<path d="M12.9357 12.458V13.4735C12.9357 13.5922 12.84 13.6879 12.7213 13.6879H12.0153C12.0033 13.6879 11.9912 13.689 11.9792 13.6912C11.9792 13.6912 12.0711 13.6182 12.0711 13.4735V12.458C12.0711 12.3748 12.0235 12.2797 11.9546 12.2447C11.9546 12.2447 12.0054 12.2441 12.0153 12.2441H12.7213C12.84 12.2441 12.9357 12.3398 12.9357 12.458Z" fill="#7A8C98"/>
<path d="M8.33265 14.7259C9.30462 14.7259 10.0926 13.9379 10.0926 12.966C10.0926 11.994 9.30462 11.2061 8.33265 11.2061C7.36069 11.2061 6.57275 11.994 6.57275 12.966C6.57275 13.9379 7.36069 14.7259 8.33265 14.7259Z" fill="#D9E7EC"/>
<path d="M10.0928 12.9663C10.0928 13.9381 9.30477 14.7262 8.33297 14.7262C7.74344 14.7262 7.22172 14.4363 6.90234 13.9917C7.12055 14.0885 7.36227 14.1427 7.61656 14.1427C8.58891 14.1427 9.37641 13.3546 9.37641 12.3828C9.37641 12 9.25445 11.6462 9.04719 11.3574C9.66297 11.6314 10.0928 12.2488 10.0928 12.9663Z" fill="#C5D3DD"/>
<path d="M9.51266 15.7527L9.74224 16.2625C9.5738 16.3352 9.39825 16.3954 9.21724 16.4413C9.12154 16.4654 9.05372 16.5501 9.05372 16.6491V17.3551C9.05372 17.4738 8.95802 17.5695 8.83935 17.5695H8.14307C8.26119 17.5695 8.35689 17.4738 8.35689 17.3551V16.2275C8.35689 16.1285 8.42471 16.0437 8.52041 16.0197C8.85729 15.9338 8.95977 15.8944 9.25071 15.721C9.33547 15.6707 9.44321 15.6833 9.51266 15.7527Z" fill="#7A8C98"/>
</g>
<defs>
<clipPath id="clip0_1568_15793">
<rect width="28" height="28" fill="white"/>
</clipPath>
</defs>
</svg>
