<svg width="38" height="38" viewBox="0 0 38 38" fill="none" xmlns="http://www.w3.org/2000/svg">
<rect y="-0.000976562" width="38" height="38" rx="19" fill="white"/>
<g clip-path="url(#clip0_1568_15631)">
<path d="M13.1519 30.1049H7.4829C7.21619 30.1049 7 29.8887 7 29.622V8.37548C7 8.10877 7.21619 7.89258 7.4829 7.89258H13.1519C13.4186 7.89258 13.6348 8.10877 13.6348 8.37548V29.622C13.6348 29.8887 13.4186 30.1049 13.1519 30.1049Z" fill="#FD8087"/>
<path d="M13.6347 7.89258H12.186C12.4527 7.89258 12.6689 8.10877 12.6689 8.37548V29.622C12.6689 29.8887 12.4527 30.1049 12.186 30.1049H13.6347C13.9014 30.1049 14.1176 29.8887 14.1176 29.622V8.37548C14.1176 8.10877 13.9014 7.89258 13.6347 7.89258Z" fill="#FE646F"/>
<path d="M11.5054 19.0751H9.12987C8.86317 19.0751 8.64697 18.859 8.64697 18.5922V10.352C8.64697 10.0853 8.86317 9.86914 9.12987 9.86914H11.5054C11.7721 9.86914 11.9883 10.0853 11.9883 10.352V18.5922C11.9883 18.859 11.7721 19.0751 11.5054 19.0751Z" fill="#EFEDEF"/>
<path d="M11.9883 9.86914H11.0225C11.2892 9.86914 11.5054 10.0853 11.5054 10.352V18.5922C11.5054 18.859 11.2892 19.0751 11.0225 19.0751H11.9883C12.255 19.0751 12.4712 18.859 12.4712 18.5922V10.352C12.4712 10.0853 12.255 9.86914 11.9883 9.86914Z" fill="#D7D0D6"/>
<path d="M8.647 13.2025C8.50078 13.2025 8.3631 13.1133 8.30825 12.9685C8.23741 12.7814 8.33157 12.5724 8.51865 12.5015L12.3429 11.0528C12.53 10.9821 12.739 11.0762 12.8099 11.2632C12.8807 11.4503 12.7865 11.6594 12.5995 11.7302L8.77521 13.1789C8.733 13.1949 8.68964 13.2025 8.647 13.2025Z" fill="#B5ADB6"/>
<path d="M8.647 15.5589C8.50078 15.5589 8.3631 15.4698 8.30825 15.325C8.23741 15.1379 8.33157 14.9289 8.51865 14.858L12.3429 13.4093C12.53 13.3385 12.739 13.4326 12.8099 13.6197C12.8807 13.8068 12.7865 14.0158 12.5995 14.0867L8.77521 15.5354C8.733 15.5514 8.68964 15.5589 8.647 15.5589Z" fill="#B5ADB6"/>
<path d="M8.647 17.9144C8.50078 17.9144 8.3631 17.8252 8.30825 17.6804C8.23741 17.4933 8.33157 17.2843 8.51865 17.2135L12.3429 15.7648C12.53 15.694 12.739 15.7881 12.8099 15.9752C12.8807 16.1622 12.7865 16.3713 12.5995 16.4421L8.77521 17.8908C8.733 17.9068 8.68964 17.9144 8.647 17.9144Z" fill="#B5ADB6"/>
<path d="M21.5928 30.1049H15.9238C15.6571 30.1049 15.4409 29.8887 15.4409 29.622V8.37548C15.4409 8.10877 15.6571 7.89258 15.9238 7.89258H21.5928C21.8595 7.89258 22.0757 8.10877 22.0757 8.37548V29.622C22.0757 29.8887 21.8595 30.1049 21.5928 30.1049Z" fill="#8AC9FE"/>
<path d="M22.0761 7.89258H20.6274C20.8941 7.89258 21.1103 8.10877 21.1103 8.37548V29.622C21.1103 29.8887 20.8941 30.1049 20.6274 30.1049H22.0761C22.3428 30.1049 22.559 29.8887 22.559 29.622V8.37548C22.559 8.10877 22.3428 7.89258 22.0761 7.89258Z" fill="#60B7FF"/>
<path d="M30.0342 30.1049H24.3652C24.0985 30.1049 23.8823 29.8887 23.8823 29.622V8.37548C23.8823 8.10877 24.0985 7.89258 24.3652 7.89258H30.0342C30.3009 7.89258 30.5171 8.10877 30.5171 8.37548V29.622C30.5171 29.8887 30.3009 30.1049 30.0342 30.1049Z" fill="#FED402"/>
<path d="M30.5171 7.89258H29.0684C29.3351 7.89258 29.5513 8.10877 29.5513 8.37548V29.622C29.5513 29.8887 29.3351 30.1049 29.0684 30.1049H30.5171C30.7838 30.1049 30.9999 29.8887 30.9999 29.622V8.37548C30.9999 8.10877 30.7838 7.89258 30.5171 7.89258Z" fill="#FAC600"/>
<path d="M28.3873 19.0751H26.0117C25.745 19.0751 25.5288 18.859 25.5288 18.5922V10.352C25.5288 10.0853 25.745 9.86914 26.0117 9.86914H28.3873C28.654 9.86914 28.8702 10.0853 28.8702 10.352V18.5922C28.8702 18.859 28.654 19.0751 28.3873 19.0751Z" fill="#EFEDEF"/>
<path d="M11.6827 25.9654C11.6827 26.8529 11.4462 27.5724 10.5586 27.5724C9.67113 27.5724 8.95166 26.8529 8.95166 25.9654C8.95166 25.0779 9.67113 24.3584 10.5586 24.3584C11.4462 24.3584 11.6827 25.0779 11.6827 25.9654Z" fill="#EFEDEF"/>
<path d="M20.1241 25.9654C20.1241 26.8529 19.8876 27.5724 19.0001 27.5724C18.1125 27.5724 17.3931 26.8529 17.3931 25.9654C17.3931 25.0779 18.1125 24.3584 19.0001 24.3584C19.8876 24.3584 20.1241 25.0779 20.1241 25.9654Z" fill="#EFEDEF"/>
<path d="M19.9464 19.0751H17.5708C17.3041 19.0751 17.0879 18.859 17.0879 18.5922V10.352C17.0879 10.0853 17.3041 9.86914 17.5708 9.86914H19.9464C20.2131 9.86914 20.4293 10.0853 20.4293 10.352V18.5922C20.4293 18.859 20.2131 19.0751 19.9464 19.0751Z" fill="#EFEDEF"/>
<path d="M28.8706 9.86914H27.9048C28.1715 9.86914 28.3877 10.0853 28.3877 10.352V18.5922C28.3877 18.859 28.1715 19.0751 27.9048 19.0751H28.8706C29.1373 19.0751 29.3535 18.859 29.3535 18.5922V10.352C29.3535 10.0853 29.1373 9.86914 28.8706 9.86914Z" fill="#D7D0D6"/>
<path d="M20.4292 9.86914H19.4634C19.7301 9.86914 19.9463 10.0853 19.9463 10.352V18.5922C19.9463 18.859 19.7301 19.0751 19.4634 19.0751H20.4292C20.6959 19.0751 20.9121 18.859 20.9121 18.5922V10.352C20.9121 10.0853 20.6959 9.86914 20.4292 9.86914Z" fill="#D7D0D6"/>
<path d="M28.5651 25.9644C28.5651 26.8519 28.3285 27.5714 27.441 27.5714C26.5535 27.5714 25.834 26.8519 25.834 25.9644C25.834 25.0769 26.5535 24.3574 27.441 24.3574C28.3285 24.3574 28.5651 25.0769 28.5651 25.9644Z" fill="#EFEDEF"/>
<path d="M27.4409 24.3574C27.2726 24.3574 27.1105 24.3834 26.958 24.4314C27.6095 24.6364 28.0821 25.2451 28.0821 25.9644C28.0821 26.6836 27.6095 27.2924 26.958 27.4974C27.1105 27.5454 27.2726 27.5713 27.4409 27.5713C28.3284 27.5713 29.0479 26.8519 29.0479 25.9644C29.0479 25.0769 28.3284 24.3574 27.4409 24.3574Z" fill="#D7D0D6"/>
<path d="M19 24.3574C18.8317 24.3574 18.6695 24.3834 18.5171 24.4314C19.1686 24.6364 19.6412 25.2451 19.6412 25.9644C19.6412 26.6836 19.1686 27.2924 18.5171 27.4974C18.6695 27.5454 18.8317 27.5713 19 27.5713C19.8875 27.5713 20.607 26.8519 20.607 25.9644C20.607 25.0769 19.8875 24.3574 19 24.3574Z" fill="#D7D0D6"/>
<path d="M10.5591 24.3574C10.3908 24.3574 10.2286 24.3834 10.0762 24.4314C10.7277 24.6364 11.2003 25.2451 11.2003 25.9644C11.2003 26.6836 10.7277 27.2924 10.0762 27.4974C10.2286 27.5454 10.3908 27.5713 10.5591 27.5713C11.4466 27.5713 12.1661 26.8519 12.1661 25.9644C12.166 25.0769 11.4465 24.3574 10.5591 24.3574Z" fill="#D7D0D6"/>
<path d="M17.0879 13.2025C16.9417 13.2025 16.804 13.1133 16.7492 12.9685C16.6783 12.7814 16.7725 12.5724 16.9596 12.5015L20.7838 11.0528C20.9709 10.9821 21.1799 11.0762 21.2508 11.2632C21.3216 11.4503 21.2275 11.6594 21.0404 11.7302L17.2161 13.1789C17.1739 13.1949 17.1306 13.2025 17.0879 13.2025Z" fill="#B5ADB6"/>
<path d="M17.0879 15.5589C16.9417 15.5589 16.804 15.4698 16.7492 15.325C16.6783 15.1379 16.7725 14.9289 16.9596 14.858L20.7838 13.4093C20.9709 13.3385 21.1799 13.4326 21.2508 13.6197C21.3216 13.8068 21.2275 14.0158 21.0404 14.0867L17.2161 15.5354C17.1739 15.5514 17.1306 15.5589 17.0879 15.5589Z" fill="#B5ADB6"/>
<path d="M17.0879 17.9144C16.9417 17.9144 16.804 17.8252 16.7492 17.6804C16.6783 17.4933 16.7725 17.2843 16.9596 17.2135L20.7838 15.7648C20.9709 15.694 21.1799 15.7881 21.2508 15.9752C21.3216 16.1622 21.2275 16.3713 21.0404 16.4421L17.2161 17.8908C17.1739 17.9068 17.1306 17.9144 17.0879 17.9144Z" fill="#B5ADB6"/>
<path d="M25.5288 13.2025C25.3826 13.2025 25.2449 13.1133 25.1901 12.9685C25.1192 12.7814 25.2134 12.5724 25.4005 12.5015L29.2247 11.0528C29.4118 10.9821 29.6209 11.0762 29.6917 11.2632C29.7626 11.4503 29.6684 11.6594 29.4813 11.7302L25.6571 13.1789C25.6148 13.1949 25.5715 13.2025 25.5288 13.2025Z" fill="#B5ADB6"/>
<path d="M25.5288 15.5589C25.3826 15.5589 25.2449 15.4698 25.1901 15.325C25.1192 15.1379 25.2134 14.9289 25.4005 14.858L29.2247 13.4093C29.4118 13.3385 29.6209 13.4326 29.6917 13.6197C29.7626 13.8068 29.6684 14.0158 29.4813 14.0867L25.6571 15.5354C25.6148 15.5514 25.5715 15.5589 25.5288 15.5589Z" fill="#B5ADB6"/>
<path d="M25.5288 17.9144C25.3826 17.9144 25.2449 17.8252 25.1901 17.6804C25.1192 17.4933 25.2134 17.2843 25.4005 17.2135L29.2247 15.7648C29.4118 15.694 29.6209 15.7881 29.6917 15.9752C29.7626 16.1622 29.6684 16.3713 29.4813 16.4421L25.6571 17.8908C25.6148 17.9068 25.5715 17.9144 25.5288 17.9144Z" fill="#B5ADB6"/>
</g>
<defs>
<clipPath id="clip0_1568_15631">
<rect width="24" height="24" fill="white" transform="translate(7 6.99902)"/>
</clipPath>
</defs>
</svg>
