<svg width="33" height="32" viewBox="0 0 33 32" fill="none" xmlns="http://www.w3.org/2000/svg">
<path fill-rule="evenodd" clip-rule="evenodd" d="M6.99703 20.8408C9.5726 20.8408 11.6606 22.8911 11.6606 25.4201C11.6606 26.8833 10.9616 28.1863 9.87362 29.0246L4.12041 29.0246C3.03244 28.1862 2.3335 26.8833 2.3335 25.4201C2.3335 22.8911 4.42146 20.8408 6.99703 20.8408Z" fill="#00B8FF"/>
<path d="M6.99684 25.9145C7.89283 25.9145 8.61917 25.2013 8.61917 24.3215C8.61917 23.4417 7.89283 22.7285 6.99684 22.7285C6.10085 22.7285 5.37451 23.4417 5.37451 24.3215C5.37451 25.2013 6.10085 25.9145 6.99684 25.9145Z" fill="#FFD180"/>
<path fill-rule="evenodd" clip-rule="evenodd" d="M4.12061 29.024C4.91302 29.6346 5.91183 29.9988 6.99722 29.9988C8.08262 29.9988 9.0814 29.6346 9.87382 29.024V27.8616C9.87382 27.1289 9.26327 26.5293 8.51697 26.5293H5.47749C4.73118 26.5293 4.12061 27.1289 4.12061 27.8616V29.024Z" fill="#FDB4BA"/>
<path fill-rule="evenodd" clip-rule="evenodd" d="M11.1616 9.99805H20.3295V22.001H11.1616V9.99805Z" fill="#00A9D7"/>
<path fill-rule="evenodd" clip-rule="evenodd" d="M13.8776 13.5585C13.8936 13.5585 13.9095 13.5589 13.9253 13.5598C14.0205 13.071 14.5275 12.7758 15.0068 12.9177C15.0817 12.3984 15.5361 11.999 16.0857 11.999C16.6227 11.999 17.0689 12.3804 17.1589 12.8824C17.6164 12.8906 17.9856 13.2533 17.9937 13.7026C18.2187 13.8529 18.3666 14.1064 18.3666 14.3939C18.3666 14.8553 17.9857 15.2293 17.5158 15.2293C16.5418 15.2293 15.0359 15.2293 13.8776 15.2293C13.4078 15.2293 13.0269 14.8553 13.0269 14.3939C13.0269 13.9325 13.4078 13.5585 13.8776 13.5585Z" fill="white"/>
<path d="M12.4985 16.5293C12.3227 16.5293 12.1802 16.6693 12.1802 16.8419C12.1802 17.0145 12.3227 17.1545 12.4985 17.1545H18.8944C19.0702 17.1545 19.2127 17.0145 19.2127 16.8419C19.2127 16.6693 19.0702 16.5293 18.8944 16.5293H12.4985Z" fill="white"/>
<path d="M12.4985 18.1719C12.3227 18.1719 12.1802 18.3118 12.1802 18.4845C12.1802 18.6571 12.3227 18.7971 12.4985 18.7971H18.8944C19.0702 18.7971 19.2127 18.6571 19.2127 18.4845C19.2127 18.3118 19.0702 18.1719 18.8944 18.1719H12.4985Z" fill="white"/>
<path d="M12.4985 19.8125C12.3227 19.8125 12.1802 19.9525 12.1802 20.1251C12.1802 20.2977 12.3227 20.4377 12.4985 20.4377H18.8944C19.0702 20.4377 19.2127 20.2977 19.2127 20.1251C19.2127 19.9525 19.0702 19.8125 18.8944 19.8125H12.4985Z" fill="white"/>
<path fill-rule="evenodd" clip-rule="evenodd" d="M26.9652 14.2666L25.884 16.1055L24.8028 17.9443H26.1466C25.7587 20 24.7397 21.8382 23.2942 23.2576C21.6001 24.9211 19.3203 26.0095 16.7845 26.1992C15.6388 26.2848 15.7834 27.9697 16.9151 27.8853C19.8742 27.6645 22.5347 26.3944 24.5118 24.4531C26.2706 22.726 27.4882 20.4677 27.8939 17.9443H29.1276L28.0463 16.1055L26.9652 14.2666Z" fill="#00A9D7"/>
<path fill-rule="evenodd" clip-rule="evenodd" d="M25.6699 2C28.2454 2 30.3334 4.05023 30.3334 6.57926C30.3334 8.04251 29.6344 9.34547 28.5465 10.1838L22.7933 10.1837C21.7053 9.34542 21.0063 8.04251 21.0063 6.57926C21.0063 4.05023 23.0943 2 25.6699 2Z" fill="#6EDFF6"/>
<path d="M25.6702 7.07372C26.5662 7.07372 27.2925 6.36051 27.2925 5.48071C27.2925 4.60091 26.5662 3.8877 25.6702 3.8877C24.7742 3.8877 24.0479 4.60091 24.0479 5.48071C24.0479 6.36051 24.7742 7.07372 25.6702 7.07372Z" fill="#FFD180"/>
<path fill-rule="evenodd" clip-rule="evenodd" d="M22.7935 10.1832C23.5859 10.7938 24.5847 11.1579 25.6701 11.1579C26.7555 11.1579 27.7543 10.7938 28.5467 10.1832V9.02083C28.5467 8.28805 27.9361 7.68848 27.1898 7.68848H24.1503C23.404 7.68848 22.7935 8.28803 22.7935 9.02083V10.1832Z" fill="#FFE600"/>
<path fill-rule="evenodd" clip-rule="evenodd" d="M5.70145 17.7321L6.78265 15.8933L7.86386 14.0544H6.51999C6.90793 11.9987 7.92687 10.1605 9.37238 8.74114C11.0665 7.07765 13.3463 5.98918 15.8821 5.79956C17.0278 5.71389 16.8832 4.02899 15.7515 4.11342C12.7924 4.33423 10.1319 5.60432 8.15484 7.54561C6.39598 9.27269 5.17839 11.5311 4.77269 14.0544H3.53906L4.62027 15.8933L5.70145 17.7321Z" fill="#00A9D7"/>
</svg>
