<svg width="40" height="41" viewBox="0 0 40 41" fill="none" xmlns="http://www.w3.org/2000/svg">
<g clip-path="url(#clip0_1569_9276)">
<path d="M32.0994 33.5247H29.0225L10.5605 35.608C10.2878 35.608 10.0263 35.4977 9.83389 35.3015C9.51949 34.981 9.53529 34.6465 9.53529 34.358L12.6122 6.44133V3.31632C12.6122 2.74105 13.0714 2.27466 13.6379 2.27466H25.9456C26.2177 2.27466 26.4785 2.38445 26.6708 2.5798L29.9411 5.90119L32.8246 8.82973C33.017 9.02514 33.125 9.29001 33.125 9.56633V32.483C33.125 33.0583 32.6658 33.5247 32.0994 33.5247Z" fill="url(#paint0_linear_1569_9276)"/>
<path d="M28.7222 12.9965L22.5684 6.74654C22.3761 6.5512 22.1152 6.44141 21.8432 6.44141H7.48414C6.91771 6.44141 6.4585 6.9078 6.4585 7.48307V36.7886C6.4585 37.3639 6.91771 37.8303 7.48414 37.8303H27.997C28.5634 37.8303 29.0226 37.3639 29.0226 36.7886V13.7331C29.0226 13.4568 28.9146 13.1919 28.7222 12.9965ZM12.9129 17.163L14.9641 15.0798C15.3645 14.673 16.014 14.673 16.4145 15.0798C16.8151 15.4866 16.8151 16.1461 16.4145 16.5529L16.1141 16.8581H21.8431C22.4095 16.8581 22.8688 17.3245 22.8688 17.8997C22.8688 18.475 22.4095 18.9414 21.8431 18.9414H13.638C12.7264 18.9414 12.2684 17.8172 12.9129 17.163ZM13.638 23.1081C13.0716 23.1081 12.6123 22.6417 12.6123 22.0664C12.6123 21.4911 13.0716 21.0247 13.638 21.0247H21.8431C22.2579 21.0247 22.6319 21.2786 22.7907 21.6678C22.9494 22.057 22.8616 22.5051 22.5683 22.803L20.517 24.8863C20.3168 25.0897 20.0543 25.1914 19.7918 25.1914C19.5293 25.1914 19.2668 25.0897 19.0666 24.8863C18.6661 24.4795 18.6661 23.8199 19.0666 23.4131L19.3671 23.108H13.638V23.1081ZM23.8944 33.5247H11.5867C11.0203 33.5247 10.5611 33.0584 10.5611 32.4831C10.5611 31.9078 11.0203 31.4414 11.5867 31.4414H23.8944C24.4608 31.4414 24.92 31.9078 24.92 32.4831C24.92 33.0584 24.4608 33.5247 23.8944 33.5247ZM23.8944 29.3581H11.5867C11.0203 29.3581 10.5611 28.8917 10.5611 28.3164C10.5611 27.7411 11.0203 27.2747 11.5867 27.2747H23.8944C24.4608 27.2747 24.92 27.7411 24.92 28.3164C24.92 28.8917 24.4608 29.3581 23.8944 29.3581Z" fill="url(#paint1_linear_1569_9276)"/>
</g>
<defs>
<linearGradient id="paint0_linear_1569_9276" x1="21.3301" y1="35.608" x2="21.3301" y2="2.27466" gradientUnits="userSpaceOnUse">
<stop stop-color="#0181E1"/>
<stop offset="1" stop-color="#00C0FF"/>
</linearGradient>
<linearGradient id="paint1_linear_1569_9276" x1="17.7405" y1="37.8303" x2="17.7405" y2="6.44141" gradientUnits="userSpaceOnUse">
<stop stop-color="#93F3F9"/>
<stop offset="1" stop-color="#D4FCFE"/>
</linearGradient>
<clipPath id="clip0_1569_9276">
<rect width="35.5556" height="35.5556" fill="white" transform="translate(2.22217 2.27466)"/>
</clipPath>
</defs>
</svg>
