<svg width="72" height="72" viewBox="0 0 72 72" fill="none" xmlns="http://www.w3.org/2000/svg">
<g clip-path="url(#clip0_514_18240)">
<rect x="2" y="3" width="44" height="66" rx="4" fill="url(#paint0_linear_514_18240)"/>
<rect x="2" y="63" width="44" height="8" fill="url(#paint1_linear_514_18240)"/>
<path fill-rule="evenodd" clip-rule="evenodd" d="M46 3H2V11H15C15 12.1046 15.8954 13 17 13H31C32.1046 13 33 12.1046 33 11H46V3Z" fill="url(#paint2_linear_514_18240)"/>
<rect x="18" y="7" width="12" height="2" rx="1" fill="#84F0F7"/>
<rect x="6" y="21" width="12" height="3" rx="1.5" fill="white"/>
<rect x="11" y="29" width="12" height="3" rx="1.5" fill="white"/>
<rect x="6" y="36" width="10" height="3" rx="1.5" fill="white"/>
<rect x="17" y="58" width="12" height="2" rx="1" fill="#0AA1F1" fill-opacity="0.2"/>
<rect x="42" y="11" width="4" height="52" fill="#39C9F6" fill-opacity="0.4"/>
</g>
<g filter="url(#filter0_ii_514_18240)">
<path d="M27 22.7334C27 21.0765 28.3431 19.7334 30 19.7334H69C70.6568 19.7334 72 21.0765 72 22.7334V48.4833C72 50.1402 70.6568 51.4833 69 51.4833H30C28.3431 51.4833 27 50.1402 27 48.4833V22.7334Z" fill="#09BDF5"/>
</g>
<path fill-rule="evenodd" clip-rule="evenodd" d="M27.0002 50.092C27.4369 51.2089 28.5237 52 29.7953 52L68.7953 52C70.2663 52 71.49 50.9412 71.746 49.5442C71.5611 48.4358 70.8666 47.4626 69.8497 46.9332L51.8642 37.5693C50.3183 36.7644 48.4769 36.7644 46.931 37.5693L28.9455 46.9332C27.764 47.5483 27.0177 48.7626 27.0002 50.092Z" fill="url(#paint3_linear_514_18240)"/>
<path fill-rule="evenodd" clip-rule="evenodd" d="M72.0001 22.9012V22.7334C72.0001 21.0765 70.6569 19.7334 69.0001 19.7334H30.0001C28.861 19.7334 27.8702 20.3683 27.3622 21.3034C27.3582 21.5753 27.3815 21.8497 27.4333 22.1227C27.6013 23.0079 28.0579 23.8124 28.7318 24.4105L45.4779 39.272C47.7314 41.2719 51.1085 41.3235 53.4221 39.3934L70.6876 24.9898C71.3462 24.4404 71.7977 23.7051 72.0001 22.9012Z" fill="url(#paint4_linear_514_18240)" fill-opacity="0.6"/>
<defs>
<filter id="filter0_ii_514_18240" x="27" y="-2.84392" width="45" height="58.8428" filterUnits="userSpaceOnUse" color-interpolation-filters="sRGB">
<feFlood flood-opacity="0" result="BackgroundImageFix"/>
<feBlend mode="normal" in="SourceGraphic" in2="BackgroundImageFix" result="shape"/>
<feColorMatrix in="SourceAlpha" type="matrix" values="0 0 0 0 0 0 0 0 0 0 0 0 0 0 0 0 0 0 127 0" result="hardAlpha"/>
<feOffset dy="-22.5773"/>
<feGaussianBlur stdDeviation="16.933"/>
<feComposite in2="hardAlpha" operator="arithmetic" k2="-1" k3="1"/>
<feColorMatrix type="matrix" values="0 0 0 0 0 0 0 0 0 0.473098 0 0 0 0 0.909804 0 0 0 0.57 0"/>
<feBlend mode="normal" in2="shape" result="effect1_innerShadow_514_18240"/>
<feColorMatrix in="SourceAlpha" type="matrix" values="0 0 0 0 0 0 0 0 0 0 0 0 0 0 0 0 0 0 127 0" result="hardAlpha"/>
<feOffset dy="4.51546"/>
<feGaussianBlur stdDeviation="10.7242"/>
<feComposite in2="hardAlpha" operator="arithmetic" k2="-1" k3="1"/>
<feColorMatrix type="matrix" values="0 0 0 0 1 0 0 0 0 1 0 0 0 0 1 0 0 0 0.38 0"/>
<feBlend mode="normal" in2="effect1_innerShadow_514_18240" result="effect2_innerShadow_514_18240"/>
</filter>
<linearGradient id="paint0_linear_514_18240" x1="24" y1="3" x2="24" y2="69" gradientUnits="userSpaceOnUse">
<stop stop-color="#E4FDFF"/>
<stop offset="1" stop-color="#84F0F7"/>
</linearGradient>
<linearGradient id="paint1_linear_514_18240" x1="24" y1="63" x2="24" y2="71" gradientUnits="userSpaceOnUse">
<stop offset="0.0989583" stop-color="#35B5F3"/>
<stop offset="0.90625" stop-color="#018DE9"/>
</linearGradient>
<linearGradient id="paint2_linear_514_18240" x1="24" y1="3" x2="24" y2="14" gradientUnits="userSpaceOnUse">
<stop stop-color="#0E97EC"/>
<stop offset="1" stop-color="#36B6F4"/>
</linearGradient>
<linearGradient id="paint3_linear_514_18240" x1="49.3791" y1="89.7672" x2="49.3791" y2="35.3129" gradientUnits="userSpaceOnUse">
<stop stop-color="#00B2FF"/>
<stop offset="1" stop-color="#018AE6"/>
</linearGradient>
<linearGradient id="paint4_linear_514_18240" x1="49.6809" y1="-23.3785" x2="49.6809" y2="38.782" gradientUnits="userSpaceOnUse">
<stop stop-color="#00B2FF"/>
<stop offset="1" stop-color="#54D9F4"/>
</linearGradient>
<clipPath id="clip0_514_18240">
<rect x="2" y="3" width="44" height="66" rx="4" fill="white"/>
</clipPath>
</defs>
</svg>
