<svg width="72" height="72" viewBox="0 0 72 72" fill="none" xmlns="http://www.w3.org/2000/svg">
<g clip-path="url(#clip0_310_2795)">
<rect x="14" y="3" width="44" height="66" rx="4" fill="url(#paint0_linear_310_2795)"/>
<rect x="14" y="63" width="44" height="8" fill="url(#paint1_linear_310_2795)"/>
<path fill-rule="evenodd" clip-rule="evenodd" d="M58 3H14V11H27C27 12.1046 27.8954 13 29 13H43C44.1046 13 45 12.1046 45 11H58V3Z" fill="url(#paint2_linear_310_2795)"/>
<path d="M50.7641 27.613C51.1993 27.1778 51.1638 26.4551 50.6658 26.0935C46.416 23.0075 41.1872 21.1875 35.5334 21.1875C29.8795 21.1875 24.6507 23.0075 20.4009 26.0935C19.9029 26.4551 19.8674 27.1778 20.3026 27.613C20.6709 27.9812 21.2577 28.0183 21.6802 27.7138C25.5776 24.9048 30.3622 23.25 35.5334 23.25C40.7045 23.25 45.4891 24.9048 49.3865 27.7138C49.809 28.0183 50.3959 27.9812 50.7641 27.613Z" fill="url(#paint3_linear_310_2795)"/>
<path d="M46.3181 32.059C46.7639 31.6133 46.7174 30.866 46.1887 30.5228C43.1216 28.5315 39.4625 27.375 35.5334 27.375C31.6042 27.375 27.9451 28.5315 24.8781 30.5228C24.3494 30.866 24.3029 31.6133 24.7486 32.059C25.1048 32.4151 25.6699 32.4646 26.0941 32.1931C28.8189 30.4488 32.058 29.4375 35.5334 29.4375C39.0087 29.4375 42.2479 30.4488 44.9726 32.1931C45.3968 32.4646 45.962 32.4151 46.3181 32.059Z" fill="url(#paint4_linear_310_2795)"/>
<path d="M41.8159 36.5612C42.2823 36.0948 42.197 35.3145 41.6092 35.0152C39.7853 34.0862 37.7205 33.5625 35.5334 33.5625C33.3462 33.5625 31.2814 34.0862 29.4575 35.0152C28.8697 35.3145 28.7844 36.0948 29.2508 36.5612L29.2818 36.5922C29.6126 36.923 30.1225 36.9851 30.5425 36.7791C32.0486 36.04 33.7425 35.625 35.5334 35.625C37.3242 35.625 39.0182 36.04 40.5242 36.7791C40.9442 36.9851 41.4541 36.923 41.7849 36.5922L41.8159 36.5612Z" fill="url(#paint5_linear_310_2795)"/>
<path d="M37.721 40.6561C38.1237 40.2534 38.1278 39.5865 37.6382 39.2955C37.022 38.9291 36.3023 38.7188 35.5334 38.7188C34.7645 38.7188 34.0447 38.9291 33.4285 39.2955C32.9389 39.5865 32.943 40.2534 33.3458 40.6561L34.8042 42.1145C35.2069 42.5173 35.8598 42.5173 36.2626 42.1145L37.721 40.6561Z" fill="url(#paint6_linear_310_2795)"/>
<rect x="23" y="49" width="24" height="4" rx="2" fill="white"/>
<rect x="30" y="7" width="12" height="2" rx="1" fill="#84F0F7"/>
<rect x="29" y="58" width="12" height="2" rx="1" fill="#0AA1F1" fill-opacity="0.2"/>
<rect x="54" y="11" width="4" height="52" fill="#39C9F6" fill-opacity="0.4"/>
</g>
<defs>
<linearGradient id="paint0_linear_310_2795" x1="36" y1="3" x2="36" y2="69" gradientUnits="userSpaceOnUse">
<stop stop-color="#E4FDFF"/>
<stop offset="1" stop-color="#84F0F7"/>
</linearGradient>
<linearGradient id="paint1_linear_310_2795" x1="36" y1="63" x2="36" y2="71" gradientUnits="userSpaceOnUse">
<stop offset="0.0989583" stop-color="#35B5F3"/>
<stop offset="0.90625" stop-color="#018DE9"/>
</linearGradient>
<linearGradient id="paint2_linear_310_2795" x1="36" y1="3" x2="36" y2="14" gradientUnits="userSpaceOnUse">
<stop stop-color="#0E97EC"/>
<stop offset="1" stop-color="#36B6F4"/>
</linearGradient>
<linearGradient id="paint3_linear_310_2795" x1="35.5334" y1="21.1875" x2="35.5334" y2="42.4166" gradientUnits="userSpaceOnUse">
<stop stop-color="#29A9F1"/>
<stop offset="1" stop-color="#06A0F0"/>
</linearGradient>
<linearGradient id="paint4_linear_310_2795" x1="35.5334" y1="21.1875" x2="35.5334" y2="42.4166" gradientUnits="userSpaceOnUse">
<stop stop-color="#29A9F1"/>
<stop offset="1" stop-color="#06A0F0"/>
</linearGradient>
<linearGradient id="paint5_linear_310_2795" x1="35.5334" y1="21.1875" x2="35.5334" y2="42.4166" gradientUnits="userSpaceOnUse">
<stop stop-color="#29A9F1"/>
<stop offset="1" stop-color="#06A0F0"/>
</linearGradient>
<linearGradient id="paint6_linear_310_2795" x1="35.5334" y1="21.1875" x2="35.5334" y2="42.4166" gradientUnits="userSpaceOnUse">
<stop stop-color="#29A9F1"/>
<stop offset="1" stop-color="#06A0F0"/>
</linearGradient>
<clipPath id="clip0_310_2795">
<rect x="14" y="3" width="44" height="66" rx="4" fill="white"/>
</clipPath>
</defs>
</svg>
