<svg width="75" height="72" viewBox="0 0 75 72" fill="none" xmlns="http://www.w3.org/2000/svg">
<g filter="url(#filter0_ii_514_16980)">
<path d="M0 13C0 11.3431 1.34315 10 3 10H61C62.6568 10 64 11.3431 64 13V50.2953C64 51.9522 62.6568 53.2953 61 53.2953H3C1.34314 53.2953 0 51.9522 0 50.2953V13Z" fill="#09BDF5"/>
</g>
<path fill-rule="evenodd" clip-rule="evenodd" d="M0.114979 52.5082C0.634853 53.4004 1.60184 54 2.70886 54L60.7088 54C62.2975 54 63.5978 52.7651 63.7021 51.2028C63.6103 49.4735 62.597 47.917 61.0359 47.1377L35.176 34.2286C33.0846 33.1847 30.6242 33.1847 28.5328 34.2286L2.67291 47.1377C1.03489 47.9554 -0.000103336 49.6288 -0.000103194 51.4596C-0.000103166 51.8165 0.039276 52.1678 0.114979 52.5082Z" fill="url(#paint0_linear_514_16980)"/>
<path fill-rule="evenodd" clip-rule="evenodd" d="M64.0001 14.3253V13C64.0001 11.3431 62.6569 10 61.0001 10H3.0001C2.02941 10 1.1664 10.461 0.618067 11.176C0.483706 11.8571 0.479621 12.5683 0.618934 13.2721C0.855798 14.4687 1.49028 15.5502 2.41933 16.3407L26.6072 36.9222C29.6539 39.5146 34.1111 39.5823 37.2351 37.0835L62.1829 17.1283C63.0918 16.4013 63.7176 15.4119 64.0001 14.3253Z" fill="url(#paint1_linear_514_16980)" fill-opacity="0.6"/>
<g filter="url(#filter1_d_514_16980)">
<rect x="40" y="35" width="31" height="31" rx="15.5" fill="white"/>
<path d="M55.5 54.375C57.6584 54.375 59.375 52.6558 59.375 50.5C59.375 48.3442 57.6584 46.625 55.5 46.625C53.3416 46.625 51.625 48.3442 51.625 50.5C51.625 52.6558 53.3416 54.375 55.5 54.375Z" fill="#84F0F7"/>
<path d="M66.8886 48.157C66.5843 46.6695 65.9895 45.2565 65.1384 43.9991C64.3022 42.7621 63.2367 41.6966 61.9997 40.8604C60.7421 40.0096 59.3292 39.4149 57.8418 39.1102C57.0605 38.9517 56.2649 38.8738 55.4677 38.8777V36.2917L50.3333 40.1667L55.4677 44.0417V41.461C56.0929 41.4584 56.718 41.5178 57.3212 41.6418C58.4773 41.8787 59.5754 42.3409 60.553 43.002C61.5171 43.652 62.3468 44.4817 62.9968 45.4458C64.0061 46.938 64.5442 48.6987 64.5417 50.5001C64.5414 51.7089 64.2999 52.9056 63.8313 54.0199C63.6033 54.5566 63.3248 55.0704 62.9994 55.5544C62.6728 56.0354 62.3017 56.4847 61.8912 56.8964C60.6408 58.1444 59.0535 59.0005 57.3238 59.3596C56.1209 59.6025 54.8816 59.6025 53.6788 59.3596C52.5221 59.1225 51.4236 58.6599 50.4457 57.9982C49.4828 57.3488 48.6539 56.5199 48.0045 55.557C46.9964 54.0632 46.458 52.3022 46.4583 50.5001H43.875C43.8764 52.8169 44.5685 55.0808 45.8629 57.0023C46.6997 58.2373 47.764 59.3017 48.999 60.1385C50.918 61.4372 53.1829 62.1294 55.5 62.1251C56.287 62.125 57.072 62.0458 57.8431 61.8887C59.3294 61.5818 60.7415 60.9872 61.9997 60.1385C62.6174 59.7222 63.1932 59.2468 63.7189 58.719C64.2452 58.1911 64.7209 57.6151 65.1397 56.9985C66.4373 55.08 67.129 52.8161 67.125 50.5001C67.1249 49.7131 67.0457 48.9281 66.8886 48.157Z" fill="#09A3F0"/>
</g>
<defs>
<filter id="filter0_ii_514_16980" x="0" y="-12.5773" width="64" height="70.3882" filterUnits="userSpaceOnUse" color-interpolation-filters="sRGB">
<feFlood flood-opacity="0" result="BackgroundImageFix"/>
<feBlend mode="normal" in="SourceGraphic" in2="BackgroundImageFix" result="shape"/>
<feColorMatrix in="SourceAlpha" type="matrix" values="0 0 0 0 0 0 0 0 0 0 0 0 0 0 0 0 0 0 127 0" result="hardAlpha"/>
<feOffset dy="-22.5773"/>
<feGaussianBlur stdDeviation="16.933"/>
<feComposite in2="hardAlpha" operator="arithmetic" k2="-1" k3="1"/>
<feColorMatrix type="matrix" values="0 0 0 0 0 0 0 0 0 0.473098 0 0 0 0 0.909804 0 0 0 0.57 0"/>
<feBlend mode="normal" in2="shape" result="effect1_innerShadow_514_16980"/>
<feColorMatrix in="SourceAlpha" type="matrix" values="0 0 0 0 0 0 0 0 0 0 0 0 0 0 0 0 0 0 127 0" result="hardAlpha"/>
<feOffset dy="4.51546"/>
<feGaussianBlur stdDeviation="10.7242"/>
<feComposite in2="hardAlpha" operator="arithmetic" k2="-1" k3="1"/>
<feColorMatrix type="matrix" values="0 0 0 0 1 0 0 0 0 1 0 0 0 0 1 0 0 0 0.38 0"/>
<feBlend mode="normal" in2="effect1_innerShadow_514_16980" result="effect2_innerShadow_514_16980"/>
</filter>
<filter id="filter1_d_514_16980" x="36" y="31" width="39" height="39" filterUnits="userSpaceOnUse" color-interpolation-filters="sRGB">
<feFlood flood-opacity="0" result="BackgroundImageFix"/>
<feColorMatrix in="SourceAlpha" type="matrix" values="0 0 0 0 0 0 0 0 0 0 0 0 0 0 0 0 0 0 127 0" result="hardAlpha"/>
<feOffset/>
<feGaussianBlur stdDeviation="2"/>
<feComposite in2="hardAlpha" operator="out"/>
<feColorMatrix type="matrix" values="0 0 0 0 0 0 0 0 0 0 0 0 0 0 0 0 0 0 0.17 0"/>
<feBlend mode="normal" in2="BackgroundImageFix" result="effect1_dropShadow_514_16980"/>
<feBlend mode="normal" in="SourceGraphic" in2="effect1_dropShadow_514_16980" result="shape"/>
</filter>
<linearGradient id="paint0_linear_514_16980" x1="31.8595" y1="105.634" x2="31.8595" y2="31.1862" gradientUnits="userSpaceOnUse">
<stop stop-color="#00B2FF"/>
<stop offset="1" stop-color="#018AE6"/>
</linearGradient>
<linearGradient id="paint1_linear_514_16980" x1="32.258" y1="-49.1492" x2="32.258" y2="36.1345" gradientUnits="userSpaceOnUse">
<stop stop-color="#00B2FF"/>
<stop offset="1" stop-color="#54D9F4"/>
</linearGradient>
</defs>
</svg>
