<svg width="41" height="40" viewBox="0 0 41 40" fill="none" xmlns="http://www.w3.org/2000/svg">
<rect x="2.16666" y="2.77783" width="37.0588" height="28.913" rx="4" fill="url(#paint0_linear_894_6302)"/>
<ellipse cx="5.77776" cy="20.8333" rx="0.833333" ry="0.833333" fill="white" fill-opacity="0.6"/>
<path fill-rule="evenodd" clip-rule="evenodd" d="M37.1667 4.83666H4.22548V23.0379H37.1667V4.83666ZM4.22548 2.77783C3.08842 2.77783 2.16666 3.6996 2.16666 4.83666V25.0967H39.2255V4.83666C39.2255 3.6996 38.3037 2.77783 37.1667 2.77783H4.22548Z" fill="#106297"/>
<path d="M2.16666 25.0967H39.2255V26.6909C39.2255 29.4523 36.9869 31.6909 34.2255 31.6909H7.16665C4.40523 31.6909 2.16666 29.4523 2.16666 26.6909V25.0967Z" fill="url(#paint1_linear_894_6302)"/>
<rect x="34.6566" y="4.80688" width="2.53827" height="18.2609" fill="#FEFEFE" fill-opacity="0.6"/>
<rect x="4.94443" y="5.55566" width="1.66667" height="8.88889" rx="0.833333" fill="#FEFEFE" fill-opacity="0.6"/>
<ellipse cx="20.4422" cy="28.1401" rx="1.52297" ry="1.52174" fill="white"/>
<path d="M9.38889 14.6618C9.38889 12.7008 10.9786 11.1111 12.9396 11.1111H28.175C30.136 11.1111 31.7257 12.7008 31.7257 14.6618C31.7257 16.6228 30.136 18.2125 28.175 18.2125H12.9396C10.9786 18.2125 9.38889 16.6228 9.38889 14.6618Z" fill="url(#paint2_linear_894_6302)"/>
<path d="M15.5 15.2662C15.5 15.1937 15.6617 15.0905 15.985 14.9567C16.3083 14.8228 16.4699 14.7475 16.4699 14.7308C16.4699 14.7084 16.3083 14.6276 15.985 14.4881C15.6617 14.3487 15.5 14.2455 15.5 14.1785C15.5 14.1283 15.5269 14.067 15.5808 13.9945C15.6407 13.922 15.7096 13.8857 15.7874 13.8857C15.8413 13.8857 15.985 13.961 16.2185 14.1116C16.452 14.2566 16.5807 14.3291 16.6047 14.3291C16.6346 14.3291 16.6496 14.2762 16.6496 14.1702C16.6496 14.1144 16.6436 14.0112 16.6316 13.8606C16.6256 13.7044 16.6226 13.5873 16.6226 13.5092C16.6226 13.4367 16.6376 13.3893 16.6675 13.367C16.6975 13.3447 16.7603 13.3335 16.8561 13.3335C16.9998 13.3335 17.0896 13.3502 17.1256 13.3837C17.1675 13.4172 17.1884 13.5008 17.1884 13.6347C17.1884 13.6849 17.1824 13.7741 17.1705 13.9024C17.1585 14.0307 17.1525 14.1228 17.1525 14.1785C17.1525 14.2789 17.1675 14.3291 17.1974 14.3291C17.2273 14.3291 17.362 14.2538 17.6015 14.1032C17.847 13.9526 17.9877 13.8773 18.0236 13.8773C18.0955 13.8773 18.1614 13.9136 18.2212 13.9861C18.2871 14.053 18.32 14.1144 18.32 14.1702C18.32 14.2371 18.1554 14.3403 17.8261 14.4797C17.5028 14.6192 17.3411 14.7001 17.3411 14.7224C17.3411 14.7503 17.5028 14.8312 17.8261 14.965C18.1554 15.0989 18.32 15.1993 18.32 15.2662C18.32 15.322 18.2901 15.3862 18.2302 15.4587C18.1703 15.5256 18.0985 15.5591 18.0147 15.5591C17.9608 15.5591 17.8171 15.4866 17.5836 15.3415C17.3501 15.1909 17.2243 15.1156 17.2064 15.1156C17.1764 15.1156 17.1615 15.1686 17.1615 15.2746C17.1615 15.3304 17.1645 15.4168 17.1705 15.534C17.1824 15.6455 17.1884 15.7208 17.1884 15.7599C17.1884 15.9216 17.1705 16.022 17.1345 16.0611C17.1046 16.0945 17.0148 16.1113 16.8651 16.1113C16.7034 16.1113 16.6226 16.0443 16.6226 15.9105C16.6226 15.8658 16.6256 15.771 16.6316 15.626C16.6436 15.481 16.6496 15.375 16.6496 15.3081C16.6496 15.1798 16.6346 15.1156 16.6047 15.1156C16.5807 15.1156 16.446 15.1909 16.2005 15.3415C15.961 15.4866 15.8233 15.5591 15.7874 15.5591C15.7096 15.5591 15.6407 15.5228 15.5808 15.4503C15.5269 15.3778 15.5 15.3164 15.5 15.2662Z" fill="#106297"/>
<path d="M19.3678 15.2662C19.3678 15.1937 19.5294 15.0905 19.8527 14.9567C20.1761 14.8228 20.3377 14.7475 20.3377 14.7308C20.3377 14.7084 20.1761 14.6276 19.8527 14.4881C19.5294 14.3487 19.3678 14.2455 19.3678 14.1785C19.3678 14.1283 19.3947 14.067 19.4486 13.9945C19.5085 13.922 19.5773 13.8857 19.6552 13.8857C19.709 13.8857 19.8527 13.961 20.0862 14.1116C20.3197 14.2566 20.4485 14.3291 20.4724 14.3291C20.5024 14.3291 20.5173 14.2762 20.5173 14.1702C20.5173 14.1144 20.5113 14.0112 20.4994 13.8606C20.4934 13.7044 20.4904 13.5873 20.4904 13.5092C20.4904 13.4367 20.5054 13.3893 20.5353 13.367C20.5652 13.3447 20.6281 13.3335 20.7239 13.3335C20.8676 13.3335 20.9574 13.3502 20.9933 13.3837C21.0352 13.4172 21.0562 13.5008 21.0562 13.6347C21.0562 13.6849 21.0502 13.7741 21.0382 13.9024C21.0263 14.0307 21.0203 14.1228 21.0203 14.1785C21.0203 14.2789 21.0352 14.3291 21.0652 14.3291C21.0951 14.3291 21.2298 14.2538 21.4693 14.1032C21.7148 13.9526 21.8555 13.8773 21.8914 13.8773C21.9633 13.8773 22.0291 13.9136 22.089 13.9861C22.1549 14.053 22.1878 14.1144 22.1878 14.1702C22.1878 14.2371 22.0231 14.3403 21.6938 14.4797C21.3705 14.6192 21.2089 14.7001 21.2089 14.7224C21.2089 14.7503 21.3705 14.8312 21.6938 14.965C22.0231 15.0989 22.1878 15.1993 22.1878 15.2662C22.1878 15.322 22.1578 15.3862 22.098 15.4587C22.0381 15.5256 21.9663 15.5591 21.8824 15.5591C21.8285 15.5591 21.6849 15.4866 21.4513 15.3415C21.2178 15.1909 21.0921 15.1156 21.0741 15.1156C21.0442 15.1156 21.0292 15.1686 21.0292 15.2746C21.0292 15.3304 21.0322 15.4168 21.0382 15.534C21.0502 15.6455 21.0562 15.7208 21.0562 15.7599C21.0562 15.9216 21.0382 16.022 21.0023 16.0611C20.9724 16.0945 20.8826 16.1113 20.7329 16.1113C20.5712 16.1113 20.4904 16.0443 20.4904 15.9105C20.4904 15.8658 20.4934 15.771 20.4994 15.626C20.5113 15.481 20.5173 15.375 20.5173 15.3081C20.5173 15.1798 20.5024 15.1156 20.4724 15.1156C20.4485 15.1156 20.3138 15.1909 20.0683 15.3415C19.8288 15.4866 19.6911 15.5591 19.6552 15.5591C19.5773 15.5591 19.5085 15.5228 19.4486 15.4503C19.3947 15.3778 19.3678 15.3164 19.3678 15.2662Z" fill="#106297"/>
<path d="M23.2355 15.2662C23.2355 15.1937 23.3972 15.0905 23.7205 14.9567C24.0438 14.8228 24.2055 14.7475 24.2055 14.7308C24.2055 14.7084 24.0438 14.6276 23.7205 14.4881C23.3972 14.3487 23.2355 14.2455 23.2355 14.1785C23.2355 14.1283 23.2625 14.067 23.3164 13.9945C23.3762 13.922 23.4451 13.8857 23.5229 13.8857C23.5768 13.8857 23.7205 13.961 23.954 14.1116C24.1875 14.2566 24.3162 14.3291 24.3402 14.3291C24.3701 14.3291 24.3851 14.2762 24.3851 14.1702C24.3851 14.1144 24.3791 14.0112 24.3671 13.8606C24.3612 13.7044 24.3582 13.5873 24.3582 13.5092C24.3582 13.4367 24.3731 13.3893 24.4031 13.367C24.433 13.3447 24.4959 13.3335 24.5917 13.3335C24.7354 13.3335 24.8252 13.3502 24.8611 13.3837C24.903 13.4172 24.924 13.5008 24.924 13.6347C24.924 13.6849 24.918 13.7741 24.906 13.9024C24.894 14.0307 24.888 14.1228 24.888 14.1785C24.888 14.2789 24.903 14.3291 24.9329 14.3291C24.9629 14.3291 25.0976 14.2538 25.3371 14.1032C25.5826 13.9526 25.7233 13.8773 25.7592 13.8773C25.831 13.8773 25.8969 13.9136 25.9568 13.9861C26.0226 14.053 26.0556 14.1144 26.0556 14.1702C26.0556 14.2371 25.8909 14.3403 25.5616 14.4797C25.2383 14.6192 25.0766 14.7001 25.0766 14.7224C25.0766 14.7503 25.2383 14.8312 25.5616 14.965C25.8909 15.0989 26.0556 15.1993 26.0556 15.2662C26.0556 15.322 26.0256 15.3862 25.9657 15.4587C25.9059 15.5256 25.834 15.5591 25.7502 15.5591C25.6963 15.5591 25.5526 15.4866 25.3191 15.3415C25.0856 15.1909 24.9599 15.1156 24.9419 15.1156C24.912 15.1156 24.897 15.1686 24.897 15.2746C24.897 15.3304 24.9 15.4168 24.906 15.534C24.918 15.6455 24.924 15.7208 24.924 15.7599C24.924 15.9216 24.906 16.022 24.8701 16.0611C24.8401 16.0945 24.7503 16.1113 24.6006 16.1113C24.439 16.1113 24.3582 16.0443 24.3582 15.9105C24.3582 15.8658 24.3612 15.771 24.3671 15.626C24.3791 15.481 24.3851 15.375 24.3851 15.3081C24.3851 15.1798 24.3701 15.1156 24.3402 15.1156C24.3162 15.1156 24.1815 15.1909 23.9361 15.3415C23.6966 15.4866 23.5589 15.5591 23.5229 15.5591C23.4451 15.5591 23.3762 15.5228 23.3164 15.4503C23.2625 15.3778 23.2355 15.3164 23.2355 15.2662Z" fill="#106297"/>
<rect x="9.27383" y="36.2561" width="22.3368" height="1.52174" rx="0.76087" fill="#31B8F9"/>
<path fill-rule="evenodd" clip-rule="evenodd" d="M16.6348 31.6909C16.6348 33.2127 16.3865 34.6692 15.8549 35.2779C15.3232 35.8866 14.9688 36.1837 14.858 36.2561H20.6961H20.9499H26.5341C24.5035 35.6474 24.3343 32.959 24.5035 31.6909H20.9499H20.6961H16.6348Z" fill="#0181E1"/>
<defs>
<linearGradient id="paint0_linear_894_6302" x1="20.6961" y1="2.77783" x2="20.6961" y2="31.6909" gradientUnits="userSpaceOnUse">
<stop stop-color="#84F0F7"/>
<stop offset="1" stop-color="#84F0F7" stop-opacity="0"/>
</linearGradient>
<linearGradient id="paint1_linear_894_6302" x1="20.6961" y1="25.0967" x2="20.6961" y2="31.6909" gradientUnits="userSpaceOnUse">
<stop stop-color="#07A3F0"/>
<stop offset="1" stop-color="#54C9FF"/>
</linearGradient>
<linearGradient id="paint2_linear_894_6302" x1="20.5573" y1="11.1111" x2="20.5573" y2="18.2125" gradientUnits="userSpaceOnUse">
<stop stop-color="white"/>
<stop offset="0.979167" stop-color="white" stop-opacity="0.8"/>
</linearGradient>
</defs>
</svg>
