<svg width="72" height="72" viewBox="0 0 72 72" fill="none" xmlns="http://www.w3.org/2000/svg">
<path d="M37.5904 4C55.5629 4 70.1228 18.625 70.1228 36.5C70.1228 54.375 55.5629 69 37.5904 69C26.1829 69 16.2054 63.085 10.3879 54.1475L15.5229 50.085C20.1054 57.5275 28.2629 62.5 37.6229 62.5C44.5185 62.5 51.1317 59.7607 56.0076 54.8848C60.8836 50.0088 63.6229 43.3956 63.6229 36.5C63.6229 29.6044 60.8836 22.9912 56.0076 18.1152C51.1317 13.2393 44.5185 10.5 37.6229 10.5C24.3629 10.5 13.4429 20.445 11.8504 33.25L16.6 33.25L8.66536 45.3725L1 33.25L5.28536 33.25C6.91036 16.8375 20.7554 4 37.5904 4Z" fill="url(#paint0_linear_312_3948)"/>
<path fill-rule="evenodd" clip-rule="evenodd" d="M37.734 15.6614C32.2112 15.6614 27.7341 20.1385 27.7341 25.6613V30.6613H31.7341V28.8043V28.8043V25.5186C31.7341 22.2049 34.4204 19.5186 37.734 19.5186C41.0477 19.5186 43.734 22.2049 43.734 25.5186L43.734 28.8043L43.734 28.8043L43.734 30.6613H47.734V25.6613C47.734 20.1385 43.2569 15.6614 37.734 15.6614Z" fill="url(#paint1_linear_312_3948)"/>
<path fill-rule="evenodd" clip-rule="evenodd" d="M51.7341 30.6614H37.7341V48.6614C37.7341 48.6614 37.7341 48.6614 37.7341 48.6614V30.6614H23.7341V51.1614C23.7341 52.5421 30.0021 53.6613 37.7341 53.6613C44.5262 53.6613 50.1887 52.7976 51.4649 51.6517L51.7341 51.6613V30.6614Z" fill="url(#paint2_linear_312_3948)"/>
<path fill-rule="evenodd" clip-rule="evenodd" d="M37.7341 48.6613H37.7341V30.6614H23.7341L23.7341 51.1613C23.7341 52.542 30.0021 53.6613 37.7341 53.6613C37.7341 53.6613 37.7341 53.6613 37.7341 53.6613V48.6613Z" fill="url(#paint3_linear_312_3948)"/>
<path d="M26.7627 42.2385C26.7627 42.0968 27.0786 41.8951 27.7105 41.6335C28.3423 41.3719 28.6582 41.2248 28.6582 41.1921C28.6582 41.1485 28.3423 40.9904 27.7105 40.7179C27.0786 40.4454 26.7627 40.2437 26.7627 40.1129C26.7627 40.0148 26.8153 39.8949 26.9207 39.7532C27.0377 39.6115 27.1722 39.5406 27.3243 39.5406C27.4296 39.5406 27.7105 39.6878 28.1668 39.9821C28.6231 40.2655 28.8747 40.4072 28.9215 40.4072C28.98 40.4072 29.0093 40.3036 29.0093 40.0965C29.0093 39.9875 28.9976 39.7859 28.9742 39.4915C28.9625 39.1863 28.9566 38.9574 28.9566 38.8048C28.9566 38.6631 28.9859 38.5704 29.0444 38.5268C29.1029 38.4832 29.2257 38.4614 29.4129 38.4614C29.6938 38.4614 29.8693 38.4941 29.9395 38.5595C30.0214 38.6249 30.0623 38.7884 30.0623 39.0501C30.0623 39.1482 30.0506 39.3226 30.0272 39.5733C30.0038 39.824 29.9921 40.0039 29.9921 40.1129C29.9921 40.3091 30.0214 40.4072 30.0799 40.4072C30.1384 40.4072 30.4017 40.26 30.8697 39.9657C31.3494 39.6714 31.6244 39.5242 31.6946 39.5242C31.835 39.5242 31.9637 39.5951 32.0807 39.7368C32.2094 39.8676 32.2738 39.9875 32.2738 40.0965C32.2738 40.2273 31.952 40.429 31.3085 40.7015C30.6766 40.974 30.3607 41.1321 30.3607 41.1757C30.3607 41.2302 30.6766 41.3883 31.3085 41.6499C31.952 41.9115 32.2738 42.1077 32.2738 42.2385C32.2738 42.3475 32.2153 42.4729 32.0983 42.6146C31.9813 42.7454 31.8409 42.8108 31.6771 42.8108C31.5717 42.8108 31.2909 42.6691 30.8346 42.3857C30.3783 42.0914 30.1325 41.9442 30.0974 41.9442C30.0389 41.9442 30.0097 42.0478 30.0097 42.2549C30.0097 42.3639 30.0155 42.5328 30.0272 42.7618C30.0506 42.9798 30.0623 43.1269 30.0623 43.2032C30.0623 43.5194 30.0272 43.7156 29.957 43.7919C29.8985 43.8573 29.723 43.89 29.4305 43.89C29.1146 43.89 28.9566 43.7592 28.9566 43.4976C28.9566 43.4103 28.9625 43.225 28.9742 42.9416C28.9976 42.6582 29.0093 42.4511 29.0093 42.3203C29.0093 42.0696 28.98 41.9442 28.9215 41.9442C28.8747 41.9442 28.6114 42.0914 28.1317 42.3857C27.6637 42.6691 27.3945 42.8108 27.3243 42.8108C27.1722 42.8108 27.0377 42.74 26.9207 42.5982C26.8153 42.4565 26.7627 42.3366 26.7627 42.2385Z" fill="white"/>
<path d="M34.3214 42.2385C34.3214 42.0968 34.6373 41.8951 35.2692 41.6335C35.901 41.3719 36.2169 41.2248 36.2169 41.1921C36.2169 41.1485 35.901 40.9904 35.2692 40.7179C34.6373 40.4454 34.3214 40.2437 34.3214 40.1129C34.3214 40.0148 34.3741 39.8949 34.4794 39.7532C34.5964 39.6115 34.7309 39.5406 34.883 39.5406C34.9883 39.5406 35.2692 39.6878 35.7255 39.9821C36.1818 40.2655 36.4334 40.4072 36.4802 40.4072C36.5387 40.4072 36.568 40.3036 36.568 40.0965C36.568 39.9875 36.5563 39.7859 36.5329 39.4915C36.5212 39.1863 36.5153 38.9574 36.5153 38.8048C36.5153 38.6631 36.5446 38.5704 36.6031 38.5268C36.6616 38.4832 36.7844 38.4614 36.9716 38.4614C37.2525 38.4614 37.428 38.4941 37.4982 38.5595C37.5801 38.6249 37.621 38.7884 37.621 39.0501C37.621 39.1482 37.6093 39.3226 37.5859 39.5733C37.5625 39.824 37.5508 40.0039 37.5508 40.1129C37.5508 40.3091 37.5801 40.4072 37.6386 40.4072C37.6971 40.4072 37.9604 40.26 38.4284 39.9657C38.9081 39.6714 39.1831 39.5242 39.2533 39.5242C39.3937 39.5242 39.5224 39.5951 39.6394 39.7368C39.7681 39.8676 39.8325 39.9875 39.8325 40.0965C39.8325 40.2273 39.5107 40.429 38.8672 40.7015C38.2353 40.974 37.9194 41.1321 37.9194 41.1757C37.9194 41.2302 38.2353 41.3883 38.8672 41.6499C39.5107 41.9115 39.8325 42.1077 39.8325 42.2385C39.8325 42.3475 39.774 42.4729 39.657 42.6146C39.54 42.7454 39.3996 42.8108 39.2358 42.8108C39.1304 42.8108 38.8496 42.6691 38.3933 42.3857C37.937 42.0914 37.6912 41.9442 37.6561 41.9442C37.5976 41.9442 37.5684 42.0478 37.5684 42.2549C37.5684 42.3639 37.5742 42.5328 37.5859 42.7618C37.6093 42.9798 37.621 43.1269 37.621 43.2032C37.621 43.5194 37.5859 43.7156 37.5157 43.7919C37.4572 43.8573 37.2817 43.89 36.9892 43.89C36.6733 43.89 36.5153 43.7592 36.5153 43.4976C36.5153 43.4103 36.5212 43.225 36.5329 42.9416C36.5563 42.6582 36.568 42.4511 36.568 42.3203C36.568 42.0696 36.5387 41.9442 36.4802 41.9442C36.4334 41.9442 36.1701 42.0914 35.6904 42.3857C35.2224 42.6691 34.9532 42.8108 34.883 42.8108C34.7309 42.8108 34.5964 42.74 34.4794 42.5982C34.3741 42.4565 34.3214 42.3366 34.3214 42.2385Z" fill="white"/>
<path d="M41.8801 42.2385C41.8801 42.0968 42.196 41.8951 42.8279 41.6335C43.4597 41.3719 43.7756 41.2248 43.7756 41.1921C43.7756 41.1485 43.4597 40.9904 42.8279 40.7179C42.196 40.4454 41.8801 40.2437 41.8801 40.1129C41.8801 40.0148 41.9328 39.8949 42.0381 39.7532C42.1551 39.6115 42.2896 39.5406 42.4417 39.5406C42.547 39.5406 42.8279 39.6878 43.2842 39.9821C43.7405 40.2655 43.9921 40.4072 44.0389 40.4072C44.0974 40.4072 44.1267 40.3036 44.1267 40.0965C44.1267 39.9875 44.115 39.7859 44.0916 39.4915C44.0799 39.1863 44.074 38.9574 44.074 38.8048C44.074 38.6631 44.1033 38.5704 44.1618 38.5268C44.2203 38.4832 44.3431 38.4614 44.5303 38.4614C44.8112 38.4614 44.9867 38.4941 45.0569 38.5595C45.1388 38.6249 45.1797 38.7884 45.1797 39.0501C45.1797 39.1482 45.168 39.3226 45.1446 39.5733C45.1212 39.824 45.1095 40.0039 45.1095 40.1129C45.1095 40.3091 45.1388 40.4072 45.1973 40.4072C45.2558 40.4072 45.5191 40.26 45.9871 39.9657C46.4668 39.6714 46.7418 39.5242 46.812 39.5242C46.9524 39.5242 47.0811 39.5951 47.1981 39.7368C47.3268 39.8676 47.3912 39.9875 47.3912 40.0965C47.3912 40.2273 47.0694 40.429 46.4259 40.7015C45.794 40.974 45.4781 41.1321 45.4781 41.1757C45.4781 41.2302 45.794 41.3883 46.4259 41.6499C47.0694 41.9115 47.3912 42.1077 47.3912 42.2385C47.3912 42.3475 47.3327 42.4729 47.2157 42.6146C47.0987 42.7454 46.9583 42.8108 46.7945 42.8108C46.6892 42.8108 46.4083 42.6691 45.952 42.3857C45.4957 42.0914 45.2499 41.9442 45.2148 41.9442C45.1563 41.9442 45.1271 42.0478 45.1271 42.2549C45.1271 42.3639 45.1329 42.5328 45.1446 42.7618C45.168 42.9798 45.1797 43.1269 45.1797 43.2032C45.1797 43.5194 45.1446 43.7156 45.0744 43.7919C45.0159 43.8573 44.8404 43.89 44.5479 43.89C44.232 43.89 44.074 43.7592 44.074 43.4976C44.074 43.4103 44.0799 43.225 44.0916 42.9416C44.115 42.6582 44.1267 42.4511 44.1267 42.3203C44.1267 42.0696 44.0974 41.9442 44.0389 41.9442C43.9921 41.9442 43.7288 42.0914 43.2491 42.3857C42.7811 42.6691 42.5119 42.8108 42.4417 42.8108C42.2896 42.8108 42.1551 42.74 42.0381 42.5982C41.9328 42.4565 41.8801 42.3366 41.8801 42.2385Z" fill="white"/>
<defs>
<linearGradient id="paint0_linear_312_3948" x1="64.5142" y1="11.4286" x2="-0.773983" y2="82.3889" gradientUnits="userSpaceOnUse">
<stop stop-color="#49C3FD"/>
<stop offset="1" stop-color="#84F0F7"/>
</linearGradient>
<linearGradient id="paint1_linear_312_3948" x1="37.734" y1="15.6614" x2="37.734" y2="30.6613" gradientUnits="userSpaceOnUse">
<stop stop-color="#84F0F7"/>
<stop offset="0.921875" stop-color="#0186E5"/>
</linearGradient>
<linearGradient id="paint2_linear_312_3948" x1="37.7341" y1="30.6614" x2="37.7341" y2="53.6613" gradientUnits="userSpaceOnUse">
<stop stop-color="#13A9F1"/>
<stop offset="0.854167" stop-color="#0168B7"/>
</linearGradient>
<linearGradient id="paint3_linear_312_3948" x1="30.7341" y1="30.6614" x2="30.7341" y2="53.6613" gradientUnits="userSpaceOnUse">
<stop stop-color="#38B8F4"/>
<stop offset="1" stop-color="#38B8F4" stop-opacity="0"/>
</linearGradient>
</defs>
</svg>
