<?xml version="1.0" encoding="UTF-8"?>
<svg width="24px" height="24px" viewBox="0 0 24 24" version="1.1" xmlns="http://www.w3.org/2000/svg" xmlns:xlink="http://www.w3.org/1999/xlink">
    <title>search</title>
    <defs>
        <path d="M15.5,14 L14.71,14 L14.43,13.73 C15.41,12.59 16,11.11 16,9.49999996 C16,5.90999997 13.09,2.99999996 9.49999996,2.99999996 C5.90999997,2.99999996 2.99999996,5.90999997 2.99999996,9.49999996 C2.99999996,13.09 5.90999997,16 9.49999996,16 C11.11,16 12.59,15.41 13.73,14.43 L14,14.71 L14,15.5 L19,20.49 L20.49,19 L15.5,14 L15.5,14 Z M9.49999997,14 C7.00999998,14 4.99999997,11.99 4.99999997,9.49999997 C4.99999997,7.00999998 7.00999998,4.99999997 9.49999997,4.99999997 C11.99,4.99999997 14,7.00999998 14,9.49999997 C14,11.99 11.99,14 9.49999997,14 L9.49999997,14 Z" id="path-1"></path>
    </defs>
    <g id="Welcome" stroke="none" stroke-width="1" fill="none" fill-rule="evenodd">
        <g id="v3/itri圖書館/首頁" transform="translate(-1198.000000, -24.000000)">
            <g id="Group" transform="translate(1038.000000, 20.000000)">
                <g id="search" transform="translate(160.000000, 4.000000)">
                    <polygon id="Base" fill-rule="nonzero" points="-4.99999828e-08 -4.9999926e-08 24.0000001 -4.9999926e-08 24.0000001 24.0000001 -4.99999828e-08 24.0000001"></polygon>
                    <mask id="mask-2" fill="white">
                        <use xlink:href="#path-1"></use>
                    </mask>
                    <g id="Icon" fill-rule="nonzero">
                        <use fill="#D8D8D8" xlink:href="#path-1"></use>
                        <use fill="#444444" xlink:href="#path-1"></use>
                    </g>
                </g>
            </g>
        </g>
    </g>
</svg>