<svg width="72" height="72" viewBox="0 0 72 72" fill="none" xmlns="http://www.w3.org/2000/svg">
<path d="M69.2305 27.5193C70.1801 26.5697 70.1027 24.993 69.016 24.204C59.7437 17.4708 48.3355 13.5 35.9998 13.5C23.6641 13.5 12.2559 17.4708 2.98356 24.204C1.89694 24.993 1.81951 26.5697 2.76908 27.5193C3.57252 28.3227 4.8529 28.4036 5.77467 27.7393C14.2782 21.6106 24.7173 18 35.9998 18C47.2823 18 57.7214 21.6106 66.2249 27.7393C67.1467 28.4036 68.4271 28.3227 69.2305 27.5193Z" fill="url(#paint0_linear_310_2818)"/>
<path d="M59.5302 37.2196C60.5027 36.2471 60.4013 34.6168 59.2477 33.8679C52.5559 29.5234 44.5725 27 35.9998 27C27.4271 27 19.4437 29.5234 12.7519 33.8679C11.5983 34.6168 11.4969 36.2471 12.4694 37.2196C13.2465 37.9967 14.4795 38.1046 15.405 37.5121C21.35 33.7064 28.4172 31.5 35.9998 31.5C43.5824 31.5 50.6496 33.7064 56.5946 37.5121C57.5201 38.1046 58.7531 37.9967 59.5302 37.2196Z" fill="url(#paint1_linear_310_2818)"/>
<path d="M49.7072 47.0426C50.7248 46.025 50.5386 44.3226 49.2562 43.6695C45.2768 41.6427 40.7717 40.5 35.9998 40.5C31.2279 40.5 26.7228 41.6427 22.7434 43.6695C21.461 44.3226 21.2748 46.025 22.2924 47.0426L22.3601 47.1103C23.0818 47.832 24.1943 47.9676 25.1106 47.518C28.3966 45.9054 32.0925 45 35.9998 45C39.9071 45 43.603 45.9054 46.889 47.518C47.8053 47.9676 48.9178 47.832 49.6395 47.1103L49.7072 47.0426Z" fill="url(#paint2_linear_310_2818)"/>
<path d="M40.7728 55.977C41.6515 55.0984 41.6604 53.6433 40.5923 53.0083C39.2478 52.209 37.6774 51.75 35.9998 51.75C34.3222 51.75 32.7518 52.209 31.4073 53.0083C30.3392 53.6433 30.3482 55.0984 31.2268 55.977L34.4088 59.159C35.2875 60.0377 36.7121 60.0377 37.5908 59.159L40.7728 55.977Z" fill="url(#paint3_linear_310_2818)"/>
<defs>
<linearGradient id="paint0_linear_310_2818" x1="35.9998" y1="13.5" x2="35.9998" y2="59.818" gradientUnits="userSpaceOnUse">
<stop stop-color="#6DD0E7"/>
<stop offset="1" stop-color="#06A0F0"/>
</linearGradient>
<linearGradient id="paint1_linear_310_2818" x1="35.9998" y1="13.5" x2="35.9998" y2="59.818" gradientUnits="userSpaceOnUse">
<stop stop-color="#6DD0E7"/>
<stop offset="1" stop-color="#06A0F0"/>
</linearGradient>
<linearGradient id="paint2_linear_310_2818" x1="35.9998" y1="13.5" x2="35.9998" y2="59.818" gradientUnits="userSpaceOnUse">
<stop stop-color="#6DD0E7"/>
<stop offset="1" stop-color="#06A0F0"/>
</linearGradient>
<linearGradient id="paint3_linear_310_2818" x1="35.9998" y1="13.5" x2="35.9998" y2="59.818" gradientUnits="userSpaceOnUse">
<stop stop-color="#6DD0E7"/>
<stop offset="1" stop-color="#06A0F0"/>
</linearGradient>
</defs>
</svg>
