<svg width="88" height="88" viewBox="0 0 88 88" fill="none" xmlns="http://www.w3.org/2000/svg">
<g filter="url(#filter0_d_1442_16559)">
<rect x="4" width="80" height="80" rx="40" fill="url(#paint0_linear_1442_16559)"/>
</g>
<mask id="mask0_1442_16559" style="mask-type:alpha" maskUnits="userSpaceOnUse" x="4" y="0" width="80" height="80">
<rect x="4" width="80" height="80" rx="40" fill="url(#paint1_linear_1442_16559)"/>
</mask>
<g mask="url(#mask0_1442_16559)">
<rect x="29.3948" y="53.7485" width="30.3817" height="2.67905" rx="1.33952" fill="#B50000"/>
<rect x="29.3948" y="53.7485" width="25.6904" height="2.67905" rx="1.33952" fill="#CC0000"/>
<path fill-rule="evenodd" clip-rule="evenodd" d="M27.3841 59.9173C27.3841 58.6064 28.4468 57.5437 29.7577 57.5437H59.1899C60.5008 57.5437 61.5635 58.6064 61.5635 59.9173V79.3801C61.5635 79.9813 61.3392 80.5566 60.9089 80.9764C58.7545 83.0783 51.6141 89.4721 44.4738 89.4721C37.3335 89.4721 30.1931 83.0783 28.0387 80.9764C27.6084 80.5566 27.3841 79.9813 27.3841 79.3801V59.9173Z" fill="#A5A5A5"/>
<path fill-rule="evenodd" clip-rule="evenodd" d="M27.3841 58.3547C27.3841 57.0438 28.4468 55.9811 29.7577 55.9811H59.1899C60.5008 55.9811 61.5635 57.0438 61.5635 58.3547V77.8175C61.5635 78.4186 61.3392 78.994 60.9089 79.4138C58.7545 81.5157 51.6141 87.9095 44.4738 87.9095C37.3335 87.9095 30.1931 81.5157 28.0387 79.4138C27.6084 78.994 27.3841 78.4186 27.3841 77.8175V58.3547Z" fill="#C6C6C6"/>
<path fill-rule="evenodd" clip-rule="evenodd" d="M44.3622 87.909C44.3994 87.9093 44.4366 87.9095 44.4738 87.9095C51.6141 87.9095 58.7544 81.5157 60.9088 79.4138C61.3391 78.994 61.5635 78.4186 61.5635 77.8175V58.3547C61.5635 57.0438 60.5008 55.9811 59.1898 55.9811H44.3622V87.909Z" fill="#B1B1B1"/>
<g style="mix-blend-mode:soft-light" opacity="0.4">
<path fill-rule="evenodd" clip-rule="evenodd" d="M27.3841 58.3547C27.3841 57.0438 28.4468 55.9811 29.7577 55.9811H43.5241C51.3896 55.9811 57.7658 62.3573 57.7658 70.2228V82.2644C57.7658 82.2644 51.4804 87.8969 44.382 87.8969C36.7866 87.8969 27.3841 78.753 27.3841 78.753V58.3547Z" fill="#E3E5E1" style="mix-blend-mode:multiply"/>
</g>
<path fill-rule="evenodd" clip-rule="evenodd" d="M42.5953 57.5437H33.0638C30.7943 57.5437 28.9479 59.3734 28.9479 61.6224V62.481C28.9479 62.8367 29.2389 63.125 29.5978 63.125C29.9566 63.125 30.2477 62.8367 30.2477 62.481V61.6224C30.2477 60.0837 31.511 58.8317 33.0638 58.8317H42.5953C42.9542 58.8317 43.2452 58.5435 43.2452 58.1877C43.2452 57.8321 42.9543 57.5437 42.5953 57.5437Z" fill="white"/>
<path fill-rule="evenodd" clip-rule="evenodd" d="M45.2977 57.5437H45.2139C44.867 57.5437 44.5856 57.8436 44.5856 58.2135C44.5856 58.5834 44.867 58.8832 45.2139 58.8832H45.2977C45.6447 58.8832 45.926 58.5835 45.926 58.2135C45.9259 57.8436 45.6447 57.5437 45.2977 57.5437Z" fill="white"/>
<ellipse cx="16.5328" cy="55.6637" rx="3.79772" ry="10.0464" transform="rotate(134 16.5328 55.6637)" fill="#C4C4C4"/>
<ellipse cx="17.7111" cy="56.4417" rx="3.79772" ry="10.0464" transform="rotate(135 17.7111 56.4417)" fill="#DADADA"/>
<path opacity="0.5" fill-rule="evenodd" clip-rule="evenodd" d="M22.9615 56.7476C25.0955 59.6992 25.9254 62.4352 24.815 63.5456C23.7076 64.653 20.9834 63.8306 18.041 61.7095C18.0125 61.2208 18.0606 60.7191 18.1942 60.2202C18.7776 58.0432 20.799 56.6359 22.9615 56.7476Z" fill="#E1E1E1"/>
<path fill-rule="evenodd" clip-rule="evenodd" d="M23.9701 62.4298C24.2576 62.0748 24.3895 61.6293 24.3418 61.1753C24.3149 60.9193 24.0856 60.7337 23.8297 60.7607C23.5737 60.7878 23.388 61.0172 23.4149 61.2732C23.4366 61.4796 23.3766 61.6821 23.246 61.8434C23.1154 62.0046 22.9298 62.1054 22.7234 62.1271C22.5953 62.1405 22.4849 62.2047 22.4098 62.2975C22.3347 62.3902 22.295 62.5115 22.3084 62.6394C22.3351 62.8954 22.5644 63.0811 22.8203 63.0542C23.2744 63.0064 23.6828 62.7846 23.9701 62.4298Z" fill="white"/>
<ellipse cx="3.79772" cy="10.0464" rx="3.79772" ry="10.0464" transform="matrix(-0.87462 0.48481 0.48481 0.87462 68.4539 57.2908)" fill="#B6B6B6"/>
<ellipse cx="3.79772" cy="10.0464" rx="3.79772" ry="10.0464" transform="matrix(-0.866025 0.5 0.5 0.866025 67.8218 55.9799)" fill="#D3D3D3"/>
<rect x="11.7463" y="13.5629" width="65.6781" height="40.6322" rx="20.3161" fill="#A5A5A5"/>
<path fill-rule="evenodd" clip-rule="evenodd" d="M11.7465 32.3161C11.7465 21.0958 20.8423 12 32.0626 12H57.1085C68.3288 12 77.4246 21.0958 77.4246 32.3161C77.4246 43.5364 68.3288 52.6322 57.1085 52.6322H32.0626C20.8423 52.6322 11.7465 43.5364 11.7465 32.3161Z" fill="#C6C6C6"/>
<rect x="19.3419" y="18.4742" width="50.4873" height="27.4602" rx="13.7301" fill="#17152E"/>
<rect x="19.3419" y="21.6" width="50.4873" height="24.3347" rx="12.1673" fill="#292345"/>
<g style="mix-blend-mode:soft-light" opacity="0.4">
<rect x="11.7465" y="12" width="40.2336" height="30.6188" rx="15.3094" fill="#E3E5E1" style="mix-blend-mode:multiply"/>
</g>
<ellipse cx="57.6542" cy="31.9813" rx="3.90941" ry="3.90694" fill="#577EEA"/>
<path fill-rule="evenodd" clip-rule="evenodd" d="M61.473 32.9444C61.2837 32.9717 61.0902 32.9859 60.8933 32.9859C58.6725 32.9859 56.8722 31.1867 56.8722 28.9673C56.8722 28.6751 56.9034 28.3902 56.9627 28.1157C55.0165 28.3965 53.5212 30.0702 53.5212 32.0928C53.5212 34.3122 55.3216 36.1114 57.5424 36.1114C59.4708 36.1114 61.0821 34.7548 61.473 32.9444Z" fill="#476FFD"/>
<path fill-rule="evenodd" clip-rule="evenodd" d="M58.2126 35.2618C58.2126 35.4365 58.0709 35.5781 57.8962 35.5781C55.9766 35.5781 54.4149 34.0174 54.4149 32.0991C54.4149 31.9244 54.5566 31.7828 54.7314 31.7828C54.9062 31.7828 55.0479 31.9244 55.0479 32.0991C55.0479 33.6686 56.3256 34.9455 57.8962 34.9455C58.0709 34.9456 58.2126 35.0872 58.2126 35.2618ZM54.9186 30.9808C54.9257 30.9813 54.9328 30.9815 54.9399 30.9815C55.1051 30.9815 55.2442 30.8534 55.2553 30.6862L55.2581 30.6441C55.2697 30.4699 55.1377 30.3191 54.9633 30.3076C54.7889 30.296 54.6381 30.4279 54.6266 30.6022L54.6238 30.6443C54.6122 30.8185 54.7442 30.9693 54.9186 30.9808Z" fill="white"/>
<ellipse cx="31.5169" cy="32.2044" rx="3.90941" ry="3.90694" fill="#577EEA"/>
<path fill-rule="evenodd" clip-rule="evenodd" d="M35.3358 33.1677C35.1465 33.195 34.9529 33.2091 34.7561 33.2091C32.5353 33.2091 30.7349 31.41 30.7349 29.1906C30.7349 28.8984 30.7661 28.6136 30.8254 28.3391C28.8793 28.62 27.384 30.2936 27.384 32.3162C27.384 34.5356 29.1843 36.3348 31.4051 36.3348C33.3336 36.3348 34.945 34.9781 35.3358 33.1677Z" fill="#476FFD"/>
<path fill-rule="evenodd" clip-rule="evenodd" d="M32.0754 35.4851C32.0754 35.6598 31.9337 35.8014 31.7589 35.8014C29.8393 35.8014 28.2776 34.2407 28.2776 32.3223C28.2776 32.1477 28.4194 32.0061 28.5941 32.0061C28.7689 32.0061 28.9106 32.1477 28.9106 32.3223C28.9106 33.8919 30.1883 35.1688 31.7589 35.1688C31.9337 35.1689 32.0754 35.3104 32.0754 35.4851ZM28.7812 31.2041C28.7884 31.2045 28.7955 31.2048 28.8025 31.2048C28.9678 31.2048 29.1069 31.0766 29.118 30.9095L29.1208 30.8674C29.1324 30.6931 29.0004 30.5424 28.826 30.5309C28.6516 30.5193 28.5008 30.6512 28.4892 30.8254L28.4865 30.8675C28.4748 31.0418 28.6068 31.1925 28.7812 31.2041Z" fill="white"/>
<path fill-rule="evenodd" clip-rule="evenodd" d="M40.5644 38.7905C40.5644 38.7905 40.5644 38.7906 40.5644 38.7906C40.5644 41.01 42.3647 42.8091 44.5855 42.8091C46.8063 42.8091 48.6066 41.01 48.6066 38.7906C48.6066 38.7906 48.6066 38.7905 48.6066 38.7905H40.5644Z" fill="white"/>
<path fill-rule="evenodd" clip-rule="evenodd" d="M72.5778 73.231L71.83 72.2387C71.6751 72.0331 71.3829 71.9922 71.1773 72.1472C70.9717 72.3021 70.9304 72.5943 71.0853 72.7998L71.8331 73.7921C72.503 74.6812 73.7719 74.8591 74.6616 74.1887C74.8672 74.0338 74.9084 73.7416 74.7535 73.536C74.5986 73.3305 74.3064 73.2896 74.1008 73.4445C73.6218 73.8055 72.9385 73.7097 72.5778 73.231Z" fill="#F3F3F3"/>
<path fill-rule="evenodd" clip-rule="evenodd" d="M16.5946 19.144C16.2269 19.5753 15.877 20.0222 15.546 20.4835H20.1086C20.3881 20.4835 20.6147 20.1836 20.6147 19.8138C20.6147 19.4439 20.3881 19.1441 20.1086 19.144H16.5946ZM22.6095 19.1443H22.6981C23.0653 19.1443 23.363 19.4441 23.363 19.814C23.363 20.1839 23.0653 20.4838 22.6981 20.4838H22.6095C22.2423 20.4838 21.9446 20.1839 21.9446 19.814C21.9446 19.4442 22.2423 19.1443 22.6095 19.1443Z" fill="white"/>
<path fill-rule="evenodd" clip-rule="evenodd" d="M37.9482 56.5728L39.1597 55.0741L37.9482 53.5754C37.7132 53.2847 37.9224 52.854 38.2986 52.854H44.5437V57.2941H38.2986C37.9223 57.2942 37.7132 56.8635 37.9482 56.5728Z" fill="#B50000"/>
<path fill-rule="evenodd" clip-rule="evenodd" d="M44.5437 55.0624H39.1597L37.9483 53.5637C37.7133 53.273 37.9224 52.8423 38.2986 52.8423H44.5437V55.0624Z" fill="#CC0000"/>
<path fill-rule="evenodd" clip-rule="evenodd" d="M49.9349 55.0741L51.1464 53.5754C51.3814 53.2847 51.1722 52.854 50.796 52.854H44.5509V57.2941H50.7961C51.1723 57.2942 51.3814 56.8635 51.1464 56.5728L49.9349 55.0741Z" fill="#8E0E0E"/>
<path fill-rule="evenodd" clip-rule="evenodd" d="M44.5509 55.0624H49.9349L51.1463 53.5637C51.3813 53.273 51.1722 52.8423 50.796 52.8423H44.5509V55.0624Z" fill="#B50000"/>
<path fill-rule="evenodd" clip-rule="evenodd" d="M44.426 57.9903C42.8397 57.9903 41.5538 56.6909 41.5538 55.088C41.5538 53.4851 42.8397 52.1857 44.426 52.1857C46.0123 52.1857 47.2982 53.4851 47.2982 55.088C47.2982 56.6908 46.0123 57.9903 44.426 57.9903Z" fill="#FF8B00"/>
<path fill-rule="evenodd" clip-rule="evenodd" d="M44.426 57.3454C43.2804 57.3454 42.3516 56.4069 42.3516 55.2493C42.3516 54.0917 43.2804 53.1532 44.426 53.1532C45.5716 53.1532 46.5004 54.0917 46.5004 55.2493C46.5004 56.4069 45.5716 57.3454 44.426 57.3454Z" fill="#FF5200"/>
<path fill-rule="evenodd" clip-rule="evenodd" d="M44.426 56.7004C43.6329 56.7004 42.9899 56.0507 42.9899 55.2492C42.9899 54.4478 43.6328 53.7981 44.426 53.7981C45.2191 53.7981 45.8621 54.4478 45.8621 55.2492C45.8621 56.0507 45.2191 56.7004 44.426 56.7004Z" fill="#FFA800"/>
<path fill-rule="evenodd" clip-rule="evenodd" d="M44.4792 53.7981C44.6976 53.7981 44.9049 53.846 45.0919 53.9314C45.1764 54.1204 45.2238 54.3298 45.2238 54.5505C45.2238 55.3816 44.557 56.0554 43.7345 56.0554C43.5161 56.0554 43.3088 56.0075 43.1218 55.9221C43.0373 55.7332 42.9899 55.5237 42.9899 55.303C42.9899 54.4719 43.6567 53.7981 44.4792 53.7981Z" fill="#FFC02C"/>
<path d="M70.2036 50.141C75.979 49.6762 78.5074 44.7887 79.4442 39.6834L77.6646 38.231C76.946 46.6624 72.1287 48.398 70.2036 48.6885C68.2784 48.979 52.5886 48.645 52.5886 48.645V50.0974C56.0538 50.0974 64.4281 50.6058 70.2036 50.141Z" fill="#476FFD"/>
<rect x="82" y="28.2717" width="11.8664" height="6.87005" rx="3.43502" transform="rotate(90.2787 82 28.2717)" fill="#476FFD"/>
<rect x="81.9734" y="28.2684" width="11.8664" height="5.71275" rx="2.85637" transform="rotate(90.2787 81.9734 28.2684)" fill="#577EEA"/>
<circle cx="52.9008" cy="49.1608" r="2.18592" fill="#476FFD"/>
</g>
<rect x="5" y="1" width="78" height="78" rx="39" stroke="url(#paint2_linear_1442_16559)" stroke-width="2"/>
<defs>
<filter id="filter0_d_1442_16559" x="0" y="0" width="88" height="88" filterUnits="userSpaceOnUse" color-interpolation-filters="sRGB">
<feFlood flood-opacity="0" result="BackgroundImageFix"/>
<feColorMatrix in="SourceAlpha" type="matrix" values="0 0 0 0 0 0 0 0 0 0 0 0 0 0 0 0 0 0 127 0" result="hardAlpha"/>
<feOffset dy="4"/>
<feGaussianBlur stdDeviation="2"/>
<feComposite in2="hardAlpha" operator="out"/>
<feColorMatrix type="matrix" values="0 0 0 0 0 0 0 0 0 0 0 0 0 0 0 0 0 0 0.25 0"/>
<feBlend mode="normal" in2="BackgroundImageFix" result="effect1_dropShadow_1442_16559"/>
<feBlend mode="normal" in="SourceGraphic" in2="effect1_dropShadow_1442_16559" result="shape"/>
</filter>
<linearGradient id="paint0_linear_1442_16559" x1="42.6667" y1="77.6667" x2="44" y2="-0.499999" gradientUnits="userSpaceOnUse">
<stop offset="0.364583" stop-color="#FFF9BF"/>
<stop offset="1" stop-color="white"/>
</linearGradient>
<linearGradient id="paint1_linear_1442_16559" x1="42.6667" y1="77.6667" x2="44" y2="1.121e-06" gradientUnits="userSpaceOnUse">
<stop stop-color="white"/>
<stop offset="0.90625" stop-color="#F7FFE6"/>
</linearGradient>
<linearGradient id="paint2_linear_1442_16559" x1="44" y1="0" x2="44" y2="80" gradientUnits="userSpaceOnUse">
<stop stop-color="white"/>
<stop offset="0.744792" stop-color="#D8D8D8"/>
<stop offset="1" stop-color="white"/>
</linearGradient>
</defs>
</svg>
