<svg width="150" height="72" viewBox="0 0 150 72" fill="none" xmlns="http://www.w3.org/2000/svg">
<g filter="url(#filter0_d_221_1701)">
<path d="M8 14C8 8.47715 12.4772 4 18 4H132C137.523 4 142 8.47715 142 14V42C142 47.5228 137.523 52 132 52H18C12.4772 52 8 47.5228 8 42V14Z" fill="white"/>
<path d="M24.852 14.984C24.404 14.326 23.424 13.346 22.626 12.66L21.828 13.206C22.64 13.92 23.592 14.928 24.012 15.586L24.852 14.984ZM23.606 18.036C23.13 18.932 22.514 19.786 21.772 20.584C21.534 19.66 21.338 18.582 21.198 17.392H25.202V16.398H21.086C20.974 15.152 20.918 13.808 20.918 12.408H19.854C19.868 13.78 19.924 15.124 20.05 16.398H16.844V13.962C17.698 13.78 18.51 13.556 19.182 13.318L18.44 12.464C17.124 12.954 14.87 13.43 12.91 13.724C13.05 13.976 13.19 14.34 13.246 14.592C14.072 14.48 14.954 14.34 15.822 14.172V16.398H12.826V17.392H15.822V19.842C14.604 20.094 13.47 20.332 12.63 20.472L12.924 21.522C13.764 21.34 14.772 21.102 15.822 20.878V23.72C15.822 23.972 15.738 24.042 15.486 24.042C15.248 24.056 14.422 24.07 13.526 24.028C13.68 24.322 13.862 24.798 13.918 25.078C15.052 25.078 15.808 25.05 16.242 24.882C16.676 24.714 16.844 24.406 16.844 23.734V20.626C17.698 20.43 18.566 20.234 19.42 20.024L19.35 19.086C18.524 19.268 17.67 19.45 16.844 19.632V17.392H20.134C20.316 18.904 20.582 20.29 20.918 21.452C19.924 22.376 18.776 23.146 17.6 23.72C17.866 23.944 18.16 24.294 18.314 24.546C19.364 24 20.358 23.3 21.268 22.488C21.912 24.126 22.752 25.106 23.858 25.106C24.908 25.106 25.272 24.434 25.468 22.124C25.174 22.026 24.81 21.788 24.586 21.564C24.502 23.356 24.334 24.07 23.956 24.07C23.256 24.07 22.626 23.174 22.094 21.704C23.074 20.71 23.9 19.604 24.53 18.414L23.606 18.036ZM36.584 14.788H29.346V13.654H36.584V14.788ZM36.584 16.678H29.346V15.544H36.584V16.678ZM37.62 12.856H28.324V17.476H37.62V12.856ZM33.63 21.83H38.25V20.906H33.63V19.352H39.16V18.414H26.868V19.352H32.608V23.566C31.404 23.244 30.508 22.6 29.962 21.34C30.102 20.892 30.228 20.43 30.326 19.94L29.276 19.8C28.898 21.844 28.016 23.412 26.56 24.35C26.784 24.518 27.19 24.91 27.33 25.092C28.24 24.42 28.968 23.552 29.514 22.46C30.648 24.35 32.426 24.798 35.24 24.798H39.048C39.104 24.49 39.272 24.042 39.412 23.804C38.698 23.818 35.8 23.818 35.282 23.818C34.694 23.818 34.134 23.79 33.63 23.734V21.83ZM46.93 18.26C46.538 17.98 44.928 17 44.382 16.706C44.41 16.622 44.438 16.552 44.452 16.468H47.042V15.614H44.606C44.634 15.432 44.634 15.278 44.634 15.11V14.298H46.692V13.458H42.884C43.024 13.122 43.164 12.786 43.262 12.436L42.324 12.254C42.002 13.304 41.456 14.354 40.742 15.04C40.98 15.152 41.386 15.404 41.582 15.544C41.89 15.208 42.198 14.774 42.464 14.298H43.64V15.11C43.64 15.278 43.64 15.432 43.612 15.614H40.742V16.468H43.43C43.136 17.322 42.394 18.246 40.616 18.946C40.854 19.1 41.148 19.436 41.274 19.66C42.744 18.988 43.584 18.204 44.06 17.406C44.76 17.882 45.796 18.624 46.202 18.974L46.93 18.26ZM50.262 20.192V21.508H43.794V20.192H50.262ZM43.794 23.706V22.32H50.262V23.706H43.794ZM42.772 25.078H43.794V24.56H50.262V25.05H51.312V19.338H42.772V25.078ZM51.48 17.322H48.596V14.354H51.48V17.322ZM47.616 13.416V18.274H52.502V13.416H47.616ZM65.9 18.316C66.404 18.316 66.908 18.288 67.146 18.232C67.104 17.994 67.062 17.602 67.034 17.322C66.768 17.392 66.208 17.406 65.872 17.406H63.296C62.848 17.406 62.736 17.238 62.736 16.734V15.152H66.502V14.228H62.736V12.296H61.714V16.706C61.714 17.882 62.05 18.316 63.282 18.316H65.9ZM56.66 19.45C57.416 19.912 58.382 20.556 58.872 20.962L59.432 20.388C58.928 19.996 57.948 19.366 57.206 18.932L56.66 19.45ZM56.548 18.134H59.446V20.962C58.326 21.522 57.22 22.082 56.436 22.432C56.52 21.816 56.548 21.2 56.548 20.668V18.134ZM60.44 17.238H55.582V20.654C55.582 21.844 55.498 23.314 54.7 24.378C54.91 24.518 55.274 24.882 55.414 25.106C56.002 24.378 56.282 23.412 56.422 22.488L56.786 23.328C57.57 22.88 58.522 22.334 59.446 21.788V23.944C59.446 24.126 59.404 24.182 59.208 24.182C59.026 24.182 58.452 24.196 57.78 24.168C57.92 24.42 58.06 24.77 58.116 25.036C58.984 25.036 59.6 25.022 59.95 24.868C60.328 24.714 60.44 24.476 60.44 23.944V17.238ZM58.704 13.626C58.998 14.06 59.292 14.536 59.572 15.012L56.702 15.208C57.388 14.48 58.06 13.542 58.648 12.632L57.612 12.282C57.024 13.416 56.1 14.55 55.834 14.844C55.554 15.138 55.316 15.348 55.092 15.39C55.218 15.642 55.372 16.16 55.428 16.37C55.75 16.216 56.24 16.16 60.034 15.852C60.216 16.202 60.37 16.524 60.482 16.804L61.378 16.398C61.028 15.572 60.23 14.256 59.544 13.304L58.704 13.626ZM63.52 24.028C62.862 24.028 62.736 23.944 62.736 23.482V21.382H66.656V20.444H62.736V18.778H61.714V23.482C61.714 24.63 62.064 24.952 63.422 24.952H65.9C67.062 24.952 67.37 24.476 67.496 22.656C67.216 22.586 66.81 22.432 66.572 22.264C66.502 23.762 66.404 24.028 65.816 24.028H63.52ZM70.142 14.508H79.816V16.16H80.866V13.542H75.882C75.658 13.108 75.35 12.576 75.07 12.17L74.062 12.422C74.272 12.758 74.496 13.178 74.692 13.542H69.12V16.16H70.142V14.508ZM71.892 20.794C72.984 20.43 74.034 19.996 75.014 19.464C76.022 20.01 77.128 20.444 78.318 20.794H71.892ZM72.27 23.706V21.676H77.8V23.706H72.27ZM72.998 16.608H77.226C76.652 17.252 75.896 17.826 75.028 18.358C74.202 17.854 73.488 17.294 72.942 16.664L72.998 16.608ZM78.122 15.74L77.94 15.782H73.782C74.006 15.502 74.23 15.236 74.426 14.956L73.306 14.76C72.606 15.824 71.248 17.042 69.33 17.896C69.568 18.064 69.876 18.4 70.03 18.638C70.856 18.232 71.584 17.77 72.214 17.28C72.732 17.868 73.348 18.4 74.048 18.89C72.368 19.716 70.408 20.318 68.546 20.64C68.728 20.864 68.952 21.284 69.05 21.55C69.778 21.396 70.52 21.228 71.262 21.004V25.064H72.27V24.602H77.8V25.05H78.85V20.934C79.48 21.102 80.138 21.242 80.796 21.326C80.95 21.032 81.216 20.584 81.454 20.346C79.466 20.094 77.59 19.59 76.036 18.862C77.17 18.12 78.136 17.224 78.822 16.188L78.122 15.74ZM84.478 19.38C84.492 18.82 84.506 18.274 84.506 17.798V17.028H86.62V19.38H84.478ZM86.62 13.766V16.062H84.506V13.766H86.62ZM87.586 12.8H83.554V17.798C83.554 19.856 83.484 22.628 82.518 24.588C82.77 24.686 83.19 24.924 83.372 25.092C84.002 23.776 84.296 22.026 84.422 20.374H86.62V23.818C86.62 24.014 86.55 24.07 86.354 24.084C86.186 24.098 85.598 24.098 84.954 24.084C85.094 24.35 85.234 24.812 85.248 25.078C86.2 25.078 86.76 25.064 87.11 24.882C87.474 24.7 87.586 24.392 87.586 23.832V12.8ZM93.984 18.526C93.662 19.716 93.186 20.766 92.584 21.662C91.94 20.738 91.436 19.674 91.058 18.526H93.984ZM94.516 17.532L94.334 17.56H89.798V13.808H93.718V15.516C93.718 15.684 93.662 15.74 93.438 15.74C93.228 15.754 92.5 15.754 91.646 15.74C91.786 15.992 91.94 16.342 91.982 16.622C93.032 16.622 93.732 16.622 94.18 16.482C94.6 16.328 94.726 16.062 94.726 15.53V12.842H88.818V25.078H89.798V18.526H90.148C90.61 19.968 91.226 21.312 92.01 22.446C91.366 23.202 90.638 23.804 89.868 24.224C90.078 24.406 90.344 24.756 90.484 24.994C91.254 24.546 91.968 23.944 92.598 23.202C93.27 23.986 94.026 24.616 94.866 25.092C95.02 24.84 95.3 24.49 95.538 24.294C94.656 23.86 93.872 23.23 93.2 22.46C94.082 21.214 94.754 19.646 95.118 17.742L94.516 17.532ZM98.338 21.788H100.914V20.962H98.338V21.788ZM100.004 15.572H99.192V13.78H100.004V15.572ZM101.474 18.834C101.446 18.848 101.39 18.848 101.264 18.848H100.746C100.578 18.848 100.564 18.834 100.564 18.652V16.468H101.474V18.834ZM97.764 23.188V19.828C97.904 19.926 98.044 20.08 98.128 20.178C98.996 19.408 99.206 18.358 99.206 17.518V16.468H99.976V18.666C99.976 19.324 100.144 19.464 100.69 19.464H101.376H101.474V23.188H97.764ZM98.618 16.468V17.518C98.618 18.204 98.492 19.044 97.764 19.716V16.468H98.618ZM96.7 13.78H98.45V15.572H96.952V25.036H97.764V24.042H101.474V24.84H102.3V15.572H100.76V13.78H102.454V12.884H96.7V13.78ZM107.984 20.752V23.44H104.26V20.752H107.984ZM103.294 25.036H104.26V24.392H107.984V25.008H108.992V19.8H103.294V25.036ZM106.78 17.658V15.46H109.132V14.522H106.78V12.296H105.8V14.522H104.526C104.652 14.004 104.764 13.472 104.862 12.926L103.896 12.772C103.686 14.186 103.28 15.656 102.706 16.622C102.944 16.72 103.378 16.944 103.574 17.084C103.812 16.636 104.05 16.076 104.246 15.46H105.8V17.658H102.818V18.596H109.454V17.658H106.78ZM117.588 21.242V22.656H113.556V21.242H117.588ZM118.61 23.482V20.416H112.534V24.07H113.556V23.482H118.61ZM123.188 18.428H121.382V13.878H122.922V12.982H111.134V13.878H120.318V18.428H110.812V19.352H120.486V23.86C120.486 24.056 120.416 24.098 120.206 24.112C119.968 24.112 119.198 24.112 118.4 24.098C118.554 24.378 118.722 24.77 118.778 25.078C119.828 25.078 120.528 25.064 120.962 24.91C121.41 24.742 121.55 24.476 121.55 23.874V19.352H123.202L123.188 18.428ZM117.826 16.804H113.528V15.474H117.826V16.804ZM112.618 14.718V17.546H118.792V14.718H112.618ZM130.538 20.612H131.462L131.742 15.18L131.77 13.528H130.23L130.258 15.18L130.538 20.612ZM131 24.07C131.49 24.07 131.896 23.706 131.896 23.146C131.896 22.586 131.49 22.208 131 22.208C130.51 22.208 130.104 22.586 130.104 23.146C130.104 23.706 130.496 24.07 131 24.07ZM22.458 39.044H16.62V37.63H22.458V39.044ZM16.578 41.41C16.606 41.046 16.62 40.71 16.62 40.374V39.94H22.458V41.41H16.578ZM25.118 35.068V34.088H17.978C18.188 33.584 18.37 33.052 18.524 32.534L17.488 32.282C17.32 32.884 17.11 33.486 16.872 34.088H12.938V35.068H16.424C15.556 36.874 14.296 38.526 12.658 39.632C12.854 39.842 13.176 40.22 13.316 40.444C14.17 39.842 14.926 39.1 15.584 38.302V40.346C15.584 41.676 15.458 43.216 14.296 44.336C14.52 44.49 14.898 44.924 15.024 45.148C15.85 44.378 16.27 43.328 16.452 42.306H22.458V43.762C22.458 43.972 22.374 44.042 22.136 44.056C21.884 44.056 21.044 44.07 20.106 44.028C20.26 44.322 20.414 44.742 20.456 45.05C21.646 45.05 22.43 45.036 22.892 44.868C23.34 44.7 23.48 44.392 23.48 43.762V36.692H16.704C17.012 36.174 17.292 35.614 17.558 35.068H25.118ZM30.088 32.338C29.29 34.494 27.96 36.608 26.56 37.98C26.742 38.232 27.036 38.764 27.148 39.002C27.666 38.456 28.184 37.812 28.674 37.126V45.05H29.696V35.502C30.214 34.606 30.69 33.612 31.068 32.646L30.088 32.338ZM39.314 37.098H35.548V32.436H34.498V37.098H30.592V38.12H34.498V45.078H35.548V38.12H39.314V37.098ZM52.166 38.862C51.998 38.862 51.984 38.792 51.984 38.526V36.902H51.326V38.512C51.326 39.114 51.424 39.366 52.012 39.366H52.628C52.824 39.366 53.048 39.366 53.146 39.324C53.132 39.156 53.118 38.974 53.118 38.806C52.992 38.848 52.74 38.862 52.6 38.862H52.166ZM50.71 39.562V36.398H52.88V35.572H50.71V34.774H49.884V35.572H48.064V36.398H49.884V39.562H50.71ZM49.184 36.93H48.526V37.504C48.526 38.036 48.428 38.75 47.854 39.184C48.022 39.268 48.302 39.492 48.414 39.632C49.072 39.058 49.184 38.246 49.184 37.518V36.93ZM53.104 34.312V33.388H48.134C48.036 33.038 47.868 32.59 47.714 32.24L46.692 32.436C46.79 32.73 46.902 33.08 46.986 33.388H41.652V37.336C41.652 39.436 41.568 42.418 40.574 44.546C40.784 44.658 41.218 44.966 41.386 45.162C42.478 42.908 42.646 39.562 42.646 37.336V34.312H53.104ZM45.88 39.646V36.398H47.672V35.572H45.88V34.774H45.054V35.572H43.29V36.398H45.054V39.646H45.88ZM47.392 39.198C47.546 39.198 47.728 39.198 47.84 39.156L47.798 38.666C47.672 38.694 47.462 38.708 47.378 38.708H47.252C47.126 38.708 47.112 38.652 47.112 38.4V36.986H46.454V38.386C46.454 38.96 46.566 39.198 47.084 39.198H47.392ZM44.284 36.93H43.612V37.56C43.612 38.148 43.528 38.918 42.884 39.394C43.052 39.492 43.318 39.702 43.444 39.856C44.172 39.212 44.284 38.358 44.284 37.588V36.93ZM49.898 42.054C50.206 42.446 50.556 42.88 50.878 43.314L45.53 43.706C47.252 42.894 49.002 41.872 50.724 40.626L49.94 40.08C49.324 40.556 48.638 41.032 47.98 41.452L45.362 41.564C46.216 41.102 47.084 40.486 47.91 39.786L47.168 39.338C46.272 40.192 45.026 41.004 44.648 41.186C44.312 41.396 44.018 41.536 43.766 41.564C43.864 41.802 43.99 42.222 44.018 42.404C44.242 42.334 44.592 42.278 46.818 42.152C45.908 42.698 45.124 43.104 44.746 43.272C44.046 43.622 43.514 43.846 43.136 43.874C43.234 44.126 43.346 44.588 43.388 44.784C43.808 44.63 44.494 44.602 51.438 44.07C51.69 44.434 51.914 44.756 52.082 45.022L52.88 44.56C52.376 43.832 51.424 42.572 50.668 41.676L49.898 42.054ZM59.362 33.724V34.9H56.352V33.724H59.362ZM56.352 36.944V35.67H59.362V36.944H56.352ZM60.356 37.784V32.884H55.33V45.078H56.352V37.784H60.356ZM62.582 39.912V42.222H59.292V39.912H62.582ZM63.548 43.104V39.03H58.34V43.944H59.292V43.104H63.548ZM62.596 36.958V35.67H65.704V36.958H62.596ZM65.704 33.71V34.9H62.596V33.71H65.704ZM66.754 32.884H61.602V37.784H65.704V43.664C65.704 43.93 65.62 44.014 65.368 44.014C65.088 44.028 64.178 44.042 63.268 44C63.408 44.28 63.576 44.77 63.632 45.064C64.85 45.064 65.648 45.05 66.138 44.882C66.586 44.7 66.754 44.35 66.754 43.664V32.884ZM79.676 36.65H76.344V35.6H79.676V36.65ZM79.676 38.414H76.344V37.378H79.676V38.414ZM79.676 40.206H76.344V39.156H79.676V40.206ZM75.406 34.83V40.976H80.642V34.83H78.052C78.178 34.508 78.318 34.13 78.444 33.766H81.202V32.968H74.874V33.766H77.478C77.394 34.116 77.282 34.494 77.17 34.83H75.406ZM78.5 41.606C79.27 42.124 80.18 42.922 80.642 43.482L81.398 42.992C80.936 42.46 80.026 41.69 79.214 41.2L78.5 41.606ZM76.568 41.214C76.036 41.858 75.14 42.488 74.258 42.894C74.468 43.034 74.804 43.384 74.958 43.552C75.84 43.048 76.834 42.264 77.436 41.494L76.568 41.214ZM73.18 34.676H70.45V33.64H73.18V34.676ZM73.18 36.468H70.45V35.404H73.18V36.468ZM74.132 32.87H69.512V37.238H74.132V32.87ZM72.354 41.368H74.72V40.57H72.354V39.072H74.958V38.26H68.686V39.072H71.458V42.796C71.038 42.46 70.688 42.012 70.422 41.438C70.478 40.92 70.506 40.374 70.534 39.842H69.666C69.596 41.55 69.358 43.426 68.518 44.434C68.742 44.588 69.05 44.91 69.176 45.106C69.708 44.462 70.044 43.566 70.24 42.558C71.5 44.434 73.586 44.77 76.61 44.77H81.104C81.16 44.49 81.328 44.098 81.482 43.874C80.67 43.902 77.226 43.902 76.61 43.902C74.888 43.888 73.46 43.804 72.354 43.328V41.368ZM93.606 35.18H90.134V33.878H93.606V35.18ZM93.606 37.294H90.134V35.992H93.606V37.294ZM93.606 39.436H90.134V38.106H93.606V39.436ZM94.6 33.024H89.168V40.29H94.6V33.024ZM87.81 40.71C88.454 41.34 89.308 42.236 89.714 42.768L90.47 42.152C90.05 41.634 89.182 40.766 88.538 40.178L87.81 40.71ZM83.61 44.336C84.17 43.566 84.618 42.32 84.926 41.382L84.016 41.032C83.736 41.942 83.26 43.132 82.7 43.874L83.61 44.336ZM86.354 40.43V37.028C86.97 37.546 87.754 38.232 88.118 38.582L88.678 37.742C88.314 37.462 86.886 36.398 86.354 36.062V35.278H88.566V34.368H86.354V32.324H85.36V34.368H82.812V35.278H85.178C84.562 36.706 83.526 38.148 82.504 38.876C82.714 39.044 83.008 39.366 83.176 39.604C83.96 38.96 84.744 37.896 85.36 36.748V40.43H86.354ZM87.964 43.832C87.152 43.832 87.012 43.762 87.012 43.398V41.186H85.99V43.412C85.99 44.49 86.382 44.77 87.894 44.77H90.792C92.052 44.77 92.374 44.35 92.514 42.6C92.22 42.544 91.8 42.39 91.562 42.208C91.506 43.636 91.394 43.832 90.722 43.832H87.964ZM92.71 41.158C93.27 42.082 93.998 43.3 94.32 44.028L95.286 43.552C94.936 42.838 94.18 41.634 93.606 40.752L92.71 41.158ZM101.362 33.724V34.9H98.352V33.724H101.362ZM98.352 36.944V35.67H101.362V36.944H98.352ZM102.356 37.784V32.884H97.33V45.078H98.352V37.784H102.356ZM104.582 39.912V42.222H101.292V39.912H104.582ZM105.548 43.104V39.03H100.34V43.944H101.292V43.104H105.548ZM104.596 36.958V35.67H107.704V36.958H104.596ZM107.704 33.71V34.9H104.596V33.71H107.704ZM108.754 32.884H103.602V37.784H107.704V43.664C107.704 43.93 107.62 44.014 107.368 44.014C107.088 44.028 106.178 44.042 105.268 44C105.408 44.28 105.576 44.77 105.632 45.064C106.85 45.064 107.648 45.05 108.138 44.882C108.586 44.7 108.754 44.35 108.754 43.664V32.884ZM113.836 34.592V40.136H112.002V34.592H113.836ZM114.774 41.102V33.626H111.064V42.404H112.002V41.102H114.774ZM115.222 44.546C115.852 43.748 116.16 42.39 116.342 41.256L115.558 41.032C115.39 42.124 115.054 43.398 114.466 44.154L115.222 44.546ZM116.986 41.256C117.224 42.152 117.336 43.272 117.308 44L118.078 43.874C118.092 43.146 117.98 42.012 117.728 41.144L116.986 41.256ZM118.526 41.158C118.862 41.9 119.198 42.88 119.296 43.538L120.024 43.286C119.898 42.656 119.562 41.676 119.198 40.934L118.526 41.158ZM116.748 38.12H118.89V39.464H116.748V38.12ZM118.89 33.85V35.138H116.748V33.85H118.89ZM118.89 37.294H116.748V35.992H118.89V37.294ZM119.856 39.464V38.12H122.432V37.294H119.856V35.992H122.432V35.138H119.856V33.85H122.712V32.926H115.782V40.36H122.124C121.984 42.838 121.816 43.79 121.578 44.042C121.466 44.182 121.34 44.21 121.13 44.21C120.92 44.21 120.374 44.196 119.772 44.14C119.926 44.378 120.024 44.77 120.038 45.036C120.668 45.064 121.256 45.064 121.564 45.036C121.942 45.008 122.166 44.924 122.39 44.672C122.754 44.238 122.922 43.048 123.104 39.898C123.118 39.758 123.118 39.464 123.118 39.464H119.856ZM120.052 40.906C120.43 41.494 120.808 42.278 120.962 42.824L121.606 42.544C121.452 42.026 121.06 41.256 120.668 40.682L120.052 40.906ZM130.23 40.612H131.378C131 38.512 134.346 38.078 134.346 35.964C134.346 34.354 133.086 33.346 131.112 33.346C129.586 33.346 128.494 33.99 127.57 34.97L128.326 35.67C129.138 34.816 130.02 34.396 130.972 34.396C132.4 34.396 133.1 35.096 133.1 36.062C133.1 37.658 129.796 38.288 130.23 40.612ZM130.832 44.07C131.322 44.07 131.728 43.706 131.728 43.146C131.728 42.586 131.322 42.208 130.832 42.208C130.328 42.208 129.922 42.586 129.922 43.146C129.922 43.706 130.328 44.07 130.832 44.07Z" fill="#6C757D"/>
<path d="M102 48L119 60V48H102Z" fill="white"/>
</g>
<defs>
<filter id="filter0_d_221_1701" x="0" y="0" width="150" height="72" filterUnits="userSpaceOnUse" color-interpolation-filters="sRGB">
<feFlood flood-opacity="0" result="BackgroundImageFix"/>
<feColorMatrix in="SourceAlpha" type="matrix" values="0 0 0 0 0 0 0 0 0 0 0 0 0 0 0 0 0 0 127 0" result="hardAlpha"/>
<feOffset dy="4"/>
<feGaussianBlur stdDeviation="4"/>
<feComposite in2="hardAlpha" operator="out"/>
<feColorMatrix type="matrix" values="0 0 0 0 0 0 0 0 0 0 0 0 0 0 0 0 0 0 0.25 0"/>
<feBlend mode="normal" in2="BackgroundImageFix" result="effect1_dropShadow_221_1701"/>
<feBlend mode="normal" in="SourceGraphic" in2="effect1_dropShadow_221_1701" result="shape"/>
</filter>
</defs>
</svg>
