<svg width="130" height="80" viewBox="0 0 130 80" fill="none" xmlns="http://www.w3.org/2000/svg">
<g clip-path="url(#clip0_1482_13195)">
<path d="M28.5675 32.6899H20V47.7499H28.5675V32.6899Z" fill="#37BEF0"/>
<path d="M85.0802 40.7599C84.3478 39.4799 83.1624 38.4099 81.553 37.5399C79.9436 36.6799 77.2645 35.8299 73.5252 34.9799C72.0218 34.6499 71.0581 34.2899 70.663 33.9099C70.2582 33.5499 70.0558 33.1399 70.0462 32.6899H62.1919C62.1629 32.9499 62.134 33.2099 62.134 33.4799C62.134 35.7499 62.9339 37.6199 64.5433 39.0799C66.1431 40.5499 68.803 41.7199 72.5615 42.6099C74.8552 43.1399 76.3104 43.6999 76.9368 44.2899C77.5632 44.8899 77.8812 45.5199 77.8812 46.3099C77.8812 46.8399 77.7174 47.3099 77.4283 47.7599H85.8127C86.0632 46.8999 86.1885 45.9999 86.1885 45.0599C86.1885 43.4699 85.8223 42.0499 85.0899 40.7599H85.0802Z" fill="#37BEF0"/>
<path d="M85.2729 33.6399C85.2343 33.3099 85.1862 32.9999 85.1283 32.6899H76.821C76.9945 33.1099 77.1391 33.5799 77.2258 34.1299L85.2729 33.6399Z" fill="#6FD3E2"/>
<path d="M70.2966 47.5399C69.7569 46.8099 69.4003 45.7599 69.2268 44.3799L61.093 44.9099C61.1798 45.9199 61.3629 46.8699 61.6327 47.7599H70.5086C70.4411 47.6799 70.364 47.6299 70.3062 47.5399H70.2966Z" fill="#37BEF0"/>
<path d="M108.874 42.6299C108.499 44.4599 107.891 45.8699 107.053 46.8299C106.706 47.2299 106.272 47.5299 105.791 47.7599H115.505C115.852 46.9099 116.141 45.9999 116.372 44.9999L108.894 42.6299H108.874Z" fill="#37BEF0"/>
<path d="M89.4844 39.93C89.4844 43.02 89.9952 45.62 91.0167 47.76H101.01C100.403 47.46 99.8733 47.04 99.43 46.48C98.4952 45.29 98.0422 43.08 98.0422 39.87C98.0422 37.27 98.4277 35.37 99.2083 34.16C99.5842 33.56 100.027 33.08 100.529 32.7H90.7372C89.9084 34.74 89.4844 37.14 89.4844 39.94V39.93Z" fill="#37BEF0"/>
<path d="M107.737 33.8499C108.026 34.2499 108.306 34.8999 108.566 35.7799L116.112 34.0199C115.967 33.5599 115.804 33.1199 115.63 32.6899H106.629C107.043 33.0099 107.419 33.3799 107.737 33.8399V33.8499Z" fill="#6FD3E2"/>
<path d="M50.1453 32.6899H41.2791V47.7499H50.1453V32.6899Z" fill="#37BEF0"/>
<path d="M28.5675 47.76H20V54.51H28.5675V47.76Z" fill="#27AAE1"/>
<path d="M76.8789 48.4C76.2235 49 75.2791 49.3 74.0552 49.3C72.5421 49.3 71.3568 48.77 70.4894 47.76H61.6135C62.1243 49.44 62.9724 50.91 64.1481 52.15C65.9599 54.05 69.2173 55 73.9203 55C76.5994 55 78.816 54.59 80.5796 53.78C82.3432 52.97 83.7117 51.78 84.6947 50.21C85.1862 49.43 85.5427 48.62 85.7933 47.77H77.4089C77.2644 47.99 77.0909 48.21 76.8692 48.41L76.8789 48.4Z" fill="#27AAE1"/>
<path d="M103.352 48.27C102.466 48.27 101.685 48.09 101.01 47.76H91.0166C91.1901 48.11 91.3635 48.46 91.5659 48.79C92.9537 51.1 94.592 52.71 96.4905 53.63C98.3987 54.55 100.856 55.01 103.853 55.01C106.33 55.01 108.364 54.64 109.973 53.88C111.582 53.13 112.912 52.01 114.001 50.53C114.589 49.72 115.09 48.79 115.505 47.76H105.79C105.116 48.08 104.326 48.27 103.343 48.27H103.352Z" fill="#27AAE1"/>
<path d="M50.1453 47.76H41.2791V54.77H50.1453V47.76Z" fill="#27AAE1"/>
<path d="M28.5675 25.49H20V32.69H28.5675V25.49Z" fill="#6FD3E2"/>
<path d="M63.3674 29.26C62.6928 30.34 62.3073 31.49 62.1917 32.69H70.046C70.046 32.69 70.046 32.67 70.046 32.66C70.046 32.03 70.2966 31.49 70.7977 31.05C71.2988 30.61 72.0505 30.39 73.0432 30.39C74.2478 30.39 75.2019 30.69 75.8765 31.28C76.2716 31.62 76.58 32.1 76.8209 32.68H85.1282C84.6753 30.16 83.6152 28.28 81.9672 27.05C80.1072 25.67 77.4088 24.98 73.8816 24.98C71.0001 24.98 68.7353 25.36 67.0777 26.11C65.4201 26.86 64.1866 27.91 63.3674 29.24V29.26Z" fill="#6FD3E2"/>
<path d="M90.7277 32.69H100.519C101.386 32.04 102.427 31.7 103.651 31.7C104.509 31.7 105.28 31.89 105.974 32.26C106.205 32.38 106.417 32.53 106.619 32.69H115.621C114.667 30.3 113.346 28.47 111.66 27.21C109.674 25.73 106.937 25 103.449 25C98.9964 25 95.5463 26.29 93.1177 28.87C92.0961 29.95 91.3059 31.23 90.718 32.69H90.7277Z" fill="#6FD3E2"/>
<path d="M50.1452 32.52H58.7127V25.49H32.75V32.52H41.2789V32.69H50.1452V32.52Z" fill="#6FD3E2"/>
</g>
<defs>
<clipPath id="clip0_1482_13195">
<rect width="96.3722" height="30" fill="white" transform="translate(20 25)"/>
</clipPath>
</defs>
</svg>
