<svg width="220" height="80" viewBox="0 0 220 80" fill="none" xmlns="http://www.w3.org/2000/svg">
<path d="M107.566 33.6249H101.776V35.6259H107.566V33.6249ZM106.819 47.4709H116.613V48.5059H106.819V47.4709ZM106.819 44.9409H116.613V45.9299H106.819V44.9409ZM106.819 42.4109H116.613V43.3999H106.819V42.4109ZM119.35 50.1159V40.7779H104.218V50.1159H107.475C105.892 50.9209 103.472 51.6109 101.301 52.0249C101.889 52.4849 102.839 53.4969 103.291 54.0259C105.575 53.3819 108.493 52.2319 110.348 51.0359L108.38 50.1159H114.758L113.379 51.2429C115.618 52.0709 117.97 53.1979 119.259 53.9569L121.679 52.4849C120.345 51.8179 118.128 50.8979 116.048 50.1159H119.35ZM115.437 36.3389V35.8789H117.947C117.699 36.3619 117.405 36.8449 117.156 37.2129L119.237 37.9949C119.96 37.0749 120.729 35.6259 121.318 34.3609L119.485 33.7859L119.078 33.9009H112.655C112.791 33.5789 112.926 33.2339 113.039 32.8889L110.687 32.3599C110.167 33.9239 109.24 35.4419 108.041 36.4539C108.606 36.7759 109.601 37.4429 110.031 37.8569C110.597 37.3279 111.139 36.6379 111.614 35.8789H112.971V36.2239C112.971 37.0749 112.406 38.1099 108.086 38.5699V37.1669H101.255V39.2599H107.249C107.611 39.7429 107.973 40.3179 108.154 40.7549C111.954 40.3179 113.831 39.4209 114.69 38.4089C116.115 39.6739 118.083 40.4099 120.616 40.7319C120.933 40.0649 121.566 39.0759 122.109 38.5469C119.056 38.3859 116.658 37.8109 115.437 36.5919V36.3389Z" fill="#37BEF0"/>
<path d="M133.938 36.2929H129.958L131.337 35.4649C131.021 34.6139 130.365 33.3489 129.822 32.4059L127.899 33.3949C128.374 34.2689 128.94 35.4189 129.234 36.2929H125.638V38.4549H133.938V36.2929ZM133.124 41.5599V39.4899H126.565V41.5599H133.124ZM131.043 47.9309V50.5069H128.646V47.9309H131.043ZM133.169 45.7459H126.587V53.6809H128.646V52.7149H133.169V45.7459ZM126.565 44.6419H133.169V42.5719H126.565V44.6419ZM134.232 33.6709V36.2699H136.449V42.3419H133.916V44.8949H136.449V53.9569H138.96V44.8949H141.131V42.3419H138.96V36.2699H141.696C141.674 44.8259 141.696 52.7839 143.845 53.7039C145.247 54.3019 146.401 53.5889 146.74 50.2309C146.356 49.8169 145.7 48.7359 145.338 48.0229C145.27 49.4949 145.157 50.9899 145.044 50.9439C144.207 50.6679 144.184 41.2379 144.388 33.6709H134.232Z" fill="#37BEF0"/>
<path d="M153.661 43.8139C153.684 43.0549 153.684 42.3419 153.684 41.6519V41.0309H155.9V43.8139H153.661ZM155.9 35.8329V38.5009H153.684V35.8329H155.9ZM158.388 33.3029H151.264V41.6519C151.264 45.0099 151.173 49.6329 149.771 52.7609C150.359 52.9679 151.467 53.6119 151.942 54.0029C152.87 51.9099 153.322 49.0809 153.525 46.3899H155.9V50.9439C155.9 51.2659 155.787 51.3579 155.516 51.3579C155.244 51.3579 154.408 51.3809 153.593 51.3349C153.933 52.0249 154.249 53.2669 154.317 53.9799C155.787 53.9799 156.76 53.9109 157.461 53.4739C158.207 52.9909 158.388 52.2549 158.388 50.9899V33.3029ZM162.188 43.7679H162.324C163.002 45.8609 163.839 47.7929 164.948 49.4719C164.111 50.4379 163.206 51.2429 162.188 51.8179V43.7679ZM167.82 43.7679C167.458 45.0559 166.961 46.2749 166.35 47.3559C165.649 46.2519 165.061 45.0329 164.608 43.7679H167.82ZM169.132 41.2149L168.725 41.3069H162.188V35.8559H167.458V37.6959C167.458 37.9719 167.345 38.0409 166.983 38.0639C166.621 38.0869 165.287 38.0869 164.156 38.0179C164.473 38.6849 164.834 39.6049 164.948 40.3179C166.667 40.3179 167.956 40.3179 168.838 39.9729C169.788 39.6049 170.037 38.9609 170.037 37.7649V33.3259H159.632V54.0029H162.188V52.1169C162.686 52.6229 163.251 53.4279 163.523 53.9569C164.631 53.2899 165.626 52.4619 166.486 51.4959C167.436 52.4849 168.521 53.3359 169.697 54.0029C170.082 53.3359 170.828 52.3699 171.371 51.8639C170.127 51.3119 168.996 50.4609 168.024 49.4489C169.29 47.3789 170.218 44.8489 170.738 41.7439L169.132 41.2149Z" fill="#37BEF0"/>
<path d="M189.827 45.3089C189.918 44.6419 189.986 43.9519 190.053 43.2619H187.362C187.317 43.9749 187.249 44.6419 187.136 45.3089H183.834V47.5859H186.57C185.869 49.3799 184.557 50.8519 181.843 51.8639C182.409 52.3699 183.11 53.3359 183.404 53.9799C186.977 52.5539 188.583 50.3229 189.352 47.5859H191.976C191.727 49.7249 191.433 50.7139 191.117 51.0129C190.89 51.2199 190.709 51.2659 190.393 51.2659C190.031 51.2659 189.262 51.2429 188.448 51.1509C188.855 51.8639 189.149 52.9219 189.171 53.6809C190.212 53.7269 191.139 53.7039 191.705 53.6349C192.383 53.5429 192.858 53.3589 193.356 52.8299C194.012 52.0939 194.419 50.3229 194.781 46.3439C194.826 46.0219 194.871 45.3089 194.871 45.3089H189.827ZM190.823 37.0749C190.438 37.8109 189.94 38.4779 189.33 39.0299C188.583 38.4549 187.95 37.7879 187.452 37.0749H190.823ZM195.12 37.0749V34.7979H188.448C188.764 34.2689 189.036 33.7399 189.284 33.1879L186.774 32.4979C185.892 34.6139 184.218 36.6839 182.454 37.9719C183.087 38.3399 184.128 39.0759 184.648 39.5129C184.987 39.2139 185.326 38.8919 185.666 38.5239C186.141 39.2139 186.683 39.8579 187.271 40.4329C186.457 40.8699 185.507 41.2149 184.512 41.4909L184.603 40.9619L182.974 40.4099L182.612 40.5249H181.527L182.635 39.3519C182.205 39.0299 181.64 38.6849 180.984 38.3399C182.25 37.2359 183.517 35.8329 184.286 34.5449L182.567 33.4409L182.16 33.5329H174.854V35.8329H180.283C179.853 36.3389 179.355 36.8449 178.858 37.2819C178.247 37.0059 177.614 36.7529 177.071 36.5459L175.374 38.2939C176.777 38.8689 178.473 39.7429 179.74 40.5249H174.56V42.9169H177.387C176.596 44.7339 175.42 46.5279 174.176 47.6549C174.583 48.3909 175.171 49.5179 175.397 50.2999C176.483 49.2879 177.433 47.7469 178.224 46.0449V50.9669C178.224 51.2429 178.134 51.2889 177.862 51.3119C177.568 51.3119 176.664 51.3119 175.827 51.2889C176.166 52.0249 176.528 53.1289 176.596 53.8879C177.998 53.8879 179.016 53.8419 179.785 53.4049C180.577 52.9909 180.758 52.2549 180.758 51.0129V42.9169H181.956C181.753 44.0899 181.481 45.2399 181.232 46.0909L183.042 46.9419C183.449 45.9069 183.834 44.5269 184.15 43.1009C184.422 43.4689 184.648 43.8139 184.784 44.0669C186.502 43.5839 188.063 42.9629 189.398 42.1349C190.755 42.9859 192.293 43.6759 194.012 44.1129C194.374 43.4229 195.12 42.3419 195.708 41.7899C194.193 41.4909 192.79 41.0309 191.546 40.4329C192.474 39.4899 193.22 38.3859 193.808 37.0749H195.12Z" fill="#37BEF0"/>
<path d="M206.067 46.4819H207.809C207.56 47.3099 207.221 48.0689 206.791 48.7129C206.452 48.1839 206.157 47.5629 205.886 46.8039L206.067 46.4819ZM209.007 44.5959L208.6 44.6419H206.949C207.13 44.2739 207.288 43.8599 207.424 43.4459L205.411 42.9399C204.868 44.5959 203.986 46.2059 202.878 47.4249C203.149 45.4929 203.217 43.5839 203.217 42.0429V38.7079H207.786V39.6969L203.986 39.9039L204.077 41.5829L207.786 41.3759C207.854 43.1239 208.532 43.9059 210.952 43.9059H215.861C216.901 43.9059 218.122 43.8829 218.665 43.7219C218.575 43.1469 218.507 42.4799 218.439 41.7669C217.874 41.9049 216.449 41.9739 215.612 41.9739H211.269C210.478 41.9739 210.342 41.7439 210.319 41.2149L215.567 40.9159L215.499 39.2599L210.319 39.5589V38.7079H216.403C216.222 39.3749 215.996 39.9959 215.815 40.4559L218.055 41.0999C218.597 40.0649 219.163 38.4319 219.57 36.9829L217.67 36.5229L217.24 36.6379H210.5V35.6259H217.738V33.7169H210.5V32.5209H207.786V36.6379H200.661V42.0199C200.661 45.0559 200.526 49.4029 198.694 52.3929C199.259 52.6689 200.367 53.5429 200.797 54.0259C201.747 52.5309 202.312 50.6679 202.674 48.7129C203.036 49.1039 203.421 49.5409 203.624 49.7939C203.964 49.4719 204.303 49.0809 204.619 48.6899C204.868 49.3109 205.162 49.8399 205.502 50.2999C204.552 51.1509 203.443 51.7949 202.131 52.1859C202.561 52.6229 203.081 53.5199 203.308 54.0719C204.687 53.5429 205.931 52.8299 206.926 51.9099C208.623 53.2439 210.839 53.5889 213.599 53.5889H219.208C219.321 52.9449 219.66 51.8869 220 51.3579C218.733 51.3809 214.684 51.4039 213.712 51.3809C211.586 51.3809 209.754 51.1739 208.351 50.2539C209.256 48.8739 209.935 47.1029 210.297 44.9179L209.007 44.5959ZM217.512 50.6219C218.597 50.6219 219.05 50.0469 219.185 48.1609C218.688 48.0459 218.009 47.7929 217.625 47.5169C217.557 48.8969 217.489 49.1729 217.24 49.1729H216.788C216.562 49.1729 216.539 49.1269 216.539 48.6209V44.7109H211.133V46.2749C211.133 47.3789 210.93 48.6899 209.482 49.7479C209.912 50.0009 210.817 50.7829 211.133 51.1739C212.739 49.9779 213.169 48.2299 213.237 46.6889H214.571V48.6209C214.571 50.1619 214.978 50.6219 216.403 50.6219H217.512Z" fill="#37BEF0"/>
<g clip-path="url(#clip0_1419_16021)">
<path d="M8.56749 32.6899H0V47.7499H8.56749V32.6899Z" fill="#37BEF0"/>
<path d="M65.08 40.7599C64.3476 39.4799 63.1622 38.4099 61.5528 37.5399C59.9434 36.6799 57.2642 35.8299 53.525 34.9799C52.0216 34.6499 51.0579 34.2899 50.6627 33.9099C50.258 33.5499 50.0556 33.1399 50.0459 32.6899H42.1916C42.1627 32.9499 42.1338 33.2099 42.1338 33.4799C42.1338 35.7499 42.9337 37.6199 44.5431 39.0799C46.1429 40.5499 48.8027 41.7199 52.5613 42.6099C54.8549 43.1399 56.3101 43.6999 56.9366 44.2899C57.563 44.8899 57.881 45.5199 57.881 46.3099C57.881 46.8399 57.7172 47.3099 57.4281 47.7599H65.8124C66.063 46.8999 66.1883 45.9999 66.1883 45.0599C66.1883 43.4699 65.8221 42.0499 65.0896 40.7599H65.08Z" fill="#37BEF0"/>
<path d="M65.2726 33.6399C65.2341 33.3099 65.1859 32.9999 65.1281 32.6899H56.8208C56.9943 33.1099 57.1388 33.5799 57.2256 34.1299L65.2726 33.6399Z" fill="#6FD3E2"/>
<path d="M50.2968 47.54C49.7571 46.81 49.4005 45.76 49.2271 44.38L41.0933 44.91C41.18 45.92 41.3631 46.87 41.6329 47.76H50.5088C50.4414 47.68 50.3643 47.63 50.3064 47.54H50.2968Z" fill="#37BEF0"/>
<path d="M88.8744 42.63C88.4986 44.46 87.8914 45.87 87.053 46.83C86.7061 47.23 86.2724 47.53 85.7905 47.76H95.5048C95.8518 46.91 96.1409 46 96.3722 45L88.8937 42.63H88.8744Z" fill="#37BEF0"/>
<path d="M69.4844 39.93C69.4844 43.02 69.9952 45.62 71.0167 47.76H81.0105C80.4033 47.46 79.8733 47.04 79.43 46.48C78.4952 45.29 78.0422 43.08 78.0422 39.87C78.0422 37.27 78.4277 35.37 79.2083 34.16C79.5842 33.56 80.0275 33.08 80.5286 32.7H70.7372C69.9084 34.74 69.4844 37.14 69.4844 39.94V39.93Z" fill="#37BEF0"/>
<path d="M87.7372 33.8499C88.0263 34.2499 88.3058 34.8999 88.566 35.7799L96.1119 34.0199C95.9674 33.5599 95.8035 33.1199 95.6301 32.6899H86.6289C87.0433 33.0099 87.4192 33.3799 87.7372 33.8399V33.8499Z" fill="#6FD3E2"/>
<path d="M30.1451 32.6899H21.2788V47.7499H30.1451V32.6899Z" fill="#37BEF0"/>
<path d="M8.56749 47.76H0V54.51H8.56749V47.76Z" fill="#27AAE1"/>
<path d="M56.8786 48.4C56.2233 49 55.2789 49.3 54.0549 49.3C52.5419 49.3 51.3565 48.77 50.4892 47.76H41.6133C42.1241 49.44 42.9721 50.91 44.1479 52.15C45.9597 54.05 49.217 55 53.92 55C56.5992 55 58.8157 54.59 60.5793 53.78C62.3429 52.97 63.7114 51.78 64.6944 50.21C65.1859 49.43 65.5425 48.62 65.7931 47.77H57.4087C57.2641 47.99 57.0907 48.21 56.869 48.41L56.8786 48.4Z" fill="#27AAE1"/>
<path d="M83.3522 48.27C82.4656 48.27 81.685 48.09 81.0104 47.76H71.0166C71.1901 48.11 71.3635 48.46 71.5659 48.79C72.9537 51.1 74.592 52.71 76.4905 53.63C78.3987 54.55 80.8562 55.01 83.8534 55.01C86.3301 55.01 88.3636 54.64 89.973 53.88C91.5824 53.13 92.9124 52.01 94.0014 50.53C94.5892 49.72 95.0904 48.79 95.5048 47.76H85.7905C85.1158 48.08 84.3256 48.27 83.3426 48.27H83.3522Z" fill="#27AAE1"/>
<path d="M30.1451 47.76H21.2788V54.77H30.1451V47.76Z" fill="#27AAE1"/>
<path d="M8.56749 25.49H0V32.69H8.56749V25.49Z" fill="#6FD3E2"/>
<path d="M43.3676 29.2599C42.693 30.3399 42.3075 31.4899 42.1919 32.6899H50.0462C50.0462 32.6899 50.0462 32.6699 50.0462 32.6599C50.0462 32.0299 50.2968 31.4899 50.7979 31.0499C51.2991 30.6099 52.0508 30.3899 53.0434 30.3899C54.2481 30.3899 55.2021 30.6899 55.8767 31.2799C56.2719 31.6199 56.5803 32.0999 56.8212 32.6799H65.1285C64.6755 30.1599 63.6154 28.2799 61.9675 27.0499C60.1075 25.6699 57.4091 24.9799 53.8818 24.9799C51.0003 24.9799 48.7356 25.3599 47.078 26.1099C45.4204 26.8599 44.1868 27.9099 43.3676 29.2399V29.2599Z" fill="#6FD3E2"/>
<path d="M70.7274 32.69H80.5188C81.3862 32.04 82.427 31.7 83.6509 31.7C84.5086 31.7 85.2796 31.89 85.9735 32.26C86.2048 32.38 86.4168 32.53 86.6192 32.69H95.6204C94.6663 30.3 93.346 28.47 91.6595 27.21C89.6742 25.73 86.9372 25 83.4485 25C78.9961 25 75.546 26.29 73.1174 28.87C72.0959 29.95 71.3056 31.23 70.7178 32.69H70.7274Z" fill="#6FD3E2"/>
<path d="M30.1452 32.52H38.7127V25.49H12.75V32.52H21.2789V32.69H30.1452V32.52Z" fill="#6FD3E2"/>
</g>
<defs>
<clipPath id="clip0_1419_16021">
<rect width="96.3722" height="30" fill="white" transform="translate(0 25)"/>
</clipPath>
</defs>
</svg>
