<svg width="48" height="49" viewBox="0 0 48 49" fill="none" xmlns="http://www.w3.org/2000/svg">
<rect x="1" y="1.17676" width="46" height="46" fill="white"/>
<path fill-rule="evenodd" clip-rule="evenodd" d="M23.5 21.5518C23.7685 21.5518 23.9861 21.3319 23.9861 21.0607V9.47838L27.0452 12.5686C27.235 12.7604 27.5428 12.7604 27.7326 12.5686C27.9225 12.3769 27.9225 12.0659 27.7326 11.8742L23.8437 7.94559C23.6539 7.75381 23.3461 7.75381 23.1563 7.94559L19.2674 11.8742C19.0775 12.0659 19.0775 12.3769 19.2674 12.5686C19.4572 12.7604 19.765 12.7604 19.9548 12.5686L23.0139 9.47838V21.0607C23.0139 21.3319 23.2315 21.5518 23.5 21.5518Z" fill="#24A9FC"/>
<path d="M12.048 40.1768H13.536V29.6968H17.088V28.4328H8.496V29.6968H12.048V40.1768ZM23.0766 40.3848C26.0206 40.3848 28.0846 38.0328 28.0846 34.2728C28.0846 30.5128 26.0206 28.2248 23.0766 28.2248C20.1326 28.2248 18.0686 30.5128 18.0686 34.2728C18.0686 38.0328 20.1326 40.3848 23.0766 40.3848ZM23.0766 39.0888C20.9646 39.0888 19.5886 37.2008 19.5886 34.2728C19.5886 31.3288 20.9646 29.5208 23.0766 29.5208C25.1726 29.5208 26.5646 31.3288 26.5646 34.2728C26.5646 37.2008 25.1726 39.0888 23.0766 39.0888ZM30.6156 40.1768H32.1036V35.5208H34.0396C36.6156 35.5208 38.3596 34.3688 38.3596 31.8888C38.3596 29.3288 36.5996 28.4328 33.9756 28.4328H30.6156V40.1768ZM32.1036 34.3208V29.6488H33.7836C35.8476 29.6488 36.8876 30.1928 36.8876 31.8888C36.8876 33.5688 35.9116 34.3208 33.8476 34.3208H32.1036Z" fill="#0AA6F1"/>
<rect x="1" y="1.17676" width="46" height="46" stroke="url(#paint0_linear_1216_13546)" stroke-width="2"/>
<defs>
<linearGradient id="paint0_linear_1216_13546" x1="24" y1="0.176758" x2="24" y2="48.1768" gradientUnits="userSpaceOnUse">
<stop offset="0.28125" stop-color="#44D2F8"/>
<stop offset="1" stop-color="#07A3F0"/>
</linearGradient>
</defs>
</svg>
