<svg width="100" height="100" viewBox="0 0 100 100" fill="none" xmlns="http://www.w3.org/2000/svg">
<g clip-path="url(#clip0_448_4373)">
<path d="M9.99976 47.0484V14.5601C10.9522 10.8962 13.5709 9.98264 16.4946 10.0002C28.3638 10.0726 40.233 10.0296 52.1021 10.0315C55.9588 10.0315 58.1042 12.1677 58.1042 16.0116C58.1042 25.8766 58.1042 35.7436 58.1042 45.6086C58.1042 49.4623 55.9744 51.5887 52.1119 51.5887C42.2473 51.5887 32.3808 51.5887 22.5163 51.5887C22.2151 51.5887 21.9119 51.5887 21.5951 51.5887V63.0891H86.8433C86.8433 62.8661 86.8433 62.688 86.8433 62.51C86.8433 51.6552 86.8452 40.8003 86.8354 29.9455C86.8354 29.4564 86.7787 28.9517 86.6516 28.4803C86.0375 26.1994 83.675 24.654 81.5335 25.143V26.0605C81.5335 33.1673 81.469 40.2741 81.5726 47.379C81.6039 49.5249 81.2284 51.4009 79.9748 53.1536C79.1534 54.3038 78.5139 55.5851 77.7238 56.9271C78.8288 56.9271 79.7832 56.9212 80.7395 56.9271C82.0224 56.9369 82.7598 57.51 82.7715 58.4862C82.7813 59.4662 82.0479 60.0374 80.7649 60.0492C80.7121 60.0492 80.6613 60.0492 80.6085 60.0492C67.7752 60.0492 54.9438 60.0492 42.1105 60.0472C41.7995 60.0472 41.4807 60.0472 41.1776 59.9924C40.4833 59.8672 39.9924 59.2667 39.967 58.5625C39.9416 57.8445 40.3679 57.2068 41.0544 57.0445C41.4533 56.9506 41.8777 56.929 42.2904 56.929C51.9222 56.9232 61.5521 56.9251 71.1839 56.9251H72.2048C72.0092 56.5789 71.888 56.3578 71.7609 56.1407C70.7987 54.5053 69.8071 52.8856 68.886 51.2248C68.622 50.7475 68.4401 50.1587 68.4323 49.6168C68.3912 46.4674 68.4088 43.3179 68.4166 40.1685C68.4166 39.834 68.4401 39.4838 68.5476 39.1728C68.7745 38.5135 69.2967 38.1653 69.9792 38.1673C70.6618 38.1693 71.18 38.5233 71.403 39.1845C71.5086 39.4975 71.5281 39.8477 71.5301 40.1822C71.5399 42.6548 71.536 45.1274 71.536 47.6V48.4216H78.3614V21.8019H71.536C71.536 22.1423 71.536 22.4259 71.536 22.7096C71.536 24.5836 71.5438 26.4576 71.5321 28.3316C71.5262 29.2373 71.1253 29.8261 70.433 30.0276C69.3593 30.3406 68.4499 29.6286 68.4186 28.406C68.3912 27.2968 68.4127 26.1876 68.4127 25.0257C68.1096 25.0257 67.9062 25.0257 67.7028 25.0257C66.0893 25.0257 64.4739 25.0452 62.8605 25.0159C61.8357 24.9983 61.1903 24.343 61.2059 23.4294C61.2216 22.555 61.8591 21.9545 62.8487 21.9075C63.3161 21.886 63.7855 21.9017 64.2549 21.9017C65.6239 21.9017 66.9929 21.9017 68.4127 21.9017C68.4127 20.0863 68.3834 18.3727 68.4186 16.6591C68.4831 13.4646 70.5483 10.8786 73.5288 10.1998C76.4819 9.52881 79.5055 10.9392 80.8373 13.7933C81.2832 14.7479 81.4318 15.8884 81.5022 16.9584C81.6098 18.582 81.5296 20.2174 81.5296 21.841C81.6958 21.8723 81.7702 21.8977 81.8425 21.8977C86.5636 21.8117 90.033 25.6341 89.9958 30.3445C89.8981 43.0988 89.9646 55.8551 89.9626 68.6094C89.9626 73.5272 86.6007 76.8801 81.6743 76.8821C75.4278 76.884 69.1793 76.8821 62.9328 76.8821H62.0469V80.6008C62.2073 80.6223 62.3324 80.6399 62.4576 80.6536C66.2301 81.0742 68.976 83.6798 69.6018 87.4103C69.7837 88.4979 69.6292 89.4251 68.5653 90.0022H39.9866C38.9227 89.4584 38.6293 89.0046 38.7642 87.8328C39.0732 85.1646 40.2916 83.0147 42.6913 81.7315C43.808 81.1348 45.087 80.8395 46.3328 80.3934V76.8821H45.4215C39.1749 76.8821 32.9265 76.884 26.68 76.8821C21.8083 76.8801 18.4367 73.5116 18.4328 68.6466C18.4288 63.2573 18.4328 57.87 18.4328 52.4807C18.4328 52.2049 18.4328 51.9271 18.4328 51.5906C17.4021 51.5906 16.4614 51.6689 15.5403 51.5691C14.6504 51.4733 13.7273 51.3168 12.9157 50.9666C11.2319 50.2389 10.4417 48.7522 9.9978 47.0503L9.99976 47.0484ZM13.123 24.4271V25.2017C13.123 32.0718 13.123 38.942 13.123 45.8121C13.123 47.6646 13.9249 48.4627 15.7847 48.4627C27.9629 48.4627 40.1411 48.4627 52.3192 48.4627C54.1771 48.4627 54.979 47.6626 54.979 45.8101C54.979 38.94 54.979 32.0699 54.979 25.1998C54.979 24.9494 54.9555 24.699 54.9438 24.4251H13.123V24.4271ZM21.558 66.2874C21.558 67.019 21.558 67.6665 21.558 68.316C21.558 71.9114 23.3924 73.7561 26.9694 73.7561C45.132 73.7561 63.2946 73.7561 81.4573 73.7561C81.821 73.7561 82.1887 73.7659 82.5485 73.7229C84.4417 73.4979 85.7989 72.5218 86.5088 70.7475C87.0877 69.3039 86.7807 67.7898 86.8433 66.2874H21.558ZM13.1308 21.2189H54.9809C54.9809 19.4212 54.9809 17.6783 54.9809 15.9373C54.9809 13.9224 54.2143 13.1536 52.2077 13.1536C40.1039 13.1536 28.0001 13.1536 15.8962 13.1536C15.6615 13.1536 15.4268 13.1458 15.1941 13.1634C14.0578 13.2514 13.168 14.0945 13.1426 15.235C13.0995 17.2107 13.1308 19.1865 13.1308 21.2189ZM66.2477 86.8469C65.6454 85.3093 64.5932 84.3606 63.0815 83.9322C62.6375 83.807 62.1584 83.762 61.6949 83.76C56.7 83.7483 51.7071 83.7444 46.7122 83.7561C44.5355 83.762 42.7226 85.0257 42.2415 86.8449H66.2477V86.8469ZM58.8454 80.5949V76.931H49.5754V80.5949H58.8454ZM78.3653 18.6094C78.3653 17.7193 78.4474 16.886 78.3477 16.0761C78.1599 14.5542 76.9102 13.3844 75.3985 13.1869C73.9043 12.9893 72.3065 13.8128 71.8567 15.2682C71.5321 16.3168 71.5614 17.4729 71.4284 18.6114H78.3633L78.3653 18.6094ZM74.976 55.4247C75.7583 54.0906 76.4643 52.8876 77.188 51.6552H72.7759C72.9147 51.9134 73.0067 52.0973 73.1103 52.2733C73.7009 53.2769 74.2955 54.2784 74.976 55.4247Z" fill="#2598E2"/>
<path d="M36.1164 58.521C36.1066 59.4248 35.3967 60.0645 34.4228 60.0469C33.4938 60.0312 32.8093 59.3876 32.7995 58.521C32.7898 57.6407 33.529 56.9365 34.4638 56.9365C35.4065 56.9365 36.1262 57.629 36.1164 58.521Z" fill="#2598E2"/>
<path d="M71.5264 34.1665C71.5401 34.9842 70.8243 35.7158 69.997 35.7295C69.1717 35.7432 68.4403 35.0351 68.4266 34.2096C68.4129 33.384 69.117 32.6681 69.954 32.6583C70.7949 32.6485 71.5127 33.3371 71.5283 34.1665H71.5264Z" fill="#2598E2"/>
<path d="M21.2864 35.5206C22.5693 36.798 23.819 38.0382 25.0609 39.2862C25.2975 39.5249 25.5361 39.7733 25.7161 40.0531C26.0974 40.6458 25.9977 41.4243 25.5166 41.9212C25.0413 42.4103 24.1535 42.6254 23.6684 42.1618C21.6462 40.2233 19.6593 38.2475 17.7329 36.215C17.244 35.6986 17.4454 34.9455 17.9461 34.4349C19.7277 32.6157 21.5172 30.8042 23.3477 29.0358C24.0107 28.3942 24.9455 28.4705 25.5205 29.073C26.1131 29.6912 26.1131 30.6027 25.4325 31.3128C24.2825 32.5139 23.0896 33.672 21.9161 34.8516C21.7186 35.0491 21.5328 35.2585 21.2844 35.5225L21.2864 35.5206Z" fill="#2598E2"/>
<path d="M46.9296 35.5652C45.543 34.1861 44.309 32.9635 43.0827 31.735C42.8461 31.4964 42.6075 31.2499 42.4217 30.9741C42.0012 30.352 42.0931 29.5597 42.6095 29.0472C43.1277 28.5327 43.9022 28.4545 44.5397 28.8712C44.7549 29.012 44.9524 29.1881 45.1343 29.37C46.6988 30.9291 48.2634 32.4881 49.8201 34.055C50.8606 35.1016 50.8645 35.8802 49.8299 36.9208C48.238 38.5249 46.6323 40.1172 45.0384 41.7213C44.5045 42.2573 43.8983 42.5605 43.1453 42.2827C42.0267 41.87 41.8193 40.5593 42.7424 39.5969C43.8024 38.4897 44.8996 37.4177 45.9928 36.3418C46.251 36.0875 46.5502 35.8762 46.9316 35.5652H46.9296Z" fill="#2598E2"/>
<path d="M39.361 29.2837C39.2906 29.4539 39.185 29.8314 38.9934 30.1601C36.5918 34.2641 34.1823 38.3623 31.7651 42.4566C31.1764 43.4523 30.2944 43.7477 29.4906 43.2548C28.6653 42.7481 28.4971 41.8737 29.0877 40.8663C31.5011 36.7407 33.9261 32.619 36.3571 28.5032C36.846 27.6738 37.5051 27.3725 38.2228 27.576C38.9151 27.7716 39.3708 28.3663 39.363 29.2837H39.361Z" fill="#2598E2"/>
<path d="M42.717 18.7774C40.378 18.7774 38.037 18.7911 35.698 18.7715C34.372 18.7617 33.5682 17.6936 34.0473 16.6158C34.3915 15.8411 35.0565 15.6475 35.8427 15.6494C40.0807 15.6573 44.3187 15.6533 48.5567 15.6533C48.9733 15.6533 49.3898 15.6436 49.8044 15.6553C50.8683 15.6886 51.5665 16.3321 51.545 17.2476C51.5255 18.1338 50.8449 18.7617 49.8142 18.7695C47.4478 18.7871 45.0814 18.7754 42.717 18.7754V18.7774Z" fill="#2598E2"/>
<path d="M17.0581 15.6652C17.8756 15.6769 18.5953 16.4164 18.5855 17.2321C18.5757 18.0517 17.8345 18.7755 17.0229 18.7638C16.2074 18.752 15.4779 18.0067 15.4896 17.1969C15.5014 16.3772 16.2426 15.6534 17.0581 15.6652Z" fill="#2598E2"/>
<path d="M22.3894 15.6652C23.2186 15.6789 23.9168 16.4007 23.907 17.234C23.8973 18.0674 23.1756 18.7755 22.3503 18.7638C21.5328 18.752 20.8073 18.0087 20.819 17.1949C20.8327 16.3772 21.5758 15.6515 22.3875 15.6632L22.3894 15.6652Z" fill="#2598E2"/>
<path d="M27.6775 15.6653C28.5029 15.6496 29.2206 16.3539 29.2323 17.1911C29.2441 18.0323 28.5557 18.7521 27.7264 18.7678C26.909 18.7834 26.1756 18.0675 26.1619 17.24C26.1462 16.4145 26.8522 15.6829 27.6795 15.6673L27.6775 15.6653Z" fill="#2598E2"/>
</g>
<defs>
<clipPath id="clip0_448_4373">
<rect width="80" height="80" fill="white" transform="translate(10 10)"/>
</clipPath>
</defs>
</svg>
