<svg width="100" height="100" viewBox="0 0 100 100" fill="none" xmlns="http://www.w3.org/2000/svg">
<path d="M10.0021 73.9695C10.9288 71.2221 13.1953 71.183 15.5996 71.3967C14.9568 69.0028 15.2636 66.6499 15.2532 64.3156C15.2135 55.985 15.2365 47.6524 15.2365 39.3218C15.2365 39.0403 15.224 38.7567 15.2511 38.4773C15.3158 37.7745 15.7437 37.3594 16.3844 37.3471C17.0648 37.3348 17.5051 37.7581 17.5678 38.5081C17.5907 38.7876 17.5782 39.0711 17.5782 39.3527C17.5782 49.1196 17.5782 58.8865 17.5824 68.6535C17.5824 68.9863 17.5803 69.3213 17.6199 69.6501C17.7347 70.581 18.4172 71.2406 19.3606 71.3392C19.5922 71.3639 19.8281 71.3536 20.0639 71.3536C40.0081 71.3536 59.9501 71.3536 79.8943 71.3536C81.7643 71.3536 82.4092 70.7125 82.4092 68.8384C82.4113 63.584 82.4092 58.3276 82.4092 53.0732C82.4092 45.4598 82.4092 37.8464 82.4072 30.233C82.4072 29.9001 82.4113 29.5652 82.3717 29.2343C82.2611 28.2973 81.5848 27.5658 80.6457 27.5432C78.5168 27.4959 76.3838 27.5288 74.1945 27.5288V29.8241C75.6429 29.8241 77.0684 29.822 78.4939 29.8241C79.6689 29.8262 80.0613 30.1858 80.0613 31.3221C80.0675 43.3967 80.0675 55.4692 80.0634 67.5438C80.0634 68.6761 79.6647 69.0459 78.4939 69.0459C59.4868 69.0459 40.4818 69.0459 21.4748 69.0459C20.3206 69.0459 19.9262 68.6699 19.9262 67.5274C19.9199 55.4528 19.9199 43.3803 19.9241 31.3057C19.9241 30.2104 20.329 29.8303 21.4351 29.8262C22.8648 29.82 24.2923 29.8262 25.7888 29.8262V27.5185C25.3004 27.5185 24.8141 27.5185 24.3257 27.5185C22.8669 27.5185 21.4101 27.5165 19.9512 27.5185C18.2878 27.5226 17.5907 28.209 17.5803 29.8631C17.5719 31.0159 17.5907 32.1708 17.5719 33.3236C17.5594 34.1702 17.1065 34.6839 16.4199 34.6942C15.7311 34.7045 15.2511 34.1887 15.2407 33.3524C15.2219 32.0454 15.201 30.7365 15.2469 29.4316C15.3346 26.9329 17.1357 25.2294 19.6653 25.2129C21.6438 25.1985 23.6224 25.2047 25.6009 25.1985C25.6489 25.1985 25.6969 25.1698 25.818 25.1287C25.9432 24.1361 25.5321 22.8128 26.6925 22.2539C27.5962 21.8182 28.7107 21.8079 29.8398 21.586C29.8398 19.9031 29.821 18.0906 29.8544 16.2782C29.8628 15.8344 29.9588 15.3494 30.1654 14.961C30.6475 14.0569 31.6577 13.7815 32.816 14.174C36.5999 15.4583 40.3796 16.7508 44.1614 18.0393C45.9041 18.6331 47.6405 19.2496 49.3979 19.8024C49.7819 19.9236 50.2744 19.9154 50.6564 19.79C53.3675 18.9003 56.0661 17.9715 58.7647 17.0385C59.3637 16.831 59.8959 16.831 60.3133 17.355C60.8497 18.0269 60.5178 18.8736 59.564 19.2064C57.6293 19.8846 55.6862 20.5339 53.7473 21.2018C52.9167 21.4874 51.7625 21.5655 51.3555 22.147C50.9214 22.7655 51.1698 23.867 51.1677 24.7567C51.1594 32.7544 51.1635 40.7521 51.1635 48.7497V49.7751C51.6707 49.6189 52.0818 49.5039 52.4867 49.3662C57.3747 47.7038 62.2605 46.0352 67.1527 44.3831C67.5972 44.2331 67.8164 44.0625 67.8143 43.5385C67.7955 34.6428 67.7997 25.7472 67.7997 16.8536C67.7997 16.7529 67.7892 16.6502 67.7746 16.4262C66.8688 16.7323 66.0048 17.0262 65.1407 17.32C63.9427 17.7269 63.2874 17.5707 63.0182 16.8104C62.7531 16.0686 63.183 15.5364 64.3748 15.1336C65.3828 14.7925 66.3846 14.4329 67.401 14.1206C68.8432 13.6747 70.1122 14.5665 70.1372 16.0583C70.1643 17.6735 70.1435 19.2886 70.1455 20.9038C70.1455 21.1771 70.1455 21.4524 70.1455 21.5901C71.2788 21.8141 72.3933 21.8264 73.297 22.2641C74.4303 22.8169 74.0609 24.1012 74.1736 25.215C74.4616 25.215 74.7392 25.215 75.0168 25.215C76.8388 25.215 78.6629 25.1965 80.4849 25.2211C82.7661 25.2499 84.5381 26.902 84.7217 29.1378C84.7489 29.4686 84.7509 29.8036 84.7509 30.1364C84.753 42.9528 84.7593 55.7713 84.7447 68.5877C84.7447 69.496 84.5819 70.4022 84.4921 71.3618C85.112 71.3618 85.8112 71.3557 86.5104 71.3618C88.5327 71.3844 89.9603 72.7653 89.9874 74.738C90.002 75.8394 90.0062 76.9429 89.9874 78.0443C89.952 79.9287 88.5265 81.3466 86.6022 81.3507C79.4936 81.3651 72.3871 81.3589 65.2785 81.3548C64.4269 81.3548 63.9093 80.9089 63.901 80.2164C63.8926 79.4992 64.4228 79.0533 65.3286 79.0533C72.2285 79.0492 79.1283 79.0533 86.0262 79.0512C87.3995 79.0512 87.6457 78.8047 87.6457 77.434C87.6457 76.6388 87.6478 75.8456 87.6457 75.0504C87.6416 73.9941 87.3201 73.6695 86.2578 73.6695C82.4051 73.6654 78.5502 73.6695 74.6975 73.6695C69.413 73.6695 64.1264 73.6695 58.8419 73.6695H57.9361C57.9069 74.0661 57.8902 74.4174 57.8526 74.7647C57.6898 76.234 56.5419 77.3354 55.0413 77.3477C51.6832 77.3765 48.323 77.3765 44.9649 77.3477C43.4309 77.3354 42.2788 76.2155 42.1306 74.7031C42.0993 74.3763 42.0847 74.0496 42.0597 73.6674C41.7591 73.6674 41.5003 73.6674 41.2436 73.6674C32.1314 73.6674 23.0192 73.6674 13.9049 73.6674C12.6193 73.6674 12.3459 73.9345 12.3438 75.186C12.3438 76.0573 12.3354 76.9285 12.3459 77.7998C12.3563 78.6978 12.709 79.0451 13.6336 79.0471C16.9667 79.0533 20.2998 79.0492 23.6307 79.0492C35.477 79.0492 47.3233 79.0492 59.1696 79.0492C59.3783 79.0492 59.587 79.043 59.7936 79.0492C60.593 79.078 61.0834 79.5074 61.096 80.1814C61.1064 80.8842 60.6013 81.3301 59.756 81.3548C59.5473 81.3609 59.3386 81.3548 59.132 81.3548C44.1614 81.3548 29.1907 81.3342 14.2201 81.3794C12.1413 81.3856 10.7054 80.7095 10 78.7409V73.9736L10.0021 73.9695ZM74.134 32.1687V33.2558C74.134 38.7917 74.134 44.3276 74.134 49.8635C74.134 51.9389 73.4807 52.5883 71.3999 52.5883C57.1347 52.5883 42.8695 52.5883 28.6022 52.5883C26.5151 52.5883 25.8597 51.941 25.8597 49.8717C25.8597 44.2844 25.8597 38.6972 25.8597 33.1099C25.8597 32.8099 25.8597 32.5099 25.8597 32.1893H22.3159V66.6787H77.6757V32.1687H74.134ZM48.7822 49.7895C48.803 49.51 48.8218 49.36 48.8218 49.21C48.8218 40.3678 48.8176 31.5276 48.8343 22.6854C48.8343 22.1676 48.6131 21.9847 48.1665 21.8347C44.5537 20.6182 40.9473 19.3811 37.3366 18.1523C35.6482 17.5769 33.9555 17.0118 32.2212 16.4262C32.2066 16.6481 32.1857 16.796 32.1857 16.9461C32.1857 25.8129 32.1899 34.6798 32.169 43.5467C32.169 44.0769 32.4027 44.2392 32.8389 44.3851C36.0113 45.4496 39.1753 46.5366 42.3435 47.6113C44.4515 48.3285 46.5615 49.0395 48.778 49.7895H48.7822ZM42.5919 50.2395C42.6023 50.2128 42.6127 50.1861 42.6232 50.1594C42.4166 50.0854 42.212 50.0053 42.0054 49.9354C38.5701 48.7641 35.1347 47.5928 31.6994 46.4256C30.251 45.9345 29.8461 45.3879 29.8461 43.8837C29.8461 37.6081 29.8461 31.3324 29.8461 25.0567V24.1464H28.2557V50.2375H42.5961L42.5919 50.2395ZM70.1497 24.1485C70.1497 24.5266 70.1497 24.8328 70.1497 25.1369C70.1497 31.392 70.1497 37.645 70.1497 43.9002C70.1497 45.3632 69.7302 45.9509 68.3569 46.4174C65.1136 47.5168 61.8703 48.6141 58.629 49.7155C58.2116 49.8573 57.8004 50.0135 57.3872 50.1635C57.3997 50.1902 57.4143 50.219 57.4269 50.2457H71.7422V24.1485H70.1497ZM55.488 73.7208H44.5078C44.3951 74.9168 44.5078 75.0462 45.6244 75.0462C48.538 75.0462 51.4495 75.0462 54.363 75.0462C55.4817 75.0462 55.5965 74.9168 55.488 73.7208Z" fill="#ADD500"/>
<path d="M50.9302 58.0511C47.7036 58.0511 44.477 58.0449 41.2503 58.0572C40.6075 58.0593 40.1233 57.862 39.8979 57.2456C39.6809 56.6517 40.0586 55.9818 40.714 55.8133C40.9853 55.7434 41.2796 55.7475 41.5634 55.7475C47.8351 55.7434 54.1068 55.7455 60.3785 55.7455C60.5079 55.7455 60.6393 55.7414 60.7687 55.7455C61.6077 55.7763 62.1441 56.2325 62.142 56.9106C62.142 57.5949 61.6161 58.047 60.7646 58.049C57.4858 58.0572 54.207 58.0511 50.9281 58.0511H50.9302Z" fill="#ADD500"/>
<path d="M50.9849 63.2924C46.0928 63.2924 41.2007 63.2924 36.3065 63.2924C36.0456 63.2924 35.7847 63.3006 35.5259 63.276C34.8581 63.2102 34.4699 62.828 34.4448 62.1807C34.4219 61.5252 34.808 61.1348 35.4591 61.0197C35.6866 60.9807 35.9246 60.9889 36.1583 60.9868C46.0469 60.9868 55.9376 60.9868 65.8262 60.9868C66.085 60.9868 66.35 60.9868 66.6026 61.0382C67.2183 61.1697 67.5585 61.5745 67.5334 62.1869C67.5084 62.7951 67.1515 63.1814 66.5191 63.2636C66.2373 63.3006 65.9472 63.2904 65.6613 63.2904C60.7692 63.2904 55.8771 63.2904 50.9829 63.2904L50.9849 63.2924Z" fill="#ADD500"/>
</svg>
