<svg width="100" height="100" viewBox="0 0 100 100" fill="none" xmlns="http://www.w3.org/2000/svg">
<g clip-path="url(#clip0_448_4393)">
<path d="M9.99995 30.3114C10.0527 30.1677 10.1174 30.0288 10.1534 29.8826C10.8439 26.9937 13.2701 25.0342 16.2502 25.0054C18.6741 24.9815 21.098 24.9958 23.5195 24.9886C23.5674 24.9886 23.6154 24.9623 23.7616 24.9168C23.7616 23.7071 23.7616 22.4662 23.7616 21.2277C23.7616 20.3941 23.7496 19.5604 23.7664 18.7292C23.8096 16.6355 25.4039 15.0258 27.5041 15.0066C30.2661 14.9827 33.028 14.9898 35.7899 15.009C36.2479 15.0114 36.4516 14.8796 36.6291 14.4389C37.5305 12.1727 39.8609 10.884 42.1481 11.3343C44.6032 11.8158 46.2982 13.8544 46.279 16.3026C46.2598 18.7029 44.5528 20.7031 42.1217 21.1702C39.8393 21.611 37.5185 20.2911 36.6051 18.0393C36.538 17.8716 36.4684 17.7039 36.3869 17.5051C33.4116 17.5051 30.4435 17.4907 27.4754 17.5147C26.7441 17.5195 26.2838 18.0297 26.2742 18.7891C26.2526 20.8181 26.267 22.8471 26.267 24.9982C26.5667 24.9982 26.84 24.9982 27.1133 24.9982C32.0642 24.9982 37.0151 24.9982 41.9659 24.9982C42.2272 24.9982 42.4958 24.9719 42.7451 25.0294C43.3756 25.1731 43.7544 25.5827 43.7616 26.2367C43.7688 26.8931 43.39 27.3099 42.7643 27.4608C42.491 27.5255 42.1937 27.4967 41.9084 27.4967C33.5171 27.4967 25.1258 27.4967 16.7345 27.4967C13.975 27.4967 12.5029 28.9771 12.5005 31.7487C12.5005 33.9885 12.4958 36.2259 12.5005 38.4657C12.5053 40.9498 14.0613 42.4925 16.5667 42.4949C26.5475 42.4973 36.5284 42.4949 46.5092 42.4949C46.7178 42.4949 46.9263 42.4949 47.1349 42.4949C48.1898 42.5021 48.7724 42.9453 48.7724 43.743C48.7724 44.5407 48.1898 44.9934 47.1373 44.9934C37.1829 44.9934 27.2284 44.9934 17.274 44.9934H16.303V47.4943H17.2476C27.9309 47.4943 38.6166 47.4943 49.2999 47.4943C49.5612 47.4943 49.8225 47.48 50.0815 47.5039C50.7767 47.5662 51.261 48.0669 51.2754 48.716C51.2898 49.394 50.7887 49.9234 50.0551 49.9856C49.7962 50.0072 49.5348 49.9928 49.2735 49.9928C38.432 49.9928 27.5929 49.9928 16.7513 49.9928C13.9846 49.9928 12.5029 51.4709 12.5005 54.2281C12.5005 56.4942 12.4934 58.758 12.5005 61.0241C12.5077 63.41 14.0829 64.9886 16.4708 64.991C29.6571 64.9958 42.8434 64.9958 56.0273 64.991C58.4679 64.991 60.0215 63.4244 60.0359 60.981C60.0407 60.2527 60.0191 59.5221 60.0431 58.7939C60.0695 58.0058 60.6041 57.4836 61.3138 57.4979C61.9923 57.5147 62.5221 58.0225 62.5245 58.7699C62.5293 59.9389 62.5749 61.1223 62.4166 62.2745C62.1457 64.2532 61.0357 65.7312 59.2927 66.6966C58.8779 66.9266 58.7269 67.1757 58.7796 67.6093C58.7916 67.7123 58.7916 67.8177 58.7796 67.9207C58.619 69.4323 58.7676 70.642 60.3476 71.593C61.9012 72.5273 62.4502 74.3071 62.5533 76.1876C62.7523 76.2044 62.9513 76.2379 63.1479 76.2379C65.754 76.2403 68.3601 76.2427 70.9661 76.2379C72.0954 76.2379 72.5365 75.8019 72.5389 74.688C72.5461 72.8914 72.5197 71.0948 72.5533 69.2981C72.5629 68.7735 72.4071 68.5507 71.906 68.3519C69.7482 67.4895 68.4727 65.2234 68.8372 63.0219C69.2232 60.6839 71.0812 58.9376 73.3756 58.7556C75.7012 58.5711 77.8326 59.9964 78.5495 62.2147C79.3287 64.6245 78.1778 67.2284 75.869 68.2801C75.6101 68.3974 75.344 68.5028 75.0419 68.6274C75.0419 70.6324 75.0443 72.6351 75.0419 74.6377C75.0371 77.1889 73.5051 78.734 70.9685 78.7388C68.4679 78.7436 65.9649 78.7388 63.4643 78.7388H62.5773V83.7382C62.8338 83.7382 63.1071 83.7382 63.3804 83.7382C69.192 83.7382 75.0035 83.7382 80.8127 83.7382C82.1529 83.7382 82.5485 83.3501 82.5485 82.035C82.5485 75.2917 82.5461 68.5483 82.5557 61.805C82.5557 61.3523 82.5053 61.0816 81.9923 60.8804C79.6811 59.9725 78.4128 57.6321 78.8947 55.2989C79.391 52.8866 81.4217 51.2265 83.8456 51.2433C86.2551 51.2624 88.2522 52.9609 88.7221 55.3899C89.1632 57.6728 87.8518 59.9868 85.5957 60.9043C85.4279 60.9714 85.2601 61.0409 85.0491 61.1271V61.9775C85.0491 68.6681 85.0491 75.3611 85.0491 82.0518C85.0491 84.7491 83.5459 86.2367 80.8271 86.2367C74.807 86.2367 68.7868 86.2439 62.7691 86.2271C62.244 86.2271 61.9611 86.3661 61.6782 86.8475C60.4938 88.8646 58.6885 89.9713 56.3461 89.9737C42.9776 89.9976 29.6092 89.9952 16.2407 89.9785C13.263 89.9761 10.8367 87.9926 10.1438 85.1012C10.1078 84.9551 10.0431 84.8162 9.99036 84.6724C9.99036 81.5487 9.99036 78.4226 9.99036 75.2989C10.4219 73.5933 11.146 72.017 12.7235 71.1259C13.6274 70.6157 13.8767 70.0048 13.7472 69.0873C13.7305 68.9604 13.7281 68.8262 13.7472 68.6993C13.9127 67.5925 13.6753 66.7541 12.5341 66.2103C11.9659 65.9397 11.4696 65.348 11.1412 64.785C10.6712 63.9801 10.374 63.0603 9.99995 62.1835C9.99995 59.0598 9.99995 55.9337 9.99995 52.8099C10.4315 51.102 11.1555 49.5281 12.7307 48.6346C13.6346 48.122 13.8839 47.5159 13.7544 46.596C13.7377 46.4691 13.7353 46.3349 13.7544 46.2079C13.9199 45.1012 13.6897 44.2508 12.5389 43.7214C12.0115 43.4795 11.5391 42.9381 11.2395 42.4183C10.7408 41.5583 10.4051 40.6025 9.99995 39.685C9.99995 36.5613 9.99995 33.4352 9.99995 30.3114ZM36.2742 87.4967C42.865 87.4967 49.4581 87.5015 56.0489 87.4967C58.4488 87.4967 60.0263 85.9277 60.0359 83.5465C60.0455 81.2038 60.0431 78.861 60.0359 76.5182C60.0287 74.0676 58.4751 72.5009 56.0393 72.5009C42.8554 72.4985 29.6715 72.4985 16.4876 72.5009C14.0613 72.5009 12.5053 74.0796 12.5005 76.5277C12.4958 78.7915 12.4981 81.0576 12.5005 83.3214C12.5005 85.978 14.011 87.4967 16.653 87.4967C23.1934 87.4967 29.7314 87.4967 36.2718 87.4967H36.2742ZM56.2503 67.5518H16.291V69.9545H56.2503V67.5518ZM41.2754 13.7514C39.9088 13.7514 38.7868 14.8605 38.7748 16.2259C38.7628 17.6129 39.9208 18.7675 41.309 18.746C42.666 18.7268 43.7808 17.589 43.7712 16.2307C43.764 14.8749 42.63 13.7514 41.273 13.7514H41.2754ZM86.3054 56.281C86.3222 54.9252 85.2145 53.7777 83.8575 53.7514C82.491 53.725 81.345 54.8126 81.3066 56.1732C81.2682 57.5626 82.4023 58.7364 83.7904 58.746C85.1498 58.7532 86.2862 57.6393 86.3054 56.281ZM76.2982 63.7214C76.2862 62.3656 75.1522 61.2469 73.7928 61.2493C72.4262 61.2517 71.309 62.3656 71.2994 63.731C71.2922 65.1204 72.4526 66.2678 73.8408 66.2439C75.1977 66.2199 76.3078 65.0797 76.2958 63.7214H76.2982Z" fill="#106297"/>
<path d="M69.2639 10.0004C70.5562 10.7622 71.8389 11.5407 73.1431 12.2834C78.3433 15.249 83.5411 18.2146 88.7581 21.1467C89.5061 21.5683 89.8369 22.1169 89.8945 22.9433C90.8655 37.0192 85.0635 47.6121 73.3037 55.1292C72.1218 55.8838 70.8823 56.5617 69.6236 57.1797C69.2112 57.381 68.5519 57.4792 68.1755 57.2899C63.4764 54.9016 59.1345 52.0246 55.6916 47.9499C49.5588 40.6891 46.8353 32.3528 47.7032 22.8643C47.7775 22.0594 48.1275 21.5491 48.8372 21.1491C55.1139 17.6061 61.3761 14.0345 67.6384 10.4676C67.8782 10.331 68.0987 10.1561 68.3265 9.99805C68.6382 9.99805 68.9523 9.99805 69.2639 9.99805V10.0004ZM87.6145 26.6635C87.5401 25.5065 87.5377 24.6681 87.4131 23.8488C87.3651 23.5302 87.1158 23.1302 86.8401 22.9721C81.0189 19.6303 75.1786 16.3174 69.3478 12.99C68.9738 12.7768 68.6837 12.7337 68.281 12.9637C62.4095 16.3246 56.526 19.6615 50.6569 23.0295C50.4195 23.1661 50.2062 23.5206 50.1726 23.7985C49.8777 26.218 49.988 28.6398 50.4075 31.0305C52.105 40.6844 57.3244 47.9307 65.6293 53.026C66.6483 53.6512 67.7247 54.6453 68.7653 54.6357C69.8417 54.6261 70.9422 53.6512 71.9755 53.0092C81.8676 46.8647 87.1349 38.0134 87.6121 26.6659L87.6145 26.6635Z" fill="#106297"/>
<path d="M22.5508 34.2476C23.1167 32.4725 24.2075 31.3874 25.9889 31.2796C28.0459 31.155 29.3334 32.2689 29.9783 34.2332C31.2322 31.7539 32.7091 30.8723 34.6678 31.373C36.4204 31.821 37.588 33.3804 37.5161 35.1747C37.4442 36.9329 36.1087 38.4158 34.3322 38.7128C32.4909 39.0194 30.9349 37.9798 30.0167 35.7376C29.3022 37.7354 28.0004 38.9068 25.8762 38.7152C24.1452 38.5595 23.0879 37.4695 22.5101 35.637C22.1337 36.8467 21.5703 37.7187 20.6041 38.2553C19.6451 38.7895 18.6357 38.8973 17.588 38.5619C15.9913 38.0516 14.922 36.4802 15.0083 34.7866C15.0946 33.0882 16.3557 31.6605 18.0771 31.3131C19.9256 30.9394 21.3497 31.8545 22.5484 34.25L22.5508 34.2476ZM18.782 33.7565C18.1035 33.7421 17.5281 34.2955 17.5113 34.9734C17.4969 35.649 18.0507 36.2287 18.7292 36.243C19.4029 36.2574 19.9855 35.7017 19.9999 35.0261C20.0143 34.3506 19.4581 33.7709 18.782 33.7565ZM27.5065 35.0046C27.5065 34.3266 26.9431 33.7589 26.2646 33.7565C25.5861 33.7565 25.0203 34.3171 25.0155 34.995C25.0131 35.6729 25.5765 36.2407 26.255 36.243C26.9311 36.2454 27.5017 35.6801 27.5041 35.0022L27.5065 35.0046ZM33.7784 33.7565C33.0999 33.7493 32.5293 34.3099 32.5221 34.9878C32.5149 35.6657 33.0759 36.2359 33.7544 36.243C34.4305 36.2502 35.0035 35.6873 35.0107 35.0118C35.0179 34.3362 34.4545 33.7637 33.7784 33.7565Z" fill="#106297"/>
<path d="M29.988 56.7769C31.0357 54.4197 32.5917 53.4256 34.4665 53.816C36.2479 54.1873 37.5042 55.6869 37.5186 57.4644C37.5329 59.249 36.315 60.7582 34.5337 61.163C32.6348 61.5942 31.1004 60.6336 29.9952 58.2621C29.3359 60.1617 28.1059 61.3116 26.08 61.2253C24.2364 61.1487 23.1191 60.0348 22.5509 58.286C21.1652 60.8325 19.7099 61.6637 17.7151 61.0936C16.0369 60.6145 14.9101 59.0167 15.0108 57.2584C15.1115 55.5049 16.49 54.0268 18.257 53.7753C20.1055 53.5118 21.6351 54.5563 22.5006 56.7697C23.1503 54.9323 24.3035 53.7657 26.2455 53.7657C28.1755 53.7657 29.3598 54.8653 29.988 56.7745V56.7769ZM20 57.5578C20.0335 56.8847 19.4917 56.2882 18.8156 56.2547C18.1419 56.2211 17.5449 56.7601 17.5114 57.438C17.4778 58.1112 18.0196 58.7076 18.6933 58.7436C19.3646 58.7771 19.964 58.2357 20 57.5602V57.5578ZM27.5066 57.4668C27.4874 56.7889 26.9072 56.2355 26.2311 56.2547C25.5526 56.2738 25.0012 56.8511 25.018 57.5291C25.0347 58.207 25.6173 58.7603 26.2934 58.7412C26.9695 58.7244 27.5257 58.1399 27.5066 57.4668ZM35.0132 57.4955C35.0132 56.8176 34.4426 56.2523 33.7665 56.2547C33.088 56.2547 32.5245 56.8224 32.5245 57.5003C32.5245 58.1782 33.0952 58.7436 33.7712 58.7412C34.4473 58.7412 35.0156 58.1687 35.0132 57.4931V57.4955Z" fill="#106297"/>
<path d="M48.1538 56.2482C50.3428 56.2482 52.5317 56.2458 54.7206 56.2482C55.706 56.2482 56.279 56.7177 56.279 57.4963C56.279 58.2724 55.7036 58.7443 54.7206 58.7443C50.3428 58.7491 45.9649 58.7491 41.5871 58.7443C40.6017 58.7443 40.0287 58.2748 40.0287 57.4963C40.0287 56.7177 40.6017 56.2506 41.5871 56.2482C43.776 56.2434 45.9649 56.2482 48.1538 56.2482Z" fill="#106297"/>
<path d="M42.4717 36.2431C42.0546 36.2431 41.635 36.2695 41.2226 36.236C40.5249 36.1809 40.0455 35.673 40.0311 35.0214C40.0167 34.3411 40.5154 33.7902 41.2514 33.7614C42.1097 33.7279 42.9704 33.7255 43.8287 33.7614C44.524 33.7926 45.0059 34.322 45.0203 34.9711C45.0347 35.6491 44.5336 36.1857 43.7975 36.236C43.3564 36.2647 42.9129 36.2407 42.4693 36.2407L42.4717 36.2431Z" fill="#106297"/>
<path d="M29.9784 80.7391C29.3982 82.5453 28.2833 83.6352 26.4636 83.7191C24.4377 83.8125 23.1886 82.6818 22.5437 80.7798C21.2323 83.2855 19.7698 84.1383 17.7846 83.6041C16.056 83.1394 14.9052 81.5392 15.0107 79.7474C15.1138 78.025 16.4444 76.5733 18.1874 76.2835C20.0407 75.9745 21.6087 77.0237 22.4981 79.2467C23.2294 77.2752 24.5144 76.087 26.6434 76.2811C28.3768 76.4392 29.4365 77.5243 30.0191 79.3785C30.3835 78.1496 30.9541 77.2824 31.9155 76.7434C32.8721 76.2068 33.8815 76.099 34.9292 76.432C36.5547 76.9494 37.636 78.5664 37.5113 80.2816C37.3914 81.9512 36.1471 83.3334 34.4521 83.6808C32.5964 84.0616 31.1316 83.1226 29.9784 80.7391ZM18.7532 81.2398C19.4293 81.2398 19.9999 80.6744 20.0023 79.9989C20.0023 79.321 19.4389 78.7532 18.7604 78.7508C18.0819 78.7508 17.5161 79.3114 17.5137 79.9917C17.5113 80.6696 18.0771 81.2374 18.7532 81.2398ZM27.5065 80.0564C27.5401 79.3832 26.9983 78.7868 26.3222 78.7532C25.6485 78.7197 25.0515 79.2587 25.0179 79.9366C24.9844 80.6097 25.5262 81.2062 26.1999 81.2421C26.8712 81.2757 27.4706 80.7343 27.5065 80.0588V80.0564ZM35.0131 79.9869C35.0083 79.309 34.4377 78.746 33.7592 78.7508C33.0783 78.7556 32.5197 79.3234 32.5221 80.0013C32.5269 80.6792 33.0975 81.2421 33.7736 81.2374C34.4497 81.2326 35.0155 80.66 35.0107 79.9845L35.0131 79.9869Z" fill="#106297"/>
<path d="M48.2162 81.2469C46.0009 81.2469 43.7856 81.2517 41.5703 81.2469C40.5922 81.2445 40.0168 80.763 40.0287 79.9821C40.0383 79.206 40.6089 78.7508 41.6015 78.7508C45.9794 78.7484 50.3572 78.746 54.7351 78.7508C55.7108 78.7508 56.2886 79.2347 56.279 80.0132C56.2695 80.787 55.6965 81.2445 54.7039 81.2469C52.5413 81.2517 50.3788 81.2469 48.2162 81.2469Z" fill="#106297"/>
<path d="M52.5413 26.8285C52.5413 26.438 52.4454 26.0164 52.5653 25.6643C52.7211 25.2067 52.9393 24.627 53.3109 24.4114C58.2162 21.5656 63.1551 18.7772 68.0844 15.9697C68.6885 15.6271 69.2208 15.7948 69.7722 16.111C73.7257 18.3676 77.6864 20.6146 81.6447 22.8663C82.4598 23.3287 83.2606 23.8149 84.0901 24.2509C84.795 24.6222 85.0755 25.1612 85.0659 25.9565C84.946 36.111 80.5322 43.9754 72.3351 49.8205C71.4696 50.4385 70.5226 50.9439 69.614 51.5021C69.0745 51.8351 68.5447 51.8279 67.9933 51.5117C59.403 46.6225 54.1357 39.4264 52.7235 29.557C52.6468 29.018 52.6109 28.4694 52.5797 27.9232C52.5581 27.5615 52.5749 27.195 52.5749 26.8309C52.5653 26.8309 52.5533 26.8309 52.5437 26.8309L52.5413 26.8285ZM82.6061 26.953C82.5197 26.783 82.431 26.2368 82.1266 26.0595C77.8302 23.5634 73.5075 21.1152 69.18 18.6766C68.9834 18.5664 68.6142 18.564 68.42 18.6766C64.0925 21.1152 59.7722 23.5706 55.4663 26.0499C55.2577 26.1697 55.0587 26.5243 55.0635 26.7662C55.0779 27.7004 55.1162 28.6443 55.2529 29.5665C56.4588 37.6394 60.6569 43.767 67.3915 48.2802C68.4368 48.9796 69.1608 48.9748 70.1942 48.2802C77.708 43.2424 81.9324 36.3051 82.6061 26.9554V26.953Z" fill="#106297"/>
<path d="M67.5449 36.2913C67.5449 36.1356 67.5257 35.9751 67.5473 35.8242C67.6504 35.1391 67.4346 34.7319 66.7729 34.3582C65.3176 33.5341 64.7231 31.7615 65.2049 30.1565C65.6797 28.5778 67.1877 27.4807 68.8516 27.5023C70.4795 27.5238 71.9348 28.6329 72.3879 30.1948C72.8554 31.8094 72.2488 33.5581 70.7792 34.3773C70.1366 34.7343 69.9856 35.1439 70.0359 35.7859C70.0743 36.2506 70.0479 36.7225 70.0431 37.1897C70.0311 38.1023 69.554 38.6797 68.8108 38.6892C68.0628 38.7012 67.5617 38.1239 67.5425 37.2256C67.5353 36.9142 67.5425 36.6004 67.5425 36.2889L67.5449 36.2913ZM70.0407 31.2776C70.0551 30.602 69.5013 30.0223 68.8228 30.008C68.1443 29.9936 67.5665 30.5469 67.5521 31.2249C67.5377 31.9004 68.0916 32.4801 68.77 32.4969C69.4437 32.5136 70.0263 31.9531 70.0431 31.28L70.0407 31.2776Z" fill="#106297"/>
</g>
<defs>
<clipPath id="clip0_448_4393">
<rect width="80" height="80" fill="white" transform="translate(10 10)"/>
</clipPath>
</defs>
</svg>
