<svg width="100" height="100" viewBox="0 0 100 100" fill="none" xmlns="http://www.w3.org/2000/svg">
<g clip-path="url(#clip0_448_4383)">
<path d="M36.6292 17.7376C35.1036 15.313 35.0422 13.1176 36.4554 11.1851C38.1674 8.84328 41.4368 8.29176 43.778 9.99935C44.259 10.3494 44.5811 10.3409 45.1044 10.1139C49.7743 8.08813 54.0882 8.90904 58.0652 11.8979C61.396 14.403 63.6949 17.7482 65.5128 21.4391C65.8836 22.1943 66.2671 22.417 67.1146 22.3916C71.8311 22.2516 76.4501 22.7543 80.8064 24.7695C81.0331 24.8734 81.4484 24.761 81.6878 24.6104C83.5291 23.4479 85.4275 23.3207 87.3154 24.3898C89.1736 25.444 90.0656 27.1261 89.9957 29.2665C89.9554 30.5244 89.4533 31.6168 88.6269 32.5735C88.4447 32.7856 88.2456 33.1398 88.2985 33.3732C89.2774 37.6623 88.2032 41.6035 86.2941 45.3963C85.7835 46.4081 85.2029 47.3924 84.5715 48.3342C84.2474 48.8199 84.2961 49.1318 84.597 49.59C86.4552 52.4197 87.8621 55.4339 88.4638 58.8046C89.8474 66.5598 84.8809 71.865 79.6411 73.7783C75.4882 75.2929 71.1955 75.8805 66.7905 75.6217C66.1866 75.5856 65.9133 75.768 65.6548 76.2962C63.8453 79.9893 61.5845 83.3493 58.3067 85.9223C53.0245 90.0672 46.88 90.0227 41.6529 85.7951C38.5276 83.2666 36.3156 80.0296 34.5612 76.4574C34.237 75.7956 33.9065 75.5644 33.1395 75.6153C28.3976 75.9292 23.8167 75.2038 19.4583 73.2544C19.0685 73.0804 18.8184 73.1059 18.4688 73.3604C16.1699 75.0426 13.1485 74.718 11.3115 72.6244C9.46812 70.5244 9.58253 67.4592 11.5594 65.3486C11.7247 65.1725 11.8793 64.8416 11.8327 64.6316C10.8962 60.5206 11.8475 56.7046 13.6379 53.0327C14.2037 51.8724 14.8732 50.7566 15.5703 49.6684C15.8775 49.1869 15.8436 48.8751 15.5449 48.4212C13.6231 45.5023 12.1696 42.3905 11.623 38.8947C10.3834 30.9677 15.6953 25.9213 20.5686 24.2116C24.7342 22.7501 29.0184 22.12 33.4234 22.3746C33.9679 22.4064 34.2074 22.241 34.4447 21.7743C35.1269 20.4337 35.8728 19.1249 36.6292 17.7376ZM31.2262 49.0172C31.5822 52.7209 31.9318 56.4033 32.2941 60.0837C32.3428 60.5758 32.4445 61.0085 32.9509 61.3352C38.1653 64.7016 43.6912 67.4274 49.5497 69.4722C49.8421 69.574 50.2298 69.5804 50.5222 69.4807C56.4146 67.4486 61.9744 64.7313 67.1676 61.2779C67.4537 61.0891 67.7206 60.6967 67.7757 60.3615C69.0216 52.7824 69.0237 45.1948 67.7757 37.6156C67.7206 37.2826 67.4494 36.8923 67.1655 36.7035C61.9829 33.2862 56.4464 30.5795 50.5837 28.5452C50.2701 28.4371 49.8506 28.4371 49.5349 28.5452C43.7505 30.5604 38.2882 33.2289 33.1458 36.5656C32.5992 36.922 32.3428 37.3335 32.2835 37.9508C31.936 41.6332 31.58 45.3136 31.2241 49.013L31.2262 49.0172ZM17.5959 46.7369C17.7484 46.5927 17.8523 46.5142 17.9328 46.4145C21.3292 42.3163 25.23 38.7738 29.6032 35.7447C29.8808 35.5538 30.0481 35.1253 30.1498 34.7732C31.027 31.7589 31.8788 28.7383 32.739 25.7177C32.8005 25.5055 32.864 25.2934 32.9382 25.0367C28.5268 24.7928 24.3252 25.3846 20.397 27.1792C17.0386 28.7107 14.7567 31.3198 14.2312 35.085C13.6252 39.4144 15.3542 43.1351 17.5959 46.7369ZM82.5057 51.2297C78.9461 55.5633 74.9415 59.2203 70.4327 62.3301C70.2293 62.4701 70.0958 62.7861 70.0301 63.0449C69.6911 64.4025 69.4411 65.7834 69.0555 67.1261C68.4961 69.0734 67.8499 70.9953 67.2312 72.9532C67.3244 72.968 67.4219 72.9935 67.5215 72.9977C71.4773 73.1695 75.3166 72.565 79.0118 71.1586C83.4698 69.4616 86.2009 65.4589 86.0208 60.8813C85.881 57.3409 84.4275 54.2524 82.5057 51.2318V51.2297ZM37.0339 75.3947C38.3836 78.5362 41.0681 82.0087 43.6446 83.9772C47.3292 86.7921 51.41 87.1102 55.2535 84.8002C58.9276 82.5941 61.1862 79.1705 63.1482 75.4244C62.8728 75.3565 62.6779 75.2865 62.4744 75.2632C58.3979 74.771 54.4187 73.8504 50.5074 72.6095C50.2108 72.5162 49.8336 72.5735 49.5179 72.6519C47.1385 73.2523 44.7781 73.9332 42.3881 74.472C40.6443 74.8665 38.8582 75.0871 37.0339 75.3947ZM79.6283 27.1877C75.6683 25.4907 71.5451 24.7716 67.1803 25.0537C67.263 25.3104 67.3308 25.5055 67.388 25.7049C68.2546 28.7213 69.1084 31.7398 70.0026 34.7477C70.1191 35.1359 70.3628 35.5771 70.6827 35.7998C74.9119 38.7484 78.7067 42.1699 82.0226 46.1196C82.1646 46.2893 82.2769 46.4845 82.4612 46.7496C84.8533 42.7744 86.612 38.8693 85.7348 34.245C82.1858 34.8877 78.3783 31.8798 79.6262 27.1877H79.6283ZM17.5641 51.4439C15.28 55.2197 13.5341 59.1249 14.3965 63.7385C18.098 63.151 21.717 66.2225 20.5262 70.8234C24.4757 72.5119 28.5862 73.2289 32.9022 72.9532C32.8852 72.7856 32.8895 72.7071 32.8683 72.6329C31.953 69.4404 31.044 66.2437 30.1011 63.0598C30.0079 62.7437 29.7557 62.4297 29.493 62.2155C27.264 60.3976 24.9397 58.69 22.7976 56.7746C20.9733 55.1433 19.3524 53.283 17.5641 51.4439ZM38.7183 19.5025C38.1801 20.4379 37.5805 21.4816 36.9491 22.5804C37.2924 22.6504 37.5212 22.714 37.7543 22.7416C41.8012 23.2337 45.7507 24.1543 49.6366 25.3783C49.9332 25.4716 50.3061 25.4228 50.6218 25.3507C53.8551 24.5976 57.08 23.8107 60.3175 23.0704C61.2265 22.8625 62.163 22.7819 63.1694 22.6291C61.3642 19.1291 59.2899 15.9939 56.1159 13.756C53.1411 11.6582 49.9332 11.0239 46.4478 12.4006C45.9541 12.5957 45.8375 12.8248 45.9392 13.3382C46.4965 16.1615 44.8269 18.8534 42.0194 19.4664C41.0257 19.6828 39.9472 19.5003 38.7183 19.5003V19.5025ZM29.3998 58.8173C28.5671 52.2224 28.5629 45.8036 29.4019 39.2278C25.4842 42.0829 22.164 45.3305 19.2507 49.0575C22.1704 52.7421 25.4863 55.9536 29.3998 58.8173ZM80.889 48.9472C77.963 45.2711 74.6619 42.0532 70.7399 39.1959C71.562 45.793 71.5578 52.1906 70.7484 58.7791C74.6788 55.89 77.9863 52.6679 80.889 48.9493V48.9472ZM54.3806 71.1416C57.7728 71.7674 61.0019 72.3656 64.3793 72.9892C65.2946 70.1765 66.1591 67.5143 67.0384 64.8161C62.7838 66.9416 58.6987 68.9843 54.3806 71.1416ZM33.0505 33.2226C37.3347 31.078 41.4304 29.0289 45.5239 26.9777C42.4601 26.2713 39.3497 25.741 36.233 25.2446C36.0613 25.217 35.7287 25.4228 35.6694 25.5904C34.7879 28.0956 33.9383 30.6113 33.0505 33.2226ZM45.7168 71.1183C41.4156 68.9695 37.3263 66.9268 33.273 64.9031C33.2751 64.9201 33.2836 65.0728 33.3281 65.2149C34.0654 67.5228 34.8197 69.8265 35.538 72.1407C35.7054 72.6838 35.9723 72.828 36.5148 72.7135C37.0805 72.5947 37.6716 72.6074 38.2395 72.5056C40.6909 72.0622 43.1403 71.5998 45.7168 71.1204V71.1183ZM54.5374 26.7825C54.5649 26.8525 54.5925 26.9225 54.6221 26.9904C58.7051 29.0289 62.7859 31.0653 66.8477 33.0932C66.8328 33.1504 66.8689 33.0932 66.854 33.0507C66.0658 30.5668 65.2819 28.0786 64.4619 25.6052C64.4089 25.4483 64.0614 25.2658 63.8813 25.2934C60.7624 25.7707 57.6499 26.2798 54.5353 26.7804L54.5374 26.7825ZM87.3345 29.0268C87.3429 27.5419 86.1585 26.3371 84.6881 26.3349C83.2473 26.3349 82.0692 27.4974 82.0459 28.9483C82.0205 30.448 83.171 31.6528 84.6499 31.6762C86.1204 31.6995 87.3281 30.5095 87.3345 29.0268ZM18.1192 68.9695C18.0959 67.508 16.8501 66.301 15.3966 66.3307C13.9367 66.3625 12.7332 67.6225 12.7798 69.0713C12.8264 70.5031 14.0384 71.6804 15.4601 71.6741C16.9136 71.6656 18.1425 70.4183 18.1192 68.9695ZM43.3945 14.3457C43.3967 12.8524 42.2207 11.673 40.7376 11.6772C39.2565 11.6815 38.0933 12.8715 38.106 14.3691C38.1187 15.8264 39.2713 16.9846 40.7206 16.9994C42.1995 17.0143 43.3924 15.8306 43.3945 14.3457Z" fill="#0598C8"/>
<path d="M63.6759 49.0105C64.6018 50.016 64.7437 51.2039 64.7247 52.449C64.7035 53.8787 64.7331 55.3063 64.7162 56.736C64.6823 59.36 63.0635 60.9933 60.4383 60.9976C53.514 61.0124 46.5876 61.0145 39.6634 60.9976C37.0509 60.9912 35.4427 59.3239 35.4342 56.6978C35.43 55.1621 35.4596 53.6284 35.4236 52.0927C35.3982 50.9599 35.6673 49.9481 36.4576 48.9893C35.341 47.846 35.4045 46.3823 35.4279 44.9187C35.449 43.6226 35.4194 42.3244 35.4363 41.0283C35.4639 38.8435 36.9746 37.225 39.1485 37.0256C39.3328 37.0086 39.5172 37.0022 39.7036 37.0022C46.6025 37.0022 53.5013 36.9938 60.3981 37.0044C63.0741 37.0086 64.6886 38.6335 64.7162 41.3062C64.731 42.8144 64.7056 44.3226 64.7247 45.8308C64.7395 46.9784 64.5107 48.039 63.6759 49.0105ZM50.1176 39.6601C46.6576 39.6601 43.1975 39.6559 39.7375 39.6623C38.5679 39.6644 38.1103 40.1268 38.1018 41.2998C38.0912 42.8611 38.0933 44.4202 38.1018 45.9814C38.1081 47.2181 38.5425 47.6741 39.7651 47.6741C46.6321 47.6805 53.4992 47.6805 60.3663 47.6741C61.6015 47.6741 62.0613 47.1841 62.0656 45.9156C62.0719 44.435 62.0698 42.9544 62.0656 41.4738C62.0613 40.1098 61.6185 39.6623 60.2603 39.6623C56.8787 39.658 53.4992 39.6623 50.1176 39.6623V39.6601ZM50.0519 58.3439C53.4865 58.3439 56.919 58.3482 60.3536 58.3439C61.5676 58.3439 62.055 57.8666 62.0634 56.6766C62.074 55.1154 62.074 53.5563 62.0634 51.9951C62.055 50.8348 61.5782 50.3342 60.4298 50.332C53.5352 50.3236 46.6427 50.3236 39.7481 50.332C38.5319 50.332 38.106 50.7902 38.0997 52.0375C38.0933 53.5457 38.0933 55.0518 38.0997 56.56C38.1039 57.9303 38.5234 58.346 39.9091 58.346C43.2908 58.3482 46.6703 58.346 50.0519 58.346V58.3439Z" fill="#0598C8"/>
<path d="M55.3935 45.0118C54.5502 45.0118 53.7069 45.0288 52.8657 45.0055C51.9695 44.9821 51.4228 44.4561 51.4249 43.6648C51.4249 42.8757 51.9737 42.3454 52.8721 42.3369C54.5565 42.32 56.2431 42.32 57.9297 42.3369C58.7984 42.3454 59.3917 42.9139 59.3896 43.6712C59.3874 44.4221 58.792 44.9673 57.9233 45.0097C57.8704 45.0118 57.8174 45.0097 57.7644 45.0097C56.9741 45.0097 56.1838 45.0097 55.3935 45.0097V45.0118Z" fill="#0598C8"/>
<path d="M42.7399 42.3311C44.0896 42.3311 44.7507 42.7786 44.738 43.6844C44.7253 44.588 44.0769 45.0123 42.7103 45.0123C42.5789 45.0123 42.4475 45.0144 42.3162 45.0123C41.3627 44.989 40.7758 44.4905 40.761 43.695C40.744 42.8741 41.3521 42.3523 42.348 42.3332C42.4793 42.3311 42.6107 42.3332 42.7421 42.3332L42.7399 42.3311Z" fill="#0598C8"/>
<path d="M55.4315 55.6715C54.5628 55.6715 53.692 55.6906 52.8233 55.6652C51.9715 55.6418 51.4418 55.1306 51.4227 54.3691C51.4037 53.5736 51.944 53.0136 52.8296 53.0009C54.5416 52.9776 56.2536 52.9776 57.9656 53.0009C58.8237 53.0136 59.4107 53.6203 59.3831 54.3776C59.3577 55.1094 58.7877 55.644 57.9593 55.6673C57.1181 55.6906 56.2727 55.6715 55.4315 55.6715Z" fill="#0598C8"/>
<path d="M42.7802 55.6628C42.5175 55.6628 42.2505 55.6861 41.992 55.6585C41.2674 55.5801 40.7673 55.037 40.761 54.3497C40.7525 53.6603 41.2356 53.0961 41.9623 53.0134C42.3776 52.9667 42.8035 52.9858 43.2252 52.9964C44.1532 53.0197 44.7549 53.5691 44.738 54.3582C44.7232 55.1197 44.1384 55.6394 43.2548 55.6713C43.098 55.6776 42.9391 55.6713 42.7802 55.6713C42.7802 55.667 42.7802 55.6649 42.7802 55.6607V55.6628Z" fill="#0598C8"/>
</g>
<defs>
<clipPath id="clip0_448_4383">
<rect width="80" height="80" fill="white" transform="translate(10 9)"/>
</clipPath>
</defs>
</svg>
