<svg width="100" height="100" viewBox="0 0 100 100" fill="none" xmlns="http://www.w3.org/2000/svg">
<g clip-path="url(#clip0_448_4363)">
<path d="M88 39.2722C87.6137 40.2483 87.1819 41.2266 86.1594 41.6762C85.5414 41.9474 84.8392 42.0942 84.1621 42.1485C83.6736 42.1891 83.4918 42.3563 83.3259 42.7834C82.8283 44.0735 82.2898 45.3501 81.7263 46.6154C81.5649 46.9792 81.5468 47.1983 81.8444 47.5169C83.61 49.3923 83.5577 51.3037 81.7308 53.1294C80.5742 54.2817 79.4245 55.4408 78.2565 56.5818C76.6092 58.1906 74.5596 58.2154 72.9008 56.618C72.5305 56.2632 72.2714 56.2271 71.7988 56.4463C70.5627 57.0156 69.2948 57.5263 68.0178 58.003C67.5701 58.1702 67.4134 58.3668 67.4065 58.8481C67.3656 61.1911 65.9023 62.6168 63.5573 62.6349C61.8668 62.6485 60.1762 62.6485 58.4857 62.6349C56.143 62.6146 54.6865 61.1866 54.6479 58.8368C54.641 58.3555 54.4797 58.1612 54.0321 57.994C52.7551 57.5172 51.4962 56.9908 50.251 56.4395C49.8375 56.2565 49.5807 56.2068 49.2058 56.5638C47.413 58.2651 45.443 58.2132 43.6797 56.4689C42.5004 55.3007 41.3211 54.1348 40.1509 52.9577C38.5376 51.3354 38.5058 49.2612 40.0986 47.6321C40.4485 47.2751 40.5213 47.0198 40.2963 46.5408C39.7192 45.3117 39.2102 44.0509 38.7262 42.7834C38.5603 42.3518 38.3831 42.1688 37.8877 42.162C35.4882 42.1281 34.0726 40.6708 34.0658 38.2735C34.0612 36.5925 34.0567 34.9114 34.0658 33.2281C34.0817 30.9868 35.5269 29.4933 37.7673 29.4684C38.3649 29.4616 38.5671 29.2447 38.7603 28.7183C39.2215 27.4711 39.7578 26.2487 40.3099 25.0376C40.4894 24.6445 40.5008 24.4095 40.1782 24.0706C38.4671 22.2788 38.5035 20.3131 40.2418 18.5756C41.4347 17.3826 42.6254 16.1896 43.8297 15.0102C45.4316 13.4421 47.5198 13.4173 49.1217 14.9786C49.508 15.3559 49.7671 15.4124 50.2806 15.1706C51.5099 14.5877 52.7869 14.1019 54.0639 13.6206C54.4752 13.4647 54.6365 13.2885 54.6479 12.8298C54.7115 10.3625 56.1294 9.00909 58.6061 9.00457C60.2967 9.00231 61.9872 8.99553 63.6778 9.00457C65.8728 9.02038 67.3815 10.4732 67.4065 12.6513C67.4134 13.223 67.5838 13.4647 68.1314 13.6613C69.4129 14.1222 70.6627 14.6735 71.9056 15.2316C72.2805 15.3988 72.4964 15.3875 72.8054 15.096C74.6459 13.363 76.5955 13.3992 78.3861 15.1683C79.5472 16.3162 80.7083 17.464 81.8603 18.6208C83.5214 20.2905 83.5668 22.3286 81.9421 24.0028C81.5831 24.3734 81.5536 24.6332 81.7694 25.0964C82.3398 26.3278 82.8101 27.6044 83.3577 28.8471C83.4645 29.0866 83.7531 29.4232 83.9485 29.4164C86.089 29.36 87.3478 30.449 87.9977 32.3808V39.2677L88 39.2722ZM67.4224 54.9844C68.8949 54.2501 70.2173 53.6287 71.5034 52.9418C72.6214 52.3454 73.1667 52.3815 74.0824 53.2763C74.4073 53.5948 74.7414 53.9044 75.0481 54.241C75.389 54.6161 75.6843 54.6364 76.0547 54.2614C77.2204 53.0797 78.3974 51.9115 79.5881 50.7547C79.9675 50.3864 79.9357 50.0927 79.5631 49.7538C79.1495 49.3742 78.7519 48.9743 78.3679 48.5653C77.7566 47.9123 77.6476 47.2774 78.1088 46.5228C79.3063 44.5706 80.1607 42.4874 80.7219 40.2731C80.9469 39.3874 81.4854 39.0101 82.4193 38.9784C82.9556 38.9604 83.4941 38.9513 84.0281 38.9784C84.5961 39.0101 84.7802 38.7615 84.7734 38.2193C84.7529 36.6173 84.7461 35.0154 84.7756 33.4157C84.787 32.7966 84.5166 32.6203 83.9508 32.6475C83.4146 32.6723 82.876 32.6701 82.3421 32.6407C81.5036 32.5978 80.9219 32.2001 80.7151 31.3551C80.1721 29.1363 79.3086 27.0531 78.1043 25.1054C77.6521 24.3734 77.7725 23.6752 78.3611 23.0584C78.7678 22.6336 79.1859 22.2178 79.6108 21.8111C79.9198 21.5151 79.9562 21.2485 79.6335 20.9322C78.4111 19.7324 77.1954 18.5236 75.9888 17.3103C75.673 16.994 75.4094 17.003 75.1072 17.3193C74.7186 17.726 74.321 18.1215 73.912 18.5078C73.1917 19.1879 72.5555 19.2964 71.7329 18.7948C69.8197 17.6289 67.7746 16.7929 65.6001 16.2506C64.6117 16.0043 64.2322 15.4892 64.2027 14.4702C64.189 13.9641 64.1777 13.4557 64.2027 12.9496C64.2322 12.3983 64.0141 12.1881 63.4505 12.2017C62.2712 12.2311 61.0897 12.2107 59.9081 12.2107C58.5432 12.2107 57.857 12.8758 57.8495 14.2058C57.8495 14.3391 57.854 14.4724 57.8449 14.6057C57.7858 15.4395 57.3973 16.0269 56.552 16.228C54.3184 16.7635 52.2324 17.6357 50.2669 18.8196C49.4762 19.2964 48.8468 19.1789 48.156 18.5282C47.7266 18.1237 47.3494 17.6605 46.8836 17.3081C46.7131 17.1793 46.2428 17.177 46.0996 17.3148C44.8544 18.4897 43.6592 19.7189 42.4345 20.9141C42.0732 21.2689 42.1437 21.54 42.4777 21.8518C42.8889 22.2359 43.2889 22.6313 43.6706 23.0425C44.3046 23.7226 44.4023 24.3598 43.9183 25.1529C42.7549 27.0598 41.9005 29.0866 41.3665 31.2534C41.1234 32.2385 40.6122 32.6113 39.5783 32.6475C39.042 32.6678 38.5035 32.6655 37.9672 32.652C37.5037 32.6407 37.2765 32.8147 37.2788 33.305C37.2924 34.986 37.2878 36.667 37.281 38.3503C37.281 38.7841 37.4628 38.9875 37.9082 38.9762C38.499 38.9626 39.0897 38.9581 39.6783 38.9784C40.519 39.0078 41.1189 39.3942 41.3256 40.237C41.8733 42.4829 42.7503 44.5864 43.9683 46.5589C44.3977 47.2548 44.275 47.9439 43.7115 48.5382C43.3434 48.9268 42.9776 49.32 42.5731 49.6702C42.1027 50.0769 42.0891 50.4022 42.5572 50.8428C43.532 51.7579 44.4613 52.7227 45.4111 53.6649C46.62 54.8646 46.3678 54.8601 47.6039 53.6378C49.0013 52.255 49.2513 52.2505 51.0077 53.2039C52.1438 53.8208 53.3436 54.3246 54.6297 54.9324C54.6297 52.7091 54.6047 50.7073 54.6456 48.7076C54.6569 48.1134 54.4502 47.8287 53.9275 47.5553C45.8179 43.303 43.8183 32.5797 49.8648 25.7358C51.1463 24.2852 52.5756 22.977 54.4979 22.4009C56.0748 21.9286 57.4268 22.7172 57.8199 24.3033C57.9335 24.7642 57.9835 25.2545 57.9812 25.729C57.9744 28.4517 57.9381 31.172 57.9267 33.8947C57.9267 34.2652 57.9631 34.6426 58.0426 35.0041C58.3357 36.3552 59.5854 37.4782 60.8874 37.5911C62.019 37.6906 63.4119 36.6919 63.8755 35.413C64.0095 35.0425 64.1095 34.6358 64.1118 34.2449C64.1186 31.5223 64.0822 28.8019 64.0913 26.0792C64.0936 25.4195 64.1368 24.7394 64.3049 24.1067C64.6367 22.8686 65.6228 22.1704 66.8862 22.3014C67.5065 22.367 68.1541 22.5726 68.7017 22.8708C73.6121 25.5415 76.5614 31.8341 75.5207 37.3132C74.6391 41.9587 72.1192 45.4088 67.9405 47.6728C67.711 47.7971 67.4452 48.1224 67.4406 48.3574C67.402 50.4632 67.4179 52.5713 67.4179 54.9799L67.4224 54.9844ZM67.3475 25.7448C67.3475 26.8972 67.3588 27.88 67.3452 28.8651C67.3157 30.9981 67.4111 33.1423 67.2043 35.2594C66.9066 38.2938 63.8868 40.8854 60.9829 40.8289C58.0244 40.7724 55.0909 38.269 54.8546 35.2571C54.6251 32.3402 54.7478 29.3961 54.716 26.4633C54.716 26.269 54.716 26.0747 54.716 25.8013C54.5183 25.9188 54.4252 25.9663 54.3411 26.0273C51.0032 28.4381 49.3035 31.703 49.6125 35.7926C49.9443 40.2098 52.2915 43.3618 56.3657 45.1558C57.4291 45.6258 57.8767 46.2697 57.8654 47.4107C57.829 51.1185 57.8654 54.8262 57.8381 58.5363C57.8335 59.248 58.0767 59.4649 58.7697 59.4468C60.2444 59.4061 61.7214 59.3994 63.1961 59.4468C63.9573 59.4717 64.2231 59.2412 64.214 58.4549C64.1777 54.72 64.2095 50.9852 64.1913 47.2503C64.1868 46.2448 64.598 45.6303 65.5387 45.2236C69.6924 43.4318 72.0897 40.2708 72.4305 35.7881C72.7532 31.5607 70.9104 28.2777 67.3452 25.7471L67.3475 25.7448Z" fill="#6FD3E2"/>
<path d="M54.8274 90.9997C50.3783 89.827 45.9315 88.6566 41.4847 87.4772C38.1195 86.5847 34.777 85.5973 31.3823 84.8268C29.9985 84.5128 28.5079 84.6484 27.065 84.6235C26.9128 84.6212 26.706 84.8856 26.606 85.0686C25.7403 86.6706 24.4292 87.5133 22.5796 87.5066C20.5391 87.4975 18.5009 87.5133 16.4604 87.502C13.811 87.4862 12.0136 85.708 12.0068 83.0735C11.9955 77.6011 11.9955 72.131 12.0068 66.6586C12.0114 64.0399 13.8314 62.2256 16.4582 62.2052C18.4986 62.1894 20.5368 62.1894 22.5773 62.2052C24.3679 62.221 25.7267 62.996 26.5447 64.598C26.7446 64.9889 26.965 65.1199 27.399 65.1357C28.9237 65.1945 30.3643 64.9527 31.789 64.3698C34.0317 63.4502 36.3813 62.8853 38.8194 62.8288C42.7095 62.7362 46.0224 64.2387 49.0082 66.5886C49.3876 66.8868 49.808 67.1557 50.1102 67.5195C50.9555 68.5385 51.9984 68.8096 53.3027 68.7531C55.5522 68.6537 57.8109 68.7667 60.0649 68.7124C61.9782 68.6673 63.6755 69.1191 65.0798 70.5268C65.9796 70.0726 66.8635 69.6298 67.7406 69.1824C71.0785 67.4788 74.4165 65.7752 77.7544 64.0693C79.5768 63.1361 81.4491 62.9667 83.3328 63.8185C87.1934 65.565 87.7546 70.807 84.3235 73.516C82.4148 75.0231 80.3766 76.372 78.377 77.7615C77.6135 78.2925 76.666 78.114 76.1525 77.4271C75.6185 76.7132 75.7526 75.7326 76.5342 75.1632C78.3111 73.873 80.1494 72.6665 81.8831 71.3221C82.4807 70.8589 83.0488 70.1517 83.2601 69.4468C83.7918 67.6663 82.1535 66.1434 80.2584 66.5479C79.8449 66.636 79.4404 66.81 79.0632 67.002C75.1254 69.0039 71.199 71.0261 67.2566 73.0212C66.8226 73.2404 66.6522 73.4347 66.7067 73.977C67.0657 77.5401 64.4549 80.5113 60.8489 80.5565C56.1794 80.6175 51.5099 80.5813 46.8404 80.5723C45.7407 80.5723 45.0158 79.908 45.0113 78.9703C45.0067 77.9875 45.7202 77.3774 46.9063 77.3774C51.4417 77.3729 55.9772 77.3797 60.5126 77.3729C62.1054 77.3707 63.2665 76.4827 63.5051 75.1202C63.7982 73.4415 62.5349 71.9548 60.7443 71.9389C57.9268 71.9141 55.1069 71.9005 52.2916 71.9435C50.8669 71.966 49.6967 71.5368 48.6651 70.5426C46.9381 68.8819 45.0226 67.4743 42.7254 66.6609C39.7374 65.6034 36.788 65.983 33.9045 67.0179C31.7731 67.7815 29.669 68.552 27.3513 68.3396C27.2536 68.3306 27.1491 68.3893 27.0309 68.4232V81.284C27.1127 81.327 27.1605 81.3744 27.2036 81.3721C30.7983 81.0355 34.1363 82.1991 37.5174 83.1097C42.8435 84.5444 48.1788 85.9521 53.4981 87.4162C56.0044 88.1053 58.3358 87.8071 60.5058 86.4039C61.9214 85.4889 63.2893 84.5015 64.6844 83.5548C65.2684 83.1594 65.8887 83.1029 66.5 83.4757C67.0794 83.8304 67.3543 84.3795 67.2248 85.0438C67.1635 85.3646 67.0135 85.7577 66.7681 85.9408C64.2641 87.8161 61.81 89.7863 58.7107 90.6585C58.279 90.7805 57.8427 90.8867 57.4109 91.0019H54.8342L54.8274 90.9997ZM23.768 74.9011C23.768 72.2101 23.7703 69.5168 23.768 66.8258C23.768 65.7752 23.4203 65.4136 22.3933 65.4091C20.4641 65.4001 18.535 65.4001 16.6058 65.4091C15.5833 65.4136 15.2311 65.7819 15.2289 66.8348C15.2243 72.192 15.2243 77.5492 15.2289 82.9063C15.2289 83.957 15.572 84.2981 16.6149 84.3027C18.5168 84.3094 20.421 84.3072 22.3228 84.3027C23.4862 84.3004 23.768 84.0112 23.768 82.8182C23.7703 80.1792 23.768 77.5401 23.768 74.9033V74.9011Z" fill="#6FD3E2"/>
<path d="M71.542 82.2293C70.6604 82.227 69.9719 81.5515 69.956 80.6793C69.9424 79.7868 70.674 79.0457 71.5648 79.0548C72.4169 79.0615 73.1462 79.7755 73.1644 80.6228C73.1826 81.5063 72.4487 82.2338 71.542 82.2316V82.2293Z" fill="#6FD3E2"/>
</g>
<defs>
<clipPath id="clip0_448_4363">
<rect width="76" height="82" fill="white" transform="translate(12 9)"/>
</clipPath>
</defs>
</svg>
