<svg width="36" height="81" viewBox="0 0 36 81" fill="none" xmlns="http://www.w3.org/2000/svg">
<g clip-path="url(#clip0_894_4997)">
<path d="M29.1821 7.94983L35.6484 7.95068L35.6476 0.999063L29.1813 0.998209L29.1821 7.94983Z" fill="white"/>
<path d="M29.1841 22.567L35.6504 22.5679L35.6495 15.6163L29.1832 15.6154L29.1841 22.567Z" fill="white" fill-opacity="0.6"/>
<path d="M29.187 51.7765L35.6533 51.7773L35.6525 44.8257L29.1862 44.8249L29.187 51.7765Z" fill="white"/>
<path d="M29.1889 66.3937L35.6553 66.3945L35.6544 59.4429L29.1881 59.4421L29.1889 66.3937Z" fill="white" fill-opacity="0.5"/>
<path d="M14.3091 51.7745L20.7754 51.7754L20.7745 44.8238L14.3082 44.8229L14.3091 51.7745Z" fill="white"/>
<path d="M14.313 80.9962L20.7793 80.9971L20.7785 74.0455L14.3121 74.0446L14.313 80.9962Z" fill="white" fill-opacity="0.6"/>
<path d="M0.714337 66.3898L7.18066 66.3906L7.17982 59.439L0.713493 59.4382L0.714337 66.3898Z" fill="white" fill-opacity="0.6"/>
<path d="M0.715314 80.9948L7.18164 80.9956L7.1808 74.044L0.714469 74.0431L0.715314 80.9948Z" fill="white"/>
<path d="M29.186 37.1593L35.6523 37.1602L35.6515 30.2085L29.1852 30.2077L29.186 37.1593Z" fill="white"/>
<path d="M29.1909 80.9982L35.6572 80.999L35.6564 74.0474L29.1901 74.0466L29.1909 80.9982Z" fill="white"/>
<path d="M14.311 66.3917L20.7773 66.3926L20.7765 59.441L14.3102 59.4401L14.311 66.3917Z" fill="white"/>
</g>
<defs>
<clipPath id="clip0_894_4997">
<rect width="34.9415" height="80" fill="white" transform="matrix(1 0.000132155 0.000121518 1 0.706055 0.994629)"/>
</clipPath>
</defs>
</svg>
