<svg width="370" height="276" viewBox="0 0 370 276" fill="none" xmlns="http://www.w3.org/2000/svg">
<rect x="119" y="86.3052" width="87" height="85" rx="5" fill="#EBEBEB"/>
<path d="M154.216 99.8117L143.851 102.44L149.845 108.906L154.216 99.8117Z" fill="#FFD700"/>
<path d="M139.039 90.9082L131.731 98.2072L140.506 100.77L139.039 90.9082Z" fill="#FFD700"/>
<path d="M161.107 114.828L150.873 111.792L152.088 120.24L161.107 114.828Z" fill="#FFD700"/>
<path d="M303 74.6995V75.3052H83V74.6995C83 66.7541 89.5411 60.3052 97.6202 60.3052H288.38C296.45 60.3052 303 66.7541 303 74.6995Z" fill="#D2EAF1"/>
<path d="M244.048 103.557H194.504C193.661 103.557 192.977 104.191 192.977 104.974V110.844C192.977 111.626 193.661 112.26 194.504 112.26H244.048C244.892 112.26 245.576 111.626 245.576 110.844V104.974C245.576 104.191 244.892 103.557 244.048 103.557Z" fill="#F7F7F7"/>
<path d="M229.826 122.769H194.651C193.732 122.769 192.986 122.078 192.986 121.226C192.986 120.374 193.732 119.683 194.651 119.683H229.826C230.745 119.683 231.49 120.374 231.49 121.226C231.49 122.078 230.745 122.769 229.826 122.769Z" fill="#F7F7F7"/>
<path d="M265.019 130.24H194.641C193.722 130.24 192.977 129.549 192.977 128.697C192.977 127.845 193.722 127.154 194.641 127.154H265.019C265.938 127.154 266.683 127.845 266.683 128.697C266.683 129.549 265.938 130.24 265.019 130.24Z" fill="#F7F7F7"/>
<path d="M265.019 137.713H194.641C193.722 137.713 192.977 137.022 192.977 136.17C192.977 135.318 193.722 134.626 194.641 134.626H265.019C265.938 134.626 266.683 135.318 266.683 136.17C266.683 137.022 265.938 137.713 265.019 137.713Z" fill="#F7F7F7"/>
<path d="M265.019 145.176H194.641C193.722 145.176 192.977 144.484 192.977 143.633C192.977 142.781 193.722 142.089 194.641 142.089H265.019C265.938 142.089 266.683 142.781 266.683 143.633C266.683 144.484 265.938 145.176 265.019 145.176Z" fill="#F7F7F7"/>
<path d="M216.821 161.183H196.605C194.604 161.183 192.977 159.674 192.977 157.819C192.977 155.963 194.604 154.454 196.605 154.454H216.821C218.822 154.454 220.45 155.963 220.45 157.819C220.45 159.674 218.822 161.183 216.821 161.183Z" fill="#FFB450"/>
<path d="M302.504 179.703V201.115C302.504 204.37 299.657 207.01 296.147 207.01H87.7215C84.2112 207.01 81.3647 204.37 81.3647 201.115V179.703H302.504Z" fill="#D2EAF1" fill-opacity="0.3"/>
<path d="M268.92 68.4907C268.92 69.469 268.065 70.2618 267.01 70.2618C265.955 70.2618 265.1 69.469 265.1 68.4907C265.1 67.5125 265.955 66.7197 267.01 66.7197C268.065 66.7197 268.92 67.5125 268.92 68.4907Z" fill="#FFB450"/>
<path d="M279.378 68.4907C279.378 69.469 278.523 70.2618 277.468 70.2618C276.413 70.2618 275.559 69.469 275.559 68.4907C275.559 67.5125 276.413 66.7197 277.468 66.7197C278.523 66.7197 279.378 67.5125 279.378 68.4907Z" fill="#FFB450"/>
<path d="M289.381 68.4907C289.381 69.469 288.527 70.2618 287.472 70.2618C286.417 70.2618 285.562 69.469 285.562 68.4907C285.562 67.5125 286.417 66.7197 287.472 66.7197C288.527 66.7197 289.381 67.5125 289.381 68.4907Z" fill="#FFB450"/>
<path d="M303 73.7214V198.502C303 201.707 300.168 204.305 296.676 204.305H89.324C85.8318 204.305 83 201.707 83 198.502V73.7214C83 66.3159 89.5411 60.3052 97.6202 60.3052H288.38C296.45 60.3052 303 66.3159 303 73.7214Z" stroke="#00BAE1" stroke-miterlimit="10"/>
<g style="mix-blend-mode:multiply">
<path d="M335.774 97.7217H286.329C285.496 97.7217 284.82 98.3485 284.82 99.1216V161.318C284.82 162.091 285.496 162.718 286.329 162.718H335.774C336.607 162.718 337.283 162.091 337.283 161.318V99.1216C337.283 98.3485 336.607 97.7217 335.774 97.7217Z" fill="#CBD4DB"/>
</g>
<path d="M344.441 90.4692H294.996C294.163 90.4692 293.487 91.096 293.487 91.8692V154.066C293.487 154.839 294.163 155.466 294.996 155.466H344.441C345.274 155.466 345.95 154.839 345.95 154.066V91.8692C345.95 91.096 345.274 90.4692 344.441 90.4692Z" fill="#0D395C"/>
<path d="M336.829 97.5361H302.608V101.829H336.829V97.5361Z" fill="#018DE9"/>
<path d="M326.888 148.567H312.556C311.129 148.567 309.974 147.496 309.974 146.172C309.974 144.848 311.129 143.777 312.556 143.777H326.888C328.316 143.777 329.471 144.848 329.471 146.172C329.471 147.496 328.316 148.567 326.888 148.567Z" fill="#FFCC4D"/>
<path d="M320.751 108.061H306.61C306.118 108.061 305.719 108.431 305.719 108.888V109.259C305.719 109.715 306.118 110.085 306.61 110.085H320.751C321.243 110.085 321.642 109.715 321.642 109.259V108.888C321.642 108.431 321.243 108.061 320.751 108.061Z" fill="#018DE9"/>
<path d="M338.757 113.046H306.61C306.118 113.046 305.719 113.416 305.719 113.872V114.243C305.719 114.7 306.118 115.07 306.61 115.07H338.757C339.249 115.07 339.648 114.7 339.648 114.243V113.872C339.648 113.416 339.249 113.046 338.757 113.046Z" fill="#018DE9"/>
<path d="M338.757 118.03H306.61C306.118 118.03 305.719 118.4 305.719 118.856V119.227C305.719 119.684 306.118 120.054 306.61 120.054H338.757C339.249 120.054 339.648 119.684 339.648 119.227V118.856C339.648 118.4 339.249 118.03 338.757 118.03Z" fill="#018DE9"/>
<path d="M300.189 109.073C300.189 109.63 299.698 110.085 299.098 110.085C298.497 110.085 298.006 109.63 298.006 109.073C298.006 108.516 298.497 108.061 299.098 108.061C299.698 108.061 300.189 108.516 300.189 109.073Z" fill="#018DE9"/>
<path d="M320.751 124.624H306.61C306.118 124.624 305.719 124.994 305.719 125.451V125.822C305.719 126.278 306.118 126.648 306.61 126.648H320.751C321.243 126.648 321.642 126.278 321.642 125.822V125.451C321.642 124.994 321.243 124.624 320.751 124.624Z" fill="#018DE9"/>
<path d="M338.757 129.608H306.61C306.118 129.608 305.719 129.978 305.719 130.434V130.805C305.719 131.262 306.118 131.632 306.61 131.632H338.757C339.249 131.632 339.648 131.262 339.648 130.805V130.434C339.648 129.978 339.249 129.608 338.757 129.608Z" fill="#018DE9"/>
<path d="M338.757 134.592H306.61C306.118 134.592 305.719 134.962 305.719 135.418V135.789C305.719 136.246 306.118 136.616 306.61 136.616H338.757C339.249 136.616 339.648 136.246 339.648 135.789V135.418C339.648 134.962 339.249 134.592 338.757 134.592Z" fill="#018DE9"/>
<path d="M300.189 125.636C300.189 126.193 299.698 126.648 299.098 126.648C298.497 126.648 298.006 126.193 298.006 125.636C298.006 125.079 298.497 124.624 299.098 124.624C299.698 124.624 300.189 125.079 300.189 125.636Z" fill="#018DE9"/>
<path d="M368.994 89.0861L343.894 108.281C343.694 108.432 343.494 108.567 343.276 108.694C342.748 109.014 342.166 109.259 341.548 109.419L337.483 110.482C336.992 110.608 336.574 110.136 336.801 109.714L338.702 106.223C338.983 105.708 339.347 105.236 339.775 104.814C339.957 104.637 340.148 104.469 340.357 104.308L365.338 85.2067C366.493 84.3212 368.248 84.3297 369.266 85.3585C370.349 86.4549 370.212 88.15 368.994 89.0861Z" fill="#FFCC4D"/>
<path d="M343.276 108.694C342.748 109.014 342.166 109.259 341.548 109.419L339.174 110.043L337.492 110.482C337.001 110.608 336.582 110.136 336.81 109.714L337.601 108.272L338.71 106.223C338.992 105.708 339.356 105.236 339.783 104.814C340.693 105.067 342.803 105.936 343.276 108.694Z" fill="#FFE7B0"/>
<path d="M339.174 110.043L337.492 110.482C337.001 110.609 336.582 110.136 336.81 109.715L337.601 108.272C338.356 108.34 339.356 108.686 339.174 110.043Z" fill="#FFCC4D"/>
<path d="M356.514 185.994H326.494C325.312 185.994 324.348 185.1 324.348 184.003C324.348 182.907 325.312 182.013 326.494 182.013H356.514C357.696 182.013 358.66 182.907 358.66 184.003C358.66 185.1 357.696 185.994 356.514 185.994Z" fill="#FADB96"/>
<path d="M342.864 195.937H325.585C324.903 195.937 324.348 195.043 324.348 193.946C324.348 192.85 324.903 191.956 325.585 191.956H342.864C343.546 191.956 344.1 192.85 344.1 193.946C344.1 195.043 343.546 195.937 342.864 195.937Z" fill="#FADB96"/>
<path d="M320.419 28.5081L326.976 27.3612V21.9047L320.419 20.859C319.91 18.6157 318.955 16.5158 317.646 14.6604L321.411 9.54977L317.255 5.6957L311.816 9.2546C309.807 8.04019 307.56 7.15468 305.132 6.69085L303.895 0.610352H298.012L296.884 6.69085C294.465 7.16312 292.201 8.04863 290.2 9.26304L284.689 5.7716L280.533 9.62567L284.38 14.6689C283.07 16.5326 282.115 18.6241 281.606 20.8674L275.049 22.0144V27.4708L281.606 28.5165C282.115 30.7683 283.07 32.8513 284.38 34.7151L280.615 39.8257L284.771 43.6798L290.218 40.1125C292.228 41.3269 294.474 42.2124 296.893 42.6762L298.13 48.7567H304.014L305.141 42.6762C307.569 42.204 309.816 41.3185 311.825 40.104L317.336 43.5955L321.492 39.7414L317.646 34.6982C318.955 32.8344 319.91 30.7514 320.41 28.4997L320.419 28.5081ZM301.013 35.9801C294.292 35.9801 288.845 30.9201 288.845 24.6962C288.845 18.4723 294.292 13.4123 301.013 13.4123C307.733 13.4123 313.18 18.4639 313.18 24.6962C313.18 30.9285 307.733 35.9801 301.013 35.9801Z" stroke="#43B6DD" stroke-miterlimit="10"/>
<path d="M343.055 63.9961L346.838 65.2274L348.602 62.3938L345.528 60.024C345.992 58.7168 346.174 57.359 346.092 56.0266L349.702 54.4158L348.784 51.2532L344.801 51.5906C344.155 50.4015 343.264 49.3136 342.154 48.3943L343.482 44.886L340.426 43.2499L337.871 46.1004C336.461 45.6703 334.997 45.5017 333.56 45.5776L331.823 42.2295L328.413 43.0813L328.777 46.7751C327.495 47.3739 326.322 48.2004 325.33 49.2292L321.547 47.9979L319.783 50.8316L322.857 53.2014C322.393 54.5085 322.211 55.8663 322.293 57.1988L318.683 58.8096L319.601 61.9721L323.584 61.6348C324.23 62.8239 325.121 63.9118 326.222 64.8311L324.894 68.3393L327.949 69.9754L330.505 67.1249C331.914 67.555 333.379 67.7237 334.815 67.6478L336.552 70.9959L339.963 70.1441L339.599 66.4503C340.881 65.8515 342.054 65.025 343.045 63.9961H343.055ZM330.541 62.4781C327.049 60.6059 325.849 56.4651 327.868 53.2267C329.886 49.9882 334.352 48.875 337.844 50.7472C341.336 52.6195 342.536 56.7603 340.517 59.9987C338.498 63.2371 334.033 64.3503 330.541 62.4866V62.4781Z" stroke="#FADB96" stroke-miterlimit="10"/>
<path d="M268.54 231.415C267.485 231.415 266.64 230.622 266.64 229.652C266.64 228.682 267.494 227.89 268.54 227.89C269.586 227.89 270.441 228.682 270.441 229.652C270.441 230.622 269.586 231.415 268.54 231.415Z" fill="#F7F7F7"/>
<path d="M259.437 231.415C258.391 231.415 257.537 230.622 257.537 229.652C257.537 228.682 258.391 227.89 259.437 227.89C260.483 227.89 261.338 228.682 261.338 229.652C261.338 230.622 260.483 231.415 259.437 231.415Z" fill="#F7F7F7"/>
<path d="M250.325 231.415C249.28 231.415 248.425 230.622 248.425 229.652C248.425 228.682 249.28 227.89 250.325 227.89C251.371 227.89 252.226 228.682 252.226 229.652C252.226 230.622 251.371 231.415 250.325 231.415Z" fill="#F7F7F7"/>
<path d="M241.222 231.415C240.176 231.415 239.321 230.622 239.321 229.652C239.321 228.682 240.176 227.89 241.222 227.89C242.268 227.89 243.123 228.682 243.123 229.652C243.123 230.622 242.268 231.415 241.222 231.415Z" fill="#F7F7F7"/>
<path d="M232.11 231.415C231.064 231.415 230.209 230.622 230.209 229.652C230.209 228.682 231.064 227.89 232.11 227.89C233.156 227.89 234.011 228.682 234.011 229.652C234.011 230.622 233.156 231.415 232.11 231.415Z" fill="#F7F7F7"/>
<path d="M274.324 238.938C273.269 238.938 272.423 238.145 272.423 237.175C272.423 236.205 273.278 235.413 274.324 235.413C275.37 235.413 276.225 236.205 276.225 237.175C276.225 238.145 275.37 238.938 274.324 238.938Z" fill="#F7F7F7"/>
<path d="M265.212 238.938C264.166 238.938 263.312 238.145 263.312 237.175C263.312 236.205 264.166 235.413 265.212 235.413C266.258 235.413 267.113 236.205 267.113 237.175C267.113 238.145 266.258 238.938 265.212 238.938Z" fill="#F7F7F7"/>
<path d="M256.109 238.938C255.063 238.938 254.208 238.145 254.208 237.175C254.208 236.205 255.063 235.413 256.109 235.413C257.155 235.413 258.01 236.205 258.01 237.175C258.01 238.145 257.155 238.938 256.109 238.938Z" fill="#F7F7F7"/>
<path d="M246.997 238.938C248.047 238.938 248.898 238.149 248.898 237.175C248.898 236.202 248.047 235.413 246.997 235.413C245.947 235.413 245.096 236.202 245.096 237.175C245.096 238.149 245.947 238.938 246.997 238.938Z" fill="#F7F7F7"/>
<path d="M237.894 238.938C238.944 238.938 239.794 238.149 239.794 237.175C239.794 236.202 238.944 235.413 237.894 235.413C236.844 235.413 235.993 236.202 235.993 237.175C235.993 238.149 236.844 238.938 237.894 238.938Z" fill="#F7F7F7"/>
<path d="M279.552 246.452C280.602 246.452 281.453 245.663 281.453 244.689C281.453 243.716 280.602 242.927 279.552 242.927C278.502 242.927 277.651 243.716 277.651 244.689C277.651 245.663 278.502 246.452 279.552 246.452Z" fill="#F7F7F7"/>
<path d="M270.449 246.452C271.499 246.452 272.35 245.663 272.35 244.689C272.35 243.716 271.499 242.927 270.449 242.927C269.4 242.927 268.549 243.716 268.549 244.689C268.549 245.663 269.4 246.452 270.449 246.452Z" fill="#F7F7F7"/>
<path d="M261.338 246.452C260.292 246.452 259.438 245.659 259.438 244.689C259.438 243.72 260.292 242.927 261.338 242.927C262.384 242.927 263.239 243.72 263.239 244.689C263.239 245.659 262.384 246.452 261.338 246.452Z" fill="#F7F7F7"/>
<path d="M252.225 246.452C251.18 246.452 250.325 245.659 250.325 244.689C250.325 243.72 251.18 242.927 252.225 242.927C253.271 242.927 254.126 243.72 254.126 244.689C254.126 245.659 253.271 246.452 252.225 246.452Z" fill="#F7F7F7"/>
<path d="M243.122 246.452C242.077 246.452 241.222 245.659 241.222 244.689C241.222 243.72 242.077 242.927 243.122 242.927C244.168 242.927 245.023 243.72 245.023 244.689C245.023 245.659 244.168 246.452 243.122 246.452Z" fill="#F7F7F7"/>
<g clip-path="url(#clip0_1245_13850)">
<path fill-rule="evenodd" clip-rule="evenodd" d="M136.984 132.505C136.295 132.123 135.379 131.499 134.776 131.219C134.172 130.939 130.805 135.586 130.116 137.005C129.426 138.428 127.18 142.311 127.245 142.973C127.256 143.078 127.3 143.209 127.369 143.349C125.342 144.568 116.317 152.22 116.317 152.22C116.317 152.22 111.677 141.388 108.66 138.896C105.248 136.079 101.935 134.876 100.889 135.108C99.8433 135.341 103.135 150.275 107.236 160.142C111.338 170.009 111.674 170.961 114.06 172.865C116.447 174.768 120.994 174.424 122.294 171.626C123.59 168.829 130.157 148.419 130.743 145.972C131.028 144.781 131.285 143.97 131.381 143.553C131.381 143.553 133.233 143.031 134.073 142.509C134.927 141.977 136.473 141.754 137.684 140.112C138.873 138.498 138.668 139.211 138.64 136.245C138.62 133.985 137.677 132.887 136.987 132.505H136.984Z" fill="#FFF8E9"/>
<path d="M135.064 138.892L133.507 139.803C133.209 139.978 132.814 139.85 132.698 139.542L126.258 126.861C126.172 126.638 126.265 126.386 126.484 126.259L129.1 124.728C129.399 124.553 129.793 124.68 129.91 124.989L135.931 136.572C136.26 137.438 135.9 138.399 135.064 138.886V138.892Z" fill="#FFCC4D"/>
<path d="M138.562 116.459L137.084 117.321L133.888 112.611L135.366 111.748C136.768 110.93 138.616 111.318 139.501 112.62C140.382 113.922 139.964 115.638 138.562 116.459Z" fill="#FFCC4D"/>
<path d="M113.939 120.556L119.643 117.22L126.564 127.416L120.859 130.752C120.192 131.142 119.308 130.956 118.887 130.336L113.492 122.386C113.071 121.767 113.272 120.946 113.939 120.556Z" fill="#FFCC4D"/>
<path d="M119.64 117.213L131.621 107.368C132.218 106.878 133.147 106.999 133.572 107.626L141.795 119.741C142.217 120.361 141.943 121.189 141.219 121.482L126.563 127.412L119.643 117.217L119.64 117.213Z" fill="#44B5DC"/>
<path d="M119.489 120.698L116.814 122.264C116.649 122.36 116.433 122.315 116.33 122.163C116.228 122.01 116.276 121.809 116.44 121.714L119.115 120.148C119.279 120.052 119.495 120.097 119.598 120.25C119.701 120.402 119.653 120.603 119.489 120.698Z" fill="#FFE7B0"/>
<path d="M120.192 121.736L117.517 123.302C117.352 123.398 117.136 123.353 117.034 123.2C116.931 123.047 116.979 122.847 117.143 122.751L119.818 121.185C119.983 121.09 120.199 121.134 120.301 121.287C120.404 121.44 120.356 121.641 120.192 121.736Z" fill="#FFE7B0"/>
<path fill-rule="evenodd" clip-rule="evenodd" d="M78.6724 118.703C79.3033 102.696 92.0528 105.497 92.0528 105.497C92.0528 105.497 95.163 103.441 100.427 105.29C104.806 106.827 106.311 109.122 107.566 114.521C109.38 122.316 112.24 121.545 114.647 127.829C118.32 137.416 109.466 141.378 102.573 145.122C95.6808 148.865 80.3389 145.169 80.3389 145.169C80.3389 145.169 74.6569 146.535 74.7803 141.382C74.9003 136.228 81.6865 135.573 82.465 130.633C83.2434 125.696 78.4049 125.604 78.6758 118.703H78.6724Z" fill="#0D395C"/>
<path fill-rule="evenodd" clip-rule="evenodd" d="M134.79 266.421C134.79 266.421 133.154 271.301 134.025 273.459C134.896 275.617 148.486 275.416 154.154 274.742C159.822 274.067 161.564 271.775 158.512 270.021C155.46 268.267 139.474 264.827 139.474 264.827L134.786 266.425L134.79 266.421Z" fill="white"/>
<path fill-rule="evenodd" clip-rule="evenodd" d="M29.5707 254.695C29.5707 254.695 28.758 254.3 27.5235 254.695C26.2924 255.09 20.9636 256.442 20.9019 260.895C20.8401 265.348 26.5325 270.982 29.0837 271.94C31.635 272.898 40.465 273.595 40.8627 272.841C42.2584 270.193 34.3646 268.614 34.1245 265.628C34.0285 264.438 33.8468 259.835 33.8468 259.835L29.5707 254.695Z" fill="white"/>
<path fill-rule="evenodd" clip-rule="evenodd" d="M90.9585 198.898C85.6948 189.607 89.1376 189.091 89.1376 189.091C89.1376 189.091 95.4232 188.754 100.426 187.55C105.433 186.35 108.687 185.708 108.687 185.708C108.687 185.708 125.789 196.043 135.5 211C141.947 220.931 144.566 263.225 144.566 263.225L132.485 265.199C132.485 265.199 122.167 224.578 116.022 220.013C102.415 209.904 94.4939 205.14 90.9585 198.895V198.898Z" fill="#0D395C"/>
<path fill-rule="evenodd" clip-rule="evenodd" d="M70.8503 193.996C74.2555 185.602 76.5461 184.542 76.5461 184.542C76.5461 184.542 89.9231 185.265 93.7191 185.746C97.5151 186.226 104.559 188.133 104.559 188.133C104.559 188.133 91.3496 214.984 76.6456 229.48C63.7212 242.221 41.6754 260.895 41.6754 260.895L30.5137 252.737C30.5137 252.737 47.0283 239.624 56.8321 224.581C67.0337 208.93 69.2627 197.898 70.8469 193.996H70.8503Z" fill="#0D395C"/>
<path fill-rule="evenodd" clip-rule="evenodd" d="M76.5462 184.542C76.5462 184.542 89.9232 185.265 93.7192 185.746C96.1024 186.048 99.7613 186.911 102.158 187.512C102.693 188.438 103.04 189.463 103.146 190.596C102.906 191.004 102.642 191.453 102.347 191.946C99.895 192.993 92.3681 195.82 84.8892 194.617C80.2976 193.878 75.4626 192.739 71.7969 191.79C74.6739 185.411 76.5496 184.546 76.5496 184.546L76.5462 184.542Z" fill="#0D395C"/>
<path opacity="0.22" fill-rule="evenodd" clip-rule="evenodd" d="M114.664 173.278C112.079 171.897 110.162 168.482 106.311 159.197L110.899 154.814C110.899 154.814 115.522 168.478 117.332 169.79C118.577 170.694 121.492 170.605 122.668 170.691C122.534 171.041 122.085 172.043 121.948 172.209C120.168 174.396 117.391 174.73 114.664 173.275V173.278Z" fill="#D38888"/>
<path fill-rule="evenodd" clip-rule="evenodd" d="M77.0089 143.947C78.8229 136.897 87.7969 134.255 88.7879 133.854C89.7789 133.453 91.9804 133.373 93.6641 133.574C95.3478 133.774 99.7473 134.576 99.7473 134.576C99.7473 134.576 105.868 135.423 108.464 143.224C110.71 149.975 111.526 159.247 111.526 164.576C111.526 169.624 107.123 173.708 108.159 178.915C109.195 184.122 111.18 186.366 111.18 186.366C111.18 186.366 109.28 189.33 102.292 191.252C95.2998 193.175 84.426 194.457 78.4731 189.25C72.5167 184.043 73.2505 183.123 73.4254 182.68C73.5969 182.241 75.3252 180.678 76.3608 178.355C77.3963 176.031 79.1452 173.135 79.3338 163.201C79.5224 153.267 75.1949 150.997 77.0054 143.95L77.0089 143.947Z" fill="#44B5DC"/>
<path opacity="0.31" fill-rule="evenodd" clip-rule="evenodd" d="M73.1478 182.633C73.3192 182.193 75.0475 180.631 76.0831 178.307C77.1187 175.983 78.3086 177.145 79.2687 165.648C80.0231 156.602 74.972 150.981 76.7003 144.036C77.3381 143.775 77.8936 143.657 78.3394 143.718C82.8247 144.338 102.611 159.445 102.611 159.445L110.213 167.214C110.213 167.214 107.84 173.762 100.92 173.762C94.0002 173.762 84.1621 161.475 84.1621 161.475C84.1621 161.475 82.5847 176.805 77.1187 181.541C75.8705 182.62 74.5743 183.422 73.3158 184.02C72.8597 183.171 73.0689 182.849 73.1512 182.636L73.1478 182.633Z" fill="#2682DD"/>
<path fill-rule="evenodd" clip-rule="evenodd" d="M95.9067 129.255C98.4168 130.413 100.207 132.81 100.207 132.81C100.207 132.81 100.33 134.051 100.378 135.27C100.43 136.572 100.972 139.809 96.9114 139.644C94.5659 139.548 91.6512 135.019 91.6923 134C91.7198 133.284 92.529 132.906 92.4124 131.212C92.2958 129.522 91.8706 128.313 91.8706 128.313C91.8706 128.313 93.3966 128.09 95.9101 129.252L95.9067 129.255Z" fill="#FFF8E9" stroke="#0D395C" stroke-width="0.5" stroke-miterlimit="10"/>
<path opacity="0.22" fill-rule="evenodd" clip-rule="evenodd" d="M92.3472 132.38C92.4124 132.036 92.4433 131.645 92.4158 131.215C92.2992 129.525 91.874 128.315 91.874 128.315C91.874 128.315 93.4 128.093 95.9135 129.254C98.4236 130.413 100.214 132.81 100.214 132.81C100.214 132.81 100.402 133.488 100.43 134.325C98.6191 134.494 95.8929 134.341 92.9611 132.721C92.7484 132.603 92.5461 132.492 92.3472 132.38Z" fill="#D38888"/>
<path fill-rule="evenodd" clip-rule="evenodd" d="M93.3556 112.416C93.3556 112.416 101.668 108.291 104.761 113.094C107.528 117.391 107.165 122.666 107.048 125.011C106.931 127.357 104.768 130.598 104.106 131.635C102.151 134.707 96.3663 132.905 93.239 130.556C92.392 129.92 91.8193 129.025 91.6341 128.029L90.9449 124.378C90.9449 124.378 89.8784 120.918 92.1417 117.681C94.4049 114.444 93.359 112.416 93.359 112.416H93.3556Z" fill="#FFF8E9" stroke="#0D395C" stroke-width="0.5" stroke-miterlimit="10"/>
<path fill-rule="evenodd" clip-rule="evenodd" d="M135.263 131.638C135.232 130.314 135.414 130.317 134.035 129.207C132.513 127.978 130.795 126.717 129.108 127.37C127.023 128.175 125.198 130.496 125.154 131.075C125.109 131.654 125.178 131.798 125.394 132.918C125.586 133.908 125.901 138.17 125.901 138.17L103.921 155.883C103.921 155.883 87.4987 139.637 86.0756 138.635C84.6525 137.632 84.0353 137.963 81.5766 141.964C79.118 145.965 76.5118 147.426 79.8346 150.711C83.1575 153.995 92.0149 164.795 97.4774 168.717C99.4457 170.13 105.069 172.823 107.535 170.012C110.289 166.874 128.724 143.823 128.724 143.823L129.92 142.33C129.92 142.33 132.777 139.857 133.216 138.587C134.052 136.158 132.039 136.196 132.201 135.07C132.598 132.329 135.29 132.94 135.263 131.642V131.638Z" fill="#FFF8E9"/>
<path fill-rule="evenodd" clip-rule="evenodd" d="M143.242 263.442C143.242 263.442 142.275 265.909 143.184 266.628C144.096 267.347 144.415 268.869 142.865 269.206C141.315 269.544 137.992 269.461 136.49 268.742C134.988 268.022 134.79 264.823 134.79 264.823L143.242 263.442Z" fill="#FCE7D9"/>
<path fill-rule="evenodd" clip-rule="evenodd" d="M31.6899 253.594C31.6899 253.594 28.4185 254.622 27.7327 255.341C27.0503 256.061 28.0962 260.711 30.0096 261.85C31.9231 262.993 32.6055 261.85 33.4696 260.412C34.3337 258.973 37.221 257.636 37.221 257.636L31.6899 253.594Z" fill="#FCE7D9"/>
<path fill-rule="evenodd" clip-rule="evenodd" d="M21.7626 257.639L20 261.169C20 261.169 24.7802 270.992 26.3233 272.271C27.8664 273.551 41.0308 273.398 41.0308 273.398L40.8662 272.844C40.8662 272.844 30.2702 272.198 27.5269 270.33C25.0785 268.662 21.8209 263.27 21.6563 260.456C21.6185 259.81 22.3729 257.961 22.3729 257.961L21.766 257.642L21.7626 257.639Z" fill="#44B5DC"/>
<path d="M97.8477 123.659C98.4348 123.659 98.9107 123.176 98.9107 122.58C98.9107 121.984 98.4348 121.501 97.8477 121.501C97.2606 121.501 96.7847 121.984 96.7847 122.58C96.7847 123.176 97.2606 123.659 97.8477 123.659Z" fill="#0D395C"/>
<path d="M98.1837 122.58C98.3617 122.58 98.506 122.446 98.506 122.281C98.506 122.115 98.3617 121.981 98.1837 121.981C98.0056 121.981 97.8613 122.115 97.8613 122.281C97.8613 122.446 98.0056 122.58 98.1837 122.58Z" fill="white"/>
<path fill-rule="evenodd" clip-rule="evenodd" d="M101.524 149.107L87.9891 161.38C87.9891 161.38 72.3352 146.77 77.8046 141.302C82.2145 136.89 82.187 131.931 101.524 149.107Z" fill="#44B5DC"/>
<path d="M29.7148 265.52L32.9588 264.823L30.9802 267.312L34.1864 267.828L33.5897 268.929" stroke="#44B5DC" stroke-miterlimit="10"/>
<path d="M87.9925 161.38L80.98 153.833" stroke="#0D395C" stroke-width="0.5" stroke-miterlimit="10"/>
<path d="M94.2988 146.79L99.2025 151.211" stroke="#0D395C" stroke-width="0.5" stroke-miterlimit="10" stroke-linecap="round"/>
<path d="M105.848 154.327L114.057 147.633C114.057 147.633 110.011 136.617 102.848 135.795L105.848 154.327Z" fill="#44B5DC"/>
<path fill-rule="evenodd" clip-rule="evenodd" d="M102.69 110.602C102.69 110.602 106.959 110.768 105.58 115.463C104.744 118.308 101.078 117.974 101.078 117.974C101.078 117.974 101.784 115.275 100.999 114.654C100.999 114.654 101.03 115.584 100.426 116.386C99.9258 117.051 98.8319 117.589 98.3176 117.78L98.5302 114.463C98.5302 114.463 97.7723 116.561 96.0269 117.592C94.1443 118.703 91.0479 118.225 91.0479 118.225C91.0479 118.225 91.816 107.607 97.6009 108.533C103.386 109.46 102.697 111.602 102.697 111.602V110.609L102.69 110.602Z" fill="#0D395C"/>
<path fill-rule="evenodd" clip-rule="evenodd" d="M101.874 123.096C101.874 123.096 103.273 123.85 102.923 124.331C102.573 124.811 102.165 125.079 102.165 125.079" fill="#FFF8E9"/>
<path d="M101.874 123.096C101.874 123.096 103.273 123.85 102.923 124.331C102.573 124.811 102.165 125.079 102.165 125.079" stroke="#0D395C" stroke-width="0.5" stroke-miterlimit="10" stroke-linecap="round"/>
<path fill-rule="evenodd" clip-rule="evenodd" d="M103.506 128.14C103.506 129.194 102.124 130.744 101.304 130.744C100.485 130.744 98.9106 129.442 98.9106 128.389C98.9106 127.335 100.488 126.928 101.304 126.928C102.12 126.928 103.506 127.087 103.506 128.14Z" fill="#FF4E63" stroke="#0D395C" stroke-width="0.25" stroke-miterlimit="10"/>
<path fill-rule="evenodd" clip-rule="evenodd" d="M99.3396 119.737C99.3396 119.737 98.7155 119.177 97.9577 119.241C96.9324 119.327 96.3529 120.234 96.25 120.419C96.1471 120.603 96.634 120.329 96.7815 120.224C98.0503 119.362 99.0619 120.129 99.2127 120.151C99.7408 120.231 99.3362 119.734 99.3362 119.734L99.3396 119.737Z" fill="#0D395C"/>
<path opacity="0.22" fill-rule="evenodd" clip-rule="evenodd" d="M91.2536 158.423C91.2536 158.423 101.421 174.583 113.814 162.778C113.814 162.778 110.56 167.151 107.539 170.331C106.609 171.311 106.307 171.079 105.385 171.216C101.832 171.738 99.3669 169.971 97.8307 168.949C93.8975 166.333 89.0796 160.559 89.0796 160.559L91.2571 158.427L91.2536 158.423Z" fill="#D38888"/>
<path d="M104.569 123.096C105.156 123.096 105.632 122.612 105.632 122.017C105.632 121.421 105.156 120.938 104.569 120.938C103.982 120.938 103.506 121.421 103.506 122.017C103.506 122.612 103.982 123.096 104.569 123.096Z" fill="#0D395C"/>
<path d="M104.898 122.016C105.08 122.016 105.227 121.88 105.227 121.711C105.227 121.542 105.08 121.405 104.898 121.405C104.716 121.405 104.569 121.542 104.569 121.711C104.569 121.88 104.716 122.016 104.898 122.016Z" fill="white"/>
<path fill-rule="evenodd" clip-rule="evenodd" d="M102.796 119.83C102.796 119.83 103.177 119.104 103.91 118.923C104.905 118.678 105.783 119.346 105.947 119.489C106.112 119.632 105.553 119.524 105.375 119.476C103.866 119.066 103.197 120.11 103.063 120.18C102.597 120.422 102.793 119.83 102.793 119.83H102.796Z" fill="#0D395C"/>
<path d="M106.311 147.824L107.535 152.968" stroke="#0D395C" stroke-width="0.5" stroke-miterlimit="10" stroke-linecap="round"/>
<path fill-rule="evenodd" clip-rule="evenodd" d="M160 273.277L159.411 275.2C159.411 275.2 137.193 276.444 131.786 274.592V273.277C131.786 273.277 144.7 276.212 160 273.277Z" fill="#44B5DC"/>
<path d="M131.453 127.332C128.703 128.494 127.661 129.936 127.661 129.936" stroke="#0D395C" stroke-width="0.75" stroke-miterlimit="10" stroke-linecap="round"/>
<path fill-rule="evenodd" clip-rule="evenodd" d="M129.224 130.681C129.224 130.681 131.024 129.054 133.37 128.599Z" fill="#FFF8E9"/>
<path d="M129.224 130.681C129.224 130.681 131.024 129.054 133.37 128.599" stroke="#0D395C" stroke-width="0.75" stroke-miterlimit="10" stroke-linecap="round"/>
<path d="M146.884 270.012L151.788 269.397L150.505 271.651L155.104 270.524" stroke="#44B5DC" stroke-miterlimit="10"/>
<path fill-rule="evenodd" clip-rule="evenodd" d="M130.736 131.776C130.736 131.776 133.236 129.764 135.012 130.302Z" fill="#FFF8E9"/>
<path d="M130.736 131.776C130.736 131.776 133.236 129.764 135.012 130.302" stroke="#0D395C" stroke-width="0.75" stroke-miterlimit="10" stroke-linecap="round"/>
<path d="M132.578 134.026C132.578 134.026 133.174 132.546 135.263 132.345" stroke="#0D395C" stroke-width="0.75" stroke-miterlimit="10" stroke-linecap="round"/>
<path d="M130.006 127.189C130.006 127.189 131.319 126.702 131.576 127.189C131.576 127.189 132.873 127.173 133.373 128.475C133.373 128.475 134.968 128.888 135.119 130.263C135.119 130.263 136.075 131.651 135.976 132.469C135.866 133.373 135.705 134.452 135.016 135.038" stroke="#0D395C" stroke-width="0.75" stroke-miterlimit="10" stroke-linecap="round"/>
<path d="M126.162 129.522C126.162 129.522 124.728 129.831 125.054 132.345C125.38 134.86 125.901 138.17 125.901 138.17L119.814 143.291" stroke="#0D395C" stroke-width="0.75" stroke-miterlimit="10" stroke-linecap="round"/>
<path d="M132.451 135.77C132.451 135.77 134.718 137.307 132.698 139.542C130.678 141.776 124.026 151.211 124.026 151.211L111.143 166.062L107.539 169.92C106.771 170.741 105.639 171.19 104.466 171.145C98.1703 170.907 94.9023 166.638 94.9023 166.638" stroke="#0D395C" stroke-width="0.75" stroke-miterlimit="10" stroke-linecap="round"/>
<path fill-rule="evenodd" clip-rule="evenodd" d="M98.9106 128.191C98.9106 128.191 100.152 127.338 103.365 127.622C103.365 127.622 102.978 126.858 101.122 126.925C99.2673 126.991 98.9141 128.191 98.9141 128.191H98.9106Z" fill="#CFE4F1"/>
<path fill-rule="evenodd" clip-rule="evenodd" d="M103.506 128.14C103.506 129.194 102.124 130.744 101.304 130.744C100.485 130.744 98.9106 129.442 98.9106 128.389C98.9106 127.335 100.488 126.928 101.304 126.928C102.12 126.928 103.506 127.087 103.506 128.14Z" stroke="#0D395C" stroke-width="0.25" stroke-miterlimit="10"/>
<path d="M136.052 131.944C136.052 131.944 137.296 132.403 137.526 132.836C137.526 132.836 138.459 133.915 138.62 134.408C138.781 134.901 138.452 138.966 138.452 138.966C138.452 138.966 137.44 141.646 132.228 143.288C132.228 143.288 131.947 143.199 131.453 144.145C130.959 145.09 123.196 169.28 123.196 169.28" stroke="#0D395C" stroke-width="0.75" stroke-miterlimit="10" stroke-linecap="round"/>
<path fill-rule="evenodd" clip-rule="evenodd" d="M91.466 122.236C91.466 122.236 87.862 120.301 88.3969 123.095C88.9319 125.89 91.466 126.103 91.466 126.103V122.233V122.236Z" fill="#FFF8E9"/>
</g>
<g opacity="0.2">
<path d="M67.4606 17.5091C66.2098 17.5091 65.207 16.5637 65.207 15.4071C65.207 14.2506 66.2206 13.3052 67.4606 13.3052C68.7007 13.3052 69.7143 14.2506 69.7143 15.4071C69.7143 16.5637 68.7007 17.5091 67.4606 17.5091Z" fill="#44B5DC"/>
<path d="M56.656 17.5091C55.4159 17.5091 54.4023 16.5637 54.4023 15.4071C54.4023 14.2506 55.4159 13.3052 56.656 13.3052C57.896 13.3052 58.9096 14.2506 58.9096 15.4071C58.9096 16.5637 57.896 17.5091 56.656 17.5091Z" fill="#44B5DC"/>
<path d="M45.8518 17.5091C44.6117 17.5091 43.5981 16.5637 43.5981 15.4071C43.5981 14.2506 44.6117 13.3052 45.8518 13.3052C47.0918 13.3052 48.1054 14.2506 48.1054 15.4071C48.1054 16.5637 47.0918 17.5091 45.8518 17.5091Z" fill="#44B5DC"/>
<path d="M35.0578 17.5091C33.8178 17.5091 32.8042 16.5637 32.8042 15.4071C32.8042 14.2506 33.8178 13.3052 35.0578 13.3052C36.2978 13.3052 37.3114 14.2506 37.3114 15.4071C37.3114 16.5637 36.2978 17.5091 35.0578 17.5091Z" fill="#44B5DC"/>
<path d="M24.2536 17.5091C23.0136 17.5091 22 16.5637 22 15.4071C22 14.2506 23.0136 13.3052 24.2536 13.3052C25.4936 13.3052 26.5072 14.2506 26.5072 15.4071C26.5072 16.5637 25.4936 17.5091 24.2536 17.5091Z" fill="#44B5DC"/>
<path d="M74.3078 26.4803C73.057 26.4803 72.0542 25.5349 72.0542 24.3783C72.0542 23.2217 73.0678 22.2764 74.3078 22.2764C75.5478 22.2764 76.5614 23.2217 76.5614 24.3783C76.5614 25.5349 75.5478 26.4803 74.3078 26.4803Z" fill="#44B5DC"/>
<path d="M63.5139 26.4803C62.2738 26.4803 61.2603 25.5349 61.2603 24.3783C61.2603 23.2217 62.2738 22.2764 63.5139 22.2764C64.7539 22.2764 65.7675 23.2217 65.7675 24.3783C65.7675 25.5349 64.7539 26.4803 63.5139 26.4803Z" fill="#44B5DC"/>
<path d="M52.7097 26.4803C51.4696 26.4803 50.4561 25.5349 50.4561 24.3783C50.4561 23.2217 51.4696 22.2764 52.7097 22.2764C53.9497 22.2764 54.9633 23.2217 54.9633 24.3783C54.9633 25.5349 53.9497 26.4803 52.7097 26.4803Z" fill="#44B5DC"/>
<path d="M41.905 26.4803C43.1496 26.4803 44.1586 25.5392 44.1586 24.3783C44.1586 23.2174 43.1496 22.2764 41.905 22.2764C40.6603 22.2764 39.6514 23.2174 39.6514 24.3783C39.6514 25.5392 40.6603 26.4803 41.905 26.4803Z" fill="#44B5DC"/>
<path d="M31.1115 26.4803C32.3562 26.4803 33.3651 25.5392 33.3651 24.3783C33.3651 23.2174 32.3562 22.2764 31.1115 22.2764C29.8669 22.2764 28.8579 23.2174 28.8579 24.3783C28.8579 25.5392 29.8669 26.4803 31.1115 26.4803Z" fill="#44B5DC"/>
<path d="M80.508 35.4412C81.7526 35.4412 82.7616 34.5002 82.7616 33.3393C82.7616 32.1784 81.7526 31.2373 80.508 31.2373C79.2634 31.2373 78.2544 32.1784 78.2544 33.3393C78.2544 34.5002 79.2634 35.4412 80.508 35.4412Z" fill="#44B5DC"/>
<path d="M69.7141 35.4412C70.9587 35.4412 71.9677 34.5002 71.9677 33.3393C71.9677 32.1784 70.9587 31.2373 69.7141 31.2373C68.4694 31.2373 67.4604 32.1784 67.4604 33.3393C67.4604 34.5002 68.4694 35.4412 69.7141 35.4412Z" fill="#44B5DC"/>
<path d="M58.9099 35.4412C57.6698 35.4412 56.6562 34.4959 56.6562 33.3393C56.6562 32.1827 57.6698 31.2373 58.9099 31.2373C60.1499 31.2373 61.1635 32.1827 61.1635 33.3393C61.1635 34.4959 60.1499 35.4412 58.9099 35.4412Z" fill="#44B5DC"/>
<path d="M48.1052 35.4412C46.8651 35.4412 45.8516 34.4959 45.8516 33.3393C45.8516 32.1827 46.8651 31.2373 48.1052 31.2373C49.3452 31.2373 50.3588 32.1827 50.3588 33.3393C50.3588 34.4959 49.3452 35.4412 48.1052 35.4412Z" fill="#44B5DC"/>
<path d="M37.3117 35.4412C36.0717 35.4412 35.0581 34.4959 35.0581 33.3393C35.0581 32.1827 36.0717 31.2373 37.3117 31.2373C38.5518 31.2373 39.5653 32.1827 39.5653 33.3393C39.5653 34.4959 38.5518 35.4412 37.3117 35.4412Z" fill="#44B5DC"/>
</g>
<path d="M32.1655 60.2857H2.14617C0.963951 60.2857 0 59.3918 0 58.2955C0 57.1991 0.963951 56.3052 2.14617 56.3052H32.1655C33.3477 56.3052 34.3117 57.1991 34.3117 58.2955C34.3117 59.3918 33.3477 60.2857 32.1655 60.2857Z" fill="#FADB96"/>
<path d="M40.5154 70.9806H23.2368C22.5547 70.9806 22 70.0866 22 68.9903C22 67.8939 22.5547 67 23.2368 67H40.5154C41.1974 67 41.7522 67.8939 41.7522 68.9903C41.7522 70.0866 41.1974 70.9806 40.5154 70.9806Z" fill="#FADB96"/>
<defs>
<clipPath id="clip0_1245_13850">
<rect width="140" height="171.094" fill="white" transform="translate(20 104.517)"/>
</clipPath>
</defs>
</svg>
